M48
; DRILL file {KiCad (5.1.5)-2} date 2020/08/06 13:30:29
; FORMAT={-:-/ absolute / metric / decimal}
; #@! TF.CreationDate,2020-08-06T13:30:29+09:00
; #@! TF.GenerationSoftware,Kicad,Pcbnew,(5.1.5)-2
FMAT,2
METRIC
T1C0.800
T2C0.900
T3C1.000
T4C1.100
T5C1.280
T6C1.300
T7C2.700
%
G90
G05
T1
X107.0Y-126.0
X112.0Y-126.0
X74.0Y-131.5
X74.0Y-136.5
X54.5Y-139.5
X67.2Y-139.5
X74.0Y-141.0
X74.0Y-146.0
X81.0Y-123.5
X86.0Y-123.5
X90.5Y-123.5
X95.5Y-123.5
X107.0Y-129.5
X112.0Y-129.5
X107.0Y-122.5
X112.0Y-122.5
X107.0Y-119.0
X112.0Y-119.0
T2
X63.0Y-128.5
X86.9Y-104.5
X94.9Y-105.0
X112.0Y-114.0
X112.0Y-108.5
X102.0Y-114.8
X63.0Y-133.0
X78.9Y-104.0
T3
X56.5Y-129.5
X56.5Y-132.0
X58.37Y-96.23
X58.37Y-98.77
X60.91Y-96.23
X60.91Y-98.77
X63.45Y-96.23
X63.45Y-98.77
X65.99Y-96.23
X65.99Y-98.77
X68.53Y-96.23
X68.53Y-98.77
X71.07Y-96.23
X71.07Y-98.77
X73.61Y-96.23
X73.61Y-98.77
X76.15Y-96.23
X76.15Y-98.77
X78.69Y-96.23
X78.69Y-98.77
X81.23Y-96.23
X81.23Y-98.77
X83.77Y-96.23
X83.77Y-98.77
X86.31Y-96.23
X86.31Y-98.77
X88.85Y-96.23
X88.85Y-98.77
X91.39Y-96.23
X91.39Y-98.77
X93.93Y-96.23
X93.93Y-98.77
X96.47Y-96.23
X96.47Y-98.77
X99.01Y-96.23
X99.01Y-98.77
X101.55Y-96.23
X101.55Y-98.77
X104.09Y-96.23
X104.09Y-98.77
X106.63Y-96.23
X106.63Y-98.77
T4
X53.0Y-104.0
X53.0Y-108.5
X59.5Y-104.0
X59.5Y-108.5
T5
X84.6Y-108.8
X86.9Y-108.8
X89.2Y-108.8
X76.6Y-108.8
X78.9Y-108.8
X81.2Y-108.8
X92.6Y-108.8
X94.9Y-108.8
X97.2Y-108.8
X76.6Y-114.8
X78.9Y-114.8
X81.2Y-114.8
X92.6Y-114.8
X94.9Y-114.8
X97.2Y-114.8
X84.6Y-114.8
X86.9Y-114.8
X89.2Y-114.8
T6
X81.0Y-143.5
X86.0Y-143.5
X93.0Y-141.0
X93.0Y-146.0
X93.0Y-131.5
X93.0Y-136.5
X81.0Y-134.0
X86.0Y-134.0
T7
X111.5Y-146.5
X53.5Y-97.5
X111.5Y-97.5
X53.5Y-146.5
T3
G00X102.0Y-135.0
M15
G01X104.0Y-135.0
M16
G05
G00X102.0Y-141.0
M15
G01X104.0Y-141.0
M16
G05
G00X107.7Y-139.0
M15
G01X107.7Y-137.0
M16
G05
T0
M30
