G04 #@! TF.GenerationSoftware,KiCad,Pcbnew,(5.1.5)-2*
G04 #@! TF.CreationDate,2020-08-06T13:29:52+09:00*
G04 #@! TF.ProjectId,CAL_V_Simulation_circuit,43414c5f-565f-4536-996d-756c6174696f,rev?*
G04 #@! TF.SameCoordinates,Original*
G04 #@! TF.FileFunction,Soldermask,Bot*
G04 #@! TF.FilePolarity,Negative*
%FSLAX46Y46*%
G04 Gerber Fmt 4.6, Leading zero omitted, Abs format (unit mm)*
G04 Created by KiCad (PCBNEW (5.1.5)-2) date 2020-08-06 13:29:52*
%MOMM*%
%LPD*%
G04 APERTURE LIST*
%ADD10C,0.100000*%
G04 APERTURE END LIST*
D10*
G36*
X111818433Y-145134893D02*
G01*
X111908657Y-145152839D01*
X112014267Y-145196585D01*
X112163621Y-145258449D01*
X112163622Y-145258450D01*
X112393086Y-145411772D01*
X112588228Y-145606914D01*
X112690675Y-145760237D01*
X112741551Y-145836379D01*
X112803415Y-145985733D01*
X112847161Y-146091343D01*
X112901000Y-146362014D01*
X112901000Y-146637986D01*
X112858630Y-146851000D01*
X112847161Y-146908656D01*
X112741551Y-147163621D01*
X112741550Y-147163622D01*
X112588228Y-147393086D01*
X112393086Y-147588228D01*
X112239763Y-147690675D01*
X112163621Y-147741551D01*
X112014267Y-147803415D01*
X111908657Y-147847161D01*
X111818433Y-147865107D01*
X111637988Y-147901000D01*
X111362012Y-147901000D01*
X111181567Y-147865107D01*
X111091343Y-147847161D01*
X110985733Y-147803415D01*
X110836379Y-147741551D01*
X110760237Y-147690675D01*
X110606914Y-147588228D01*
X110411772Y-147393086D01*
X110258450Y-147163622D01*
X110258449Y-147163621D01*
X110152839Y-146908656D01*
X110141371Y-146851000D01*
X110099000Y-146637986D01*
X110099000Y-146362014D01*
X110152839Y-146091343D01*
X110196585Y-145985733D01*
X110258449Y-145836379D01*
X110309325Y-145760237D01*
X110411772Y-145606914D01*
X110606914Y-145411772D01*
X110836378Y-145258450D01*
X110836379Y-145258449D01*
X110985733Y-145196585D01*
X111091343Y-145152839D01*
X111181567Y-145134893D01*
X111362012Y-145099000D01*
X111637988Y-145099000D01*
X111818433Y-145134893D01*
G37*
G36*
X53818433Y-145134893D02*
G01*
X53908657Y-145152839D01*
X54014267Y-145196585D01*
X54163621Y-145258449D01*
X54163622Y-145258450D01*
X54393086Y-145411772D01*
X54588228Y-145606914D01*
X54690675Y-145760237D01*
X54741551Y-145836379D01*
X54803415Y-145985733D01*
X54847161Y-146091343D01*
X54901000Y-146362014D01*
X54901000Y-146637986D01*
X54858630Y-146851000D01*
X54847161Y-146908656D01*
X54741551Y-147163621D01*
X54741550Y-147163622D01*
X54588228Y-147393086D01*
X54393086Y-147588228D01*
X54239763Y-147690675D01*
X54163621Y-147741551D01*
X54014267Y-147803415D01*
X53908657Y-147847161D01*
X53818433Y-147865107D01*
X53637988Y-147901000D01*
X53362012Y-147901000D01*
X53181567Y-147865107D01*
X53091343Y-147847161D01*
X52985733Y-147803415D01*
X52836379Y-147741551D01*
X52760237Y-147690675D01*
X52606914Y-147588228D01*
X52411772Y-147393086D01*
X52258450Y-147163622D01*
X52258449Y-147163621D01*
X52152839Y-146908656D01*
X52141371Y-146851000D01*
X52099000Y-146637986D01*
X52099000Y-146362014D01*
X52152839Y-146091343D01*
X52196585Y-145985733D01*
X52258449Y-145836379D01*
X52309325Y-145760237D01*
X52411772Y-145606914D01*
X52606914Y-145411772D01*
X52836378Y-145258450D01*
X52836379Y-145258449D01*
X52985733Y-145196585D01*
X53091343Y-145152839D01*
X53181567Y-145134893D01*
X53362012Y-145099000D01*
X53637988Y-145099000D01*
X53818433Y-145134893D01*
G37*
G36*
X93394072Y-144700918D02*
G01*
X93639939Y-144802759D01*
X93712136Y-144851000D01*
X93861211Y-144950609D01*
X94049391Y-145138789D01*
X94058779Y-145152839D01*
X94129346Y-145258449D01*
X94197242Y-145360063D01*
X94299082Y-145605928D01*
X94351000Y-145866937D01*
X94351000Y-146133063D01*
X94299082Y-146394072D01*
X94197242Y-146639937D01*
X94056214Y-146851000D01*
X94049390Y-146861212D01*
X93861212Y-147049390D01*
X93639939Y-147197241D01*
X93639938Y-147197242D01*
X93639937Y-147197242D01*
X93394072Y-147299082D01*
X93133063Y-147351000D01*
X92866937Y-147351000D01*
X92605928Y-147299082D01*
X92360063Y-147197242D01*
X92360062Y-147197242D01*
X92360061Y-147197241D01*
X92138788Y-147049390D01*
X91950610Y-146861212D01*
X91943787Y-146851000D01*
X91802758Y-146639937D01*
X91700918Y-146394072D01*
X91649000Y-146133063D01*
X91649000Y-145866937D01*
X91700918Y-145605928D01*
X91802758Y-145360063D01*
X91870655Y-145258449D01*
X91941221Y-145152839D01*
X91950609Y-145138789D01*
X92138789Y-144950609D01*
X92287864Y-144851000D01*
X92360061Y-144802759D01*
X92605928Y-144700918D01*
X92866937Y-144649000D01*
X93133063Y-144649000D01*
X93394072Y-144700918D01*
G37*
G36*
X74851000Y-146851000D02*
G01*
X73149000Y-146851000D01*
X73149000Y-145149000D01*
X74851000Y-145149000D01*
X74851000Y-146851000D01*
G37*
G36*
X86394072Y-142200918D02*
G01*
X86639939Y-142302759D01*
X86861212Y-142450610D01*
X87049390Y-142638788D01*
X87197241Y-142860061D01*
X87299082Y-143105928D01*
X87351000Y-143366938D01*
X87351000Y-143633062D01*
X87299082Y-143894072D01*
X87197241Y-144139939D01*
X87049390Y-144361212D01*
X86861212Y-144549390D01*
X86639939Y-144697241D01*
X86639938Y-144697242D01*
X86639937Y-144697242D01*
X86394072Y-144799082D01*
X86133063Y-144851000D01*
X85866937Y-144851000D01*
X85605928Y-144799082D01*
X85360063Y-144697242D01*
X85360062Y-144697242D01*
X85360061Y-144697241D01*
X85138788Y-144549390D01*
X84950610Y-144361212D01*
X84802759Y-144139939D01*
X84700918Y-143894072D01*
X84649000Y-143633062D01*
X84649000Y-143366938D01*
X84700918Y-143105928D01*
X84802759Y-142860061D01*
X84950610Y-142638788D01*
X85138788Y-142450610D01*
X85360061Y-142302759D01*
X85605928Y-142200918D01*
X85866937Y-142149000D01*
X86133063Y-142149000D01*
X86394072Y-142200918D01*
G37*
G36*
X81394072Y-142200918D02*
G01*
X81639939Y-142302759D01*
X81861212Y-142450610D01*
X82049390Y-142638788D01*
X82197241Y-142860061D01*
X82299082Y-143105928D01*
X82351000Y-143366938D01*
X82351000Y-143633062D01*
X82299082Y-143894072D01*
X82197241Y-144139939D01*
X82049390Y-144361212D01*
X81861212Y-144549390D01*
X81639939Y-144697241D01*
X81639938Y-144697242D01*
X81639937Y-144697242D01*
X81394072Y-144799082D01*
X81133063Y-144851000D01*
X80866937Y-144851000D01*
X80605928Y-144799082D01*
X80360063Y-144697242D01*
X80360062Y-144697242D01*
X80360061Y-144697241D01*
X80138788Y-144549390D01*
X79950610Y-144361212D01*
X79802759Y-144139939D01*
X79700918Y-143894072D01*
X79649000Y-143633062D01*
X79649000Y-143366938D01*
X79700918Y-143105928D01*
X79802759Y-142860061D01*
X79950610Y-142638788D01*
X80138788Y-142450610D01*
X80360061Y-142302759D01*
X80605928Y-142200918D01*
X80866937Y-142149000D01*
X81133063Y-142149000D01*
X81394072Y-142200918D01*
G37*
G36*
X104226979Y-139463293D02*
G01*
X104360625Y-139503834D01*
X104483784Y-139569664D01*
X104591740Y-139658260D01*
X104680336Y-139766216D01*
X104746166Y-139889375D01*
X104786707Y-140023021D01*
X104801000Y-140168140D01*
X104801000Y-141831860D01*
X104786707Y-141976979D01*
X104746166Y-142110625D01*
X104680336Y-142233784D01*
X104591740Y-142341740D01*
X104483784Y-142430336D01*
X104360625Y-142496166D01*
X104226979Y-142536707D01*
X104081860Y-142551000D01*
X101918140Y-142551000D01*
X101773021Y-142536707D01*
X101639375Y-142496166D01*
X101516216Y-142430336D01*
X101408260Y-142341740D01*
X101319664Y-142233784D01*
X101253834Y-142110625D01*
X101213293Y-141976979D01*
X101199000Y-141831860D01*
X101199000Y-140168140D01*
X101213293Y-140023021D01*
X101253834Y-139889375D01*
X101319664Y-139766216D01*
X101408260Y-139658260D01*
X101516216Y-139569664D01*
X101639375Y-139503834D01*
X101773021Y-139463293D01*
X101918140Y-139449000D01*
X104081860Y-139449000D01*
X104226979Y-139463293D01*
G37*
G36*
X93394072Y-139700918D02*
G01*
X93635693Y-139801000D01*
X93639939Y-139802759D01*
X93751328Y-139877187D01*
X93861211Y-139950609D01*
X94049391Y-140138789D01*
X94106661Y-140224500D01*
X94191187Y-140351000D01*
X94197242Y-140360063D01*
X94299082Y-140605928D01*
X94351000Y-140866937D01*
X94351000Y-141133063D01*
X94299082Y-141394072D01*
X94197242Y-141639937D01*
X94049391Y-141861211D01*
X93861211Y-142049391D01*
X93769568Y-142110625D01*
X93639939Y-142197241D01*
X93639938Y-142197242D01*
X93639937Y-142197242D01*
X93394072Y-142299082D01*
X93133063Y-142351000D01*
X92866937Y-142351000D01*
X92605928Y-142299082D01*
X92360063Y-142197242D01*
X92360062Y-142197242D01*
X92360061Y-142197241D01*
X92230432Y-142110625D01*
X92138789Y-142049391D01*
X91950609Y-141861211D01*
X91802758Y-141639937D01*
X91700918Y-141394072D01*
X91649000Y-141133063D01*
X91649000Y-140866937D01*
X91700918Y-140605928D01*
X91802758Y-140360063D01*
X91808814Y-140351000D01*
X91893339Y-140224500D01*
X91950609Y-140138789D01*
X92138789Y-139950609D01*
X92248672Y-139877187D01*
X92360061Y-139802759D01*
X92364308Y-139801000D01*
X92605928Y-139700918D01*
X92866937Y-139649000D01*
X93133063Y-139649000D01*
X93394072Y-139700918D01*
G37*
G36*
X74248228Y-140181703D02*
G01*
X74403100Y-140245853D01*
X74542481Y-140338985D01*
X74661015Y-140457519D01*
X74754147Y-140596900D01*
X74818297Y-140751772D01*
X74851000Y-140916184D01*
X74851000Y-141083816D01*
X74818297Y-141248228D01*
X74754147Y-141403100D01*
X74661015Y-141542481D01*
X74542481Y-141661015D01*
X74403100Y-141754147D01*
X74248228Y-141818297D01*
X74083816Y-141851000D01*
X73916184Y-141851000D01*
X73751772Y-141818297D01*
X73596900Y-141754147D01*
X73457519Y-141661015D01*
X73338985Y-141542481D01*
X73245853Y-141403100D01*
X73181703Y-141248228D01*
X73149000Y-141083816D01*
X73149000Y-140916184D01*
X73181703Y-140751772D01*
X73245853Y-140596900D01*
X73338985Y-140457519D01*
X73457519Y-140338985D01*
X73596900Y-140245853D01*
X73751772Y-140181703D01*
X73916184Y-140149000D01*
X74083816Y-140149000D01*
X74248228Y-140181703D01*
G37*
G36*
X54748228Y-138681703D02*
G01*
X54903100Y-138745853D01*
X55042481Y-138838985D01*
X55161015Y-138957519D01*
X55254147Y-139096900D01*
X55318297Y-139251772D01*
X55351000Y-139416184D01*
X55351000Y-139583816D01*
X55318297Y-139748228D01*
X55254147Y-139903100D01*
X55161015Y-140042481D01*
X55042481Y-140161015D01*
X54903100Y-140254147D01*
X54748228Y-140318297D01*
X54583816Y-140351000D01*
X54416184Y-140351000D01*
X54251772Y-140318297D01*
X54096900Y-140254147D01*
X53957519Y-140161015D01*
X53838985Y-140042481D01*
X53745853Y-139903100D01*
X53681703Y-139748228D01*
X53649000Y-139583816D01*
X53649000Y-139416184D01*
X53681703Y-139251772D01*
X53745853Y-139096900D01*
X53838985Y-138957519D01*
X53957519Y-138838985D01*
X54096900Y-138745853D01*
X54251772Y-138681703D01*
X54416184Y-138649000D01*
X54583816Y-138649000D01*
X54748228Y-138681703D01*
G37*
G36*
X67448228Y-138681703D02*
G01*
X67603100Y-138745853D01*
X67742481Y-138838985D01*
X67861015Y-138957519D01*
X67954147Y-139096900D01*
X68018297Y-139251772D01*
X68051000Y-139416184D01*
X68051000Y-139583816D01*
X68018297Y-139748228D01*
X67954147Y-139903100D01*
X67861015Y-140042481D01*
X67742481Y-140161015D01*
X67603100Y-140254147D01*
X67448228Y-140318297D01*
X67283816Y-140351000D01*
X67116184Y-140351000D01*
X66951772Y-140318297D01*
X66796900Y-140254147D01*
X66657519Y-140161015D01*
X66538985Y-140042481D01*
X66445853Y-139903100D01*
X66381703Y-139748228D01*
X66349000Y-139583816D01*
X66349000Y-139416184D01*
X66381703Y-139251772D01*
X66445853Y-139096900D01*
X66538985Y-138957519D01*
X66657519Y-138838985D01*
X66796900Y-138745853D01*
X66951772Y-138681703D01*
X67116184Y-138649000D01*
X67283816Y-138649000D01*
X67448228Y-138681703D01*
G37*
G36*
X108826366Y-136215695D02*
G01*
X108983460Y-136263349D01*
X109128231Y-136340731D01*
X109255128Y-136444872D01*
X109359269Y-136571769D01*
X109436651Y-136716540D01*
X109484305Y-136873634D01*
X109501000Y-137043140D01*
X109501000Y-138956860D01*
X109484305Y-139126366D01*
X109436651Y-139283460D01*
X109359269Y-139428231D01*
X109255128Y-139555128D01*
X109128231Y-139659269D01*
X108983460Y-139736651D01*
X108826366Y-139784305D01*
X108656860Y-139801000D01*
X106743140Y-139801000D01*
X106573634Y-139784305D01*
X106416540Y-139736651D01*
X106271769Y-139659269D01*
X106144872Y-139555128D01*
X106040731Y-139428231D01*
X105963349Y-139283460D01*
X105915695Y-139126366D01*
X105899000Y-138956860D01*
X105899000Y-137043140D01*
X105915695Y-136873634D01*
X105963349Y-136716540D01*
X106040731Y-136571769D01*
X106144872Y-136444872D01*
X106271769Y-136340731D01*
X106416540Y-136263349D01*
X106573634Y-136215695D01*
X106743140Y-136199000D01*
X108656860Y-136199000D01*
X108826366Y-136215695D01*
G37*
G36*
X93394072Y-135200918D02*
G01*
X93639939Y-135302759D01*
X93712136Y-135351000D01*
X93861211Y-135450609D01*
X94049391Y-135638789D01*
X94197242Y-135860063D01*
X94299082Y-136105928D01*
X94351000Y-136366937D01*
X94351000Y-136633063D01*
X94299082Y-136894072D01*
X94197242Y-137139937D01*
X94056214Y-137351000D01*
X94049390Y-137361212D01*
X93861212Y-137549390D01*
X93639939Y-137697241D01*
X93639938Y-137697242D01*
X93639937Y-137697242D01*
X93394072Y-137799082D01*
X93133063Y-137851000D01*
X92866937Y-137851000D01*
X92605928Y-137799082D01*
X92360063Y-137697242D01*
X92360062Y-137697242D01*
X92360061Y-137697241D01*
X92138788Y-137549390D01*
X91950610Y-137361212D01*
X91943787Y-137351000D01*
X91802758Y-137139937D01*
X91700918Y-136894072D01*
X91649000Y-136633063D01*
X91649000Y-136366937D01*
X91700918Y-136105928D01*
X91802758Y-135860063D01*
X91950609Y-135638789D01*
X92138789Y-135450609D01*
X92287864Y-135351000D01*
X92360061Y-135302759D01*
X92605928Y-135200918D01*
X92866937Y-135149000D01*
X93133063Y-135149000D01*
X93394072Y-135200918D01*
G37*
G36*
X74851000Y-137351000D02*
G01*
X73149000Y-137351000D01*
X73149000Y-135649000D01*
X74851000Y-135649000D01*
X74851000Y-137351000D01*
G37*
G36*
X104801000Y-136801000D02*
G01*
X101199000Y-136801000D01*
X101199000Y-133199000D01*
X104801000Y-133199000D01*
X104801000Y-136801000D01*
G37*
G36*
X81394072Y-132700918D02*
G01*
X81639939Y-132802759D01*
X81861212Y-132950610D01*
X82049390Y-133138788D01*
X82197241Y-133360061D01*
X82299082Y-133605928D01*
X82351000Y-133866938D01*
X82351000Y-134133062D01*
X82299082Y-134394072D01*
X82197241Y-134639939D01*
X82049390Y-134861212D01*
X81861212Y-135049390D01*
X81639939Y-135197241D01*
X81639938Y-135197242D01*
X81639937Y-135197242D01*
X81394072Y-135299082D01*
X81133063Y-135351000D01*
X80866937Y-135351000D01*
X80605928Y-135299082D01*
X80360063Y-135197242D01*
X80360062Y-135197242D01*
X80360061Y-135197241D01*
X80138788Y-135049390D01*
X79950610Y-134861212D01*
X79802759Y-134639939D01*
X79700918Y-134394072D01*
X79649000Y-134133062D01*
X79649000Y-133866938D01*
X79700918Y-133605928D01*
X79802759Y-133360061D01*
X79950610Y-133138788D01*
X80138788Y-132950610D01*
X80360061Y-132802759D01*
X80605928Y-132700918D01*
X80866937Y-132649000D01*
X81133063Y-132649000D01*
X81394072Y-132700918D01*
G37*
G36*
X86394072Y-132700918D02*
G01*
X86639939Y-132802759D01*
X86861212Y-132950610D01*
X87049390Y-133138788D01*
X87197241Y-133360061D01*
X87299082Y-133605928D01*
X87351000Y-133866938D01*
X87351000Y-134133062D01*
X87299082Y-134394072D01*
X87197241Y-134639939D01*
X87049390Y-134861212D01*
X86861212Y-135049390D01*
X86639939Y-135197241D01*
X86639938Y-135197242D01*
X86639937Y-135197242D01*
X86394072Y-135299082D01*
X86133063Y-135351000D01*
X85866937Y-135351000D01*
X85605928Y-135299082D01*
X85360063Y-135197242D01*
X85360062Y-135197242D01*
X85360061Y-135197241D01*
X85138788Y-135049390D01*
X84950610Y-134861212D01*
X84802759Y-134639939D01*
X84700918Y-134394072D01*
X84649000Y-134133062D01*
X84649000Y-133866938D01*
X84700918Y-133605928D01*
X84802759Y-133360061D01*
X84950610Y-133138788D01*
X85138788Y-132950610D01*
X85360061Y-132802759D01*
X85605928Y-132700918D01*
X85866937Y-132649000D01*
X86133063Y-132649000D01*
X86394072Y-132700918D01*
G37*
G36*
X63277395Y-132085546D02*
G01*
X63450466Y-132157234D01*
X63527818Y-132208919D01*
X63606227Y-132261310D01*
X63738690Y-132393773D01*
X63738691Y-132393775D01*
X63842766Y-132549534D01*
X63914454Y-132722605D01*
X63951000Y-132906333D01*
X63951000Y-133093667D01*
X63914454Y-133277395D01*
X63842766Y-133450466D01*
X63842765Y-133450467D01*
X63738690Y-133606227D01*
X63606227Y-133738690D01*
X63527818Y-133791081D01*
X63450466Y-133842766D01*
X63277395Y-133914454D01*
X63093667Y-133951000D01*
X62906333Y-133951000D01*
X62722605Y-133914454D01*
X62549534Y-133842766D01*
X62472182Y-133791081D01*
X62393773Y-133738690D01*
X62261310Y-133606227D01*
X62157235Y-133450467D01*
X62157234Y-133450466D01*
X62085546Y-133277395D01*
X62049000Y-133093667D01*
X62049000Y-132906333D01*
X62085546Y-132722605D01*
X62157234Y-132549534D01*
X62261309Y-132393775D01*
X62261310Y-132393773D01*
X62393773Y-132261310D01*
X62472182Y-132208919D01*
X62549534Y-132157234D01*
X62722605Y-132085546D01*
X62906333Y-132049000D01*
X63093667Y-132049000D01*
X63277395Y-132085546D01*
G37*
G36*
X56760442Y-131105518D02*
G01*
X56826627Y-131112037D01*
X56996466Y-131163557D01*
X57152991Y-131247222D01*
X57188729Y-131276552D01*
X57290186Y-131359814D01*
X57373448Y-131461271D01*
X57402778Y-131497009D01*
X57486443Y-131653534D01*
X57537963Y-131823373D01*
X57555359Y-132000000D01*
X57537963Y-132176627D01*
X57486443Y-132346466D01*
X57402778Y-132502991D01*
X57373448Y-132538729D01*
X57290186Y-132640186D01*
X57189758Y-132722604D01*
X57152991Y-132752778D01*
X56996466Y-132836443D01*
X56826627Y-132887963D01*
X56760443Y-132894481D01*
X56694260Y-132901000D01*
X56305740Y-132901000D01*
X56239557Y-132894481D01*
X56173373Y-132887963D01*
X56003534Y-132836443D01*
X55847009Y-132752778D01*
X55810242Y-132722604D01*
X55709814Y-132640186D01*
X55626552Y-132538729D01*
X55597222Y-132502991D01*
X55513557Y-132346466D01*
X55462037Y-132176627D01*
X55444641Y-132000000D01*
X55462037Y-131823373D01*
X55513557Y-131653534D01*
X55597222Y-131497009D01*
X55626552Y-131461271D01*
X55709814Y-131359814D01*
X55811271Y-131276552D01*
X55847009Y-131247222D01*
X56003534Y-131163557D01*
X56173373Y-131112037D01*
X56239558Y-131105518D01*
X56305740Y-131099000D01*
X56694260Y-131099000D01*
X56760442Y-131105518D01*
G37*
G36*
X93394072Y-130200918D02*
G01*
X93613125Y-130291652D01*
X93639939Y-130302759D01*
X93741631Y-130370708D01*
X93861211Y-130450609D01*
X94049391Y-130638789D01*
X94197242Y-130860063D01*
X94299082Y-131105928D01*
X94351000Y-131366937D01*
X94351000Y-131633063D01*
X94299082Y-131894072D01*
X94295343Y-131903100D01*
X94197241Y-132139939D01*
X94122813Y-132251328D01*
X94049391Y-132361211D01*
X93861211Y-132549391D01*
X93751328Y-132622813D01*
X93639939Y-132697241D01*
X93639938Y-132697242D01*
X93639937Y-132697242D01*
X93394072Y-132799082D01*
X93133063Y-132851000D01*
X92866937Y-132851000D01*
X92605928Y-132799082D01*
X92360063Y-132697242D01*
X92360062Y-132697242D01*
X92360061Y-132697241D01*
X92248672Y-132622813D01*
X92138789Y-132549391D01*
X91950609Y-132361211D01*
X91877187Y-132251328D01*
X91802759Y-132139939D01*
X91704658Y-131903100D01*
X91700918Y-131894072D01*
X91649000Y-131633063D01*
X91649000Y-131366937D01*
X91700918Y-131105928D01*
X91802758Y-130860063D01*
X91950609Y-130638789D01*
X92138789Y-130450609D01*
X92258369Y-130370708D01*
X92360061Y-130302759D01*
X92386876Y-130291652D01*
X92605928Y-130200918D01*
X92866937Y-130149000D01*
X93133063Y-130149000D01*
X93394072Y-130200918D01*
G37*
G36*
X74248228Y-130681703D02*
G01*
X74403100Y-130745853D01*
X74542481Y-130838985D01*
X74661015Y-130957519D01*
X74754147Y-131096900D01*
X74818297Y-131251772D01*
X74851000Y-131416184D01*
X74851000Y-131583816D01*
X74818297Y-131748228D01*
X74754147Y-131903100D01*
X74661015Y-132042481D01*
X74542481Y-132161015D01*
X74403100Y-132254147D01*
X74248228Y-132318297D01*
X74083816Y-132351000D01*
X73916184Y-132351000D01*
X73751772Y-132318297D01*
X73596900Y-132254147D01*
X73457519Y-132161015D01*
X73338985Y-132042481D01*
X73245853Y-131903100D01*
X73181703Y-131748228D01*
X73149000Y-131583816D01*
X73149000Y-131416184D01*
X73181703Y-131251772D01*
X73245853Y-131096900D01*
X73338985Y-130957519D01*
X73457519Y-130838985D01*
X73596900Y-130745853D01*
X73751772Y-130681703D01*
X73916184Y-130649000D01*
X74083816Y-130649000D01*
X74248228Y-130681703D01*
G37*
G36*
X57408600Y-128602989D02*
G01*
X57441652Y-128613015D01*
X57472103Y-128629292D01*
X57498799Y-128651201D01*
X57520708Y-128677897D01*
X57536985Y-128708348D01*
X57547011Y-128741400D01*
X57551000Y-128781903D01*
X57551000Y-130218097D01*
X57547011Y-130258600D01*
X57536985Y-130291652D01*
X57520708Y-130322103D01*
X57498799Y-130348799D01*
X57472103Y-130370708D01*
X57441652Y-130386985D01*
X57408600Y-130397011D01*
X57368097Y-130401000D01*
X55631903Y-130401000D01*
X55591400Y-130397011D01*
X55558348Y-130386985D01*
X55527897Y-130370708D01*
X55501201Y-130348799D01*
X55479292Y-130322103D01*
X55463015Y-130291652D01*
X55452989Y-130258600D01*
X55449000Y-130218097D01*
X55449000Y-128781903D01*
X55452989Y-128741400D01*
X55463015Y-128708348D01*
X55479292Y-128677897D01*
X55501201Y-128651201D01*
X55527897Y-128629292D01*
X55558348Y-128613015D01*
X55591400Y-128602989D01*
X55631903Y-128599000D01*
X57368097Y-128599000D01*
X57408600Y-128602989D01*
G37*
G36*
X107248228Y-128681703D02*
G01*
X107403100Y-128745853D01*
X107542481Y-128838985D01*
X107661015Y-128957519D01*
X107754147Y-129096900D01*
X107818297Y-129251772D01*
X107851000Y-129416184D01*
X107851000Y-129583816D01*
X107818297Y-129748228D01*
X107754147Y-129903100D01*
X107661015Y-130042481D01*
X107542481Y-130161015D01*
X107403100Y-130254147D01*
X107248228Y-130318297D01*
X107083816Y-130351000D01*
X106916184Y-130351000D01*
X106751772Y-130318297D01*
X106596900Y-130254147D01*
X106457519Y-130161015D01*
X106338985Y-130042481D01*
X106245853Y-129903100D01*
X106181703Y-129748228D01*
X106149000Y-129583816D01*
X106149000Y-129416184D01*
X106181703Y-129251772D01*
X106245853Y-129096900D01*
X106338985Y-128957519D01*
X106457519Y-128838985D01*
X106596900Y-128745853D01*
X106751772Y-128681703D01*
X106916184Y-128649000D01*
X107083816Y-128649000D01*
X107248228Y-128681703D01*
G37*
G36*
X112248228Y-128681703D02*
G01*
X112403100Y-128745853D01*
X112542481Y-128838985D01*
X112661015Y-128957519D01*
X112754147Y-129096900D01*
X112818297Y-129251772D01*
X112851000Y-129416184D01*
X112851000Y-129583816D01*
X112818297Y-129748228D01*
X112754147Y-129903100D01*
X112661015Y-130042481D01*
X112542481Y-130161015D01*
X112403100Y-130254147D01*
X112248228Y-130318297D01*
X112083816Y-130351000D01*
X111916184Y-130351000D01*
X111751772Y-130318297D01*
X111596900Y-130254147D01*
X111457519Y-130161015D01*
X111338985Y-130042481D01*
X111245853Y-129903100D01*
X111181703Y-129748228D01*
X111149000Y-129583816D01*
X111149000Y-129416184D01*
X111181703Y-129251772D01*
X111245853Y-129096900D01*
X111338985Y-128957519D01*
X111457519Y-128838985D01*
X111596900Y-128745853D01*
X111751772Y-128681703D01*
X111916184Y-128649000D01*
X112083816Y-128649000D01*
X112248228Y-128681703D01*
G37*
G36*
X63277395Y-127585546D02*
G01*
X63450466Y-127657234D01*
X63450467Y-127657235D01*
X63606227Y-127761310D01*
X63738690Y-127893773D01*
X63738691Y-127893775D01*
X63842766Y-128049534D01*
X63914454Y-128222605D01*
X63951000Y-128406333D01*
X63951000Y-128593667D01*
X63914454Y-128777395D01*
X63842766Y-128950466D01*
X63791081Y-129027818D01*
X63738690Y-129106227D01*
X63606227Y-129238690D01*
X63586648Y-129251772D01*
X63450466Y-129342766D01*
X63277395Y-129414454D01*
X63093667Y-129451000D01*
X62906333Y-129451000D01*
X62722605Y-129414454D01*
X62549534Y-129342766D01*
X62413352Y-129251772D01*
X62393773Y-129238690D01*
X62261310Y-129106227D01*
X62208919Y-129027818D01*
X62157234Y-128950466D01*
X62085546Y-128777395D01*
X62049000Y-128593667D01*
X62049000Y-128406333D01*
X62085546Y-128222605D01*
X62157234Y-128049534D01*
X62261309Y-127893775D01*
X62261310Y-127893773D01*
X62393773Y-127761310D01*
X62549533Y-127657235D01*
X62549534Y-127657234D01*
X62722605Y-127585546D01*
X62906333Y-127549000D01*
X63093667Y-127549000D01*
X63277395Y-127585546D01*
G37*
G36*
X112248228Y-125181703D02*
G01*
X112403100Y-125245853D01*
X112542481Y-125338985D01*
X112661015Y-125457519D01*
X112754147Y-125596900D01*
X112818297Y-125751772D01*
X112851000Y-125916184D01*
X112851000Y-126083816D01*
X112818297Y-126248228D01*
X112754147Y-126403100D01*
X112661015Y-126542481D01*
X112542481Y-126661015D01*
X112403100Y-126754147D01*
X112248228Y-126818297D01*
X112083816Y-126851000D01*
X111916184Y-126851000D01*
X111751772Y-126818297D01*
X111596900Y-126754147D01*
X111457519Y-126661015D01*
X111338985Y-126542481D01*
X111245853Y-126403100D01*
X111181703Y-126248228D01*
X111149000Y-126083816D01*
X111149000Y-125916184D01*
X111181703Y-125751772D01*
X111245853Y-125596900D01*
X111338985Y-125457519D01*
X111457519Y-125338985D01*
X111596900Y-125245853D01*
X111751772Y-125181703D01*
X111916184Y-125149000D01*
X112083816Y-125149000D01*
X112248228Y-125181703D01*
G37*
G36*
X107248228Y-125181703D02*
G01*
X107403100Y-125245853D01*
X107542481Y-125338985D01*
X107661015Y-125457519D01*
X107754147Y-125596900D01*
X107818297Y-125751772D01*
X107851000Y-125916184D01*
X107851000Y-126083816D01*
X107818297Y-126248228D01*
X107754147Y-126403100D01*
X107661015Y-126542481D01*
X107542481Y-126661015D01*
X107403100Y-126754147D01*
X107248228Y-126818297D01*
X107083816Y-126851000D01*
X106916184Y-126851000D01*
X106751772Y-126818297D01*
X106596900Y-126754147D01*
X106457519Y-126661015D01*
X106338985Y-126542481D01*
X106245853Y-126403100D01*
X106181703Y-126248228D01*
X106149000Y-126083816D01*
X106149000Y-125916184D01*
X106181703Y-125751772D01*
X106245853Y-125596900D01*
X106338985Y-125457519D01*
X106457519Y-125338985D01*
X106596900Y-125245853D01*
X106751772Y-125181703D01*
X106916184Y-125149000D01*
X107083816Y-125149000D01*
X107248228Y-125181703D01*
G37*
G36*
X91351000Y-124351000D02*
G01*
X89649000Y-124351000D01*
X89649000Y-122649000D01*
X91351000Y-122649000D01*
X91351000Y-124351000D01*
G37*
G36*
X86851000Y-124351000D02*
G01*
X85149000Y-124351000D01*
X85149000Y-122649000D01*
X86851000Y-122649000D01*
X86851000Y-124351000D01*
G37*
G36*
X95748228Y-122681703D02*
G01*
X95903100Y-122745853D01*
X96042481Y-122838985D01*
X96161015Y-122957519D01*
X96254147Y-123096900D01*
X96318297Y-123251772D01*
X96351000Y-123416184D01*
X96351000Y-123583816D01*
X96318297Y-123748228D01*
X96254147Y-123903100D01*
X96161015Y-124042481D01*
X96042481Y-124161015D01*
X95903100Y-124254147D01*
X95748228Y-124318297D01*
X95583816Y-124351000D01*
X95416184Y-124351000D01*
X95251772Y-124318297D01*
X95096900Y-124254147D01*
X94957519Y-124161015D01*
X94838985Y-124042481D01*
X94745853Y-123903100D01*
X94681703Y-123748228D01*
X94649000Y-123583816D01*
X94649000Y-123416184D01*
X94681703Y-123251772D01*
X94745853Y-123096900D01*
X94838985Y-122957519D01*
X94957519Y-122838985D01*
X95096900Y-122745853D01*
X95251772Y-122681703D01*
X95416184Y-122649000D01*
X95583816Y-122649000D01*
X95748228Y-122681703D01*
G37*
G36*
X81248228Y-122681703D02*
G01*
X81403100Y-122745853D01*
X81542481Y-122838985D01*
X81661015Y-122957519D01*
X81754147Y-123096900D01*
X81818297Y-123251772D01*
X81851000Y-123416184D01*
X81851000Y-123583816D01*
X81818297Y-123748228D01*
X81754147Y-123903100D01*
X81661015Y-124042481D01*
X81542481Y-124161015D01*
X81403100Y-124254147D01*
X81248228Y-124318297D01*
X81083816Y-124351000D01*
X80916184Y-124351000D01*
X80751772Y-124318297D01*
X80596900Y-124254147D01*
X80457519Y-124161015D01*
X80338985Y-124042481D01*
X80245853Y-123903100D01*
X80181703Y-123748228D01*
X80149000Y-123583816D01*
X80149000Y-123416184D01*
X80181703Y-123251772D01*
X80245853Y-123096900D01*
X80338985Y-122957519D01*
X80457519Y-122838985D01*
X80596900Y-122745853D01*
X80751772Y-122681703D01*
X80916184Y-122649000D01*
X81083816Y-122649000D01*
X81248228Y-122681703D01*
G37*
G36*
X107248228Y-121681703D02*
G01*
X107403100Y-121745853D01*
X107542481Y-121838985D01*
X107661015Y-121957519D01*
X107754147Y-122096900D01*
X107818297Y-122251772D01*
X107851000Y-122416184D01*
X107851000Y-122583816D01*
X107818297Y-122748228D01*
X107754147Y-122903100D01*
X107661015Y-123042481D01*
X107542481Y-123161015D01*
X107403100Y-123254147D01*
X107248228Y-123318297D01*
X107083816Y-123351000D01*
X106916184Y-123351000D01*
X106751772Y-123318297D01*
X106596900Y-123254147D01*
X106457519Y-123161015D01*
X106338985Y-123042481D01*
X106245853Y-122903100D01*
X106181703Y-122748228D01*
X106149000Y-122583816D01*
X106149000Y-122416184D01*
X106181703Y-122251772D01*
X106245853Y-122096900D01*
X106338985Y-121957519D01*
X106457519Y-121838985D01*
X106596900Y-121745853D01*
X106751772Y-121681703D01*
X106916184Y-121649000D01*
X107083816Y-121649000D01*
X107248228Y-121681703D01*
G37*
G36*
X112248228Y-121681703D02*
G01*
X112403100Y-121745853D01*
X112542481Y-121838985D01*
X112661015Y-121957519D01*
X112754147Y-122096900D01*
X112818297Y-122251772D01*
X112851000Y-122416184D01*
X112851000Y-122583816D01*
X112818297Y-122748228D01*
X112754147Y-122903100D01*
X112661015Y-123042481D01*
X112542481Y-123161015D01*
X112403100Y-123254147D01*
X112248228Y-123318297D01*
X112083816Y-123351000D01*
X111916184Y-123351000D01*
X111751772Y-123318297D01*
X111596900Y-123254147D01*
X111457519Y-123161015D01*
X111338985Y-123042481D01*
X111245853Y-122903100D01*
X111181703Y-122748228D01*
X111149000Y-122583816D01*
X111149000Y-122416184D01*
X111181703Y-122251772D01*
X111245853Y-122096900D01*
X111338985Y-121957519D01*
X111457519Y-121838985D01*
X111596900Y-121745853D01*
X111751772Y-121681703D01*
X111916184Y-121649000D01*
X112083816Y-121649000D01*
X112248228Y-121681703D01*
G37*
G36*
X107248228Y-118181703D02*
G01*
X107403100Y-118245853D01*
X107542481Y-118338985D01*
X107661015Y-118457519D01*
X107754147Y-118596900D01*
X107818297Y-118751772D01*
X107851000Y-118916184D01*
X107851000Y-119083816D01*
X107818297Y-119248228D01*
X107754147Y-119403100D01*
X107661015Y-119542481D01*
X107542481Y-119661015D01*
X107403100Y-119754147D01*
X107248228Y-119818297D01*
X107083816Y-119851000D01*
X106916184Y-119851000D01*
X106751772Y-119818297D01*
X106596900Y-119754147D01*
X106457519Y-119661015D01*
X106338985Y-119542481D01*
X106245853Y-119403100D01*
X106181703Y-119248228D01*
X106149000Y-119083816D01*
X106149000Y-118916184D01*
X106181703Y-118751772D01*
X106245853Y-118596900D01*
X106338985Y-118457519D01*
X106457519Y-118338985D01*
X106596900Y-118245853D01*
X106751772Y-118181703D01*
X106916184Y-118149000D01*
X107083816Y-118149000D01*
X107248228Y-118181703D01*
G37*
G36*
X112248228Y-118181703D02*
G01*
X112403100Y-118245853D01*
X112542481Y-118338985D01*
X112661015Y-118457519D01*
X112754147Y-118596900D01*
X112818297Y-118751772D01*
X112851000Y-118916184D01*
X112851000Y-119083816D01*
X112818297Y-119248228D01*
X112754147Y-119403100D01*
X112661015Y-119542481D01*
X112542481Y-119661015D01*
X112403100Y-119754147D01*
X112248228Y-119818297D01*
X112083816Y-119851000D01*
X111916184Y-119851000D01*
X111751772Y-119818297D01*
X111596900Y-119754147D01*
X111457519Y-119661015D01*
X111338985Y-119542481D01*
X111245853Y-119403100D01*
X111181703Y-119248228D01*
X111149000Y-119083816D01*
X111149000Y-118916184D01*
X111181703Y-118751772D01*
X111245853Y-118596900D01*
X111338985Y-118457519D01*
X111457519Y-118338985D01*
X111596900Y-118245853D01*
X111751772Y-118181703D01*
X111916184Y-118149000D01*
X112083816Y-118149000D01*
X112248228Y-118181703D01*
G37*
G36*
X82211000Y-115811000D02*
G01*
X80189000Y-115811000D01*
X80189000Y-113789000D01*
X82211000Y-113789000D01*
X82211000Y-115811000D01*
G37*
G36*
X95194898Y-113827851D02*
G01*
X95378886Y-113904062D01*
X95378888Y-113904063D01*
X95544475Y-114014705D01*
X95685295Y-114155525D01*
X95795937Y-114321112D01*
X95795938Y-114321114D01*
X95872149Y-114505102D01*
X95911000Y-114700424D01*
X95911000Y-114899576D01*
X95872149Y-115094898D01*
X95795938Y-115278886D01*
X95795937Y-115278888D01*
X95685295Y-115444475D01*
X95544475Y-115585295D01*
X95378888Y-115695937D01*
X95378887Y-115695938D01*
X95378886Y-115695938D01*
X95194898Y-115772149D01*
X94999576Y-115811000D01*
X94800424Y-115811000D01*
X94605102Y-115772149D01*
X94421114Y-115695938D01*
X94421113Y-115695938D01*
X94421112Y-115695937D01*
X94255525Y-115585295D01*
X94114705Y-115444475D01*
X94004063Y-115278888D01*
X94004062Y-115278886D01*
X93927851Y-115094898D01*
X93889000Y-114899576D01*
X93889000Y-114700424D01*
X93927851Y-114505102D01*
X94004062Y-114321114D01*
X94004063Y-114321112D01*
X94114705Y-114155525D01*
X94255525Y-114014705D01*
X94421112Y-113904063D01*
X94421114Y-113904062D01*
X94605102Y-113827851D01*
X94800424Y-113789000D01*
X94999576Y-113789000D01*
X95194898Y-113827851D01*
G37*
G36*
X90211000Y-115811000D02*
G01*
X88189000Y-115811000D01*
X88189000Y-113789000D01*
X90211000Y-113789000D01*
X90211000Y-115811000D01*
G37*
G36*
X98211000Y-115811000D02*
G01*
X96189000Y-115811000D01*
X96189000Y-113789000D01*
X98211000Y-113789000D01*
X98211000Y-115811000D01*
G37*
G36*
X92894898Y-113827851D02*
G01*
X93078886Y-113904062D01*
X93078888Y-113904063D01*
X93244475Y-114014705D01*
X93385295Y-114155525D01*
X93495937Y-114321112D01*
X93495938Y-114321114D01*
X93572149Y-114505102D01*
X93611000Y-114700424D01*
X93611000Y-114899576D01*
X93572149Y-115094898D01*
X93495938Y-115278886D01*
X93495937Y-115278888D01*
X93385295Y-115444475D01*
X93244475Y-115585295D01*
X93078888Y-115695937D01*
X93078887Y-115695938D01*
X93078886Y-115695938D01*
X92894898Y-115772149D01*
X92699576Y-115811000D01*
X92500424Y-115811000D01*
X92305102Y-115772149D01*
X92121114Y-115695938D01*
X92121113Y-115695938D01*
X92121112Y-115695937D01*
X91955525Y-115585295D01*
X91814705Y-115444475D01*
X91704063Y-115278888D01*
X91704062Y-115278886D01*
X91627851Y-115094898D01*
X91589000Y-114899576D01*
X91589000Y-114700424D01*
X91627851Y-114505102D01*
X91704062Y-114321114D01*
X91704063Y-114321112D01*
X91814705Y-114155525D01*
X91955525Y-114014705D01*
X92121112Y-113904063D01*
X92121114Y-113904062D01*
X92305102Y-113827851D01*
X92500424Y-113789000D01*
X92699576Y-113789000D01*
X92894898Y-113827851D01*
G37*
G36*
X79194898Y-113827851D02*
G01*
X79378886Y-113904062D01*
X79378888Y-113904063D01*
X79544475Y-114014705D01*
X79685295Y-114155525D01*
X79795937Y-114321112D01*
X79795938Y-114321114D01*
X79872149Y-114505102D01*
X79911000Y-114700424D01*
X79911000Y-114899576D01*
X79872149Y-115094898D01*
X79795938Y-115278886D01*
X79795937Y-115278888D01*
X79685295Y-115444475D01*
X79544475Y-115585295D01*
X79378888Y-115695937D01*
X79378887Y-115695938D01*
X79378886Y-115695938D01*
X79194898Y-115772149D01*
X78999576Y-115811000D01*
X78800424Y-115811000D01*
X78605102Y-115772149D01*
X78421114Y-115695938D01*
X78421113Y-115695938D01*
X78421112Y-115695937D01*
X78255525Y-115585295D01*
X78114705Y-115444475D01*
X78004063Y-115278888D01*
X78004062Y-115278886D01*
X77927851Y-115094898D01*
X77889000Y-114899576D01*
X77889000Y-114700424D01*
X77927851Y-114505102D01*
X78004062Y-114321114D01*
X78004063Y-114321112D01*
X78114705Y-114155525D01*
X78255525Y-114014705D01*
X78421112Y-113904063D01*
X78421114Y-113904062D01*
X78605102Y-113827851D01*
X78800424Y-113789000D01*
X78999576Y-113789000D01*
X79194898Y-113827851D01*
G37*
G36*
X84894898Y-113827851D02*
G01*
X85078886Y-113904062D01*
X85078888Y-113904063D01*
X85244475Y-114014705D01*
X85385295Y-114155525D01*
X85495937Y-114321112D01*
X85495938Y-114321114D01*
X85572149Y-114505102D01*
X85611000Y-114700424D01*
X85611000Y-114899576D01*
X85572149Y-115094898D01*
X85495938Y-115278886D01*
X85495937Y-115278888D01*
X85385295Y-115444475D01*
X85244475Y-115585295D01*
X85078888Y-115695937D01*
X85078887Y-115695938D01*
X85078886Y-115695938D01*
X84894898Y-115772149D01*
X84699576Y-115811000D01*
X84500424Y-115811000D01*
X84305102Y-115772149D01*
X84121114Y-115695938D01*
X84121113Y-115695938D01*
X84121112Y-115695937D01*
X83955525Y-115585295D01*
X83814705Y-115444475D01*
X83704063Y-115278888D01*
X83704062Y-115278886D01*
X83627851Y-115094898D01*
X83589000Y-114899576D01*
X83589000Y-114700424D01*
X83627851Y-114505102D01*
X83704062Y-114321114D01*
X83704063Y-114321112D01*
X83814705Y-114155525D01*
X83955525Y-114014705D01*
X84121112Y-113904063D01*
X84121114Y-113904062D01*
X84305102Y-113827851D01*
X84500424Y-113789000D01*
X84699576Y-113789000D01*
X84894898Y-113827851D01*
G37*
G36*
X87194898Y-113827851D02*
G01*
X87378886Y-113904062D01*
X87378888Y-113904063D01*
X87544475Y-114014705D01*
X87685295Y-114155525D01*
X87795937Y-114321112D01*
X87795938Y-114321114D01*
X87872149Y-114505102D01*
X87911000Y-114700424D01*
X87911000Y-114899576D01*
X87872149Y-115094898D01*
X87795938Y-115278886D01*
X87795937Y-115278888D01*
X87685295Y-115444475D01*
X87544475Y-115585295D01*
X87378888Y-115695937D01*
X87378887Y-115695938D01*
X87378886Y-115695938D01*
X87194898Y-115772149D01*
X86999576Y-115811000D01*
X86800424Y-115811000D01*
X86605102Y-115772149D01*
X86421114Y-115695938D01*
X86421113Y-115695938D01*
X86421112Y-115695937D01*
X86255525Y-115585295D01*
X86114705Y-115444475D01*
X86004063Y-115278888D01*
X86004062Y-115278886D01*
X85927851Y-115094898D01*
X85889000Y-114899576D01*
X85889000Y-114700424D01*
X85927851Y-114505102D01*
X86004062Y-114321114D01*
X86004063Y-114321112D01*
X86114705Y-114155525D01*
X86255525Y-114014705D01*
X86421112Y-113904063D01*
X86421114Y-113904062D01*
X86605102Y-113827851D01*
X86800424Y-113789000D01*
X86999576Y-113789000D01*
X87194898Y-113827851D01*
G37*
G36*
X76894898Y-113827851D02*
G01*
X77078886Y-113904062D01*
X77078888Y-113904063D01*
X77244475Y-114014705D01*
X77385295Y-114155525D01*
X77495937Y-114321112D01*
X77495938Y-114321114D01*
X77572149Y-114505102D01*
X77611000Y-114700424D01*
X77611000Y-114899576D01*
X77572149Y-115094898D01*
X77495938Y-115278886D01*
X77495937Y-115278888D01*
X77385295Y-115444475D01*
X77244475Y-115585295D01*
X77078888Y-115695937D01*
X77078887Y-115695938D01*
X77078886Y-115695938D01*
X76894898Y-115772149D01*
X76699576Y-115811000D01*
X76500424Y-115811000D01*
X76305102Y-115772149D01*
X76121114Y-115695938D01*
X76121113Y-115695938D01*
X76121112Y-115695937D01*
X75955525Y-115585295D01*
X75814705Y-115444475D01*
X75704063Y-115278888D01*
X75704062Y-115278886D01*
X75627851Y-115094898D01*
X75589000Y-114899576D01*
X75589000Y-114700424D01*
X75627851Y-114505102D01*
X75704062Y-114321114D01*
X75704063Y-114321112D01*
X75814705Y-114155525D01*
X75955525Y-114014705D01*
X76121112Y-113904063D01*
X76121114Y-113904062D01*
X76305102Y-113827851D01*
X76500424Y-113789000D01*
X76699576Y-113789000D01*
X76894898Y-113827851D01*
G37*
G36*
X102277395Y-113885546D02*
G01*
X102450466Y-113957234D01*
X102450467Y-113957235D01*
X102606227Y-114061310D01*
X102738690Y-114193773D01*
X102738691Y-114193775D01*
X102842766Y-114349534D01*
X102914454Y-114522605D01*
X102951000Y-114706333D01*
X102951000Y-114893667D01*
X102914454Y-115077395D01*
X102842766Y-115250466D01*
X102842765Y-115250467D01*
X102738690Y-115406227D01*
X102606227Y-115538690D01*
X102536477Y-115585295D01*
X102450466Y-115642766D01*
X102277395Y-115714454D01*
X102093667Y-115751000D01*
X101906333Y-115751000D01*
X101722605Y-115714454D01*
X101549534Y-115642766D01*
X101463523Y-115585295D01*
X101393773Y-115538690D01*
X101261310Y-115406227D01*
X101157235Y-115250467D01*
X101157234Y-115250466D01*
X101085546Y-115077395D01*
X101049000Y-114893667D01*
X101049000Y-114706333D01*
X101085546Y-114522605D01*
X101157234Y-114349534D01*
X101261309Y-114193775D01*
X101261310Y-114193773D01*
X101393773Y-114061310D01*
X101549533Y-113957235D01*
X101549534Y-113957234D01*
X101722605Y-113885546D01*
X101906333Y-113849000D01*
X102093667Y-113849000D01*
X102277395Y-113885546D01*
G37*
G36*
X112277395Y-113085546D02*
G01*
X112450466Y-113157234D01*
X112450467Y-113157235D01*
X112606227Y-113261310D01*
X112738690Y-113393773D01*
X112738691Y-113393775D01*
X112842766Y-113549534D01*
X112914454Y-113722605D01*
X112951000Y-113906333D01*
X112951000Y-114093667D01*
X112914454Y-114277395D01*
X112842766Y-114450466D01*
X112842765Y-114450467D01*
X112738690Y-114606227D01*
X112606227Y-114738690D01*
X112527818Y-114791081D01*
X112450466Y-114842766D01*
X112277395Y-114914454D01*
X112093667Y-114951000D01*
X111906333Y-114951000D01*
X111722605Y-114914454D01*
X111549534Y-114842766D01*
X111472182Y-114791081D01*
X111393773Y-114738690D01*
X111261310Y-114606227D01*
X111157235Y-114450467D01*
X111157234Y-114450466D01*
X111085546Y-114277395D01*
X111049000Y-114093667D01*
X111049000Y-113906333D01*
X111085546Y-113722605D01*
X111157234Y-113549534D01*
X111261309Y-113393775D01*
X111261310Y-113393773D01*
X111393773Y-113261310D01*
X111549533Y-113157235D01*
X111549534Y-113157234D01*
X111722605Y-113085546D01*
X111906333Y-113049000D01*
X112093667Y-113049000D01*
X112277395Y-113085546D01*
G37*
G36*
X92894898Y-107827851D02*
G01*
X93054046Y-107893773D01*
X93078888Y-107904063D01*
X93244475Y-108014705D01*
X93385295Y-108155525D01*
X93495937Y-108321112D01*
X93495938Y-108321114D01*
X93572149Y-108505102D01*
X93611000Y-108700424D01*
X93611000Y-108899576D01*
X93572149Y-109094898D01*
X93512588Y-109238690D01*
X93495937Y-109278888D01*
X93385295Y-109444475D01*
X93244475Y-109585295D01*
X93078888Y-109695937D01*
X93078887Y-109695938D01*
X93078886Y-109695938D01*
X92894898Y-109772149D01*
X92699576Y-109811000D01*
X92500424Y-109811000D01*
X92305102Y-109772149D01*
X92121114Y-109695938D01*
X92121113Y-109695938D01*
X92121112Y-109695937D01*
X91955525Y-109585295D01*
X91814705Y-109444475D01*
X91704063Y-109278888D01*
X91687412Y-109238690D01*
X91627851Y-109094898D01*
X91589000Y-108899576D01*
X91589000Y-108700424D01*
X91627851Y-108505102D01*
X91704062Y-108321114D01*
X91704063Y-108321112D01*
X91814705Y-108155525D01*
X91955525Y-108014705D01*
X92121112Y-107904063D01*
X92145954Y-107893773D01*
X92305102Y-107827851D01*
X92500424Y-107789000D01*
X92699576Y-107789000D01*
X92894898Y-107827851D01*
G37*
G36*
X95194898Y-107827851D02*
G01*
X95354046Y-107893773D01*
X95378888Y-107904063D01*
X95544475Y-108014705D01*
X95685295Y-108155525D01*
X95795937Y-108321112D01*
X95795938Y-108321114D01*
X95872149Y-108505102D01*
X95911000Y-108700424D01*
X95911000Y-108899576D01*
X95872149Y-109094898D01*
X95812588Y-109238690D01*
X95795937Y-109278888D01*
X95685295Y-109444475D01*
X95544475Y-109585295D01*
X95378888Y-109695937D01*
X95378887Y-109695938D01*
X95378886Y-109695938D01*
X95194898Y-109772149D01*
X94999576Y-109811000D01*
X94800424Y-109811000D01*
X94605102Y-109772149D01*
X94421114Y-109695938D01*
X94421113Y-109695938D01*
X94421112Y-109695937D01*
X94255525Y-109585295D01*
X94114705Y-109444475D01*
X94004063Y-109278888D01*
X93987412Y-109238690D01*
X93927851Y-109094898D01*
X93889000Y-108899576D01*
X93889000Y-108700424D01*
X93927851Y-108505102D01*
X94004062Y-108321114D01*
X94004063Y-108321112D01*
X94114705Y-108155525D01*
X94255525Y-108014705D01*
X94421112Y-107904063D01*
X94445954Y-107893773D01*
X94605102Y-107827851D01*
X94800424Y-107789000D01*
X94999576Y-107789000D01*
X95194898Y-107827851D01*
G37*
G36*
X90211000Y-109811000D02*
G01*
X88189000Y-109811000D01*
X88189000Y-107789000D01*
X90211000Y-107789000D01*
X90211000Y-109811000D01*
G37*
G36*
X87194898Y-107827851D02*
G01*
X87354046Y-107893773D01*
X87378888Y-107904063D01*
X87544475Y-108014705D01*
X87685295Y-108155525D01*
X87795937Y-108321112D01*
X87795938Y-108321114D01*
X87872149Y-108505102D01*
X87911000Y-108700424D01*
X87911000Y-108899576D01*
X87872149Y-109094898D01*
X87812588Y-109238690D01*
X87795937Y-109278888D01*
X87685295Y-109444475D01*
X87544475Y-109585295D01*
X87378888Y-109695937D01*
X87378887Y-109695938D01*
X87378886Y-109695938D01*
X87194898Y-109772149D01*
X86999576Y-109811000D01*
X86800424Y-109811000D01*
X86605102Y-109772149D01*
X86421114Y-109695938D01*
X86421113Y-109695938D01*
X86421112Y-109695937D01*
X86255525Y-109585295D01*
X86114705Y-109444475D01*
X86004063Y-109278888D01*
X85987412Y-109238690D01*
X85927851Y-109094898D01*
X85889000Y-108899576D01*
X85889000Y-108700424D01*
X85927851Y-108505102D01*
X86004062Y-108321114D01*
X86004063Y-108321112D01*
X86114705Y-108155525D01*
X86255525Y-108014705D01*
X86421112Y-107904063D01*
X86445954Y-107893773D01*
X86605102Y-107827851D01*
X86800424Y-107789000D01*
X86999576Y-107789000D01*
X87194898Y-107827851D01*
G37*
G36*
X79194898Y-107827851D02*
G01*
X79354046Y-107893773D01*
X79378888Y-107904063D01*
X79544475Y-108014705D01*
X79685295Y-108155525D01*
X79795937Y-108321112D01*
X79795938Y-108321114D01*
X79872149Y-108505102D01*
X79911000Y-108700424D01*
X79911000Y-108899576D01*
X79872149Y-109094898D01*
X79812588Y-109238690D01*
X79795937Y-109278888D01*
X79685295Y-109444475D01*
X79544475Y-109585295D01*
X79378888Y-109695937D01*
X79378887Y-109695938D01*
X79378886Y-109695938D01*
X79194898Y-109772149D01*
X78999576Y-109811000D01*
X78800424Y-109811000D01*
X78605102Y-109772149D01*
X78421114Y-109695938D01*
X78421113Y-109695938D01*
X78421112Y-109695937D01*
X78255525Y-109585295D01*
X78114705Y-109444475D01*
X78004063Y-109278888D01*
X77987412Y-109238690D01*
X77927851Y-109094898D01*
X77889000Y-108899576D01*
X77889000Y-108700424D01*
X77927851Y-108505102D01*
X78004062Y-108321114D01*
X78004063Y-108321112D01*
X78114705Y-108155525D01*
X78255525Y-108014705D01*
X78421112Y-107904063D01*
X78445954Y-107893773D01*
X78605102Y-107827851D01*
X78800424Y-107789000D01*
X78999576Y-107789000D01*
X79194898Y-107827851D01*
G37*
G36*
X76894898Y-107827851D02*
G01*
X77054046Y-107893773D01*
X77078888Y-107904063D01*
X77244475Y-108014705D01*
X77385295Y-108155525D01*
X77495937Y-108321112D01*
X77495938Y-108321114D01*
X77572149Y-108505102D01*
X77611000Y-108700424D01*
X77611000Y-108899576D01*
X77572149Y-109094898D01*
X77512588Y-109238690D01*
X77495937Y-109278888D01*
X77385295Y-109444475D01*
X77244475Y-109585295D01*
X77078888Y-109695937D01*
X77078887Y-109695938D01*
X77078886Y-109695938D01*
X76894898Y-109772149D01*
X76699576Y-109811000D01*
X76500424Y-109811000D01*
X76305102Y-109772149D01*
X76121114Y-109695938D01*
X76121113Y-109695938D01*
X76121112Y-109695937D01*
X75955525Y-109585295D01*
X75814705Y-109444475D01*
X75704063Y-109278888D01*
X75687412Y-109238690D01*
X75627851Y-109094898D01*
X75589000Y-108899576D01*
X75589000Y-108700424D01*
X75627851Y-108505102D01*
X75704062Y-108321114D01*
X75704063Y-108321112D01*
X75814705Y-108155525D01*
X75955525Y-108014705D01*
X76121112Y-107904063D01*
X76145954Y-107893773D01*
X76305102Y-107827851D01*
X76500424Y-107789000D01*
X76699576Y-107789000D01*
X76894898Y-107827851D01*
G37*
G36*
X84894898Y-107827851D02*
G01*
X85054046Y-107893773D01*
X85078888Y-107904063D01*
X85244475Y-108014705D01*
X85385295Y-108155525D01*
X85495937Y-108321112D01*
X85495938Y-108321114D01*
X85572149Y-108505102D01*
X85611000Y-108700424D01*
X85611000Y-108899576D01*
X85572149Y-109094898D01*
X85512588Y-109238690D01*
X85495937Y-109278888D01*
X85385295Y-109444475D01*
X85244475Y-109585295D01*
X85078888Y-109695937D01*
X85078887Y-109695938D01*
X85078886Y-109695938D01*
X84894898Y-109772149D01*
X84699576Y-109811000D01*
X84500424Y-109811000D01*
X84305102Y-109772149D01*
X84121114Y-109695938D01*
X84121113Y-109695938D01*
X84121112Y-109695937D01*
X83955525Y-109585295D01*
X83814705Y-109444475D01*
X83704063Y-109278888D01*
X83687412Y-109238690D01*
X83627851Y-109094898D01*
X83589000Y-108899576D01*
X83589000Y-108700424D01*
X83627851Y-108505102D01*
X83704062Y-108321114D01*
X83704063Y-108321112D01*
X83814705Y-108155525D01*
X83955525Y-108014705D01*
X84121112Y-107904063D01*
X84145954Y-107893773D01*
X84305102Y-107827851D01*
X84500424Y-107789000D01*
X84699576Y-107789000D01*
X84894898Y-107827851D01*
G37*
G36*
X98211000Y-109811000D02*
G01*
X96189000Y-109811000D01*
X96189000Y-107789000D01*
X98211000Y-107789000D01*
X98211000Y-109811000D01*
G37*
G36*
X82211000Y-109811000D02*
G01*
X80189000Y-109811000D01*
X80189000Y-107789000D01*
X82211000Y-107789000D01*
X82211000Y-109811000D01*
G37*
G36*
X53306564Y-107489389D02*
G01*
X53497833Y-107568615D01*
X53497835Y-107568616D01*
X53669973Y-107683635D01*
X53816365Y-107830027D01*
X53865834Y-107904062D01*
X53931385Y-108002167D01*
X54010611Y-108193436D01*
X54051000Y-108396484D01*
X54051000Y-108603516D01*
X54010611Y-108806564D01*
X53931385Y-108997833D01*
X53931384Y-108997835D01*
X53816365Y-109169973D01*
X53669973Y-109316365D01*
X53497835Y-109431384D01*
X53497834Y-109431385D01*
X53497833Y-109431385D01*
X53306564Y-109510611D01*
X53103516Y-109551000D01*
X52896484Y-109551000D01*
X52693436Y-109510611D01*
X52502167Y-109431385D01*
X52502166Y-109431385D01*
X52502165Y-109431384D01*
X52330027Y-109316365D01*
X52183635Y-109169973D01*
X52068616Y-108997835D01*
X52068615Y-108997833D01*
X51989389Y-108806564D01*
X51949000Y-108603516D01*
X51949000Y-108396484D01*
X51989389Y-108193436D01*
X52068615Y-108002167D01*
X52134167Y-107904062D01*
X52183635Y-107830027D01*
X52330027Y-107683635D01*
X52502165Y-107568616D01*
X52502167Y-107568615D01*
X52693436Y-107489389D01*
X52896484Y-107449000D01*
X53103516Y-107449000D01*
X53306564Y-107489389D01*
G37*
G36*
X59806564Y-107489389D02*
G01*
X59997833Y-107568615D01*
X59997835Y-107568616D01*
X60169973Y-107683635D01*
X60316365Y-107830027D01*
X60365834Y-107904062D01*
X60431385Y-108002167D01*
X60510611Y-108193436D01*
X60551000Y-108396484D01*
X60551000Y-108603516D01*
X60510611Y-108806564D01*
X60431385Y-108997833D01*
X60431384Y-108997835D01*
X60316365Y-109169973D01*
X60169973Y-109316365D01*
X59997835Y-109431384D01*
X59997834Y-109431385D01*
X59997833Y-109431385D01*
X59806564Y-109510611D01*
X59603516Y-109551000D01*
X59396484Y-109551000D01*
X59193436Y-109510611D01*
X59002167Y-109431385D01*
X59002166Y-109431385D01*
X59002165Y-109431384D01*
X58830027Y-109316365D01*
X58683635Y-109169973D01*
X58568616Y-108997835D01*
X58568615Y-108997833D01*
X58489389Y-108806564D01*
X58449000Y-108603516D01*
X58449000Y-108396484D01*
X58489389Y-108193436D01*
X58568615Y-108002167D01*
X58634167Y-107904062D01*
X58683635Y-107830027D01*
X58830027Y-107683635D01*
X59002165Y-107568616D01*
X59002167Y-107568615D01*
X59193436Y-107489389D01*
X59396484Y-107449000D01*
X59603516Y-107449000D01*
X59806564Y-107489389D01*
G37*
G36*
X112277395Y-107585546D02*
G01*
X112450466Y-107657234D01*
X112450467Y-107657235D01*
X112606227Y-107761310D01*
X112738690Y-107893773D01*
X112791081Y-107972182D01*
X112842766Y-108049534D01*
X112914454Y-108222605D01*
X112951000Y-108406333D01*
X112951000Y-108593667D01*
X112914454Y-108777395D01*
X112842766Y-108950466D01*
X112842765Y-108950467D01*
X112738690Y-109106227D01*
X112606227Y-109238690D01*
X112546069Y-109278886D01*
X112450466Y-109342766D01*
X112277395Y-109414454D01*
X112093667Y-109451000D01*
X111906333Y-109451000D01*
X111722605Y-109414454D01*
X111549534Y-109342766D01*
X111453931Y-109278886D01*
X111393773Y-109238690D01*
X111261310Y-109106227D01*
X111157235Y-108950467D01*
X111157234Y-108950466D01*
X111085546Y-108777395D01*
X111049000Y-108593667D01*
X111049000Y-108406333D01*
X111085546Y-108222605D01*
X111157234Y-108049534D01*
X111208919Y-107972182D01*
X111261310Y-107893773D01*
X111393773Y-107761310D01*
X111549533Y-107657235D01*
X111549534Y-107657234D01*
X111722605Y-107585546D01*
X111906333Y-107549000D01*
X112093667Y-107549000D01*
X112277395Y-107585546D01*
G37*
G36*
X95177395Y-104085546D02*
G01*
X95350466Y-104157234D01*
X95350467Y-104157235D01*
X95506227Y-104261310D01*
X95638690Y-104393773D01*
X95691081Y-104472182D01*
X95742766Y-104549534D01*
X95814454Y-104722605D01*
X95851000Y-104906333D01*
X95851000Y-105093667D01*
X95814454Y-105277395D01*
X95742766Y-105450466D01*
X95742765Y-105450467D01*
X95638690Y-105606227D01*
X95506227Y-105738690D01*
X95427818Y-105791081D01*
X95350466Y-105842766D01*
X95177395Y-105914454D01*
X94993667Y-105951000D01*
X94806333Y-105951000D01*
X94622605Y-105914454D01*
X94449534Y-105842766D01*
X94372182Y-105791081D01*
X94293773Y-105738690D01*
X94161310Y-105606227D01*
X94057235Y-105450467D01*
X94057234Y-105450466D01*
X93985546Y-105277395D01*
X93949000Y-105093667D01*
X93949000Y-104906333D01*
X93985546Y-104722605D01*
X94057234Y-104549534D01*
X94108919Y-104472182D01*
X94161310Y-104393773D01*
X94293773Y-104261310D01*
X94449533Y-104157235D01*
X94449534Y-104157234D01*
X94622605Y-104085546D01*
X94806333Y-104049000D01*
X94993667Y-104049000D01*
X95177395Y-104085546D01*
G37*
G36*
X87177395Y-103585546D02*
G01*
X87350466Y-103657234D01*
X87404646Y-103693436D01*
X87506227Y-103761310D01*
X87638690Y-103893773D01*
X87691081Y-103972182D01*
X87742766Y-104049534D01*
X87814454Y-104222605D01*
X87851000Y-104406333D01*
X87851000Y-104593667D01*
X87814454Y-104777395D01*
X87742766Y-104950466D01*
X87742765Y-104950467D01*
X87638690Y-105106227D01*
X87506227Y-105238690D01*
X87448299Y-105277396D01*
X87350466Y-105342766D01*
X87177395Y-105414454D01*
X86993667Y-105451000D01*
X86806333Y-105451000D01*
X86622605Y-105414454D01*
X86449534Y-105342766D01*
X86351701Y-105277396D01*
X86293773Y-105238690D01*
X86161310Y-105106227D01*
X86057235Y-104950467D01*
X86057234Y-104950466D01*
X85985546Y-104777395D01*
X85949000Y-104593667D01*
X85949000Y-104406333D01*
X85985546Y-104222605D01*
X86057234Y-104049534D01*
X86108919Y-103972182D01*
X86161310Y-103893773D01*
X86293773Y-103761310D01*
X86395354Y-103693436D01*
X86449534Y-103657234D01*
X86622605Y-103585546D01*
X86806333Y-103549000D01*
X86993667Y-103549000D01*
X87177395Y-103585546D01*
G37*
G36*
X53306564Y-102989389D02*
G01*
X53497833Y-103068615D01*
X53497835Y-103068616D01*
X53523174Y-103085547D01*
X53669973Y-103183635D01*
X53816365Y-103330027D01*
X53931385Y-103502167D01*
X54010611Y-103693436D01*
X54051000Y-103896484D01*
X54051000Y-104103516D01*
X54010611Y-104306564D01*
X53931385Y-104497833D01*
X53931384Y-104497835D01*
X53816365Y-104669973D01*
X53669973Y-104816365D01*
X53497835Y-104931384D01*
X53497834Y-104931385D01*
X53497833Y-104931385D01*
X53306564Y-105010611D01*
X53103516Y-105051000D01*
X52896484Y-105051000D01*
X52693436Y-105010611D01*
X52502167Y-104931385D01*
X52502166Y-104931385D01*
X52502165Y-104931384D01*
X52330027Y-104816365D01*
X52183635Y-104669973D01*
X52068616Y-104497835D01*
X52068615Y-104497833D01*
X51989389Y-104306564D01*
X51949000Y-104103516D01*
X51949000Y-103896484D01*
X51989389Y-103693436D01*
X52068615Y-103502167D01*
X52183635Y-103330027D01*
X52330027Y-103183635D01*
X52476826Y-103085547D01*
X52502165Y-103068616D01*
X52502167Y-103068615D01*
X52693436Y-102989389D01*
X52896484Y-102949000D01*
X53103516Y-102949000D01*
X53306564Y-102989389D01*
G37*
G36*
X59806564Y-102989389D02*
G01*
X59997833Y-103068615D01*
X59997835Y-103068616D01*
X60023174Y-103085547D01*
X60169973Y-103183635D01*
X60316365Y-103330027D01*
X60431385Y-103502167D01*
X60510611Y-103693436D01*
X60551000Y-103896484D01*
X60551000Y-104103516D01*
X60510611Y-104306564D01*
X60431385Y-104497833D01*
X60431384Y-104497835D01*
X60316365Y-104669973D01*
X60169973Y-104816365D01*
X59997835Y-104931384D01*
X59997834Y-104931385D01*
X59997833Y-104931385D01*
X59806564Y-105010611D01*
X59603516Y-105051000D01*
X59396484Y-105051000D01*
X59193436Y-105010611D01*
X59002167Y-104931385D01*
X59002166Y-104931385D01*
X59002165Y-104931384D01*
X58830027Y-104816365D01*
X58683635Y-104669973D01*
X58568616Y-104497835D01*
X58568615Y-104497833D01*
X58489389Y-104306564D01*
X58449000Y-104103516D01*
X58449000Y-103896484D01*
X58489389Y-103693436D01*
X58568615Y-103502167D01*
X58683635Y-103330027D01*
X58830027Y-103183635D01*
X58976826Y-103085547D01*
X59002165Y-103068616D01*
X59002167Y-103068615D01*
X59193436Y-102989389D01*
X59396484Y-102949000D01*
X59603516Y-102949000D01*
X59806564Y-102989389D01*
G37*
G36*
X79177395Y-103085546D02*
G01*
X79350466Y-103157234D01*
X79350467Y-103157235D01*
X79506227Y-103261310D01*
X79638690Y-103393773D01*
X79638691Y-103393775D01*
X79742766Y-103549534D01*
X79814454Y-103722605D01*
X79851000Y-103906333D01*
X79851000Y-104093667D01*
X79814454Y-104277395D01*
X79742766Y-104450466D01*
X79742765Y-104450467D01*
X79638690Y-104606227D01*
X79506227Y-104738690D01*
X79448299Y-104777396D01*
X79350466Y-104842766D01*
X79177395Y-104914454D01*
X78993667Y-104951000D01*
X78806333Y-104951000D01*
X78622605Y-104914454D01*
X78449534Y-104842766D01*
X78351701Y-104777396D01*
X78293773Y-104738690D01*
X78161310Y-104606227D01*
X78057235Y-104450467D01*
X78057234Y-104450466D01*
X77985546Y-104277395D01*
X77949000Y-104093667D01*
X77949000Y-103906333D01*
X77985546Y-103722605D01*
X78057234Y-103549534D01*
X78161309Y-103393775D01*
X78161310Y-103393773D01*
X78293773Y-103261310D01*
X78449533Y-103157235D01*
X78449534Y-103157234D01*
X78622605Y-103085546D01*
X78806333Y-103049000D01*
X78993667Y-103049000D01*
X79177395Y-103085546D01*
G37*
G36*
X81343512Y-97873927D02*
G01*
X81492812Y-97903624D01*
X81656784Y-97971544D01*
X81804354Y-98070147D01*
X81929853Y-98195646D01*
X82028456Y-98343216D01*
X82096376Y-98507188D01*
X82131000Y-98681259D01*
X82131000Y-98858741D01*
X82096376Y-99032812D01*
X82028456Y-99196784D01*
X81929853Y-99344354D01*
X81804354Y-99469853D01*
X81656784Y-99568456D01*
X81492812Y-99636376D01*
X81343512Y-99666073D01*
X81318742Y-99671000D01*
X81141258Y-99671000D01*
X81116488Y-99666073D01*
X80967188Y-99636376D01*
X80803216Y-99568456D01*
X80655646Y-99469853D01*
X80530147Y-99344354D01*
X80431544Y-99196784D01*
X80363624Y-99032812D01*
X80329000Y-98858741D01*
X80329000Y-98681259D01*
X80363624Y-98507188D01*
X80431544Y-98343216D01*
X80530147Y-98195646D01*
X80655646Y-98070147D01*
X80803216Y-97971544D01*
X80967188Y-97903624D01*
X81116488Y-97873927D01*
X81141258Y-97869000D01*
X81318742Y-97869000D01*
X81343512Y-97873927D01*
G37*
G36*
X94043512Y-97873927D02*
G01*
X94192812Y-97903624D01*
X94356784Y-97971544D01*
X94504354Y-98070147D01*
X94629853Y-98195646D01*
X94728456Y-98343216D01*
X94796376Y-98507188D01*
X94831000Y-98681259D01*
X94831000Y-98858741D01*
X94796376Y-99032812D01*
X94728456Y-99196784D01*
X94629853Y-99344354D01*
X94504354Y-99469853D01*
X94356784Y-99568456D01*
X94192812Y-99636376D01*
X94043512Y-99666073D01*
X94018742Y-99671000D01*
X93841258Y-99671000D01*
X93816488Y-99666073D01*
X93667188Y-99636376D01*
X93503216Y-99568456D01*
X93355646Y-99469853D01*
X93230147Y-99344354D01*
X93131544Y-99196784D01*
X93063624Y-99032812D01*
X93029000Y-98858741D01*
X93029000Y-98681259D01*
X93063624Y-98507188D01*
X93131544Y-98343216D01*
X93230147Y-98195646D01*
X93355646Y-98070147D01*
X93503216Y-97971544D01*
X93667188Y-97903624D01*
X93816488Y-97873927D01*
X93841258Y-97869000D01*
X94018742Y-97869000D01*
X94043512Y-97873927D01*
G37*
G36*
X91503512Y-97873927D02*
G01*
X91652812Y-97903624D01*
X91816784Y-97971544D01*
X91964354Y-98070147D01*
X92089853Y-98195646D01*
X92188456Y-98343216D01*
X92256376Y-98507188D01*
X92291000Y-98681259D01*
X92291000Y-98858741D01*
X92256376Y-99032812D01*
X92188456Y-99196784D01*
X92089853Y-99344354D01*
X91964354Y-99469853D01*
X91816784Y-99568456D01*
X91652812Y-99636376D01*
X91503512Y-99666073D01*
X91478742Y-99671000D01*
X91301258Y-99671000D01*
X91276488Y-99666073D01*
X91127188Y-99636376D01*
X90963216Y-99568456D01*
X90815646Y-99469853D01*
X90690147Y-99344354D01*
X90591544Y-99196784D01*
X90523624Y-99032812D01*
X90489000Y-98858741D01*
X90489000Y-98681259D01*
X90523624Y-98507188D01*
X90591544Y-98343216D01*
X90690147Y-98195646D01*
X90815646Y-98070147D01*
X90963216Y-97971544D01*
X91127188Y-97903624D01*
X91276488Y-97873927D01*
X91301258Y-97869000D01*
X91478742Y-97869000D01*
X91503512Y-97873927D01*
G37*
G36*
X88963512Y-97873927D02*
G01*
X89112812Y-97903624D01*
X89276784Y-97971544D01*
X89424354Y-98070147D01*
X89549853Y-98195646D01*
X89648456Y-98343216D01*
X89716376Y-98507188D01*
X89751000Y-98681259D01*
X89751000Y-98858741D01*
X89716376Y-99032812D01*
X89648456Y-99196784D01*
X89549853Y-99344354D01*
X89424354Y-99469853D01*
X89276784Y-99568456D01*
X89112812Y-99636376D01*
X88963512Y-99666073D01*
X88938742Y-99671000D01*
X88761258Y-99671000D01*
X88736488Y-99666073D01*
X88587188Y-99636376D01*
X88423216Y-99568456D01*
X88275646Y-99469853D01*
X88150147Y-99344354D01*
X88051544Y-99196784D01*
X87983624Y-99032812D01*
X87949000Y-98858741D01*
X87949000Y-98681259D01*
X87983624Y-98507188D01*
X88051544Y-98343216D01*
X88150147Y-98195646D01*
X88275646Y-98070147D01*
X88423216Y-97971544D01*
X88587188Y-97903624D01*
X88736488Y-97873927D01*
X88761258Y-97869000D01*
X88938742Y-97869000D01*
X88963512Y-97873927D01*
G37*
G36*
X86423512Y-97873927D02*
G01*
X86572812Y-97903624D01*
X86736784Y-97971544D01*
X86884354Y-98070147D01*
X87009853Y-98195646D01*
X87108456Y-98343216D01*
X87176376Y-98507188D01*
X87211000Y-98681259D01*
X87211000Y-98858741D01*
X87176376Y-99032812D01*
X87108456Y-99196784D01*
X87009853Y-99344354D01*
X86884354Y-99469853D01*
X86736784Y-99568456D01*
X86572812Y-99636376D01*
X86423512Y-99666073D01*
X86398742Y-99671000D01*
X86221258Y-99671000D01*
X86196488Y-99666073D01*
X86047188Y-99636376D01*
X85883216Y-99568456D01*
X85735646Y-99469853D01*
X85610147Y-99344354D01*
X85511544Y-99196784D01*
X85443624Y-99032812D01*
X85409000Y-98858741D01*
X85409000Y-98681259D01*
X85443624Y-98507188D01*
X85511544Y-98343216D01*
X85610147Y-98195646D01*
X85735646Y-98070147D01*
X85883216Y-97971544D01*
X86047188Y-97903624D01*
X86196488Y-97873927D01*
X86221258Y-97869000D01*
X86398742Y-97869000D01*
X86423512Y-97873927D01*
G37*
G36*
X83883512Y-97873927D02*
G01*
X84032812Y-97903624D01*
X84196784Y-97971544D01*
X84344354Y-98070147D01*
X84469853Y-98195646D01*
X84568456Y-98343216D01*
X84636376Y-98507188D01*
X84671000Y-98681259D01*
X84671000Y-98858741D01*
X84636376Y-99032812D01*
X84568456Y-99196784D01*
X84469853Y-99344354D01*
X84344354Y-99469853D01*
X84196784Y-99568456D01*
X84032812Y-99636376D01*
X83883512Y-99666073D01*
X83858742Y-99671000D01*
X83681258Y-99671000D01*
X83656488Y-99666073D01*
X83507188Y-99636376D01*
X83343216Y-99568456D01*
X83195646Y-99469853D01*
X83070147Y-99344354D01*
X82971544Y-99196784D01*
X82903624Y-99032812D01*
X82869000Y-98858741D01*
X82869000Y-98681259D01*
X82903624Y-98507188D01*
X82971544Y-98343216D01*
X83070147Y-98195646D01*
X83195646Y-98070147D01*
X83343216Y-97971544D01*
X83507188Y-97903624D01*
X83656488Y-97873927D01*
X83681258Y-97869000D01*
X83858742Y-97869000D01*
X83883512Y-97873927D01*
G37*
G36*
X78803512Y-97873927D02*
G01*
X78952812Y-97903624D01*
X79116784Y-97971544D01*
X79264354Y-98070147D01*
X79389853Y-98195646D01*
X79488456Y-98343216D01*
X79556376Y-98507188D01*
X79591000Y-98681259D01*
X79591000Y-98858741D01*
X79556376Y-99032812D01*
X79488456Y-99196784D01*
X79389853Y-99344354D01*
X79264354Y-99469853D01*
X79116784Y-99568456D01*
X78952812Y-99636376D01*
X78803512Y-99666073D01*
X78778742Y-99671000D01*
X78601258Y-99671000D01*
X78576488Y-99666073D01*
X78427188Y-99636376D01*
X78263216Y-99568456D01*
X78115646Y-99469853D01*
X77990147Y-99344354D01*
X77891544Y-99196784D01*
X77823624Y-99032812D01*
X77789000Y-98858741D01*
X77789000Y-98681259D01*
X77823624Y-98507188D01*
X77891544Y-98343216D01*
X77990147Y-98195646D01*
X78115646Y-98070147D01*
X78263216Y-97971544D01*
X78427188Y-97903624D01*
X78576488Y-97873927D01*
X78601258Y-97869000D01*
X78778742Y-97869000D01*
X78803512Y-97873927D01*
G37*
G36*
X101663512Y-97873927D02*
G01*
X101812812Y-97903624D01*
X101976784Y-97971544D01*
X102124354Y-98070147D01*
X102249853Y-98195646D01*
X102348456Y-98343216D01*
X102416376Y-98507188D01*
X102451000Y-98681259D01*
X102451000Y-98858741D01*
X102416376Y-99032812D01*
X102348456Y-99196784D01*
X102249853Y-99344354D01*
X102124354Y-99469853D01*
X101976784Y-99568456D01*
X101812812Y-99636376D01*
X101663512Y-99666073D01*
X101638742Y-99671000D01*
X101461258Y-99671000D01*
X101436488Y-99666073D01*
X101287188Y-99636376D01*
X101123216Y-99568456D01*
X100975646Y-99469853D01*
X100850147Y-99344354D01*
X100751544Y-99196784D01*
X100683624Y-99032812D01*
X100649000Y-98858741D01*
X100649000Y-98681259D01*
X100683624Y-98507188D01*
X100751544Y-98343216D01*
X100850147Y-98195646D01*
X100975646Y-98070147D01*
X101123216Y-97971544D01*
X101287188Y-97903624D01*
X101436488Y-97873927D01*
X101461258Y-97869000D01*
X101638742Y-97869000D01*
X101663512Y-97873927D01*
G37*
G36*
X99123512Y-97873927D02*
G01*
X99272812Y-97903624D01*
X99436784Y-97971544D01*
X99584354Y-98070147D01*
X99709853Y-98195646D01*
X99808456Y-98343216D01*
X99876376Y-98507188D01*
X99911000Y-98681259D01*
X99911000Y-98858741D01*
X99876376Y-99032812D01*
X99808456Y-99196784D01*
X99709853Y-99344354D01*
X99584354Y-99469853D01*
X99436784Y-99568456D01*
X99272812Y-99636376D01*
X99123512Y-99666073D01*
X99098742Y-99671000D01*
X98921258Y-99671000D01*
X98896488Y-99666073D01*
X98747188Y-99636376D01*
X98583216Y-99568456D01*
X98435646Y-99469853D01*
X98310147Y-99344354D01*
X98211544Y-99196784D01*
X98143624Y-99032812D01*
X98109000Y-98858741D01*
X98109000Y-98681259D01*
X98143624Y-98507188D01*
X98211544Y-98343216D01*
X98310147Y-98195646D01*
X98435646Y-98070147D01*
X98583216Y-97971544D01*
X98747188Y-97903624D01*
X98896488Y-97873927D01*
X98921258Y-97869000D01*
X99098742Y-97869000D01*
X99123512Y-97873927D01*
G37*
G36*
X104203512Y-97873927D02*
G01*
X104352812Y-97903624D01*
X104516784Y-97971544D01*
X104664354Y-98070147D01*
X104789853Y-98195646D01*
X104888456Y-98343216D01*
X104956376Y-98507188D01*
X104991000Y-98681259D01*
X104991000Y-98858741D01*
X104956376Y-99032812D01*
X104888456Y-99196784D01*
X104789853Y-99344354D01*
X104664354Y-99469853D01*
X104516784Y-99568456D01*
X104352812Y-99636376D01*
X104203512Y-99666073D01*
X104178742Y-99671000D01*
X104001258Y-99671000D01*
X103976488Y-99666073D01*
X103827188Y-99636376D01*
X103663216Y-99568456D01*
X103515646Y-99469853D01*
X103390147Y-99344354D01*
X103291544Y-99196784D01*
X103223624Y-99032812D01*
X103189000Y-98858741D01*
X103189000Y-98681259D01*
X103223624Y-98507188D01*
X103291544Y-98343216D01*
X103390147Y-98195646D01*
X103515646Y-98070147D01*
X103663216Y-97971544D01*
X103827188Y-97903624D01*
X103976488Y-97873927D01*
X104001258Y-97869000D01*
X104178742Y-97869000D01*
X104203512Y-97873927D01*
G37*
G36*
X59271000Y-99671000D02*
G01*
X57469000Y-99671000D01*
X57469000Y-97869000D01*
X59271000Y-97869000D01*
X59271000Y-99671000D01*
G37*
G36*
X61023512Y-97873927D02*
G01*
X61172812Y-97903624D01*
X61336784Y-97971544D01*
X61484354Y-98070147D01*
X61609853Y-98195646D01*
X61708456Y-98343216D01*
X61776376Y-98507188D01*
X61811000Y-98681259D01*
X61811000Y-98858741D01*
X61776376Y-99032812D01*
X61708456Y-99196784D01*
X61609853Y-99344354D01*
X61484354Y-99469853D01*
X61336784Y-99568456D01*
X61172812Y-99636376D01*
X61023512Y-99666073D01*
X60998742Y-99671000D01*
X60821258Y-99671000D01*
X60796488Y-99666073D01*
X60647188Y-99636376D01*
X60483216Y-99568456D01*
X60335646Y-99469853D01*
X60210147Y-99344354D01*
X60111544Y-99196784D01*
X60043624Y-99032812D01*
X60009000Y-98858741D01*
X60009000Y-98681259D01*
X60043624Y-98507188D01*
X60111544Y-98343216D01*
X60210147Y-98195646D01*
X60335646Y-98070147D01*
X60483216Y-97971544D01*
X60647188Y-97903624D01*
X60796488Y-97873927D01*
X60821258Y-97869000D01*
X60998742Y-97869000D01*
X61023512Y-97873927D01*
G37*
G36*
X63563512Y-97873927D02*
G01*
X63712812Y-97903624D01*
X63876784Y-97971544D01*
X64024354Y-98070147D01*
X64149853Y-98195646D01*
X64248456Y-98343216D01*
X64316376Y-98507188D01*
X64351000Y-98681259D01*
X64351000Y-98858741D01*
X64316376Y-99032812D01*
X64248456Y-99196784D01*
X64149853Y-99344354D01*
X64024354Y-99469853D01*
X63876784Y-99568456D01*
X63712812Y-99636376D01*
X63563512Y-99666073D01*
X63538742Y-99671000D01*
X63361258Y-99671000D01*
X63336488Y-99666073D01*
X63187188Y-99636376D01*
X63023216Y-99568456D01*
X62875646Y-99469853D01*
X62750147Y-99344354D01*
X62651544Y-99196784D01*
X62583624Y-99032812D01*
X62549000Y-98858741D01*
X62549000Y-98681259D01*
X62583624Y-98507188D01*
X62651544Y-98343216D01*
X62750147Y-98195646D01*
X62875646Y-98070147D01*
X63023216Y-97971544D01*
X63187188Y-97903624D01*
X63336488Y-97873927D01*
X63361258Y-97869000D01*
X63538742Y-97869000D01*
X63563512Y-97873927D01*
G37*
G36*
X66103512Y-97873927D02*
G01*
X66252812Y-97903624D01*
X66416784Y-97971544D01*
X66564354Y-98070147D01*
X66689853Y-98195646D01*
X66788456Y-98343216D01*
X66856376Y-98507188D01*
X66891000Y-98681259D01*
X66891000Y-98858741D01*
X66856376Y-99032812D01*
X66788456Y-99196784D01*
X66689853Y-99344354D01*
X66564354Y-99469853D01*
X66416784Y-99568456D01*
X66252812Y-99636376D01*
X66103512Y-99666073D01*
X66078742Y-99671000D01*
X65901258Y-99671000D01*
X65876488Y-99666073D01*
X65727188Y-99636376D01*
X65563216Y-99568456D01*
X65415646Y-99469853D01*
X65290147Y-99344354D01*
X65191544Y-99196784D01*
X65123624Y-99032812D01*
X65089000Y-98858741D01*
X65089000Y-98681259D01*
X65123624Y-98507188D01*
X65191544Y-98343216D01*
X65290147Y-98195646D01*
X65415646Y-98070147D01*
X65563216Y-97971544D01*
X65727188Y-97903624D01*
X65876488Y-97873927D01*
X65901258Y-97869000D01*
X66078742Y-97869000D01*
X66103512Y-97873927D01*
G37*
G36*
X68643512Y-97873927D02*
G01*
X68792812Y-97903624D01*
X68956784Y-97971544D01*
X69104354Y-98070147D01*
X69229853Y-98195646D01*
X69328456Y-98343216D01*
X69396376Y-98507188D01*
X69431000Y-98681259D01*
X69431000Y-98858741D01*
X69396376Y-99032812D01*
X69328456Y-99196784D01*
X69229853Y-99344354D01*
X69104354Y-99469853D01*
X68956784Y-99568456D01*
X68792812Y-99636376D01*
X68643512Y-99666073D01*
X68618742Y-99671000D01*
X68441258Y-99671000D01*
X68416488Y-99666073D01*
X68267188Y-99636376D01*
X68103216Y-99568456D01*
X67955646Y-99469853D01*
X67830147Y-99344354D01*
X67731544Y-99196784D01*
X67663624Y-99032812D01*
X67629000Y-98858741D01*
X67629000Y-98681259D01*
X67663624Y-98507188D01*
X67731544Y-98343216D01*
X67830147Y-98195646D01*
X67955646Y-98070147D01*
X68103216Y-97971544D01*
X68267188Y-97903624D01*
X68416488Y-97873927D01*
X68441258Y-97869000D01*
X68618742Y-97869000D01*
X68643512Y-97873927D01*
G37*
G36*
X71183512Y-97873927D02*
G01*
X71332812Y-97903624D01*
X71496784Y-97971544D01*
X71644354Y-98070147D01*
X71769853Y-98195646D01*
X71868456Y-98343216D01*
X71936376Y-98507188D01*
X71971000Y-98681259D01*
X71971000Y-98858741D01*
X71936376Y-99032812D01*
X71868456Y-99196784D01*
X71769853Y-99344354D01*
X71644354Y-99469853D01*
X71496784Y-99568456D01*
X71332812Y-99636376D01*
X71183512Y-99666073D01*
X71158742Y-99671000D01*
X70981258Y-99671000D01*
X70956488Y-99666073D01*
X70807188Y-99636376D01*
X70643216Y-99568456D01*
X70495646Y-99469853D01*
X70370147Y-99344354D01*
X70271544Y-99196784D01*
X70203624Y-99032812D01*
X70169000Y-98858741D01*
X70169000Y-98681259D01*
X70203624Y-98507188D01*
X70271544Y-98343216D01*
X70370147Y-98195646D01*
X70495646Y-98070147D01*
X70643216Y-97971544D01*
X70807188Y-97903624D01*
X70956488Y-97873927D01*
X70981258Y-97869000D01*
X71158742Y-97869000D01*
X71183512Y-97873927D01*
G37*
G36*
X73723512Y-97873927D02*
G01*
X73872812Y-97903624D01*
X74036784Y-97971544D01*
X74184354Y-98070147D01*
X74309853Y-98195646D01*
X74408456Y-98343216D01*
X74476376Y-98507188D01*
X74511000Y-98681259D01*
X74511000Y-98858741D01*
X74476376Y-99032812D01*
X74408456Y-99196784D01*
X74309853Y-99344354D01*
X74184354Y-99469853D01*
X74036784Y-99568456D01*
X73872812Y-99636376D01*
X73723512Y-99666073D01*
X73698742Y-99671000D01*
X73521258Y-99671000D01*
X73496488Y-99666073D01*
X73347188Y-99636376D01*
X73183216Y-99568456D01*
X73035646Y-99469853D01*
X72910147Y-99344354D01*
X72811544Y-99196784D01*
X72743624Y-99032812D01*
X72709000Y-98858741D01*
X72709000Y-98681259D01*
X72743624Y-98507188D01*
X72811544Y-98343216D01*
X72910147Y-98195646D01*
X73035646Y-98070147D01*
X73183216Y-97971544D01*
X73347188Y-97903624D01*
X73496488Y-97873927D01*
X73521258Y-97869000D01*
X73698742Y-97869000D01*
X73723512Y-97873927D01*
G37*
G36*
X96583512Y-97873927D02*
G01*
X96732812Y-97903624D01*
X96896784Y-97971544D01*
X97044354Y-98070147D01*
X97169853Y-98195646D01*
X97268456Y-98343216D01*
X97336376Y-98507188D01*
X97371000Y-98681259D01*
X97371000Y-98858741D01*
X97336376Y-99032812D01*
X97268456Y-99196784D01*
X97169853Y-99344354D01*
X97044354Y-99469853D01*
X96896784Y-99568456D01*
X96732812Y-99636376D01*
X96583512Y-99666073D01*
X96558742Y-99671000D01*
X96381258Y-99671000D01*
X96356488Y-99666073D01*
X96207188Y-99636376D01*
X96043216Y-99568456D01*
X95895646Y-99469853D01*
X95770147Y-99344354D01*
X95671544Y-99196784D01*
X95603624Y-99032812D01*
X95569000Y-98858741D01*
X95569000Y-98681259D01*
X95603624Y-98507188D01*
X95671544Y-98343216D01*
X95770147Y-98195646D01*
X95895646Y-98070147D01*
X96043216Y-97971544D01*
X96207188Y-97903624D01*
X96356488Y-97873927D01*
X96381258Y-97869000D01*
X96558742Y-97869000D01*
X96583512Y-97873927D01*
G37*
G36*
X76263512Y-97873927D02*
G01*
X76412812Y-97903624D01*
X76576784Y-97971544D01*
X76724354Y-98070147D01*
X76849853Y-98195646D01*
X76948456Y-98343216D01*
X77016376Y-98507188D01*
X77051000Y-98681259D01*
X77051000Y-98858741D01*
X77016376Y-99032812D01*
X76948456Y-99196784D01*
X76849853Y-99344354D01*
X76724354Y-99469853D01*
X76576784Y-99568456D01*
X76412812Y-99636376D01*
X76263512Y-99666073D01*
X76238742Y-99671000D01*
X76061258Y-99671000D01*
X76036488Y-99666073D01*
X75887188Y-99636376D01*
X75723216Y-99568456D01*
X75575646Y-99469853D01*
X75450147Y-99344354D01*
X75351544Y-99196784D01*
X75283624Y-99032812D01*
X75249000Y-98858741D01*
X75249000Y-98681259D01*
X75283624Y-98507188D01*
X75351544Y-98343216D01*
X75450147Y-98195646D01*
X75575646Y-98070147D01*
X75723216Y-97971544D01*
X75887188Y-97903624D01*
X76036488Y-97873927D01*
X76061258Y-97869000D01*
X76238742Y-97869000D01*
X76263512Y-97873927D01*
G37*
G36*
X106743512Y-97873927D02*
G01*
X106892812Y-97903624D01*
X107056784Y-97971544D01*
X107204354Y-98070147D01*
X107329853Y-98195646D01*
X107428456Y-98343216D01*
X107496376Y-98507188D01*
X107531000Y-98681259D01*
X107531000Y-98858741D01*
X107496376Y-99032812D01*
X107428456Y-99196784D01*
X107329853Y-99344354D01*
X107204354Y-99469853D01*
X107056784Y-99568456D01*
X106892812Y-99636376D01*
X106743512Y-99666073D01*
X106718742Y-99671000D01*
X106541258Y-99671000D01*
X106516488Y-99666073D01*
X106367188Y-99636376D01*
X106203216Y-99568456D01*
X106055646Y-99469853D01*
X105930147Y-99344354D01*
X105831544Y-99196784D01*
X105763624Y-99032812D01*
X105729000Y-98858741D01*
X105729000Y-98681259D01*
X105763624Y-98507188D01*
X105831544Y-98343216D01*
X105930147Y-98195646D01*
X106055646Y-98070147D01*
X106203216Y-97971544D01*
X106367188Y-97903624D01*
X106516488Y-97873927D01*
X106541258Y-97869000D01*
X106718742Y-97869000D01*
X106743512Y-97873927D01*
G37*
G36*
X53818433Y-96134893D02*
G01*
X53908657Y-96152839D01*
X54014267Y-96196585D01*
X54163621Y-96258449D01*
X54163622Y-96258450D01*
X54393086Y-96411772D01*
X54588228Y-96606914D01*
X54690675Y-96760237D01*
X54741551Y-96836379D01*
X54847161Y-97091344D01*
X54901000Y-97362012D01*
X54901000Y-97637988D01*
X54847161Y-97908656D01*
X54741551Y-98163621D01*
X54720152Y-98195647D01*
X54588228Y-98393086D01*
X54393086Y-98588228D01*
X54253856Y-98681258D01*
X54163621Y-98741551D01*
X54014267Y-98803415D01*
X53908657Y-98847161D01*
X53818433Y-98865107D01*
X53637988Y-98901000D01*
X53362012Y-98901000D01*
X53181567Y-98865107D01*
X53091343Y-98847161D01*
X52985733Y-98803415D01*
X52836379Y-98741551D01*
X52746144Y-98681258D01*
X52606914Y-98588228D01*
X52411772Y-98393086D01*
X52279848Y-98195647D01*
X52258449Y-98163621D01*
X52152839Y-97908656D01*
X52099000Y-97637988D01*
X52099000Y-97362012D01*
X52152839Y-97091344D01*
X52258449Y-96836379D01*
X52309325Y-96760237D01*
X52411772Y-96606914D01*
X52606914Y-96411772D01*
X52836378Y-96258450D01*
X52836379Y-96258449D01*
X52985733Y-96196585D01*
X53091343Y-96152839D01*
X53181567Y-96134893D01*
X53362012Y-96099000D01*
X53637988Y-96099000D01*
X53818433Y-96134893D01*
G37*
G36*
X111818433Y-96134893D02*
G01*
X111908657Y-96152839D01*
X112014267Y-96196585D01*
X112163621Y-96258449D01*
X112163622Y-96258450D01*
X112393086Y-96411772D01*
X112588228Y-96606914D01*
X112690675Y-96760237D01*
X112741551Y-96836379D01*
X112847161Y-97091344D01*
X112901000Y-97362012D01*
X112901000Y-97637988D01*
X112847161Y-97908656D01*
X112741551Y-98163621D01*
X112720152Y-98195647D01*
X112588228Y-98393086D01*
X112393086Y-98588228D01*
X112253856Y-98681258D01*
X112163621Y-98741551D01*
X112014267Y-98803415D01*
X111908657Y-98847161D01*
X111818433Y-98865107D01*
X111637988Y-98901000D01*
X111362012Y-98901000D01*
X111181567Y-98865107D01*
X111091343Y-98847161D01*
X110985733Y-98803415D01*
X110836379Y-98741551D01*
X110746144Y-98681258D01*
X110606914Y-98588228D01*
X110411772Y-98393086D01*
X110279848Y-98195647D01*
X110258449Y-98163621D01*
X110152839Y-97908656D01*
X110099000Y-97637988D01*
X110099000Y-97362012D01*
X110152839Y-97091344D01*
X110258449Y-96836379D01*
X110309325Y-96760237D01*
X110411772Y-96606914D01*
X110606914Y-96411772D01*
X110836378Y-96258450D01*
X110836379Y-96258449D01*
X110985733Y-96196585D01*
X111091343Y-96152839D01*
X111181567Y-96134893D01*
X111362012Y-96099000D01*
X111637988Y-96099000D01*
X111818433Y-96134893D01*
G37*
G36*
X88963512Y-95333927D02*
G01*
X89112812Y-95363624D01*
X89276784Y-95431544D01*
X89424354Y-95530147D01*
X89549853Y-95655646D01*
X89648456Y-95803216D01*
X89716376Y-95967188D01*
X89751000Y-96141259D01*
X89751000Y-96318741D01*
X89716376Y-96492812D01*
X89648456Y-96656784D01*
X89549853Y-96804354D01*
X89424354Y-96929853D01*
X89276784Y-97028456D01*
X89112812Y-97096376D01*
X88963512Y-97126073D01*
X88938742Y-97131000D01*
X88761258Y-97131000D01*
X88736488Y-97126073D01*
X88587188Y-97096376D01*
X88423216Y-97028456D01*
X88275646Y-96929853D01*
X88150147Y-96804354D01*
X88051544Y-96656784D01*
X87983624Y-96492812D01*
X87949000Y-96318741D01*
X87949000Y-96141259D01*
X87983624Y-95967188D01*
X88051544Y-95803216D01*
X88150147Y-95655646D01*
X88275646Y-95530147D01*
X88423216Y-95431544D01*
X88587188Y-95363624D01*
X88736488Y-95333927D01*
X88761258Y-95329000D01*
X88938742Y-95329000D01*
X88963512Y-95333927D01*
G37*
G36*
X86423512Y-95333927D02*
G01*
X86572812Y-95363624D01*
X86736784Y-95431544D01*
X86884354Y-95530147D01*
X87009853Y-95655646D01*
X87108456Y-95803216D01*
X87176376Y-95967188D01*
X87211000Y-96141259D01*
X87211000Y-96318741D01*
X87176376Y-96492812D01*
X87108456Y-96656784D01*
X87009853Y-96804354D01*
X86884354Y-96929853D01*
X86736784Y-97028456D01*
X86572812Y-97096376D01*
X86423512Y-97126073D01*
X86398742Y-97131000D01*
X86221258Y-97131000D01*
X86196488Y-97126073D01*
X86047188Y-97096376D01*
X85883216Y-97028456D01*
X85735646Y-96929853D01*
X85610147Y-96804354D01*
X85511544Y-96656784D01*
X85443624Y-96492812D01*
X85409000Y-96318741D01*
X85409000Y-96141259D01*
X85443624Y-95967188D01*
X85511544Y-95803216D01*
X85610147Y-95655646D01*
X85735646Y-95530147D01*
X85883216Y-95431544D01*
X86047188Y-95363624D01*
X86196488Y-95333927D01*
X86221258Y-95329000D01*
X86398742Y-95329000D01*
X86423512Y-95333927D01*
G37*
G36*
X83883512Y-95333927D02*
G01*
X84032812Y-95363624D01*
X84196784Y-95431544D01*
X84344354Y-95530147D01*
X84469853Y-95655646D01*
X84568456Y-95803216D01*
X84636376Y-95967188D01*
X84671000Y-96141259D01*
X84671000Y-96318741D01*
X84636376Y-96492812D01*
X84568456Y-96656784D01*
X84469853Y-96804354D01*
X84344354Y-96929853D01*
X84196784Y-97028456D01*
X84032812Y-97096376D01*
X83883512Y-97126073D01*
X83858742Y-97131000D01*
X83681258Y-97131000D01*
X83656488Y-97126073D01*
X83507188Y-97096376D01*
X83343216Y-97028456D01*
X83195646Y-96929853D01*
X83070147Y-96804354D01*
X82971544Y-96656784D01*
X82903624Y-96492812D01*
X82869000Y-96318741D01*
X82869000Y-96141259D01*
X82903624Y-95967188D01*
X82971544Y-95803216D01*
X83070147Y-95655646D01*
X83195646Y-95530147D01*
X83343216Y-95431544D01*
X83507188Y-95363624D01*
X83656488Y-95333927D01*
X83681258Y-95329000D01*
X83858742Y-95329000D01*
X83883512Y-95333927D01*
G37*
G36*
X81343512Y-95333927D02*
G01*
X81492812Y-95363624D01*
X81656784Y-95431544D01*
X81804354Y-95530147D01*
X81929853Y-95655646D01*
X82028456Y-95803216D01*
X82096376Y-95967188D01*
X82131000Y-96141259D01*
X82131000Y-96318741D01*
X82096376Y-96492812D01*
X82028456Y-96656784D01*
X81929853Y-96804354D01*
X81804354Y-96929853D01*
X81656784Y-97028456D01*
X81492812Y-97096376D01*
X81343512Y-97126073D01*
X81318742Y-97131000D01*
X81141258Y-97131000D01*
X81116488Y-97126073D01*
X80967188Y-97096376D01*
X80803216Y-97028456D01*
X80655646Y-96929853D01*
X80530147Y-96804354D01*
X80431544Y-96656784D01*
X80363624Y-96492812D01*
X80329000Y-96318741D01*
X80329000Y-96141259D01*
X80363624Y-95967188D01*
X80431544Y-95803216D01*
X80530147Y-95655646D01*
X80655646Y-95530147D01*
X80803216Y-95431544D01*
X80967188Y-95363624D01*
X81116488Y-95333927D01*
X81141258Y-95329000D01*
X81318742Y-95329000D01*
X81343512Y-95333927D01*
G37*
G36*
X78803512Y-95333927D02*
G01*
X78952812Y-95363624D01*
X79116784Y-95431544D01*
X79264354Y-95530147D01*
X79389853Y-95655646D01*
X79488456Y-95803216D01*
X79556376Y-95967188D01*
X79591000Y-96141259D01*
X79591000Y-96318741D01*
X79556376Y-96492812D01*
X79488456Y-96656784D01*
X79389853Y-96804354D01*
X79264354Y-96929853D01*
X79116784Y-97028456D01*
X78952812Y-97096376D01*
X78803512Y-97126073D01*
X78778742Y-97131000D01*
X78601258Y-97131000D01*
X78576488Y-97126073D01*
X78427188Y-97096376D01*
X78263216Y-97028456D01*
X78115646Y-96929853D01*
X77990147Y-96804354D01*
X77891544Y-96656784D01*
X77823624Y-96492812D01*
X77789000Y-96318741D01*
X77789000Y-96141259D01*
X77823624Y-95967188D01*
X77891544Y-95803216D01*
X77990147Y-95655646D01*
X78115646Y-95530147D01*
X78263216Y-95431544D01*
X78427188Y-95363624D01*
X78576488Y-95333927D01*
X78601258Y-95329000D01*
X78778742Y-95329000D01*
X78803512Y-95333927D01*
G37*
G36*
X76263512Y-95333927D02*
G01*
X76412812Y-95363624D01*
X76576784Y-95431544D01*
X76724354Y-95530147D01*
X76849853Y-95655646D01*
X76948456Y-95803216D01*
X77016376Y-95967188D01*
X77051000Y-96141259D01*
X77051000Y-96318741D01*
X77016376Y-96492812D01*
X76948456Y-96656784D01*
X76849853Y-96804354D01*
X76724354Y-96929853D01*
X76576784Y-97028456D01*
X76412812Y-97096376D01*
X76263512Y-97126073D01*
X76238742Y-97131000D01*
X76061258Y-97131000D01*
X76036488Y-97126073D01*
X75887188Y-97096376D01*
X75723216Y-97028456D01*
X75575646Y-96929853D01*
X75450147Y-96804354D01*
X75351544Y-96656784D01*
X75283624Y-96492812D01*
X75249000Y-96318741D01*
X75249000Y-96141259D01*
X75283624Y-95967188D01*
X75351544Y-95803216D01*
X75450147Y-95655646D01*
X75575646Y-95530147D01*
X75723216Y-95431544D01*
X75887188Y-95363624D01*
X76036488Y-95333927D01*
X76061258Y-95329000D01*
X76238742Y-95329000D01*
X76263512Y-95333927D01*
G37*
G36*
X73723512Y-95333927D02*
G01*
X73872812Y-95363624D01*
X74036784Y-95431544D01*
X74184354Y-95530147D01*
X74309853Y-95655646D01*
X74408456Y-95803216D01*
X74476376Y-95967188D01*
X74511000Y-96141259D01*
X74511000Y-96318741D01*
X74476376Y-96492812D01*
X74408456Y-96656784D01*
X74309853Y-96804354D01*
X74184354Y-96929853D01*
X74036784Y-97028456D01*
X73872812Y-97096376D01*
X73723512Y-97126073D01*
X73698742Y-97131000D01*
X73521258Y-97131000D01*
X73496488Y-97126073D01*
X73347188Y-97096376D01*
X73183216Y-97028456D01*
X73035646Y-96929853D01*
X72910147Y-96804354D01*
X72811544Y-96656784D01*
X72743624Y-96492812D01*
X72709000Y-96318741D01*
X72709000Y-96141259D01*
X72743624Y-95967188D01*
X72811544Y-95803216D01*
X72910147Y-95655646D01*
X73035646Y-95530147D01*
X73183216Y-95431544D01*
X73347188Y-95363624D01*
X73496488Y-95333927D01*
X73521258Y-95329000D01*
X73698742Y-95329000D01*
X73723512Y-95333927D01*
G37*
G36*
X71183512Y-95333927D02*
G01*
X71332812Y-95363624D01*
X71496784Y-95431544D01*
X71644354Y-95530147D01*
X71769853Y-95655646D01*
X71868456Y-95803216D01*
X71936376Y-95967188D01*
X71971000Y-96141259D01*
X71971000Y-96318741D01*
X71936376Y-96492812D01*
X71868456Y-96656784D01*
X71769853Y-96804354D01*
X71644354Y-96929853D01*
X71496784Y-97028456D01*
X71332812Y-97096376D01*
X71183512Y-97126073D01*
X71158742Y-97131000D01*
X70981258Y-97131000D01*
X70956488Y-97126073D01*
X70807188Y-97096376D01*
X70643216Y-97028456D01*
X70495646Y-96929853D01*
X70370147Y-96804354D01*
X70271544Y-96656784D01*
X70203624Y-96492812D01*
X70169000Y-96318741D01*
X70169000Y-96141259D01*
X70203624Y-95967188D01*
X70271544Y-95803216D01*
X70370147Y-95655646D01*
X70495646Y-95530147D01*
X70643216Y-95431544D01*
X70807188Y-95363624D01*
X70956488Y-95333927D01*
X70981258Y-95329000D01*
X71158742Y-95329000D01*
X71183512Y-95333927D01*
G37*
G36*
X68643512Y-95333927D02*
G01*
X68792812Y-95363624D01*
X68956784Y-95431544D01*
X69104354Y-95530147D01*
X69229853Y-95655646D01*
X69328456Y-95803216D01*
X69396376Y-95967188D01*
X69431000Y-96141259D01*
X69431000Y-96318741D01*
X69396376Y-96492812D01*
X69328456Y-96656784D01*
X69229853Y-96804354D01*
X69104354Y-96929853D01*
X68956784Y-97028456D01*
X68792812Y-97096376D01*
X68643512Y-97126073D01*
X68618742Y-97131000D01*
X68441258Y-97131000D01*
X68416488Y-97126073D01*
X68267188Y-97096376D01*
X68103216Y-97028456D01*
X67955646Y-96929853D01*
X67830147Y-96804354D01*
X67731544Y-96656784D01*
X67663624Y-96492812D01*
X67629000Y-96318741D01*
X67629000Y-96141259D01*
X67663624Y-95967188D01*
X67731544Y-95803216D01*
X67830147Y-95655646D01*
X67955646Y-95530147D01*
X68103216Y-95431544D01*
X68267188Y-95363624D01*
X68416488Y-95333927D01*
X68441258Y-95329000D01*
X68618742Y-95329000D01*
X68643512Y-95333927D01*
G37*
G36*
X63563512Y-95333927D02*
G01*
X63712812Y-95363624D01*
X63876784Y-95431544D01*
X64024354Y-95530147D01*
X64149853Y-95655646D01*
X64248456Y-95803216D01*
X64316376Y-95967188D01*
X64351000Y-96141259D01*
X64351000Y-96318741D01*
X64316376Y-96492812D01*
X64248456Y-96656784D01*
X64149853Y-96804354D01*
X64024354Y-96929853D01*
X63876784Y-97028456D01*
X63712812Y-97096376D01*
X63563512Y-97126073D01*
X63538742Y-97131000D01*
X63361258Y-97131000D01*
X63336488Y-97126073D01*
X63187188Y-97096376D01*
X63023216Y-97028456D01*
X62875646Y-96929853D01*
X62750147Y-96804354D01*
X62651544Y-96656784D01*
X62583624Y-96492812D01*
X62549000Y-96318741D01*
X62549000Y-96141259D01*
X62583624Y-95967188D01*
X62651544Y-95803216D01*
X62750147Y-95655646D01*
X62875646Y-95530147D01*
X63023216Y-95431544D01*
X63187188Y-95363624D01*
X63336488Y-95333927D01*
X63361258Y-95329000D01*
X63538742Y-95329000D01*
X63563512Y-95333927D01*
G37*
G36*
X61023512Y-95333927D02*
G01*
X61172812Y-95363624D01*
X61336784Y-95431544D01*
X61484354Y-95530147D01*
X61609853Y-95655646D01*
X61708456Y-95803216D01*
X61776376Y-95967188D01*
X61811000Y-96141259D01*
X61811000Y-96318741D01*
X61776376Y-96492812D01*
X61708456Y-96656784D01*
X61609853Y-96804354D01*
X61484354Y-96929853D01*
X61336784Y-97028456D01*
X61172812Y-97096376D01*
X61023512Y-97126073D01*
X60998742Y-97131000D01*
X60821258Y-97131000D01*
X60796488Y-97126073D01*
X60647188Y-97096376D01*
X60483216Y-97028456D01*
X60335646Y-96929853D01*
X60210147Y-96804354D01*
X60111544Y-96656784D01*
X60043624Y-96492812D01*
X60009000Y-96318741D01*
X60009000Y-96141259D01*
X60043624Y-95967188D01*
X60111544Y-95803216D01*
X60210147Y-95655646D01*
X60335646Y-95530147D01*
X60483216Y-95431544D01*
X60647188Y-95363624D01*
X60796488Y-95333927D01*
X60821258Y-95329000D01*
X60998742Y-95329000D01*
X61023512Y-95333927D01*
G37*
G36*
X66103512Y-95333927D02*
G01*
X66252812Y-95363624D01*
X66416784Y-95431544D01*
X66564354Y-95530147D01*
X66689853Y-95655646D01*
X66788456Y-95803216D01*
X66856376Y-95967188D01*
X66891000Y-96141259D01*
X66891000Y-96318741D01*
X66856376Y-96492812D01*
X66788456Y-96656784D01*
X66689853Y-96804354D01*
X66564354Y-96929853D01*
X66416784Y-97028456D01*
X66252812Y-97096376D01*
X66103512Y-97126073D01*
X66078742Y-97131000D01*
X65901258Y-97131000D01*
X65876488Y-97126073D01*
X65727188Y-97096376D01*
X65563216Y-97028456D01*
X65415646Y-96929853D01*
X65290147Y-96804354D01*
X65191544Y-96656784D01*
X65123624Y-96492812D01*
X65089000Y-96318741D01*
X65089000Y-96141259D01*
X65123624Y-95967188D01*
X65191544Y-95803216D01*
X65290147Y-95655646D01*
X65415646Y-95530147D01*
X65563216Y-95431544D01*
X65727188Y-95363624D01*
X65876488Y-95333927D01*
X65901258Y-95329000D01*
X66078742Y-95329000D01*
X66103512Y-95333927D01*
G37*
G36*
X91503512Y-95333927D02*
G01*
X91652812Y-95363624D01*
X91816784Y-95431544D01*
X91964354Y-95530147D01*
X92089853Y-95655646D01*
X92188456Y-95803216D01*
X92256376Y-95967188D01*
X92291000Y-96141259D01*
X92291000Y-96318741D01*
X92256376Y-96492812D01*
X92188456Y-96656784D01*
X92089853Y-96804354D01*
X91964354Y-96929853D01*
X91816784Y-97028456D01*
X91652812Y-97096376D01*
X91503512Y-97126073D01*
X91478742Y-97131000D01*
X91301258Y-97131000D01*
X91276488Y-97126073D01*
X91127188Y-97096376D01*
X90963216Y-97028456D01*
X90815646Y-96929853D01*
X90690147Y-96804354D01*
X90591544Y-96656784D01*
X90523624Y-96492812D01*
X90489000Y-96318741D01*
X90489000Y-96141259D01*
X90523624Y-95967188D01*
X90591544Y-95803216D01*
X90690147Y-95655646D01*
X90815646Y-95530147D01*
X90963216Y-95431544D01*
X91127188Y-95363624D01*
X91276488Y-95333927D01*
X91301258Y-95329000D01*
X91478742Y-95329000D01*
X91503512Y-95333927D01*
G37*
G36*
X94043512Y-95333927D02*
G01*
X94192812Y-95363624D01*
X94356784Y-95431544D01*
X94504354Y-95530147D01*
X94629853Y-95655646D01*
X94728456Y-95803216D01*
X94796376Y-95967188D01*
X94831000Y-96141259D01*
X94831000Y-96318741D01*
X94796376Y-96492812D01*
X94728456Y-96656784D01*
X94629853Y-96804354D01*
X94504354Y-96929853D01*
X94356784Y-97028456D01*
X94192812Y-97096376D01*
X94043512Y-97126073D01*
X94018742Y-97131000D01*
X93841258Y-97131000D01*
X93816488Y-97126073D01*
X93667188Y-97096376D01*
X93503216Y-97028456D01*
X93355646Y-96929853D01*
X93230147Y-96804354D01*
X93131544Y-96656784D01*
X93063624Y-96492812D01*
X93029000Y-96318741D01*
X93029000Y-96141259D01*
X93063624Y-95967188D01*
X93131544Y-95803216D01*
X93230147Y-95655646D01*
X93355646Y-95530147D01*
X93503216Y-95431544D01*
X93667188Y-95363624D01*
X93816488Y-95333927D01*
X93841258Y-95329000D01*
X94018742Y-95329000D01*
X94043512Y-95333927D01*
G37*
G36*
X96583512Y-95333927D02*
G01*
X96732812Y-95363624D01*
X96896784Y-95431544D01*
X97044354Y-95530147D01*
X97169853Y-95655646D01*
X97268456Y-95803216D01*
X97336376Y-95967188D01*
X97371000Y-96141259D01*
X97371000Y-96318741D01*
X97336376Y-96492812D01*
X97268456Y-96656784D01*
X97169853Y-96804354D01*
X97044354Y-96929853D01*
X96896784Y-97028456D01*
X96732812Y-97096376D01*
X96583512Y-97126073D01*
X96558742Y-97131000D01*
X96381258Y-97131000D01*
X96356488Y-97126073D01*
X96207188Y-97096376D01*
X96043216Y-97028456D01*
X95895646Y-96929853D01*
X95770147Y-96804354D01*
X95671544Y-96656784D01*
X95603624Y-96492812D01*
X95569000Y-96318741D01*
X95569000Y-96141259D01*
X95603624Y-95967188D01*
X95671544Y-95803216D01*
X95770147Y-95655646D01*
X95895646Y-95530147D01*
X96043216Y-95431544D01*
X96207188Y-95363624D01*
X96356488Y-95333927D01*
X96381258Y-95329000D01*
X96558742Y-95329000D01*
X96583512Y-95333927D01*
G37*
G36*
X99123512Y-95333927D02*
G01*
X99272812Y-95363624D01*
X99436784Y-95431544D01*
X99584354Y-95530147D01*
X99709853Y-95655646D01*
X99808456Y-95803216D01*
X99876376Y-95967188D01*
X99911000Y-96141259D01*
X99911000Y-96318741D01*
X99876376Y-96492812D01*
X99808456Y-96656784D01*
X99709853Y-96804354D01*
X99584354Y-96929853D01*
X99436784Y-97028456D01*
X99272812Y-97096376D01*
X99123512Y-97126073D01*
X99098742Y-97131000D01*
X98921258Y-97131000D01*
X98896488Y-97126073D01*
X98747188Y-97096376D01*
X98583216Y-97028456D01*
X98435646Y-96929853D01*
X98310147Y-96804354D01*
X98211544Y-96656784D01*
X98143624Y-96492812D01*
X98109000Y-96318741D01*
X98109000Y-96141259D01*
X98143624Y-95967188D01*
X98211544Y-95803216D01*
X98310147Y-95655646D01*
X98435646Y-95530147D01*
X98583216Y-95431544D01*
X98747188Y-95363624D01*
X98896488Y-95333927D01*
X98921258Y-95329000D01*
X99098742Y-95329000D01*
X99123512Y-95333927D01*
G37*
G36*
X106743512Y-95333927D02*
G01*
X106892812Y-95363624D01*
X107056784Y-95431544D01*
X107204354Y-95530147D01*
X107329853Y-95655646D01*
X107428456Y-95803216D01*
X107496376Y-95967188D01*
X107531000Y-96141259D01*
X107531000Y-96318741D01*
X107496376Y-96492812D01*
X107428456Y-96656784D01*
X107329853Y-96804354D01*
X107204354Y-96929853D01*
X107056784Y-97028456D01*
X106892812Y-97096376D01*
X106743512Y-97126073D01*
X106718742Y-97131000D01*
X106541258Y-97131000D01*
X106516488Y-97126073D01*
X106367188Y-97096376D01*
X106203216Y-97028456D01*
X106055646Y-96929853D01*
X105930147Y-96804354D01*
X105831544Y-96656784D01*
X105763624Y-96492812D01*
X105729000Y-96318741D01*
X105729000Y-96141259D01*
X105763624Y-95967188D01*
X105831544Y-95803216D01*
X105930147Y-95655646D01*
X106055646Y-95530147D01*
X106203216Y-95431544D01*
X106367188Y-95363624D01*
X106516488Y-95333927D01*
X106541258Y-95329000D01*
X106718742Y-95329000D01*
X106743512Y-95333927D01*
G37*
G36*
X101663512Y-95333927D02*
G01*
X101812812Y-95363624D01*
X101976784Y-95431544D01*
X102124354Y-95530147D01*
X102249853Y-95655646D01*
X102348456Y-95803216D01*
X102416376Y-95967188D01*
X102451000Y-96141259D01*
X102451000Y-96318741D01*
X102416376Y-96492812D01*
X102348456Y-96656784D01*
X102249853Y-96804354D01*
X102124354Y-96929853D01*
X101976784Y-97028456D01*
X101812812Y-97096376D01*
X101663512Y-97126073D01*
X101638742Y-97131000D01*
X101461258Y-97131000D01*
X101436488Y-97126073D01*
X101287188Y-97096376D01*
X101123216Y-97028456D01*
X100975646Y-96929853D01*
X100850147Y-96804354D01*
X100751544Y-96656784D01*
X100683624Y-96492812D01*
X100649000Y-96318741D01*
X100649000Y-96141259D01*
X100683624Y-95967188D01*
X100751544Y-95803216D01*
X100850147Y-95655646D01*
X100975646Y-95530147D01*
X101123216Y-95431544D01*
X101287188Y-95363624D01*
X101436488Y-95333927D01*
X101461258Y-95329000D01*
X101638742Y-95329000D01*
X101663512Y-95333927D01*
G37*
G36*
X58483512Y-95333927D02*
G01*
X58632812Y-95363624D01*
X58796784Y-95431544D01*
X58944354Y-95530147D01*
X59069853Y-95655646D01*
X59168456Y-95803216D01*
X59236376Y-95967188D01*
X59271000Y-96141259D01*
X59271000Y-96318741D01*
X59236376Y-96492812D01*
X59168456Y-96656784D01*
X59069853Y-96804354D01*
X58944354Y-96929853D01*
X58796784Y-97028456D01*
X58632812Y-97096376D01*
X58483512Y-97126073D01*
X58458742Y-97131000D01*
X58281258Y-97131000D01*
X58256488Y-97126073D01*
X58107188Y-97096376D01*
X57943216Y-97028456D01*
X57795646Y-96929853D01*
X57670147Y-96804354D01*
X57571544Y-96656784D01*
X57503624Y-96492812D01*
X57469000Y-96318741D01*
X57469000Y-96141259D01*
X57503624Y-95967188D01*
X57571544Y-95803216D01*
X57670147Y-95655646D01*
X57795646Y-95530147D01*
X57943216Y-95431544D01*
X58107188Y-95363624D01*
X58256488Y-95333927D01*
X58281258Y-95329000D01*
X58458742Y-95329000D01*
X58483512Y-95333927D01*
G37*
G36*
X104203512Y-95333927D02*
G01*
X104352812Y-95363624D01*
X104516784Y-95431544D01*
X104664354Y-95530147D01*
X104789853Y-95655646D01*
X104888456Y-95803216D01*
X104956376Y-95967188D01*
X104991000Y-96141259D01*
X104991000Y-96318741D01*
X104956376Y-96492812D01*
X104888456Y-96656784D01*
X104789853Y-96804354D01*
X104664354Y-96929853D01*
X104516784Y-97028456D01*
X104352812Y-97096376D01*
X104203512Y-97126073D01*
X104178742Y-97131000D01*
X104001258Y-97131000D01*
X103976488Y-97126073D01*
X103827188Y-97096376D01*
X103663216Y-97028456D01*
X103515646Y-96929853D01*
X103390147Y-96804354D01*
X103291544Y-96656784D01*
X103223624Y-96492812D01*
X103189000Y-96318741D01*
X103189000Y-96141259D01*
X103223624Y-95967188D01*
X103291544Y-95803216D01*
X103390147Y-95655646D01*
X103515646Y-95530147D01*
X103663216Y-95431544D01*
X103827188Y-95363624D01*
X103976488Y-95333927D01*
X104001258Y-95329000D01*
X104178742Y-95329000D01*
X104203512Y-95333927D01*
G37*
M02*
