G04 #@! TF.GenerationSoftware,KiCad,Pcbnew,(5.1.5)-3*
G04 #@! TF.CreationDate,2020-03-31T15:27:32+09:00*
G04 #@! TF.ProjectId,CAL_V_Simulation_circuit,43414c5f-565f-4536-996d-756c6174696f,rev?*
G04 #@! TF.SameCoordinates,Original*
G04 #@! TF.FileFunction,Copper,L1,Top*
G04 #@! TF.FilePolarity,Positive*
%FSLAX46Y46*%
G04 Gerber Fmt 4.6, Leading zero omitted, Abs format (unit mm)*
G04 Created by KiCad (PCBNEW (5.1.5)-3) date 2020-03-31 15:27:32*
%MOMM*%
%LPD*%
G04 APERTURE LIST*
%ADD10C,2.600000*%
%ADD11C,2.000000*%
%ADD12R,2.000000X2.000000*%
%ADD13C,0.100000*%
%ADD14O,2.000000X1.700000*%
%ADD15R,3.500000X3.500000*%
%ADD16R,1.920000X1.920000*%
%ADD17C,1.920000*%
%ADD18C,1.800000*%
%ADD19R,1.700000X1.700000*%
%ADD20O,1.700000X1.700000*%
%ADD21C,0.600000*%
%ADD22C,0.600000*%
%ADD23C,0.800000*%
%ADD24C,0.254000*%
G04 APERTURE END LIST*
D10*
X98000000Y-125000000D03*
X93000000Y-125000000D03*
D11*
X83250000Y-109250000D03*
D12*
X78250000Y-109250000D03*
X93000000Y-109250000D03*
D11*
X98000000Y-109250000D03*
G04 #@! TA.AperFunction,ComponentPad*
D13*
G36*
X65774504Y-121651204D02*
G01*
X65798773Y-121654804D01*
X65822571Y-121660765D01*
X65845671Y-121669030D01*
X65867849Y-121679520D01*
X65888893Y-121692133D01*
X65908598Y-121706747D01*
X65926777Y-121723223D01*
X65943253Y-121741402D01*
X65957867Y-121761107D01*
X65970480Y-121782151D01*
X65980970Y-121804329D01*
X65989235Y-121827429D01*
X65995196Y-121851227D01*
X65998796Y-121875496D01*
X66000000Y-121900000D01*
X66000000Y-123100000D01*
X65998796Y-123124504D01*
X65995196Y-123148773D01*
X65989235Y-123172571D01*
X65980970Y-123195671D01*
X65970480Y-123217849D01*
X65957867Y-123238893D01*
X65943253Y-123258598D01*
X65926777Y-123276777D01*
X65908598Y-123293253D01*
X65888893Y-123307867D01*
X65867849Y-123320480D01*
X65845671Y-123330970D01*
X65822571Y-123339235D01*
X65798773Y-123345196D01*
X65774504Y-123348796D01*
X65750000Y-123350000D01*
X64250000Y-123350000D01*
X64225496Y-123348796D01*
X64201227Y-123345196D01*
X64177429Y-123339235D01*
X64154329Y-123330970D01*
X64132151Y-123320480D01*
X64111107Y-123307867D01*
X64091402Y-123293253D01*
X64073223Y-123276777D01*
X64056747Y-123258598D01*
X64042133Y-123238893D01*
X64029520Y-123217849D01*
X64019030Y-123195671D01*
X64010765Y-123172571D01*
X64004804Y-123148773D01*
X64001204Y-123124504D01*
X64000000Y-123100000D01*
X64000000Y-121900000D01*
X64001204Y-121875496D01*
X64004804Y-121851227D01*
X64010765Y-121827429D01*
X64019030Y-121804329D01*
X64029520Y-121782151D01*
X64042133Y-121761107D01*
X64056747Y-121741402D01*
X64073223Y-121723223D01*
X64091402Y-121706747D01*
X64111107Y-121692133D01*
X64132151Y-121679520D01*
X64154329Y-121669030D01*
X64177429Y-121660765D01*
X64201227Y-121654804D01*
X64225496Y-121651204D01*
X64250000Y-121650000D01*
X65750000Y-121650000D01*
X65774504Y-121651204D01*
G37*
G04 #@! TD.AperFunction*
D14*
X65000000Y-125000000D03*
D15*
X95500000Y-135000000D03*
G04 #@! TA.AperFunction,ComponentPad*
D13*
G36*
X96573513Y-139503611D02*
G01*
X96646318Y-139514411D01*
X96717714Y-139532295D01*
X96787013Y-139557090D01*
X96853548Y-139588559D01*
X96916678Y-139626398D01*
X96975795Y-139670242D01*
X97030330Y-139719670D01*
X97079758Y-139774205D01*
X97123602Y-139833322D01*
X97161441Y-139896452D01*
X97192910Y-139962987D01*
X97217705Y-140032286D01*
X97235589Y-140103682D01*
X97246389Y-140176487D01*
X97250000Y-140250000D01*
X97250000Y-141750000D01*
X97246389Y-141823513D01*
X97235589Y-141896318D01*
X97217705Y-141967714D01*
X97192910Y-142037013D01*
X97161441Y-142103548D01*
X97123602Y-142166678D01*
X97079758Y-142225795D01*
X97030330Y-142280330D01*
X96975795Y-142329758D01*
X96916678Y-142373602D01*
X96853548Y-142411441D01*
X96787013Y-142442910D01*
X96717714Y-142467705D01*
X96646318Y-142485589D01*
X96573513Y-142496389D01*
X96500000Y-142500000D01*
X94500000Y-142500000D01*
X94426487Y-142496389D01*
X94353682Y-142485589D01*
X94282286Y-142467705D01*
X94212987Y-142442910D01*
X94146452Y-142411441D01*
X94083322Y-142373602D01*
X94024205Y-142329758D01*
X93969670Y-142280330D01*
X93920242Y-142225795D01*
X93876398Y-142166678D01*
X93838559Y-142103548D01*
X93807090Y-142037013D01*
X93782295Y-141967714D01*
X93764411Y-141896318D01*
X93753611Y-141823513D01*
X93750000Y-141750000D01*
X93750000Y-140250000D01*
X93753611Y-140176487D01*
X93764411Y-140103682D01*
X93782295Y-140032286D01*
X93807090Y-139962987D01*
X93838559Y-139896452D01*
X93876398Y-139833322D01*
X93920242Y-139774205D01*
X93969670Y-139719670D01*
X94024205Y-139670242D01*
X94083322Y-139626398D01*
X94146452Y-139588559D01*
X94212987Y-139557090D01*
X94282286Y-139532295D01*
X94353682Y-139514411D01*
X94426487Y-139503611D01*
X94500000Y-139500000D01*
X96500000Y-139500000D01*
X96573513Y-139503611D01*
G37*
G04 #@! TD.AperFunction*
G04 #@! TA.AperFunction,ComponentPad*
G36*
X101160765Y-136254213D02*
G01*
X101245704Y-136266813D01*
X101328999Y-136287677D01*
X101409848Y-136316605D01*
X101487472Y-136353319D01*
X101561124Y-136397464D01*
X101630094Y-136448616D01*
X101693718Y-136506282D01*
X101751384Y-136569906D01*
X101802536Y-136638876D01*
X101846681Y-136712528D01*
X101883395Y-136790152D01*
X101912323Y-136871001D01*
X101933187Y-136954296D01*
X101945787Y-137039235D01*
X101950000Y-137125000D01*
X101950000Y-138875000D01*
X101945787Y-138960765D01*
X101933187Y-139045704D01*
X101912323Y-139128999D01*
X101883395Y-139209848D01*
X101846681Y-139287472D01*
X101802536Y-139361124D01*
X101751384Y-139430094D01*
X101693718Y-139493718D01*
X101630094Y-139551384D01*
X101561124Y-139602536D01*
X101487472Y-139646681D01*
X101409848Y-139683395D01*
X101328999Y-139712323D01*
X101245704Y-139733187D01*
X101160765Y-139745787D01*
X101075000Y-139750000D01*
X99325000Y-139750000D01*
X99239235Y-139745787D01*
X99154296Y-139733187D01*
X99071001Y-139712323D01*
X98990152Y-139683395D01*
X98912528Y-139646681D01*
X98838876Y-139602536D01*
X98769906Y-139551384D01*
X98706282Y-139493718D01*
X98648616Y-139430094D01*
X98597464Y-139361124D01*
X98553319Y-139287472D01*
X98516605Y-139209848D01*
X98487677Y-139128999D01*
X98466813Y-139045704D01*
X98454213Y-138960765D01*
X98450000Y-138875000D01*
X98450000Y-137125000D01*
X98454213Y-137039235D01*
X98466813Y-136954296D01*
X98487677Y-136871001D01*
X98516605Y-136790152D01*
X98553319Y-136712528D01*
X98597464Y-136638876D01*
X98648616Y-136569906D01*
X98706282Y-136506282D01*
X98769906Y-136448616D01*
X98838876Y-136397464D01*
X98912528Y-136353319D01*
X98990152Y-136316605D01*
X99071001Y-136287677D01*
X99154296Y-136266813D01*
X99239235Y-136254213D01*
X99325000Y-136250000D01*
X101075000Y-136250000D01*
X101160765Y-136254213D01*
G37*
G04 #@! TD.AperFunction*
D10*
X83250000Y-125000000D03*
X78250000Y-125000000D03*
D16*
X78500000Y-135500000D03*
D17*
X80800000Y-135500000D03*
X83100000Y-135500000D03*
D16*
X78500000Y-140000000D03*
D17*
X80800000Y-140000000D03*
X83100000Y-140000000D03*
X75100000Y-135500000D03*
X72800000Y-135500000D03*
D16*
X70500000Y-135500000D03*
D17*
X75100000Y-140000000D03*
X72800000Y-140000000D03*
D16*
X70500000Y-140000000D03*
X62500000Y-135500000D03*
D17*
X64800000Y-135500000D03*
X67100000Y-135500000D03*
X67100000Y-140000000D03*
X64800000Y-140000000D03*
D16*
X62500000Y-140000000D03*
D11*
X62500000Y-111500000D03*
X62500000Y-107000000D03*
X69000000Y-111500000D03*
X69000000Y-107000000D03*
D18*
X70500000Y-145000000D03*
X62500000Y-145000000D03*
X78500000Y-145000000D03*
X86500000Y-145000000D03*
D19*
X58370000Y-98770000D03*
D20*
X58370000Y-96230000D03*
X60910000Y-98770000D03*
X60910000Y-96230000D03*
X63450000Y-98770000D03*
X63450000Y-96230000D03*
X65990000Y-98770000D03*
X65990000Y-96230000D03*
X68530000Y-98770000D03*
X68530000Y-96230000D03*
X71070000Y-98770000D03*
X71070000Y-96230000D03*
X73610000Y-98770000D03*
X73610000Y-96230000D03*
X76150000Y-98770000D03*
X76150000Y-96230000D03*
X78690000Y-98770000D03*
X78690000Y-96230000D03*
X81230000Y-98770000D03*
X81230000Y-96230000D03*
X83770000Y-98770000D03*
X83770000Y-96230000D03*
X86310000Y-98770000D03*
X86310000Y-96230000D03*
X88850000Y-98770000D03*
X88850000Y-96230000D03*
X91390000Y-98770000D03*
X91390000Y-96230000D03*
X93930000Y-98770000D03*
X93930000Y-96230000D03*
X96470000Y-98770000D03*
X96470000Y-96230000D03*
X99010000Y-98770000D03*
X99010000Y-96230000D03*
X101550000Y-98770000D03*
X101550000Y-96230000D03*
X104090000Y-98770000D03*
X104090000Y-96230000D03*
X106630000Y-98770000D03*
X106630000Y-96230000D03*
D21*
X88050000Y-119950000D03*
D22*
X98000000Y-125000000D02*
X98000000Y-118950000D01*
X93000000Y-113950000D02*
X93000000Y-109250000D01*
X66000000Y-122500000D02*
X74600000Y-113900000D01*
X74600000Y-113900000D02*
X93000000Y-113900000D01*
X65000000Y-122500000D02*
X66000000Y-122500000D01*
X98000000Y-118950000D02*
X93000000Y-113900000D01*
X80800000Y-135500000D02*
X80800000Y-140000000D01*
X80800000Y-142700000D02*
X78500000Y-145000000D01*
X80800000Y-140000000D02*
X80800000Y-142700000D01*
X64800000Y-140000000D02*
X64800000Y-135500000D01*
X70500000Y-137060000D02*
X71190000Y-137750000D01*
X70500000Y-135500000D02*
X70500000Y-137060000D01*
X78500000Y-137060000D02*
X78500000Y-135500000D01*
X77810000Y-137750000D02*
X78500000Y-137060000D01*
X71190000Y-137750000D02*
X77810000Y-137750000D01*
X70500000Y-138440000D02*
X70500000Y-140000000D01*
X71190000Y-137750000D02*
X70500000Y-138440000D01*
X78500000Y-138440000D02*
X78500000Y-140000000D01*
X77810000Y-137750000D02*
X78500000Y-138440000D01*
X70500000Y-140000000D02*
X70500000Y-145000000D01*
X78500000Y-133740000D02*
X81590000Y-130650000D01*
X78500000Y-135500000D02*
X78500000Y-133740000D01*
X81590000Y-130650000D02*
X85050000Y-130650000D01*
X85050000Y-130650000D02*
X88050000Y-127650000D01*
X88050000Y-127650000D02*
X88050000Y-119950000D01*
D23*
X88050000Y-119950000D02*
X88050000Y-119950000D01*
D22*
X62500000Y-140000000D02*
X62500000Y-145000000D01*
X76150000Y-104350000D02*
X76150000Y-98770000D01*
X69000000Y-111500000D02*
X76150000Y-104350000D01*
D24*
G36*
X56942068Y-95796842D02*
G01*
X56885000Y-96083740D01*
X56885000Y-96376260D01*
X56942068Y-96663158D01*
X57054010Y-96933411D01*
X57216525Y-97176632D01*
X57348380Y-97308487D01*
X57275820Y-97330498D01*
X57165506Y-97389463D01*
X57068815Y-97468815D01*
X56989463Y-97565506D01*
X56930498Y-97675820D01*
X56894188Y-97795518D01*
X56881928Y-97920000D01*
X56881928Y-99620000D01*
X56894188Y-99744482D01*
X56930498Y-99864180D01*
X56989463Y-99974494D01*
X57068815Y-100071185D01*
X57165506Y-100150537D01*
X57275820Y-100209502D01*
X57395518Y-100245812D01*
X57520000Y-100258072D01*
X59220000Y-100258072D01*
X59344482Y-100245812D01*
X59464180Y-100209502D01*
X59574494Y-100150537D01*
X59671185Y-100071185D01*
X59750537Y-99974494D01*
X59809502Y-99864180D01*
X59831513Y-99791620D01*
X59963368Y-99923475D01*
X60206589Y-100085990D01*
X60476842Y-100197932D01*
X60763740Y-100255000D01*
X61056260Y-100255000D01*
X61343158Y-100197932D01*
X61613411Y-100085990D01*
X61856632Y-99923475D01*
X62063475Y-99716632D01*
X62180000Y-99542240D01*
X62296525Y-99716632D01*
X62503368Y-99923475D01*
X62746589Y-100085990D01*
X63016842Y-100197932D01*
X63303740Y-100255000D01*
X63596260Y-100255000D01*
X63883158Y-100197932D01*
X64153411Y-100085990D01*
X64396632Y-99923475D01*
X64603475Y-99716632D01*
X64720000Y-99542240D01*
X64836525Y-99716632D01*
X65043368Y-99923475D01*
X65286589Y-100085990D01*
X65556842Y-100197932D01*
X65843740Y-100255000D01*
X66136260Y-100255000D01*
X66423158Y-100197932D01*
X66693411Y-100085990D01*
X66936632Y-99923475D01*
X67143475Y-99716632D01*
X67265195Y-99534466D01*
X67334822Y-99651355D01*
X67529731Y-99867588D01*
X67763080Y-100041641D01*
X68025901Y-100166825D01*
X68173110Y-100211476D01*
X68403000Y-100090155D01*
X68403000Y-98897000D01*
X68383000Y-98897000D01*
X68383000Y-98643000D01*
X68403000Y-98643000D01*
X68403000Y-98623000D01*
X68657000Y-98623000D01*
X68657000Y-98643000D01*
X68677000Y-98643000D01*
X68677000Y-98897000D01*
X68657000Y-98897000D01*
X68657000Y-100090155D01*
X68886890Y-100211476D01*
X69034099Y-100166825D01*
X69296920Y-100041641D01*
X69530269Y-99867588D01*
X69725178Y-99651355D01*
X69794805Y-99534466D01*
X69916525Y-99716632D01*
X70123368Y-99923475D01*
X70366589Y-100085990D01*
X70636842Y-100197932D01*
X70923740Y-100255000D01*
X71216260Y-100255000D01*
X71503158Y-100197932D01*
X71773411Y-100085990D01*
X72016632Y-99923475D01*
X72223475Y-99716632D01*
X72340000Y-99542240D01*
X72456525Y-99716632D01*
X72663368Y-99923475D01*
X72906589Y-100085990D01*
X73176842Y-100197932D01*
X73463740Y-100255000D01*
X73756260Y-100255000D01*
X74043158Y-100197932D01*
X74313411Y-100085990D01*
X74556632Y-99923475D01*
X74763475Y-99716632D01*
X74880000Y-99542240D01*
X74996525Y-99716632D01*
X75203368Y-99923475D01*
X75215001Y-99931248D01*
X75215000Y-103962711D01*
X69287546Y-109890165D01*
X69161033Y-109865000D01*
X68838967Y-109865000D01*
X68523088Y-109927832D01*
X68225537Y-110051082D01*
X67957748Y-110230013D01*
X67730013Y-110457748D01*
X67551082Y-110725537D01*
X67427832Y-111023088D01*
X67365000Y-111338967D01*
X67365000Y-111661033D01*
X67427832Y-111976912D01*
X67551082Y-112274463D01*
X67730013Y-112542252D01*
X67957748Y-112769987D01*
X68225537Y-112948918D01*
X68523088Y-113072168D01*
X68838967Y-113135000D01*
X69161033Y-113135000D01*
X69476912Y-113072168D01*
X69774463Y-112948918D01*
X70042252Y-112769987D01*
X70269987Y-112542252D01*
X70448918Y-112274463D01*
X70572168Y-111976912D01*
X70635000Y-111661033D01*
X70635000Y-111338967D01*
X70609835Y-111212454D01*
X73572289Y-108250000D01*
X76611928Y-108250000D01*
X76611928Y-110250000D01*
X76624188Y-110374482D01*
X76660498Y-110494180D01*
X76719463Y-110604494D01*
X76798815Y-110701185D01*
X76895506Y-110780537D01*
X77005820Y-110839502D01*
X77125518Y-110875812D01*
X77250000Y-110888072D01*
X79250000Y-110888072D01*
X79374482Y-110875812D01*
X79494180Y-110839502D01*
X79604494Y-110780537D01*
X79701185Y-110701185D01*
X79780537Y-110604494D01*
X79839502Y-110494180D01*
X79872496Y-110385413D01*
X82294192Y-110385413D01*
X82389956Y-110649814D01*
X82679571Y-110790704D01*
X82991108Y-110872384D01*
X83312595Y-110891718D01*
X83631675Y-110847961D01*
X83936088Y-110742795D01*
X84110044Y-110649814D01*
X84205808Y-110385413D01*
X83250000Y-109429605D01*
X82294192Y-110385413D01*
X79872496Y-110385413D01*
X79875812Y-110374482D01*
X79888072Y-110250000D01*
X79888072Y-109312595D01*
X81608282Y-109312595D01*
X81652039Y-109631675D01*
X81757205Y-109936088D01*
X81850186Y-110110044D01*
X82114587Y-110205808D01*
X83070395Y-109250000D01*
X83429605Y-109250000D01*
X84385413Y-110205808D01*
X84649814Y-110110044D01*
X84790704Y-109820429D01*
X84872384Y-109508892D01*
X84891718Y-109187405D01*
X84847961Y-108868325D01*
X84742795Y-108563912D01*
X84649814Y-108389956D01*
X84385413Y-108294192D01*
X83429605Y-109250000D01*
X83070395Y-109250000D01*
X82114587Y-108294192D01*
X81850186Y-108389956D01*
X81709296Y-108679571D01*
X81627616Y-108991108D01*
X81608282Y-109312595D01*
X79888072Y-109312595D01*
X79888072Y-108250000D01*
X79875812Y-108125518D01*
X79872497Y-108114587D01*
X82294192Y-108114587D01*
X83250000Y-109070395D01*
X84205808Y-108114587D01*
X84110044Y-107850186D01*
X83820429Y-107709296D01*
X83508892Y-107627616D01*
X83187405Y-107608282D01*
X82868325Y-107652039D01*
X82563912Y-107757205D01*
X82389956Y-107850186D01*
X82294192Y-108114587D01*
X79872497Y-108114587D01*
X79839502Y-108005820D01*
X79780537Y-107895506D01*
X79701185Y-107798815D01*
X79604494Y-107719463D01*
X79494180Y-107660498D01*
X79374482Y-107624188D01*
X79250000Y-107611928D01*
X77250000Y-107611928D01*
X77125518Y-107624188D01*
X77005820Y-107660498D01*
X76895506Y-107719463D01*
X76798815Y-107798815D01*
X76719463Y-107895506D01*
X76660498Y-108005820D01*
X76624188Y-108125518D01*
X76611928Y-108250000D01*
X73572289Y-108250000D01*
X76778660Y-105043629D01*
X76814344Y-105014344D01*
X76931186Y-104871972D01*
X77018007Y-104709540D01*
X77071471Y-104533292D01*
X77085000Y-104395932D01*
X77085000Y-104395931D01*
X77089524Y-104350000D01*
X77085000Y-104304068D01*
X77085000Y-99931247D01*
X77096632Y-99923475D01*
X77303475Y-99716632D01*
X77420000Y-99542240D01*
X77536525Y-99716632D01*
X77743368Y-99923475D01*
X77986589Y-100085990D01*
X78256842Y-100197932D01*
X78543740Y-100255000D01*
X78836260Y-100255000D01*
X79123158Y-100197932D01*
X79393411Y-100085990D01*
X79636632Y-99923475D01*
X79843475Y-99716632D01*
X79960000Y-99542240D01*
X80076525Y-99716632D01*
X80283368Y-99923475D01*
X80526589Y-100085990D01*
X80796842Y-100197932D01*
X81083740Y-100255000D01*
X81376260Y-100255000D01*
X81663158Y-100197932D01*
X81933411Y-100085990D01*
X82176632Y-99923475D01*
X82383475Y-99716632D01*
X82500000Y-99542240D01*
X82616525Y-99716632D01*
X82823368Y-99923475D01*
X83066589Y-100085990D01*
X83336842Y-100197932D01*
X83623740Y-100255000D01*
X83916260Y-100255000D01*
X84203158Y-100197932D01*
X84473411Y-100085990D01*
X84716632Y-99923475D01*
X84923475Y-99716632D01*
X85040000Y-99542240D01*
X85156525Y-99716632D01*
X85363368Y-99923475D01*
X85606589Y-100085990D01*
X85876842Y-100197932D01*
X86163740Y-100255000D01*
X86456260Y-100255000D01*
X86743158Y-100197932D01*
X87013411Y-100085990D01*
X87256632Y-99923475D01*
X87463475Y-99716632D01*
X87585195Y-99534466D01*
X87654822Y-99651355D01*
X87849731Y-99867588D01*
X88083080Y-100041641D01*
X88345901Y-100166825D01*
X88493110Y-100211476D01*
X88723000Y-100090155D01*
X88723000Y-98897000D01*
X88703000Y-98897000D01*
X88703000Y-98643000D01*
X88723000Y-98643000D01*
X88723000Y-98623000D01*
X88977000Y-98623000D01*
X88977000Y-98643000D01*
X88997000Y-98643000D01*
X88997000Y-98897000D01*
X88977000Y-98897000D01*
X88977000Y-100090155D01*
X89206890Y-100211476D01*
X89354099Y-100166825D01*
X89616920Y-100041641D01*
X89850269Y-99867588D01*
X90045178Y-99651355D01*
X90114805Y-99534466D01*
X90236525Y-99716632D01*
X90443368Y-99923475D01*
X90686589Y-100085990D01*
X90956842Y-100197932D01*
X91243740Y-100255000D01*
X91536260Y-100255000D01*
X91823158Y-100197932D01*
X92093411Y-100085990D01*
X92336632Y-99923475D01*
X92543475Y-99716632D01*
X92660000Y-99542240D01*
X92776525Y-99716632D01*
X92983368Y-99923475D01*
X93226589Y-100085990D01*
X93496842Y-100197932D01*
X93783740Y-100255000D01*
X94076260Y-100255000D01*
X94363158Y-100197932D01*
X94633411Y-100085990D01*
X94876632Y-99923475D01*
X95083475Y-99716632D01*
X95200000Y-99542240D01*
X95316525Y-99716632D01*
X95523368Y-99923475D01*
X95766589Y-100085990D01*
X96036842Y-100197932D01*
X96323740Y-100255000D01*
X96616260Y-100255000D01*
X96903158Y-100197932D01*
X97173411Y-100085990D01*
X97416632Y-99923475D01*
X97623475Y-99716632D01*
X97740000Y-99542240D01*
X97856525Y-99716632D01*
X98063368Y-99923475D01*
X98306589Y-100085990D01*
X98576842Y-100197932D01*
X98863740Y-100255000D01*
X99156260Y-100255000D01*
X99443158Y-100197932D01*
X99713411Y-100085990D01*
X99956632Y-99923475D01*
X100163475Y-99716632D01*
X100280000Y-99542240D01*
X100396525Y-99716632D01*
X100603368Y-99923475D01*
X100846589Y-100085990D01*
X101116842Y-100197932D01*
X101403740Y-100255000D01*
X101696260Y-100255000D01*
X101983158Y-100197932D01*
X102253411Y-100085990D01*
X102496632Y-99923475D01*
X102703475Y-99716632D01*
X102820000Y-99542240D01*
X102936525Y-99716632D01*
X103143368Y-99923475D01*
X103386589Y-100085990D01*
X103656842Y-100197932D01*
X103943740Y-100255000D01*
X104236260Y-100255000D01*
X104523158Y-100197932D01*
X104793411Y-100085990D01*
X105036632Y-99923475D01*
X105243475Y-99716632D01*
X105365195Y-99534466D01*
X105434822Y-99651355D01*
X105629731Y-99867588D01*
X105863080Y-100041641D01*
X106125901Y-100166825D01*
X106273110Y-100211476D01*
X106503000Y-100090155D01*
X106503000Y-98897000D01*
X106757000Y-98897000D01*
X106757000Y-100090155D01*
X106986890Y-100211476D01*
X107134099Y-100166825D01*
X107396920Y-100041641D01*
X107630269Y-99867588D01*
X107825178Y-99651355D01*
X107974157Y-99401252D01*
X108071481Y-99126891D01*
X107950814Y-98897000D01*
X106757000Y-98897000D01*
X106503000Y-98897000D01*
X106483000Y-98897000D01*
X106483000Y-98643000D01*
X106503000Y-98643000D01*
X106503000Y-98623000D01*
X106757000Y-98623000D01*
X106757000Y-98643000D01*
X107950814Y-98643000D01*
X108071481Y-98413109D01*
X107974157Y-98138748D01*
X107825178Y-97888645D01*
X107630269Y-97672412D01*
X107400594Y-97501100D01*
X107576632Y-97383475D01*
X107783475Y-97176632D01*
X107945990Y-96933411D01*
X108057932Y-96663158D01*
X108115000Y-96376260D01*
X108115000Y-96083740D01*
X108057932Y-95796842D01*
X107987581Y-95627000D01*
X110834766Y-95627000D01*
X110559750Y-95740915D01*
X110234636Y-95958149D01*
X109958149Y-96234636D01*
X109740915Y-96559750D01*
X109591282Y-96920997D01*
X109515000Y-97304495D01*
X109515000Y-97695505D01*
X109591282Y-98079003D01*
X109740915Y-98440250D01*
X109958149Y-98765364D01*
X110234636Y-99041851D01*
X110559750Y-99259085D01*
X110920997Y-99408718D01*
X111304495Y-99485000D01*
X111695505Y-99485000D01*
X112079003Y-99408718D01*
X112440250Y-99259085D01*
X112765364Y-99041851D01*
X113041851Y-98765364D01*
X113259085Y-98440250D01*
X113408718Y-98079003D01*
X113485000Y-97695505D01*
X113485000Y-97304495D01*
X113408718Y-96920997D01*
X113259085Y-96559750D01*
X113041851Y-96234636D01*
X112765364Y-95958149D01*
X112440250Y-95740915D01*
X112165234Y-95627000D01*
X133373000Y-95627000D01*
X133373000Y-148373000D01*
X112165234Y-148373000D01*
X112440250Y-148259085D01*
X112765364Y-148041851D01*
X113041851Y-147765364D01*
X113259085Y-147440250D01*
X113408718Y-147079003D01*
X113485000Y-146695505D01*
X113485000Y-146304495D01*
X113408718Y-145920997D01*
X113259085Y-145559750D01*
X113041851Y-145234636D01*
X112765364Y-144958149D01*
X112440250Y-144740915D01*
X112079003Y-144591282D01*
X111695505Y-144515000D01*
X111304495Y-144515000D01*
X110920997Y-144591282D01*
X110559750Y-144740915D01*
X110234636Y-144958149D01*
X109958149Y-145234636D01*
X109740915Y-145559750D01*
X109591282Y-145920997D01*
X109515000Y-146304495D01*
X109515000Y-146695505D01*
X109591282Y-147079003D01*
X109740915Y-147440250D01*
X109958149Y-147765364D01*
X110234636Y-148041851D01*
X110559750Y-148259085D01*
X110834766Y-148373000D01*
X54165234Y-148373000D01*
X54440250Y-148259085D01*
X54765364Y-148041851D01*
X55041851Y-147765364D01*
X55259085Y-147440250D01*
X55408718Y-147079003D01*
X55485000Y-146695505D01*
X55485000Y-146304495D01*
X55408718Y-145920997D01*
X55259085Y-145559750D01*
X55041851Y-145234636D01*
X54765364Y-144958149D01*
X54440250Y-144740915D01*
X54079003Y-144591282D01*
X53695505Y-144515000D01*
X53304495Y-144515000D01*
X52920997Y-144591282D01*
X52559750Y-144740915D01*
X52234636Y-144958149D01*
X51958149Y-145234636D01*
X51740915Y-145559750D01*
X51627000Y-145834766D01*
X51627000Y-134540000D01*
X60901928Y-134540000D01*
X60901928Y-136460000D01*
X60914188Y-136584482D01*
X60950498Y-136704180D01*
X61009463Y-136814494D01*
X61088815Y-136911185D01*
X61185506Y-136990537D01*
X61295820Y-137049502D01*
X61415518Y-137085812D01*
X61540000Y-137098072D01*
X63460000Y-137098072D01*
X63584482Y-137085812D01*
X63704180Y-137049502D01*
X63814494Y-136990537D01*
X63865001Y-136949087D01*
X63865000Y-138550912D01*
X63814494Y-138509463D01*
X63704180Y-138450498D01*
X63584482Y-138414188D01*
X63460000Y-138401928D01*
X61540000Y-138401928D01*
X61415518Y-138414188D01*
X61295820Y-138450498D01*
X61185506Y-138509463D01*
X61088815Y-138588815D01*
X61009463Y-138685506D01*
X60950498Y-138795820D01*
X60914188Y-138915518D01*
X60901928Y-139040000D01*
X60901928Y-140960000D01*
X60914188Y-141084482D01*
X60950498Y-141204180D01*
X61009463Y-141314494D01*
X61088815Y-141411185D01*
X61185506Y-141490537D01*
X61295820Y-141549502D01*
X61415518Y-141585812D01*
X61540000Y-141598072D01*
X61565000Y-141598072D01*
X61565001Y-143778618D01*
X61521495Y-143807688D01*
X61307688Y-144021495D01*
X61139701Y-144272905D01*
X61023989Y-144552257D01*
X60965000Y-144848816D01*
X60965000Y-145151184D01*
X61023989Y-145447743D01*
X61139701Y-145727095D01*
X61307688Y-145978505D01*
X61521495Y-146192312D01*
X61772905Y-146360299D01*
X62052257Y-146476011D01*
X62348816Y-146535000D01*
X62651184Y-146535000D01*
X62947743Y-146476011D01*
X63227095Y-146360299D01*
X63478505Y-146192312D01*
X63692312Y-145978505D01*
X63860299Y-145727095D01*
X63976011Y-145447743D01*
X64035000Y-145151184D01*
X64035000Y-144848816D01*
X63976011Y-144552257D01*
X63860299Y-144272905D01*
X63692312Y-144021495D01*
X63478505Y-143807688D01*
X63435000Y-143778619D01*
X63435000Y-141598072D01*
X63460000Y-141598072D01*
X63584482Y-141585812D01*
X63704180Y-141549502D01*
X63814494Y-141490537D01*
X63911185Y-141411185D01*
X63957182Y-141355138D01*
X64044484Y-141413471D01*
X64334756Y-141533706D01*
X64642906Y-141595000D01*
X64957094Y-141595000D01*
X65265244Y-141533706D01*
X65555516Y-141413471D01*
X65816754Y-141238918D01*
X65948787Y-141106885D01*
X66172720Y-141106885D01*
X66263653Y-141367197D01*
X66546451Y-141504090D01*
X66850521Y-141583182D01*
X67164178Y-141601432D01*
X67475368Y-141558140D01*
X67772134Y-141454970D01*
X67936347Y-141367197D01*
X68027280Y-141106885D01*
X67100000Y-140179605D01*
X66172720Y-141106885D01*
X65948787Y-141106885D01*
X66038918Y-141016754D01*
X66213471Y-140755516D01*
X66247831Y-140672564D01*
X66920395Y-140000000D01*
X67279605Y-140000000D01*
X68206885Y-140927280D01*
X68467197Y-140836347D01*
X68604090Y-140553549D01*
X68683182Y-140249479D01*
X68701432Y-139935822D01*
X68658140Y-139624632D01*
X68554970Y-139327866D01*
X68467197Y-139163653D01*
X68206885Y-139072720D01*
X67279605Y-140000000D01*
X66920395Y-140000000D01*
X66247831Y-139327436D01*
X66213471Y-139244484D01*
X66038918Y-138983246D01*
X65948787Y-138893115D01*
X66172720Y-138893115D01*
X67100000Y-139820395D01*
X68027280Y-138893115D01*
X67936347Y-138632803D01*
X67653549Y-138495910D01*
X67349479Y-138416818D01*
X67035822Y-138398568D01*
X66724632Y-138441860D01*
X66427866Y-138545030D01*
X66263653Y-138632803D01*
X66172720Y-138893115D01*
X65948787Y-138893115D01*
X65816754Y-138761082D01*
X65735000Y-138706456D01*
X65735000Y-136793544D01*
X65816754Y-136738918D01*
X65950000Y-136605672D01*
X66083246Y-136738918D01*
X66344484Y-136913471D01*
X66634756Y-137033706D01*
X66942906Y-137095000D01*
X67257094Y-137095000D01*
X67565244Y-137033706D01*
X67855516Y-136913471D01*
X68116754Y-136738918D01*
X68338918Y-136516754D01*
X68513471Y-136255516D01*
X68633706Y-135965244D01*
X68695000Y-135657094D01*
X68695000Y-135342906D01*
X68633706Y-135034756D01*
X68513471Y-134744484D01*
X68376840Y-134540000D01*
X68901928Y-134540000D01*
X68901928Y-136460000D01*
X68914188Y-136584482D01*
X68950498Y-136704180D01*
X69009463Y-136814494D01*
X69088815Y-136911185D01*
X69185506Y-136990537D01*
X69295820Y-137049502D01*
X69415518Y-137085812D01*
X69540000Y-137098072D01*
X69564226Y-137098072D01*
X69578529Y-137243291D01*
X69578530Y-137243293D01*
X69631994Y-137419540D01*
X69718815Y-137581972D01*
X69835657Y-137724344D01*
X69866918Y-137750000D01*
X69835656Y-137775656D01*
X69718814Y-137918029D01*
X69631993Y-138080461D01*
X69623172Y-138109541D01*
X69578529Y-138256709D01*
X69564226Y-138401928D01*
X69540000Y-138401928D01*
X69415518Y-138414188D01*
X69295820Y-138450498D01*
X69185506Y-138509463D01*
X69088815Y-138588815D01*
X69009463Y-138685506D01*
X68950498Y-138795820D01*
X68914188Y-138915518D01*
X68901928Y-139040000D01*
X68901928Y-140960000D01*
X68914188Y-141084482D01*
X68950498Y-141204180D01*
X69009463Y-141314494D01*
X69088815Y-141411185D01*
X69185506Y-141490537D01*
X69295820Y-141549502D01*
X69415518Y-141585812D01*
X69540000Y-141598072D01*
X69565000Y-141598072D01*
X69565001Y-143778618D01*
X69521495Y-143807688D01*
X69307688Y-144021495D01*
X69139701Y-144272905D01*
X69023989Y-144552257D01*
X68965000Y-144848816D01*
X68965000Y-145151184D01*
X69023989Y-145447743D01*
X69139701Y-145727095D01*
X69307688Y-145978505D01*
X69521495Y-146192312D01*
X69772905Y-146360299D01*
X70052257Y-146476011D01*
X70348816Y-146535000D01*
X70651184Y-146535000D01*
X70947743Y-146476011D01*
X71227095Y-146360299D01*
X71478505Y-146192312D01*
X71692312Y-145978505D01*
X71860299Y-145727095D01*
X71976011Y-145447743D01*
X72035000Y-145151184D01*
X72035000Y-144848816D01*
X71976011Y-144552257D01*
X71860299Y-144272905D01*
X71692312Y-144021495D01*
X71478505Y-143807688D01*
X71435000Y-143778619D01*
X71435000Y-141598072D01*
X71460000Y-141598072D01*
X71584482Y-141585812D01*
X71704180Y-141549502D01*
X71814494Y-141490537D01*
X71911185Y-141411185D01*
X71957182Y-141355138D01*
X72044484Y-141413471D01*
X72334756Y-141533706D01*
X72642906Y-141595000D01*
X72957094Y-141595000D01*
X73265244Y-141533706D01*
X73555516Y-141413471D01*
X73816754Y-141238918D01*
X73948787Y-141106885D01*
X74172720Y-141106885D01*
X74263653Y-141367197D01*
X74546451Y-141504090D01*
X74850521Y-141583182D01*
X75164178Y-141601432D01*
X75475368Y-141558140D01*
X75772134Y-141454970D01*
X75936347Y-141367197D01*
X76027280Y-141106885D01*
X75100000Y-140179605D01*
X74172720Y-141106885D01*
X73948787Y-141106885D01*
X74038918Y-141016754D01*
X74213471Y-140755516D01*
X74247831Y-140672564D01*
X74920395Y-140000000D01*
X75279605Y-140000000D01*
X76206885Y-140927280D01*
X76467197Y-140836347D01*
X76604090Y-140553549D01*
X76683182Y-140249479D01*
X76701432Y-139935822D01*
X76658140Y-139624632D01*
X76554970Y-139327866D01*
X76467197Y-139163653D01*
X76206885Y-139072720D01*
X75279605Y-140000000D01*
X74920395Y-140000000D01*
X74247831Y-139327436D01*
X74213471Y-139244484D01*
X74038918Y-138983246D01*
X73816754Y-138761082D01*
X73702889Y-138685000D01*
X74245419Y-138685000D01*
X74172720Y-138893115D01*
X75100000Y-139820395D01*
X76027280Y-138893115D01*
X75954581Y-138685000D01*
X77009878Y-138685000D01*
X77009463Y-138685506D01*
X76950498Y-138795820D01*
X76914188Y-138915518D01*
X76901928Y-139040000D01*
X76901928Y-140960000D01*
X76914188Y-141084482D01*
X76950498Y-141204180D01*
X77009463Y-141314494D01*
X77088815Y-141411185D01*
X77185506Y-141490537D01*
X77295820Y-141549502D01*
X77415518Y-141585812D01*
X77540000Y-141598072D01*
X79460000Y-141598072D01*
X79584482Y-141585812D01*
X79704180Y-141549502D01*
X79814494Y-141490537D01*
X79865001Y-141449087D01*
X79865001Y-142312709D01*
X78702503Y-143475208D01*
X78651184Y-143465000D01*
X78348816Y-143465000D01*
X78052257Y-143523989D01*
X77772905Y-143639701D01*
X77521495Y-143807688D01*
X77307688Y-144021495D01*
X77139701Y-144272905D01*
X77023989Y-144552257D01*
X76965000Y-144848816D01*
X76965000Y-145151184D01*
X77023989Y-145447743D01*
X77139701Y-145727095D01*
X77307688Y-145978505D01*
X77521495Y-146192312D01*
X77772905Y-146360299D01*
X78052257Y-146476011D01*
X78348816Y-146535000D01*
X78651184Y-146535000D01*
X78947743Y-146476011D01*
X79227095Y-146360299D01*
X79478505Y-146192312D01*
X79692312Y-145978505D01*
X79860299Y-145727095D01*
X79976011Y-145447743D01*
X80035000Y-145151184D01*
X80035000Y-144848816D01*
X84965000Y-144848816D01*
X84965000Y-145151184D01*
X85023989Y-145447743D01*
X85139701Y-145727095D01*
X85307688Y-145978505D01*
X85521495Y-146192312D01*
X85772905Y-146360299D01*
X86052257Y-146476011D01*
X86348816Y-146535000D01*
X86651184Y-146535000D01*
X86947743Y-146476011D01*
X87227095Y-146360299D01*
X87478505Y-146192312D01*
X87692312Y-145978505D01*
X87860299Y-145727095D01*
X87976011Y-145447743D01*
X88035000Y-145151184D01*
X88035000Y-144848816D01*
X87976011Y-144552257D01*
X87860299Y-144272905D01*
X87692312Y-144021495D01*
X87478505Y-143807688D01*
X87227095Y-143639701D01*
X86947743Y-143523989D01*
X86651184Y-143465000D01*
X86348816Y-143465000D01*
X86052257Y-143523989D01*
X85772905Y-143639701D01*
X85521495Y-143807688D01*
X85307688Y-144021495D01*
X85139701Y-144272905D01*
X85023989Y-144552257D01*
X84965000Y-144848816D01*
X80035000Y-144848816D01*
X80024792Y-144797497D01*
X81428664Y-143393626D01*
X81464344Y-143364344D01*
X81581186Y-143221972D01*
X81668007Y-143059540D01*
X81721471Y-142883292D01*
X81739524Y-142700001D01*
X81735000Y-142654069D01*
X81735000Y-142500000D01*
X93111928Y-142500000D01*
X93124188Y-142624482D01*
X93160498Y-142744180D01*
X93219463Y-142854494D01*
X93298815Y-142951185D01*
X93395506Y-143030537D01*
X93505820Y-143089502D01*
X93625518Y-143125812D01*
X93750000Y-143138072D01*
X95214250Y-143135000D01*
X95373000Y-142976250D01*
X95373000Y-141127000D01*
X95627000Y-141127000D01*
X95627000Y-142976250D01*
X95785750Y-143135000D01*
X97250000Y-143138072D01*
X97374482Y-143125812D01*
X97494180Y-143089502D01*
X97604494Y-143030537D01*
X97701185Y-142951185D01*
X97780537Y-142854494D01*
X97839502Y-142744180D01*
X97875812Y-142624482D01*
X97888072Y-142500000D01*
X97885000Y-141285750D01*
X97726250Y-141127000D01*
X95627000Y-141127000D01*
X95373000Y-141127000D01*
X93273750Y-141127000D01*
X93115000Y-141285750D01*
X93111928Y-142500000D01*
X81735000Y-142500000D01*
X81735000Y-141293544D01*
X81816754Y-141238918D01*
X81948787Y-141106885D01*
X82172720Y-141106885D01*
X82263653Y-141367197D01*
X82546451Y-141504090D01*
X82850521Y-141583182D01*
X83164178Y-141601432D01*
X83475368Y-141558140D01*
X83772134Y-141454970D01*
X83936347Y-141367197D01*
X84027280Y-141106885D01*
X83100000Y-140179605D01*
X82172720Y-141106885D01*
X81948787Y-141106885D01*
X82038918Y-141016754D01*
X82213471Y-140755516D01*
X82247831Y-140672564D01*
X82920395Y-140000000D01*
X83279605Y-140000000D01*
X84206885Y-140927280D01*
X84467197Y-140836347D01*
X84604090Y-140553549D01*
X84683182Y-140249479D01*
X84701432Y-139935822D01*
X84658140Y-139624632D01*
X84614812Y-139500000D01*
X93111928Y-139500000D01*
X93115000Y-140714250D01*
X93273750Y-140873000D01*
X95373000Y-140873000D01*
X95373000Y-139023750D01*
X95627000Y-139023750D01*
X95627000Y-140873000D01*
X97726250Y-140873000D01*
X97885000Y-140714250D01*
X97886698Y-140043195D01*
X97919463Y-140104494D01*
X97998815Y-140201185D01*
X98095506Y-140280537D01*
X98205820Y-140339502D01*
X98325518Y-140375812D01*
X98450000Y-140388072D01*
X99914250Y-140385000D01*
X100073000Y-140226250D01*
X100073000Y-138127000D01*
X100327000Y-138127000D01*
X100327000Y-140226250D01*
X100485750Y-140385000D01*
X101950000Y-140388072D01*
X102074482Y-140375812D01*
X102194180Y-140339502D01*
X102304494Y-140280537D01*
X102401185Y-140201185D01*
X102480537Y-140104494D01*
X102539502Y-139994180D01*
X102575812Y-139874482D01*
X102588072Y-139750000D01*
X102585000Y-138285750D01*
X102426250Y-138127000D01*
X100327000Y-138127000D01*
X100073000Y-138127000D01*
X97973750Y-138127000D01*
X97815000Y-138285750D01*
X97813069Y-139206367D01*
X97780537Y-139145506D01*
X97701185Y-139048815D01*
X97604494Y-138969463D01*
X97494180Y-138910498D01*
X97374482Y-138874188D01*
X97250000Y-138861928D01*
X95785750Y-138865000D01*
X95627000Y-139023750D01*
X95373000Y-139023750D01*
X95214250Y-138865000D01*
X93750000Y-138861928D01*
X93625518Y-138874188D01*
X93505820Y-138910498D01*
X93395506Y-138969463D01*
X93298815Y-139048815D01*
X93219463Y-139145506D01*
X93160498Y-139255820D01*
X93124188Y-139375518D01*
X93111928Y-139500000D01*
X84614812Y-139500000D01*
X84554970Y-139327866D01*
X84467197Y-139163653D01*
X84206885Y-139072720D01*
X83279605Y-140000000D01*
X82920395Y-140000000D01*
X82247831Y-139327436D01*
X82213471Y-139244484D01*
X82038918Y-138983246D01*
X81948787Y-138893115D01*
X82172720Y-138893115D01*
X83100000Y-139820395D01*
X84027280Y-138893115D01*
X83936347Y-138632803D01*
X83653549Y-138495910D01*
X83349479Y-138416818D01*
X83035822Y-138398568D01*
X82724632Y-138441860D01*
X82427866Y-138545030D01*
X82263653Y-138632803D01*
X82172720Y-138893115D01*
X81948787Y-138893115D01*
X81816754Y-138761082D01*
X81735000Y-138706456D01*
X81735000Y-136793544D01*
X81816754Y-136738918D01*
X81950000Y-136605672D01*
X82083246Y-136738918D01*
X82344484Y-136913471D01*
X82634756Y-137033706D01*
X82942906Y-137095000D01*
X83257094Y-137095000D01*
X83565244Y-137033706D01*
X83855516Y-136913471D01*
X84116754Y-136738918D01*
X84338918Y-136516754D01*
X84513471Y-136255516D01*
X84633706Y-135965244D01*
X84695000Y-135657094D01*
X84695000Y-135342906D01*
X84633706Y-135034756D01*
X84513471Y-134744484D01*
X84338918Y-134483246D01*
X84116754Y-134261082D01*
X83855516Y-134086529D01*
X83565244Y-133966294D01*
X83257094Y-133905000D01*
X82942906Y-133905000D01*
X82634756Y-133966294D01*
X82344484Y-134086529D01*
X82083246Y-134261082D01*
X81950000Y-134394328D01*
X81816754Y-134261082D01*
X81555516Y-134086529D01*
X81265244Y-133966294D01*
X80957094Y-133905000D01*
X80642906Y-133905000D01*
X80334756Y-133966294D01*
X80044484Y-134086529D01*
X79957182Y-134144862D01*
X79911185Y-134088815D01*
X79814494Y-134009463D01*
X79704180Y-133950498D01*
X79633294Y-133928995D01*
X80312289Y-133250000D01*
X93111928Y-133250000D01*
X93111928Y-136750000D01*
X93124188Y-136874482D01*
X93160498Y-136994180D01*
X93219463Y-137104494D01*
X93298815Y-137201185D01*
X93395506Y-137280537D01*
X93505820Y-137339502D01*
X93625518Y-137375812D01*
X93750000Y-137388072D01*
X97250000Y-137388072D01*
X97374482Y-137375812D01*
X97494180Y-137339502D01*
X97604494Y-137280537D01*
X97701185Y-137201185D01*
X97780537Y-137104494D01*
X97813591Y-137042655D01*
X97815000Y-137714250D01*
X97973750Y-137873000D01*
X100073000Y-137873000D01*
X100073000Y-135773750D01*
X100327000Y-135773750D01*
X100327000Y-137873000D01*
X102426250Y-137873000D01*
X102585000Y-137714250D01*
X102588072Y-136250000D01*
X102575812Y-136125518D01*
X102539502Y-136005820D01*
X102480537Y-135895506D01*
X102401185Y-135798815D01*
X102304494Y-135719463D01*
X102194180Y-135660498D01*
X102074482Y-135624188D01*
X101950000Y-135611928D01*
X100485750Y-135615000D01*
X100327000Y-135773750D01*
X100073000Y-135773750D01*
X99914250Y-135615000D01*
X98450000Y-135611928D01*
X98325518Y-135624188D01*
X98205820Y-135660498D01*
X98095506Y-135719463D01*
X97998815Y-135798815D01*
X97919463Y-135895506D01*
X97888072Y-135954233D01*
X97888072Y-133250000D01*
X97875812Y-133125518D01*
X97839502Y-133005820D01*
X97780537Y-132895506D01*
X97701185Y-132798815D01*
X97604494Y-132719463D01*
X97494180Y-132660498D01*
X97374482Y-132624188D01*
X97250000Y-132611928D01*
X93750000Y-132611928D01*
X93625518Y-132624188D01*
X93505820Y-132660498D01*
X93395506Y-132719463D01*
X93298815Y-132798815D01*
X93219463Y-132895506D01*
X93160498Y-133005820D01*
X93124188Y-133125518D01*
X93111928Y-133250000D01*
X80312289Y-133250000D01*
X81977289Y-131585000D01*
X85004068Y-131585000D01*
X85050000Y-131589524D01*
X85095932Y-131585000D01*
X85233292Y-131571471D01*
X85409540Y-131518007D01*
X85571972Y-131431186D01*
X85714344Y-131314344D01*
X85743630Y-131278659D01*
X88678660Y-128343629D01*
X88714344Y-128314344D01*
X88831186Y-128171972D01*
X88887765Y-128066120D01*
X88918007Y-128009541D01*
X88971472Y-127833292D01*
X88989524Y-127650000D01*
X88985000Y-127604065D01*
X88985000Y-124809419D01*
X91065000Y-124809419D01*
X91065000Y-125190581D01*
X91139361Y-125564419D01*
X91285225Y-125916566D01*
X91496987Y-126233491D01*
X91766509Y-126503013D01*
X92083434Y-126714775D01*
X92435581Y-126860639D01*
X92809419Y-126935000D01*
X93190581Y-126935000D01*
X93564419Y-126860639D01*
X93916566Y-126714775D01*
X94233491Y-126503013D01*
X94503013Y-126233491D01*
X94714775Y-125916566D01*
X94860639Y-125564419D01*
X94935000Y-125190581D01*
X94935000Y-124809419D01*
X94860639Y-124435581D01*
X94714775Y-124083434D01*
X94503013Y-123766509D01*
X94233491Y-123496987D01*
X93916566Y-123285225D01*
X93564419Y-123139361D01*
X93190581Y-123065000D01*
X92809419Y-123065000D01*
X92435581Y-123139361D01*
X92083434Y-123285225D01*
X91766509Y-123496987D01*
X91496987Y-123766509D01*
X91285225Y-124083434D01*
X91139361Y-124435581D01*
X91065000Y-124809419D01*
X88985000Y-124809419D01*
X88985000Y-120396338D01*
X89010841Y-120347993D01*
X89070024Y-120152895D01*
X89090007Y-119950000D01*
X89070024Y-119747105D01*
X89010841Y-119552007D01*
X88914734Y-119372203D01*
X88785396Y-119214604D01*
X88627797Y-119085266D01*
X88447993Y-118989159D01*
X88252895Y-118929976D01*
X88100838Y-118915000D01*
X87999162Y-118915000D01*
X87847105Y-118929976D01*
X87652007Y-118989159D01*
X87472203Y-119085266D01*
X87314604Y-119214604D01*
X87185266Y-119372203D01*
X87089159Y-119552007D01*
X87029976Y-119747105D01*
X87009993Y-119950000D01*
X87029976Y-120152895D01*
X87089159Y-120347993D01*
X87115001Y-120396340D01*
X87115000Y-127262711D01*
X84662711Y-129715000D01*
X81635932Y-129715000D01*
X81590000Y-129710476D01*
X81544068Y-129715000D01*
X81406708Y-129728529D01*
X81230460Y-129781993D01*
X81068028Y-129868814D01*
X80925656Y-129985656D01*
X80896370Y-130021341D01*
X77871336Y-133046375D01*
X77835657Y-133075656D01*
X77718815Y-133218028D01*
X77701726Y-133250000D01*
X77631994Y-133380460D01*
X77578529Y-133556709D01*
X77560476Y-133740000D01*
X77565001Y-133785942D01*
X77565001Y-133901928D01*
X77540000Y-133901928D01*
X77415518Y-133914188D01*
X77295820Y-133950498D01*
X77185506Y-134009463D01*
X77088815Y-134088815D01*
X77009463Y-134185506D01*
X76950498Y-134295820D01*
X76914188Y-134415518D01*
X76901928Y-134540000D01*
X76901928Y-136460000D01*
X76914188Y-136584482D01*
X76950498Y-136704180D01*
X77009463Y-136814494D01*
X77009878Y-136815000D01*
X76002889Y-136815000D01*
X76116754Y-136738918D01*
X76338918Y-136516754D01*
X76513471Y-136255516D01*
X76633706Y-135965244D01*
X76695000Y-135657094D01*
X76695000Y-135342906D01*
X76633706Y-135034756D01*
X76513471Y-134744484D01*
X76338918Y-134483246D01*
X76116754Y-134261082D01*
X75855516Y-134086529D01*
X75565244Y-133966294D01*
X75257094Y-133905000D01*
X74942906Y-133905000D01*
X74634756Y-133966294D01*
X74344484Y-134086529D01*
X74083246Y-134261082D01*
X73950000Y-134394328D01*
X73816754Y-134261082D01*
X73555516Y-134086529D01*
X73265244Y-133966294D01*
X72957094Y-133905000D01*
X72642906Y-133905000D01*
X72334756Y-133966294D01*
X72044484Y-134086529D01*
X71957182Y-134144862D01*
X71911185Y-134088815D01*
X71814494Y-134009463D01*
X71704180Y-133950498D01*
X71584482Y-133914188D01*
X71460000Y-133901928D01*
X69540000Y-133901928D01*
X69415518Y-133914188D01*
X69295820Y-133950498D01*
X69185506Y-134009463D01*
X69088815Y-134088815D01*
X69009463Y-134185506D01*
X68950498Y-134295820D01*
X68914188Y-134415518D01*
X68901928Y-134540000D01*
X68376840Y-134540000D01*
X68338918Y-134483246D01*
X68116754Y-134261082D01*
X67855516Y-134086529D01*
X67565244Y-133966294D01*
X67257094Y-133905000D01*
X66942906Y-133905000D01*
X66634756Y-133966294D01*
X66344484Y-134086529D01*
X66083246Y-134261082D01*
X65950000Y-134394328D01*
X65816754Y-134261082D01*
X65555516Y-134086529D01*
X65265244Y-133966294D01*
X64957094Y-133905000D01*
X64642906Y-133905000D01*
X64334756Y-133966294D01*
X64044484Y-134086529D01*
X63957182Y-134144862D01*
X63911185Y-134088815D01*
X63814494Y-134009463D01*
X63704180Y-133950498D01*
X63584482Y-133914188D01*
X63460000Y-133901928D01*
X61540000Y-133901928D01*
X61415518Y-133914188D01*
X61295820Y-133950498D01*
X61185506Y-134009463D01*
X61088815Y-134088815D01*
X61009463Y-134185506D01*
X60950498Y-134295820D01*
X60914188Y-134415518D01*
X60901928Y-134540000D01*
X51627000Y-134540000D01*
X51627000Y-125000000D01*
X63357815Y-125000000D01*
X63386487Y-125291111D01*
X63471401Y-125571034D01*
X63609294Y-125829014D01*
X63794866Y-126055134D01*
X64020986Y-126240706D01*
X64278966Y-126378599D01*
X64558889Y-126463513D01*
X64777050Y-126485000D01*
X65222950Y-126485000D01*
X65441111Y-126463513D01*
X65721034Y-126378599D01*
X65979014Y-126240706D01*
X66205134Y-126055134D01*
X66390706Y-125829014D01*
X66528599Y-125571034D01*
X66613513Y-125291111D01*
X66642185Y-125000000D01*
X66623415Y-124809419D01*
X76315000Y-124809419D01*
X76315000Y-125190581D01*
X76389361Y-125564419D01*
X76535225Y-125916566D01*
X76746987Y-126233491D01*
X77016509Y-126503013D01*
X77333434Y-126714775D01*
X77685581Y-126860639D01*
X78059419Y-126935000D01*
X78440581Y-126935000D01*
X78814419Y-126860639D01*
X79166566Y-126714775D01*
X79483491Y-126503013D01*
X79753013Y-126233491D01*
X79964775Y-125916566D01*
X80110639Y-125564419D01*
X80185000Y-125190581D01*
X80185000Y-124809419D01*
X81315000Y-124809419D01*
X81315000Y-125190581D01*
X81389361Y-125564419D01*
X81535225Y-125916566D01*
X81746987Y-126233491D01*
X82016509Y-126503013D01*
X82333434Y-126714775D01*
X82685581Y-126860639D01*
X83059419Y-126935000D01*
X83440581Y-126935000D01*
X83814419Y-126860639D01*
X84166566Y-126714775D01*
X84483491Y-126503013D01*
X84753013Y-126233491D01*
X84964775Y-125916566D01*
X85110639Y-125564419D01*
X85185000Y-125190581D01*
X85185000Y-124809419D01*
X85110639Y-124435581D01*
X84964775Y-124083434D01*
X84753013Y-123766509D01*
X84483491Y-123496987D01*
X84166566Y-123285225D01*
X83814419Y-123139361D01*
X83440581Y-123065000D01*
X83059419Y-123065000D01*
X82685581Y-123139361D01*
X82333434Y-123285225D01*
X82016509Y-123496987D01*
X81746987Y-123766509D01*
X81535225Y-124083434D01*
X81389361Y-124435581D01*
X81315000Y-124809419D01*
X80185000Y-124809419D01*
X80110639Y-124435581D01*
X79964775Y-124083434D01*
X79753013Y-123766509D01*
X79483491Y-123496987D01*
X79166566Y-123285225D01*
X78814419Y-123139361D01*
X78440581Y-123065000D01*
X78059419Y-123065000D01*
X77685581Y-123139361D01*
X77333434Y-123285225D01*
X77016509Y-123496987D01*
X76746987Y-123766509D01*
X76535225Y-124083434D01*
X76389361Y-124435581D01*
X76315000Y-124809419D01*
X66623415Y-124809419D01*
X66613513Y-124708889D01*
X66528599Y-124428966D01*
X66390706Y-124170986D01*
X66205134Y-123944866D01*
X66141663Y-123892777D01*
X66243386Y-123838405D01*
X66377962Y-123727962D01*
X66488405Y-123593386D01*
X66570472Y-123439850D01*
X66621008Y-123273254D01*
X66628867Y-123193459D01*
X66664344Y-123164344D01*
X66693630Y-123128659D01*
X74987289Y-114835000D01*
X92609984Y-114835000D01*
X97065001Y-119334569D01*
X97065000Y-123297542D01*
X96766509Y-123496987D01*
X96496987Y-123766509D01*
X96285225Y-124083434D01*
X96139361Y-124435581D01*
X96065000Y-124809419D01*
X96065000Y-125190581D01*
X96139361Y-125564419D01*
X96285225Y-125916566D01*
X96496987Y-126233491D01*
X96766509Y-126503013D01*
X97083434Y-126714775D01*
X97435581Y-126860639D01*
X97809419Y-126935000D01*
X98190581Y-126935000D01*
X98564419Y-126860639D01*
X98916566Y-126714775D01*
X99233491Y-126503013D01*
X99503013Y-126233491D01*
X99714775Y-125916566D01*
X99860639Y-125564419D01*
X99935000Y-125190581D01*
X99935000Y-124809419D01*
X99860639Y-124435581D01*
X99714775Y-124083434D01*
X99503013Y-123766509D01*
X99233491Y-123496987D01*
X98935000Y-123297542D01*
X98935000Y-118998262D01*
X98939512Y-118954674D01*
X98935000Y-118906400D01*
X98935000Y-118904068D01*
X98930728Y-118860693D01*
X98922372Y-118771294D01*
X98921701Y-118769041D01*
X98921471Y-118766708D01*
X98895412Y-118680804D01*
X98869784Y-118594782D01*
X98868689Y-118592709D01*
X98868007Y-118590460D01*
X98825619Y-118511158D01*
X98783772Y-118431921D01*
X98782295Y-118430103D01*
X98781186Y-118428028D01*
X98724144Y-118358523D01*
X98696742Y-118324792D01*
X98695107Y-118323140D01*
X98664344Y-118285656D01*
X98630465Y-118257852D01*
X93935000Y-113515433D01*
X93935000Y-110888072D01*
X94000000Y-110888072D01*
X94124482Y-110875812D01*
X94244180Y-110839502D01*
X94354494Y-110780537D01*
X94451185Y-110701185D01*
X94530537Y-110604494D01*
X94589502Y-110494180D01*
X94622496Y-110385413D01*
X97044192Y-110385413D01*
X97139956Y-110649814D01*
X97429571Y-110790704D01*
X97741108Y-110872384D01*
X98062595Y-110891718D01*
X98381675Y-110847961D01*
X98686088Y-110742795D01*
X98860044Y-110649814D01*
X98955808Y-110385413D01*
X98000000Y-109429605D01*
X97044192Y-110385413D01*
X94622496Y-110385413D01*
X94625812Y-110374482D01*
X94638072Y-110250000D01*
X94638072Y-109312595D01*
X96358282Y-109312595D01*
X96402039Y-109631675D01*
X96507205Y-109936088D01*
X96600186Y-110110044D01*
X96864587Y-110205808D01*
X97820395Y-109250000D01*
X98179605Y-109250000D01*
X99135413Y-110205808D01*
X99399814Y-110110044D01*
X99540704Y-109820429D01*
X99622384Y-109508892D01*
X99641718Y-109187405D01*
X99597961Y-108868325D01*
X99492795Y-108563912D01*
X99399814Y-108389956D01*
X99135413Y-108294192D01*
X98179605Y-109250000D01*
X97820395Y-109250000D01*
X96864587Y-108294192D01*
X96600186Y-108389956D01*
X96459296Y-108679571D01*
X96377616Y-108991108D01*
X96358282Y-109312595D01*
X94638072Y-109312595D01*
X94638072Y-108250000D01*
X94625812Y-108125518D01*
X94622497Y-108114587D01*
X97044192Y-108114587D01*
X98000000Y-109070395D01*
X98955808Y-108114587D01*
X98860044Y-107850186D01*
X98570429Y-107709296D01*
X98258892Y-107627616D01*
X97937405Y-107608282D01*
X97618325Y-107652039D01*
X97313912Y-107757205D01*
X97139956Y-107850186D01*
X97044192Y-108114587D01*
X94622497Y-108114587D01*
X94589502Y-108005820D01*
X94530537Y-107895506D01*
X94451185Y-107798815D01*
X94354494Y-107719463D01*
X94244180Y-107660498D01*
X94124482Y-107624188D01*
X94000000Y-107611928D01*
X92000000Y-107611928D01*
X91875518Y-107624188D01*
X91755820Y-107660498D01*
X91645506Y-107719463D01*
X91548815Y-107798815D01*
X91469463Y-107895506D01*
X91410498Y-108005820D01*
X91374188Y-108125518D01*
X91361928Y-108250000D01*
X91361928Y-110250000D01*
X91374188Y-110374482D01*
X91410498Y-110494180D01*
X91469463Y-110604494D01*
X91548815Y-110701185D01*
X91645506Y-110780537D01*
X91755820Y-110839502D01*
X91875518Y-110875812D01*
X92000000Y-110888072D01*
X92065001Y-110888072D01*
X92065000Y-112965000D01*
X74645935Y-112965000D01*
X74600000Y-112960476D01*
X74416708Y-112978528D01*
X74240459Y-113031993D01*
X74183880Y-113062235D01*
X74078028Y-113118814D01*
X73935656Y-113235656D01*
X73906370Y-113271341D01*
X66095280Y-121082431D01*
X66089850Y-121079528D01*
X65923254Y-121028992D01*
X65750000Y-121011928D01*
X64250000Y-121011928D01*
X64076746Y-121028992D01*
X63910150Y-121079528D01*
X63756614Y-121161595D01*
X63622038Y-121272038D01*
X63511595Y-121406614D01*
X63429528Y-121560150D01*
X63378992Y-121726746D01*
X63361928Y-121900000D01*
X63361928Y-123100000D01*
X63378992Y-123273254D01*
X63429528Y-123439850D01*
X63511595Y-123593386D01*
X63622038Y-123727962D01*
X63756614Y-123838405D01*
X63858337Y-123892777D01*
X63794866Y-123944866D01*
X63609294Y-124170986D01*
X63471401Y-124428966D01*
X63386487Y-124708889D01*
X63357815Y-125000000D01*
X51627000Y-125000000D01*
X51627000Y-111338967D01*
X60865000Y-111338967D01*
X60865000Y-111661033D01*
X60927832Y-111976912D01*
X61051082Y-112274463D01*
X61230013Y-112542252D01*
X61457748Y-112769987D01*
X61725537Y-112948918D01*
X62023088Y-113072168D01*
X62338967Y-113135000D01*
X62661033Y-113135000D01*
X62976912Y-113072168D01*
X63274463Y-112948918D01*
X63542252Y-112769987D01*
X63769987Y-112542252D01*
X63948918Y-112274463D01*
X64072168Y-111976912D01*
X64135000Y-111661033D01*
X64135000Y-111338967D01*
X64072168Y-111023088D01*
X63948918Y-110725537D01*
X63769987Y-110457748D01*
X63542252Y-110230013D01*
X63274463Y-110051082D01*
X62976912Y-109927832D01*
X62661033Y-109865000D01*
X62338967Y-109865000D01*
X62023088Y-109927832D01*
X61725537Y-110051082D01*
X61457748Y-110230013D01*
X61230013Y-110457748D01*
X61051082Y-110725537D01*
X60927832Y-111023088D01*
X60865000Y-111338967D01*
X51627000Y-111338967D01*
X51627000Y-108135413D01*
X61544192Y-108135413D01*
X61639956Y-108399814D01*
X61929571Y-108540704D01*
X62241108Y-108622384D01*
X62562595Y-108641718D01*
X62881675Y-108597961D01*
X63186088Y-108492795D01*
X63360044Y-108399814D01*
X63455808Y-108135413D01*
X68044192Y-108135413D01*
X68139956Y-108399814D01*
X68429571Y-108540704D01*
X68741108Y-108622384D01*
X69062595Y-108641718D01*
X69381675Y-108597961D01*
X69686088Y-108492795D01*
X69860044Y-108399814D01*
X69955808Y-108135413D01*
X69000000Y-107179605D01*
X68044192Y-108135413D01*
X63455808Y-108135413D01*
X62500000Y-107179605D01*
X61544192Y-108135413D01*
X51627000Y-108135413D01*
X51627000Y-107062595D01*
X60858282Y-107062595D01*
X60902039Y-107381675D01*
X61007205Y-107686088D01*
X61100186Y-107860044D01*
X61364587Y-107955808D01*
X62320395Y-107000000D01*
X62679605Y-107000000D01*
X63635413Y-107955808D01*
X63899814Y-107860044D01*
X64040704Y-107570429D01*
X64122384Y-107258892D01*
X64134189Y-107062595D01*
X67358282Y-107062595D01*
X67402039Y-107381675D01*
X67507205Y-107686088D01*
X67600186Y-107860044D01*
X67864587Y-107955808D01*
X68820395Y-107000000D01*
X69179605Y-107000000D01*
X70135413Y-107955808D01*
X70399814Y-107860044D01*
X70540704Y-107570429D01*
X70622384Y-107258892D01*
X70641718Y-106937405D01*
X70597961Y-106618325D01*
X70492795Y-106313912D01*
X70399814Y-106139956D01*
X70135413Y-106044192D01*
X69179605Y-107000000D01*
X68820395Y-107000000D01*
X67864587Y-106044192D01*
X67600186Y-106139956D01*
X67459296Y-106429571D01*
X67377616Y-106741108D01*
X67358282Y-107062595D01*
X64134189Y-107062595D01*
X64141718Y-106937405D01*
X64097961Y-106618325D01*
X63992795Y-106313912D01*
X63899814Y-106139956D01*
X63635413Y-106044192D01*
X62679605Y-107000000D01*
X62320395Y-107000000D01*
X61364587Y-106044192D01*
X61100186Y-106139956D01*
X60959296Y-106429571D01*
X60877616Y-106741108D01*
X60858282Y-107062595D01*
X51627000Y-107062595D01*
X51627000Y-105864587D01*
X61544192Y-105864587D01*
X62500000Y-106820395D01*
X63455808Y-105864587D01*
X68044192Y-105864587D01*
X69000000Y-106820395D01*
X69955808Y-105864587D01*
X69860044Y-105600186D01*
X69570429Y-105459296D01*
X69258892Y-105377616D01*
X68937405Y-105358282D01*
X68618325Y-105402039D01*
X68313912Y-105507205D01*
X68139956Y-105600186D01*
X68044192Y-105864587D01*
X63455808Y-105864587D01*
X63360044Y-105600186D01*
X63070429Y-105459296D01*
X62758892Y-105377616D01*
X62437405Y-105358282D01*
X62118325Y-105402039D01*
X61813912Y-105507205D01*
X61639956Y-105600186D01*
X61544192Y-105864587D01*
X51627000Y-105864587D01*
X51627000Y-98165234D01*
X51740915Y-98440250D01*
X51958149Y-98765364D01*
X52234636Y-99041851D01*
X52559750Y-99259085D01*
X52920997Y-99408718D01*
X53304495Y-99485000D01*
X53695505Y-99485000D01*
X54079003Y-99408718D01*
X54440250Y-99259085D01*
X54765364Y-99041851D01*
X55041851Y-98765364D01*
X55259085Y-98440250D01*
X55408718Y-98079003D01*
X55485000Y-97695505D01*
X55485000Y-97304495D01*
X55408718Y-96920997D01*
X55259085Y-96559750D01*
X55041851Y-96234636D01*
X54765364Y-95958149D01*
X54440250Y-95740915D01*
X54165234Y-95627000D01*
X57012419Y-95627000D01*
X56942068Y-95796842D01*
G37*
X56942068Y-95796842D02*
X56885000Y-96083740D01*
X56885000Y-96376260D01*
X56942068Y-96663158D01*
X57054010Y-96933411D01*
X57216525Y-97176632D01*
X57348380Y-97308487D01*
X57275820Y-97330498D01*
X57165506Y-97389463D01*
X57068815Y-97468815D01*
X56989463Y-97565506D01*
X56930498Y-97675820D01*
X56894188Y-97795518D01*
X56881928Y-97920000D01*
X56881928Y-99620000D01*
X56894188Y-99744482D01*
X56930498Y-99864180D01*
X56989463Y-99974494D01*
X57068815Y-100071185D01*
X57165506Y-100150537D01*
X57275820Y-100209502D01*
X57395518Y-100245812D01*
X57520000Y-100258072D01*
X59220000Y-100258072D01*
X59344482Y-100245812D01*
X59464180Y-100209502D01*
X59574494Y-100150537D01*
X59671185Y-100071185D01*
X59750537Y-99974494D01*
X59809502Y-99864180D01*
X59831513Y-99791620D01*
X59963368Y-99923475D01*
X60206589Y-100085990D01*
X60476842Y-100197932D01*
X60763740Y-100255000D01*
X61056260Y-100255000D01*
X61343158Y-100197932D01*
X61613411Y-100085990D01*
X61856632Y-99923475D01*
X62063475Y-99716632D01*
X62180000Y-99542240D01*
X62296525Y-99716632D01*
X62503368Y-99923475D01*
X62746589Y-100085990D01*
X63016842Y-100197932D01*
X63303740Y-100255000D01*
X63596260Y-100255000D01*
X63883158Y-100197932D01*
X64153411Y-100085990D01*
X64396632Y-99923475D01*
X64603475Y-99716632D01*
X64720000Y-99542240D01*
X64836525Y-99716632D01*
X65043368Y-99923475D01*
X65286589Y-100085990D01*
X65556842Y-100197932D01*
X65843740Y-100255000D01*
X66136260Y-100255000D01*
X66423158Y-100197932D01*
X66693411Y-100085990D01*
X66936632Y-99923475D01*
X67143475Y-99716632D01*
X67265195Y-99534466D01*
X67334822Y-99651355D01*
X67529731Y-99867588D01*
X67763080Y-100041641D01*
X68025901Y-100166825D01*
X68173110Y-100211476D01*
X68403000Y-100090155D01*
X68403000Y-98897000D01*
X68383000Y-98897000D01*
X68383000Y-98643000D01*
X68403000Y-98643000D01*
X68403000Y-98623000D01*
X68657000Y-98623000D01*
X68657000Y-98643000D01*
X68677000Y-98643000D01*
X68677000Y-98897000D01*
X68657000Y-98897000D01*
X68657000Y-100090155D01*
X68886890Y-100211476D01*
X69034099Y-100166825D01*
X69296920Y-100041641D01*
X69530269Y-99867588D01*
X69725178Y-99651355D01*
X69794805Y-99534466D01*
X69916525Y-99716632D01*
X70123368Y-99923475D01*
X70366589Y-100085990D01*
X70636842Y-100197932D01*
X70923740Y-100255000D01*
X71216260Y-100255000D01*
X71503158Y-100197932D01*
X71773411Y-100085990D01*
X72016632Y-99923475D01*
X72223475Y-99716632D01*
X72340000Y-99542240D01*
X72456525Y-99716632D01*
X72663368Y-99923475D01*
X72906589Y-100085990D01*
X73176842Y-100197932D01*
X73463740Y-100255000D01*
X73756260Y-100255000D01*
X74043158Y-100197932D01*
X74313411Y-100085990D01*
X74556632Y-99923475D01*
X74763475Y-99716632D01*
X74880000Y-99542240D01*
X74996525Y-99716632D01*
X75203368Y-99923475D01*
X75215001Y-99931248D01*
X75215000Y-103962711D01*
X69287546Y-109890165D01*
X69161033Y-109865000D01*
X68838967Y-109865000D01*
X68523088Y-109927832D01*
X68225537Y-110051082D01*
X67957748Y-110230013D01*
X67730013Y-110457748D01*
X67551082Y-110725537D01*
X67427832Y-111023088D01*
X67365000Y-111338967D01*
X67365000Y-111661033D01*
X67427832Y-111976912D01*
X67551082Y-112274463D01*
X67730013Y-112542252D01*
X67957748Y-112769987D01*
X68225537Y-112948918D01*
X68523088Y-113072168D01*
X68838967Y-113135000D01*
X69161033Y-113135000D01*
X69476912Y-113072168D01*
X69774463Y-112948918D01*
X70042252Y-112769987D01*
X70269987Y-112542252D01*
X70448918Y-112274463D01*
X70572168Y-111976912D01*
X70635000Y-111661033D01*
X70635000Y-111338967D01*
X70609835Y-111212454D01*
X73572289Y-108250000D01*
X76611928Y-108250000D01*
X76611928Y-110250000D01*
X76624188Y-110374482D01*
X76660498Y-110494180D01*
X76719463Y-110604494D01*
X76798815Y-110701185D01*
X76895506Y-110780537D01*
X77005820Y-110839502D01*
X77125518Y-110875812D01*
X77250000Y-110888072D01*
X79250000Y-110888072D01*
X79374482Y-110875812D01*
X79494180Y-110839502D01*
X79604494Y-110780537D01*
X79701185Y-110701185D01*
X79780537Y-110604494D01*
X79839502Y-110494180D01*
X79872496Y-110385413D01*
X82294192Y-110385413D01*
X82389956Y-110649814D01*
X82679571Y-110790704D01*
X82991108Y-110872384D01*
X83312595Y-110891718D01*
X83631675Y-110847961D01*
X83936088Y-110742795D01*
X84110044Y-110649814D01*
X84205808Y-110385413D01*
X83250000Y-109429605D01*
X82294192Y-110385413D01*
X79872496Y-110385413D01*
X79875812Y-110374482D01*
X79888072Y-110250000D01*
X79888072Y-109312595D01*
X81608282Y-109312595D01*
X81652039Y-109631675D01*
X81757205Y-109936088D01*
X81850186Y-110110044D01*
X82114587Y-110205808D01*
X83070395Y-109250000D01*
X83429605Y-109250000D01*
X84385413Y-110205808D01*
X84649814Y-110110044D01*
X84790704Y-109820429D01*
X84872384Y-109508892D01*
X84891718Y-109187405D01*
X84847961Y-108868325D01*
X84742795Y-108563912D01*
X84649814Y-108389956D01*
X84385413Y-108294192D01*
X83429605Y-109250000D01*
X83070395Y-109250000D01*
X82114587Y-108294192D01*
X81850186Y-108389956D01*
X81709296Y-108679571D01*
X81627616Y-108991108D01*
X81608282Y-109312595D01*
X79888072Y-109312595D01*
X79888072Y-108250000D01*
X79875812Y-108125518D01*
X79872497Y-108114587D01*
X82294192Y-108114587D01*
X83250000Y-109070395D01*
X84205808Y-108114587D01*
X84110044Y-107850186D01*
X83820429Y-107709296D01*
X83508892Y-107627616D01*
X83187405Y-107608282D01*
X82868325Y-107652039D01*
X82563912Y-107757205D01*
X82389956Y-107850186D01*
X82294192Y-108114587D01*
X79872497Y-108114587D01*
X79839502Y-108005820D01*
X79780537Y-107895506D01*
X79701185Y-107798815D01*
X79604494Y-107719463D01*
X79494180Y-107660498D01*
X79374482Y-107624188D01*
X79250000Y-107611928D01*
X77250000Y-107611928D01*
X77125518Y-107624188D01*
X77005820Y-107660498D01*
X76895506Y-107719463D01*
X76798815Y-107798815D01*
X76719463Y-107895506D01*
X76660498Y-108005820D01*
X76624188Y-108125518D01*
X76611928Y-108250000D01*
X73572289Y-108250000D01*
X76778660Y-105043629D01*
X76814344Y-105014344D01*
X76931186Y-104871972D01*
X77018007Y-104709540D01*
X77071471Y-104533292D01*
X77085000Y-104395932D01*
X77085000Y-104395931D01*
X77089524Y-104350000D01*
X77085000Y-104304068D01*
X77085000Y-99931247D01*
X77096632Y-99923475D01*
X77303475Y-99716632D01*
X77420000Y-99542240D01*
X77536525Y-99716632D01*
X77743368Y-99923475D01*
X77986589Y-100085990D01*
X78256842Y-100197932D01*
X78543740Y-100255000D01*
X78836260Y-100255000D01*
X79123158Y-100197932D01*
X79393411Y-100085990D01*
X79636632Y-99923475D01*
X79843475Y-99716632D01*
X79960000Y-99542240D01*
X80076525Y-99716632D01*
X80283368Y-99923475D01*
X80526589Y-100085990D01*
X80796842Y-100197932D01*
X81083740Y-100255000D01*
X81376260Y-100255000D01*
X81663158Y-100197932D01*
X81933411Y-100085990D01*
X82176632Y-99923475D01*
X82383475Y-99716632D01*
X82500000Y-99542240D01*
X82616525Y-99716632D01*
X82823368Y-99923475D01*
X83066589Y-100085990D01*
X83336842Y-100197932D01*
X83623740Y-100255000D01*
X83916260Y-100255000D01*
X84203158Y-100197932D01*
X84473411Y-100085990D01*
X84716632Y-99923475D01*
X84923475Y-99716632D01*
X85040000Y-99542240D01*
X85156525Y-99716632D01*
X85363368Y-99923475D01*
X85606589Y-100085990D01*
X85876842Y-100197932D01*
X86163740Y-100255000D01*
X86456260Y-100255000D01*
X86743158Y-100197932D01*
X87013411Y-100085990D01*
X87256632Y-99923475D01*
X87463475Y-99716632D01*
X87585195Y-99534466D01*
X87654822Y-99651355D01*
X87849731Y-99867588D01*
X88083080Y-100041641D01*
X88345901Y-100166825D01*
X88493110Y-100211476D01*
X88723000Y-100090155D01*
X88723000Y-98897000D01*
X88703000Y-98897000D01*
X88703000Y-98643000D01*
X88723000Y-98643000D01*
X88723000Y-98623000D01*
X88977000Y-98623000D01*
X88977000Y-98643000D01*
X88997000Y-98643000D01*
X88997000Y-98897000D01*
X88977000Y-98897000D01*
X88977000Y-100090155D01*
X89206890Y-100211476D01*
X89354099Y-100166825D01*
X89616920Y-100041641D01*
X89850269Y-99867588D01*
X90045178Y-99651355D01*
X90114805Y-99534466D01*
X90236525Y-99716632D01*
X90443368Y-99923475D01*
X90686589Y-100085990D01*
X90956842Y-100197932D01*
X91243740Y-100255000D01*
X91536260Y-100255000D01*
X91823158Y-100197932D01*
X92093411Y-100085990D01*
X92336632Y-99923475D01*
X92543475Y-99716632D01*
X92660000Y-99542240D01*
X92776525Y-99716632D01*
X92983368Y-99923475D01*
X93226589Y-100085990D01*
X93496842Y-100197932D01*
X93783740Y-100255000D01*
X94076260Y-100255000D01*
X94363158Y-100197932D01*
X94633411Y-100085990D01*
X94876632Y-99923475D01*
X95083475Y-99716632D01*
X95200000Y-99542240D01*
X95316525Y-99716632D01*
X95523368Y-99923475D01*
X95766589Y-100085990D01*
X96036842Y-100197932D01*
X96323740Y-100255000D01*
X96616260Y-100255000D01*
X96903158Y-100197932D01*
X97173411Y-100085990D01*
X97416632Y-99923475D01*
X97623475Y-99716632D01*
X97740000Y-99542240D01*
X97856525Y-99716632D01*
X98063368Y-99923475D01*
X98306589Y-100085990D01*
X98576842Y-100197932D01*
X98863740Y-100255000D01*
X99156260Y-100255000D01*
X99443158Y-100197932D01*
X99713411Y-100085990D01*
X99956632Y-99923475D01*
X100163475Y-99716632D01*
X100280000Y-99542240D01*
X100396525Y-99716632D01*
X100603368Y-99923475D01*
X100846589Y-100085990D01*
X101116842Y-100197932D01*
X101403740Y-100255000D01*
X101696260Y-100255000D01*
X101983158Y-100197932D01*
X102253411Y-100085990D01*
X102496632Y-99923475D01*
X102703475Y-99716632D01*
X102820000Y-99542240D01*
X102936525Y-99716632D01*
X103143368Y-99923475D01*
X103386589Y-100085990D01*
X103656842Y-100197932D01*
X103943740Y-100255000D01*
X104236260Y-100255000D01*
X104523158Y-100197932D01*
X104793411Y-100085990D01*
X105036632Y-99923475D01*
X105243475Y-99716632D01*
X105365195Y-99534466D01*
X105434822Y-99651355D01*
X105629731Y-99867588D01*
X105863080Y-100041641D01*
X106125901Y-100166825D01*
X106273110Y-100211476D01*
X106503000Y-100090155D01*
X106503000Y-98897000D01*
X106757000Y-98897000D01*
X106757000Y-100090155D01*
X106986890Y-100211476D01*
X107134099Y-100166825D01*
X107396920Y-100041641D01*
X107630269Y-99867588D01*
X107825178Y-99651355D01*
X107974157Y-99401252D01*
X108071481Y-99126891D01*
X107950814Y-98897000D01*
X106757000Y-98897000D01*
X106503000Y-98897000D01*
X106483000Y-98897000D01*
X106483000Y-98643000D01*
X106503000Y-98643000D01*
X106503000Y-98623000D01*
X106757000Y-98623000D01*
X106757000Y-98643000D01*
X107950814Y-98643000D01*
X108071481Y-98413109D01*
X107974157Y-98138748D01*
X107825178Y-97888645D01*
X107630269Y-97672412D01*
X107400594Y-97501100D01*
X107576632Y-97383475D01*
X107783475Y-97176632D01*
X107945990Y-96933411D01*
X108057932Y-96663158D01*
X108115000Y-96376260D01*
X108115000Y-96083740D01*
X108057932Y-95796842D01*
X107987581Y-95627000D01*
X110834766Y-95627000D01*
X110559750Y-95740915D01*
X110234636Y-95958149D01*
X109958149Y-96234636D01*
X109740915Y-96559750D01*
X109591282Y-96920997D01*
X109515000Y-97304495D01*
X109515000Y-97695505D01*
X109591282Y-98079003D01*
X109740915Y-98440250D01*
X109958149Y-98765364D01*
X110234636Y-99041851D01*
X110559750Y-99259085D01*
X110920997Y-99408718D01*
X111304495Y-99485000D01*
X111695505Y-99485000D01*
X112079003Y-99408718D01*
X112440250Y-99259085D01*
X112765364Y-99041851D01*
X113041851Y-98765364D01*
X113259085Y-98440250D01*
X113408718Y-98079003D01*
X113485000Y-97695505D01*
X113485000Y-97304495D01*
X113408718Y-96920997D01*
X113259085Y-96559750D01*
X113041851Y-96234636D01*
X112765364Y-95958149D01*
X112440250Y-95740915D01*
X112165234Y-95627000D01*
X133373000Y-95627000D01*
X133373000Y-148373000D01*
X112165234Y-148373000D01*
X112440250Y-148259085D01*
X112765364Y-148041851D01*
X113041851Y-147765364D01*
X113259085Y-147440250D01*
X113408718Y-147079003D01*
X113485000Y-146695505D01*
X113485000Y-146304495D01*
X113408718Y-145920997D01*
X113259085Y-145559750D01*
X113041851Y-145234636D01*
X112765364Y-144958149D01*
X112440250Y-144740915D01*
X112079003Y-144591282D01*
X111695505Y-144515000D01*
X111304495Y-144515000D01*
X110920997Y-144591282D01*
X110559750Y-144740915D01*
X110234636Y-144958149D01*
X109958149Y-145234636D01*
X109740915Y-145559750D01*
X109591282Y-145920997D01*
X109515000Y-146304495D01*
X109515000Y-146695505D01*
X109591282Y-147079003D01*
X109740915Y-147440250D01*
X109958149Y-147765364D01*
X110234636Y-148041851D01*
X110559750Y-148259085D01*
X110834766Y-148373000D01*
X54165234Y-148373000D01*
X54440250Y-148259085D01*
X54765364Y-148041851D01*
X55041851Y-147765364D01*
X55259085Y-147440250D01*
X55408718Y-147079003D01*
X55485000Y-146695505D01*
X55485000Y-146304495D01*
X55408718Y-145920997D01*
X55259085Y-145559750D01*
X55041851Y-145234636D01*
X54765364Y-144958149D01*
X54440250Y-144740915D01*
X54079003Y-144591282D01*
X53695505Y-144515000D01*
X53304495Y-144515000D01*
X52920997Y-144591282D01*
X52559750Y-144740915D01*
X52234636Y-144958149D01*
X51958149Y-145234636D01*
X51740915Y-145559750D01*
X51627000Y-145834766D01*
X51627000Y-134540000D01*
X60901928Y-134540000D01*
X60901928Y-136460000D01*
X60914188Y-136584482D01*
X60950498Y-136704180D01*
X61009463Y-136814494D01*
X61088815Y-136911185D01*
X61185506Y-136990537D01*
X61295820Y-137049502D01*
X61415518Y-137085812D01*
X61540000Y-137098072D01*
X63460000Y-137098072D01*
X63584482Y-137085812D01*
X63704180Y-137049502D01*
X63814494Y-136990537D01*
X63865001Y-136949087D01*
X63865000Y-138550912D01*
X63814494Y-138509463D01*
X63704180Y-138450498D01*
X63584482Y-138414188D01*
X63460000Y-138401928D01*
X61540000Y-138401928D01*
X61415518Y-138414188D01*
X61295820Y-138450498D01*
X61185506Y-138509463D01*
X61088815Y-138588815D01*
X61009463Y-138685506D01*
X60950498Y-138795820D01*
X60914188Y-138915518D01*
X60901928Y-139040000D01*
X60901928Y-140960000D01*
X60914188Y-141084482D01*
X60950498Y-141204180D01*
X61009463Y-141314494D01*
X61088815Y-141411185D01*
X61185506Y-141490537D01*
X61295820Y-141549502D01*
X61415518Y-141585812D01*
X61540000Y-141598072D01*
X61565000Y-141598072D01*
X61565001Y-143778618D01*
X61521495Y-143807688D01*
X61307688Y-144021495D01*
X61139701Y-144272905D01*
X61023989Y-144552257D01*
X60965000Y-144848816D01*
X60965000Y-145151184D01*
X61023989Y-145447743D01*
X61139701Y-145727095D01*
X61307688Y-145978505D01*
X61521495Y-146192312D01*
X61772905Y-146360299D01*
X62052257Y-146476011D01*
X62348816Y-146535000D01*
X62651184Y-146535000D01*
X62947743Y-146476011D01*
X63227095Y-146360299D01*
X63478505Y-146192312D01*
X63692312Y-145978505D01*
X63860299Y-145727095D01*
X63976011Y-145447743D01*
X64035000Y-145151184D01*
X64035000Y-144848816D01*
X63976011Y-144552257D01*
X63860299Y-144272905D01*
X63692312Y-144021495D01*
X63478505Y-143807688D01*
X63435000Y-143778619D01*
X63435000Y-141598072D01*
X63460000Y-141598072D01*
X63584482Y-141585812D01*
X63704180Y-141549502D01*
X63814494Y-141490537D01*
X63911185Y-141411185D01*
X63957182Y-141355138D01*
X64044484Y-141413471D01*
X64334756Y-141533706D01*
X64642906Y-141595000D01*
X64957094Y-141595000D01*
X65265244Y-141533706D01*
X65555516Y-141413471D01*
X65816754Y-141238918D01*
X65948787Y-141106885D01*
X66172720Y-141106885D01*
X66263653Y-141367197D01*
X66546451Y-141504090D01*
X66850521Y-141583182D01*
X67164178Y-141601432D01*
X67475368Y-141558140D01*
X67772134Y-141454970D01*
X67936347Y-141367197D01*
X68027280Y-141106885D01*
X67100000Y-140179605D01*
X66172720Y-141106885D01*
X65948787Y-141106885D01*
X66038918Y-141016754D01*
X66213471Y-140755516D01*
X66247831Y-140672564D01*
X66920395Y-140000000D01*
X67279605Y-140000000D01*
X68206885Y-140927280D01*
X68467197Y-140836347D01*
X68604090Y-140553549D01*
X68683182Y-140249479D01*
X68701432Y-139935822D01*
X68658140Y-139624632D01*
X68554970Y-139327866D01*
X68467197Y-139163653D01*
X68206885Y-139072720D01*
X67279605Y-140000000D01*
X66920395Y-140000000D01*
X66247831Y-139327436D01*
X66213471Y-139244484D01*
X66038918Y-138983246D01*
X65948787Y-138893115D01*
X66172720Y-138893115D01*
X67100000Y-139820395D01*
X68027280Y-138893115D01*
X67936347Y-138632803D01*
X67653549Y-138495910D01*
X67349479Y-138416818D01*
X67035822Y-138398568D01*
X66724632Y-138441860D01*
X66427866Y-138545030D01*
X66263653Y-138632803D01*
X66172720Y-138893115D01*
X65948787Y-138893115D01*
X65816754Y-138761082D01*
X65735000Y-138706456D01*
X65735000Y-136793544D01*
X65816754Y-136738918D01*
X65950000Y-136605672D01*
X66083246Y-136738918D01*
X66344484Y-136913471D01*
X66634756Y-137033706D01*
X66942906Y-137095000D01*
X67257094Y-137095000D01*
X67565244Y-137033706D01*
X67855516Y-136913471D01*
X68116754Y-136738918D01*
X68338918Y-136516754D01*
X68513471Y-136255516D01*
X68633706Y-135965244D01*
X68695000Y-135657094D01*
X68695000Y-135342906D01*
X68633706Y-135034756D01*
X68513471Y-134744484D01*
X68376840Y-134540000D01*
X68901928Y-134540000D01*
X68901928Y-136460000D01*
X68914188Y-136584482D01*
X68950498Y-136704180D01*
X69009463Y-136814494D01*
X69088815Y-136911185D01*
X69185506Y-136990537D01*
X69295820Y-137049502D01*
X69415518Y-137085812D01*
X69540000Y-137098072D01*
X69564226Y-137098072D01*
X69578529Y-137243291D01*
X69578530Y-137243293D01*
X69631994Y-137419540D01*
X69718815Y-137581972D01*
X69835657Y-137724344D01*
X69866918Y-137750000D01*
X69835656Y-137775656D01*
X69718814Y-137918029D01*
X69631993Y-138080461D01*
X69623172Y-138109541D01*
X69578529Y-138256709D01*
X69564226Y-138401928D01*
X69540000Y-138401928D01*
X69415518Y-138414188D01*
X69295820Y-138450498D01*
X69185506Y-138509463D01*
X69088815Y-138588815D01*
X69009463Y-138685506D01*
X68950498Y-138795820D01*
X68914188Y-138915518D01*
X68901928Y-139040000D01*
X68901928Y-140960000D01*
X68914188Y-141084482D01*
X68950498Y-141204180D01*
X69009463Y-141314494D01*
X69088815Y-141411185D01*
X69185506Y-141490537D01*
X69295820Y-141549502D01*
X69415518Y-141585812D01*
X69540000Y-141598072D01*
X69565000Y-141598072D01*
X69565001Y-143778618D01*
X69521495Y-143807688D01*
X69307688Y-144021495D01*
X69139701Y-144272905D01*
X69023989Y-144552257D01*
X68965000Y-144848816D01*
X68965000Y-145151184D01*
X69023989Y-145447743D01*
X69139701Y-145727095D01*
X69307688Y-145978505D01*
X69521495Y-146192312D01*
X69772905Y-146360299D01*
X70052257Y-146476011D01*
X70348816Y-146535000D01*
X70651184Y-146535000D01*
X70947743Y-146476011D01*
X71227095Y-146360299D01*
X71478505Y-146192312D01*
X71692312Y-145978505D01*
X71860299Y-145727095D01*
X71976011Y-145447743D01*
X72035000Y-145151184D01*
X72035000Y-144848816D01*
X71976011Y-144552257D01*
X71860299Y-144272905D01*
X71692312Y-144021495D01*
X71478505Y-143807688D01*
X71435000Y-143778619D01*
X71435000Y-141598072D01*
X71460000Y-141598072D01*
X71584482Y-141585812D01*
X71704180Y-141549502D01*
X71814494Y-141490537D01*
X71911185Y-141411185D01*
X71957182Y-141355138D01*
X72044484Y-141413471D01*
X72334756Y-141533706D01*
X72642906Y-141595000D01*
X72957094Y-141595000D01*
X73265244Y-141533706D01*
X73555516Y-141413471D01*
X73816754Y-141238918D01*
X73948787Y-141106885D01*
X74172720Y-141106885D01*
X74263653Y-141367197D01*
X74546451Y-141504090D01*
X74850521Y-141583182D01*
X75164178Y-141601432D01*
X75475368Y-141558140D01*
X75772134Y-141454970D01*
X75936347Y-141367197D01*
X76027280Y-141106885D01*
X75100000Y-140179605D01*
X74172720Y-141106885D01*
X73948787Y-141106885D01*
X74038918Y-141016754D01*
X74213471Y-140755516D01*
X74247831Y-140672564D01*
X74920395Y-140000000D01*
X75279605Y-140000000D01*
X76206885Y-140927280D01*
X76467197Y-140836347D01*
X76604090Y-140553549D01*
X76683182Y-140249479D01*
X76701432Y-139935822D01*
X76658140Y-139624632D01*
X76554970Y-139327866D01*
X76467197Y-139163653D01*
X76206885Y-139072720D01*
X75279605Y-140000000D01*
X74920395Y-140000000D01*
X74247831Y-139327436D01*
X74213471Y-139244484D01*
X74038918Y-138983246D01*
X73816754Y-138761082D01*
X73702889Y-138685000D01*
X74245419Y-138685000D01*
X74172720Y-138893115D01*
X75100000Y-139820395D01*
X76027280Y-138893115D01*
X75954581Y-138685000D01*
X77009878Y-138685000D01*
X77009463Y-138685506D01*
X76950498Y-138795820D01*
X76914188Y-138915518D01*
X76901928Y-139040000D01*
X76901928Y-140960000D01*
X76914188Y-141084482D01*
X76950498Y-141204180D01*
X77009463Y-141314494D01*
X77088815Y-141411185D01*
X77185506Y-141490537D01*
X77295820Y-141549502D01*
X77415518Y-141585812D01*
X77540000Y-141598072D01*
X79460000Y-141598072D01*
X79584482Y-141585812D01*
X79704180Y-141549502D01*
X79814494Y-141490537D01*
X79865001Y-141449087D01*
X79865001Y-142312709D01*
X78702503Y-143475208D01*
X78651184Y-143465000D01*
X78348816Y-143465000D01*
X78052257Y-143523989D01*
X77772905Y-143639701D01*
X77521495Y-143807688D01*
X77307688Y-144021495D01*
X77139701Y-144272905D01*
X77023989Y-144552257D01*
X76965000Y-144848816D01*
X76965000Y-145151184D01*
X77023989Y-145447743D01*
X77139701Y-145727095D01*
X77307688Y-145978505D01*
X77521495Y-146192312D01*
X77772905Y-146360299D01*
X78052257Y-146476011D01*
X78348816Y-146535000D01*
X78651184Y-146535000D01*
X78947743Y-146476011D01*
X79227095Y-146360299D01*
X79478505Y-146192312D01*
X79692312Y-145978505D01*
X79860299Y-145727095D01*
X79976011Y-145447743D01*
X80035000Y-145151184D01*
X80035000Y-144848816D01*
X84965000Y-144848816D01*
X84965000Y-145151184D01*
X85023989Y-145447743D01*
X85139701Y-145727095D01*
X85307688Y-145978505D01*
X85521495Y-146192312D01*
X85772905Y-146360299D01*
X86052257Y-146476011D01*
X86348816Y-146535000D01*
X86651184Y-146535000D01*
X86947743Y-146476011D01*
X87227095Y-146360299D01*
X87478505Y-146192312D01*
X87692312Y-145978505D01*
X87860299Y-145727095D01*
X87976011Y-145447743D01*
X88035000Y-145151184D01*
X88035000Y-144848816D01*
X87976011Y-144552257D01*
X87860299Y-144272905D01*
X87692312Y-144021495D01*
X87478505Y-143807688D01*
X87227095Y-143639701D01*
X86947743Y-143523989D01*
X86651184Y-143465000D01*
X86348816Y-143465000D01*
X86052257Y-143523989D01*
X85772905Y-143639701D01*
X85521495Y-143807688D01*
X85307688Y-144021495D01*
X85139701Y-144272905D01*
X85023989Y-144552257D01*
X84965000Y-144848816D01*
X80035000Y-144848816D01*
X80024792Y-144797497D01*
X81428664Y-143393626D01*
X81464344Y-143364344D01*
X81581186Y-143221972D01*
X81668007Y-143059540D01*
X81721471Y-142883292D01*
X81739524Y-142700001D01*
X81735000Y-142654069D01*
X81735000Y-142500000D01*
X93111928Y-142500000D01*
X93124188Y-142624482D01*
X93160498Y-142744180D01*
X93219463Y-142854494D01*
X93298815Y-142951185D01*
X93395506Y-143030537D01*
X93505820Y-143089502D01*
X93625518Y-143125812D01*
X93750000Y-143138072D01*
X95214250Y-143135000D01*
X95373000Y-142976250D01*
X95373000Y-141127000D01*
X95627000Y-141127000D01*
X95627000Y-142976250D01*
X95785750Y-143135000D01*
X97250000Y-143138072D01*
X97374482Y-143125812D01*
X97494180Y-143089502D01*
X97604494Y-143030537D01*
X97701185Y-142951185D01*
X97780537Y-142854494D01*
X97839502Y-142744180D01*
X97875812Y-142624482D01*
X97888072Y-142500000D01*
X97885000Y-141285750D01*
X97726250Y-141127000D01*
X95627000Y-141127000D01*
X95373000Y-141127000D01*
X93273750Y-141127000D01*
X93115000Y-141285750D01*
X93111928Y-142500000D01*
X81735000Y-142500000D01*
X81735000Y-141293544D01*
X81816754Y-141238918D01*
X81948787Y-141106885D01*
X82172720Y-141106885D01*
X82263653Y-141367197D01*
X82546451Y-141504090D01*
X82850521Y-141583182D01*
X83164178Y-141601432D01*
X83475368Y-141558140D01*
X83772134Y-141454970D01*
X83936347Y-141367197D01*
X84027280Y-141106885D01*
X83100000Y-140179605D01*
X82172720Y-141106885D01*
X81948787Y-141106885D01*
X82038918Y-141016754D01*
X82213471Y-140755516D01*
X82247831Y-140672564D01*
X82920395Y-140000000D01*
X83279605Y-140000000D01*
X84206885Y-140927280D01*
X84467197Y-140836347D01*
X84604090Y-140553549D01*
X84683182Y-140249479D01*
X84701432Y-139935822D01*
X84658140Y-139624632D01*
X84614812Y-139500000D01*
X93111928Y-139500000D01*
X93115000Y-140714250D01*
X93273750Y-140873000D01*
X95373000Y-140873000D01*
X95373000Y-139023750D01*
X95627000Y-139023750D01*
X95627000Y-140873000D01*
X97726250Y-140873000D01*
X97885000Y-140714250D01*
X97886698Y-140043195D01*
X97919463Y-140104494D01*
X97998815Y-140201185D01*
X98095506Y-140280537D01*
X98205820Y-140339502D01*
X98325518Y-140375812D01*
X98450000Y-140388072D01*
X99914250Y-140385000D01*
X100073000Y-140226250D01*
X100073000Y-138127000D01*
X100327000Y-138127000D01*
X100327000Y-140226250D01*
X100485750Y-140385000D01*
X101950000Y-140388072D01*
X102074482Y-140375812D01*
X102194180Y-140339502D01*
X102304494Y-140280537D01*
X102401185Y-140201185D01*
X102480537Y-140104494D01*
X102539502Y-139994180D01*
X102575812Y-139874482D01*
X102588072Y-139750000D01*
X102585000Y-138285750D01*
X102426250Y-138127000D01*
X100327000Y-138127000D01*
X100073000Y-138127000D01*
X97973750Y-138127000D01*
X97815000Y-138285750D01*
X97813069Y-139206367D01*
X97780537Y-139145506D01*
X97701185Y-139048815D01*
X97604494Y-138969463D01*
X97494180Y-138910498D01*
X97374482Y-138874188D01*
X97250000Y-138861928D01*
X95785750Y-138865000D01*
X95627000Y-139023750D01*
X95373000Y-139023750D01*
X95214250Y-138865000D01*
X93750000Y-138861928D01*
X93625518Y-138874188D01*
X93505820Y-138910498D01*
X93395506Y-138969463D01*
X93298815Y-139048815D01*
X93219463Y-139145506D01*
X93160498Y-139255820D01*
X93124188Y-139375518D01*
X93111928Y-139500000D01*
X84614812Y-139500000D01*
X84554970Y-139327866D01*
X84467197Y-139163653D01*
X84206885Y-139072720D01*
X83279605Y-140000000D01*
X82920395Y-140000000D01*
X82247831Y-139327436D01*
X82213471Y-139244484D01*
X82038918Y-138983246D01*
X81948787Y-138893115D01*
X82172720Y-138893115D01*
X83100000Y-139820395D01*
X84027280Y-138893115D01*
X83936347Y-138632803D01*
X83653549Y-138495910D01*
X83349479Y-138416818D01*
X83035822Y-138398568D01*
X82724632Y-138441860D01*
X82427866Y-138545030D01*
X82263653Y-138632803D01*
X82172720Y-138893115D01*
X81948787Y-138893115D01*
X81816754Y-138761082D01*
X81735000Y-138706456D01*
X81735000Y-136793544D01*
X81816754Y-136738918D01*
X81950000Y-136605672D01*
X82083246Y-136738918D01*
X82344484Y-136913471D01*
X82634756Y-137033706D01*
X82942906Y-137095000D01*
X83257094Y-137095000D01*
X83565244Y-137033706D01*
X83855516Y-136913471D01*
X84116754Y-136738918D01*
X84338918Y-136516754D01*
X84513471Y-136255516D01*
X84633706Y-135965244D01*
X84695000Y-135657094D01*
X84695000Y-135342906D01*
X84633706Y-135034756D01*
X84513471Y-134744484D01*
X84338918Y-134483246D01*
X84116754Y-134261082D01*
X83855516Y-134086529D01*
X83565244Y-133966294D01*
X83257094Y-133905000D01*
X82942906Y-133905000D01*
X82634756Y-133966294D01*
X82344484Y-134086529D01*
X82083246Y-134261082D01*
X81950000Y-134394328D01*
X81816754Y-134261082D01*
X81555516Y-134086529D01*
X81265244Y-133966294D01*
X80957094Y-133905000D01*
X80642906Y-133905000D01*
X80334756Y-133966294D01*
X80044484Y-134086529D01*
X79957182Y-134144862D01*
X79911185Y-134088815D01*
X79814494Y-134009463D01*
X79704180Y-133950498D01*
X79633294Y-133928995D01*
X80312289Y-133250000D01*
X93111928Y-133250000D01*
X93111928Y-136750000D01*
X93124188Y-136874482D01*
X93160498Y-136994180D01*
X93219463Y-137104494D01*
X93298815Y-137201185D01*
X93395506Y-137280537D01*
X93505820Y-137339502D01*
X93625518Y-137375812D01*
X93750000Y-137388072D01*
X97250000Y-137388072D01*
X97374482Y-137375812D01*
X97494180Y-137339502D01*
X97604494Y-137280537D01*
X97701185Y-137201185D01*
X97780537Y-137104494D01*
X97813591Y-137042655D01*
X97815000Y-137714250D01*
X97973750Y-137873000D01*
X100073000Y-137873000D01*
X100073000Y-135773750D01*
X100327000Y-135773750D01*
X100327000Y-137873000D01*
X102426250Y-137873000D01*
X102585000Y-137714250D01*
X102588072Y-136250000D01*
X102575812Y-136125518D01*
X102539502Y-136005820D01*
X102480537Y-135895506D01*
X102401185Y-135798815D01*
X102304494Y-135719463D01*
X102194180Y-135660498D01*
X102074482Y-135624188D01*
X101950000Y-135611928D01*
X100485750Y-135615000D01*
X100327000Y-135773750D01*
X100073000Y-135773750D01*
X99914250Y-135615000D01*
X98450000Y-135611928D01*
X98325518Y-135624188D01*
X98205820Y-135660498D01*
X98095506Y-135719463D01*
X97998815Y-135798815D01*
X97919463Y-135895506D01*
X97888072Y-135954233D01*
X97888072Y-133250000D01*
X97875812Y-133125518D01*
X97839502Y-133005820D01*
X97780537Y-132895506D01*
X97701185Y-132798815D01*
X97604494Y-132719463D01*
X97494180Y-132660498D01*
X97374482Y-132624188D01*
X97250000Y-132611928D01*
X93750000Y-132611928D01*
X93625518Y-132624188D01*
X93505820Y-132660498D01*
X93395506Y-132719463D01*
X93298815Y-132798815D01*
X93219463Y-132895506D01*
X93160498Y-133005820D01*
X93124188Y-133125518D01*
X93111928Y-133250000D01*
X80312289Y-133250000D01*
X81977289Y-131585000D01*
X85004068Y-131585000D01*
X85050000Y-131589524D01*
X85095932Y-131585000D01*
X85233292Y-131571471D01*
X85409540Y-131518007D01*
X85571972Y-131431186D01*
X85714344Y-131314344D01*
X85743630Y-131278659D01*
X88678660Y-128343629D01*
X88714344Y-128314344D01*
X88831186Y-128171972D01*
X88887765Y-128066120D01*
X88918007Y-128009541D01*
X88971472Y-127833292D01*
X88989524Y-127650000D01*
X88985000Y-127604065D01*
X88985000Y-124809419D01*
X91065000Y-124809419D01*
X91065000Y-125190581D01*
X91139361Y-125564419D01*
X91285225Y-125916566D01*
X91496987Y-126233491D01*
X91766509Y-126503013D01*
X92083434Y-126714775D01*
X92435581Y-126860639D01*
X92809419Y-126935000D01*
X93190581Y-126935000D01*
X93564419Y-126860639D01*
X93916566Y-126714775D01*
X94233491Y-126503013D01*
X94503013Y-126233491D01*
X94714775Y-125916566D01*
X94860639Y-125564419D01*
X94935000Y-125190581D01*
X94935000Y-124809419D01*
X94860639Y-124435581D01*
X94714775Y-124083434D01*
X94503013Y-123766509D01*
X94233491Y-123496987D01*
X93916566Y-123285225D01*
X93564419Y-123139361D01*
X93190581Y-123065000D01*
X92809419Y-123065000D01*
X92435581Y-123139361D01*
X92083434Y-123285225D01*
X91766509Y-123496987D01*
X91496987Y-123766509D01*
X91285225Y-124083434D01*
X91139361Y-124435581D01*
X91065000Y-124809419D01*
X88985000Y-124809419D01*
X88985000Y-120396338D01*
X89010841Y-120347993D01*
X89070024Y-120152895D01*
X89090007Y-119950000D01*
X89070024Y-119747105D01*
X89010841Y-119552007D01*
X88914734Y-119372203D01*
X88785396Y-119214604D01*
X88627797Y-119085266D01*
X88447993Y-118989159D01*
X88252895Y-118929976D01*
X88100838Y-118915000D01*
X87999162Y-118915000D01*
X87847105Y-118929976D01*
X87652007Y-118989159D01*
X87472203Y-119085266D01*
X87314604Y-119214604D01*
X87185266Y-119372203D01*
X87089159Y-119552007D01*
X87029976Y-119747105D01*
X87009993Y-119950000D01*
X87029976Y-120152895D01*
X87089159Y-120347993D01*
X87115001Y-120396340D01*
X87115000Y-127262711D01*
X84662711Y-129715000D01*
X81635932Y-129715000D01*
X81590000Y-129710476D01*
X81544068Y-129715000D01*
X81406708Y-129728529D01*
X81230460Y-129781993D01*
X81068028Y-129868814D01*
X80925656Y-129985656D01*
X80896370Y-130021341D01*
X77871336Y-133046375D01*
X77835657Y-133075656D01*
X77718815Y-133218028D01*
X77701726Y-133250000D01*
X77631994Y-133380460D01*
X77578529Y-133556709D01*
X77560476Y-133740000D01*
X77565001Y-133785942D01*
X77565001Y-133901928D01*
X77540000Y-133901928D01*
X77415518Y-133914188D01*
X77295820Y-133950498D01*
X77185506Y-134009463D01*
X77088815Y-134088815D01*
X77009463Y-134185506D01*
X76950498Y-134295820D01*
X76914188Y-134415518D01*
X76901928Y-134540000D01*
X76901928Y-136460000D01*
X76914188Y-136584482D01*
X76950498Y-136704180D01*
X77009463Y-136814494D01*
X77009878Y-136815000D01*
X76002889Y-136815000D01*
X76116754Y-136738918D01*
X76338918Y-136516754D01*
X76513471Y-136255516D01*
X76633706Y-135965244D01*
X76695000Y-135657094D01*
X76695000Y-135342906D01*
X76633706Y-135034756D01*
X76513471Y-134744484D01*
X76338918Y-134483246D01*
X76116754Y-134261082D01*
X75855516Y-134086529D01*
X75565244Y-133966294D01*
X75257094Y-133905000D01*
X74942906Y-133905000D01*
X74634756Y-133966294D01*
X74344484Y-134086529D01*
X74083246Y-134261082D01*
X73950000Y-134394328D01*
X73816754Y-134261082D01*
X73555516Y-134086529D01*
X73265244Y-133966294D01*
X72957094Y-133905000D01*
X72642906Y-133905000D01*
X72334756Y-133966294D01*
X72044484Y-134086529D01*
X71957182Y-134144862D01*
X71911185Y-134088815D01*
X71814494Y-134009463D01*
X71704180Y-133950498D01*
X71584482Y-133914188D01*
X71460000Y-133901928D01*
X69540000Y-133901928D01*
X69415518Y-133914188D01*
X69295820Y-133950498D01*
X69185506Y-134009463D01*
X69088815Y-134088815D01*
X69009463Y-134185506D01*
X68950498Y-134295820D01*
X68914188Y-134415518D01*
X68901928Y-134540000D01*
X68376840Y-134540000D01*
X68338918Y-134483246D01*
X68116754Y-134261082D01*
X67855516Y-134086529D01*
X67565244Y-133966294D01*
X67257094Y-133905000D01*
X66942906Y-133905000D01*
X66634756Y-133966294D01*
X66344484Y-134086529D01*
X66083246Y-134261082D01*
X65950000Y-134394328D01*
X65816754Y-134261082D01*
X65555516Y-134086529D01*
X65265244Y-133966294D01*
X64957094Y-133905000D01*
X64642906Y-133905000D01*
X64334756Y-133966294D01*
X64044484Y-134086529D01*
X63957182Y-134144862D01*
X63911185Y-134088815D01*
X63814494Y-134009463D01*
X63704180Y-133950498D01*
X63584482Y-133914188D01*
X63460000Y-133901928D01*
X61540000Y-133901928D01*
X61415518Y-133914188D01*
X61295820Y-133950498D01*
X61185506Y-134009463D01*
X61088815Y-134088815D01*
X61009463Y-134185506D01*
X60950498Y-134295820D01*
X60914188Y-134415518D01*
X60901928Y-134540000D01*
X51627000Y-134540000D01*
X51627000Y-125000000D01*
X63357815Y-125000000D01*
X63386487Y-125291111D01*
X63471401Y-125571034D01*
X63609294Y-125829014D01*
X63794866Y-126055134D01*
X64020986Y-126240706D01*
X64278966Y-126378599D01*
X64558889Y-126463513D01*
X64777050Y-126485000D01*
X65222950Y-126485000D01*
X65441111Y-126463513D01*
X65721034Y-126378599D01*
X65979014Y-126240706D01*
X66205134Y-126055134D01*
X66390706Y-125829014D01*
X66528599Y-125571034D01*
X66613513Y-125291111D01*
X66642185Y-125000000D01*
X66623415Y-124809419D01*
X76315000Y-124809419D01*
X76315000Y-125190581D01*
X76389361Y-125564419D01*
X76535225Y-125916566D01*
X76746987Y-126233491D01*
X77016509Y-126503013D01*
X77333434Y-126714775D01*
X77685581Y-126860639D01*
X78059419Y-126935000D01*
X78440581Y-126935000D01*
X78814419Y-126860639D01*
X79166566Y-126714775D01*
X79483491Y-126503013D01*
X79753013Y-126233491D01*
X79964775Y-125916566D01*
X80110639Y-125564419D01*
X80185000Y-125190581D01*
X80185000Y-124809419D01*
X81315000Y-124809419D01*
X81315000Y-125190581D01*
X81389361Y-125564419D01*
X81535225Y-125916566D01*
X81746987Y-126233491D01*
X82016509Y-126503013D01*
X82333434Y-126714775D01*
X82685581Y-126860639D01*
X83059419Y-126935000D01*
X83440581Y-126935000D01*
X83814419Y-126860639D01*
X84166566Y-126714775D01*
X84483491Y-126503013D01*
X84753013Y-126233491D01*
X84964775Y-125916566D01*
X85110639Y-125564419D01*
X85185000Y-125190581D01*
X85185000Y-124809419D01*
X85110639Y-124435581D01*
X84964775Y-124083434D01*
X84753013Y-123766509D01*
X84483491Y-123496987D01*
X84166566Y-123285225D01*
X83814419Y-123139361D01*
X83440581Y-123065000D01*
X83059419Y-123065000D01*
X82685581Y-123139361D01*
X82333434Y-123285225D01*
X82016509Y-123496987D01*
X81746987Y-123766509D01*
X81535225Y-124083434D01*
X81389361Y-124435581D01*
X81315000Y-124809419D01*
X80185000Y-124809419D01*
X80110639Y-124435581D01*
X79964775Y-124083434D01*
X79753013Y-123766509D01*
X79483491Y-123496987D01*
X79166566Y-123285225D01*
X78814419Y-123139361D01*
X78440581Y-123065000D01*
X78059419Y-123065000D01*
X77685581Y-123139361D01*
X77333434Y-123285225D01*
X77016509Y-123496987D01*
X76746987Y-123766509D01*
X76535225Y-124083434D01*
X76389361Y-124435581D01*
X76315000Y-124809419D01*
X66623415Y-124809419D01*
X66613513Y-124708889D01*
X66528599Y-124428966D01*
X66390706Y-124170986D01*
X66205134Y-123944866D01*
X66141663Y-123892777D01*
X66243386Y-123838405D01*
X66377962Y-123727962D01*
X66488405Y-123593386D01*
X66570472Y-123439850D01*
X66621008Y-123273254D01*
X66628867Y-123193459D01*
X66664344Y-123164344D01*
X66693630Y-123128659D01*
X74987289Y-114835000D01*
X92609984Y-114835000D01*
X97065001Y-119334569D01*
X97065000Y-123297542D01*
X96766509Y-123496987D01*
X96496987Y-123766509D01*
X96285225Y-124083434D01*
X96139361Y-124435581D01*
X96065000Y-124809419D01*
X96065000Y-125190581D01*
X96139361Y-125564419D01*
X96285225Y-125916566D01*
X96496987Y-126233491D01*
X96766509Y-126503013D01*
X97083434Y-126714775D01*
X97435581Y-126860639D01*
X97809419Y-126935000D01*
X98190581Y-126935000D01*
X98564419Y-126860639D01*
X98916566Y-126714775D01*
X99233491Y-126503013D01*
X99503013Y-126233491D01*
X99714775Y-125916566D01*
X99860639Y-125564419D01*
X99935000Y-125190581D01*
X99935000Y-124809419D01*
X99860639Y-124435581D01*
X99714775Y-124083434D01*
X99503013Y-123766509D01*
X99233491Y-123496987D01*
X98935000Y-123297542D01*
X98935000Y-118998262D01*
X98939512Y-118954674D01*
X98935000Y-118906400D01*
X98935000Y-118904068D01*
X98930728Y-118860693D01*
X98922372Y-118771294D01*
X98921701Y-118769041D01*
X98921471Y-118766708D01*
X98895412Y-118680804D01*
X98869784Y-118594782D01*
X98868689Y-118592709D01*
X98868007Y-118590460D01*
X98825619Y-118511158D01*
X98783772Y-118431921D01*
X98782295Y-118430103D01*
X98781186Y-118428028D01*
X98724144Y-118358523D01*
X98696742Y-118324792D01*
X98695107Y-118323140D01*
X98664344Y-118285656D01*
X98630465Y-118257852D01*
X93935000Y-113515433D01*
X93935000Y-110888072D01*
X94000000Y-110888072D01*
X94124482Y-110875812D01*
X94244180Y-110839502D01*
X94354494Y-110780537D01*
X94451185Y-110701185D01*
X94530537Y-110604494D01*
X94589502Y-110494180D01*
X94622496Y-110385413D01*
X97044192Y-110385413D01*
X97139956Y-110649814D01*
X97429571Y-110790704D01*
X97741108Y-110872384D01*
X98062595Y-110891718D01*
X98381675Y-110847961D01*
X98686088Y-110742795D01*
X98860044Y-110649814D01*
X98955808Y-110385413D01*
X98000000Y-109429605D01*
X97044192Y-110385413D01*
X94622496Y-110385413D01*
X94625812Y-110374482D01*
X94638072Y-110250000D01*
X94638072Y-109312595D01*
X96358282Y-109312595D01*
X96402039Y-109631675D01*
X96507205Y-109936088D01*
X96600186Y-110110044D01*
X96864587Y-110205808D01*
X97820395Y-109250000D01*
X98179605Y-109250000D01*
X99135413Y-110205808D01*
X99399814Y-110110044D01*
X99540704Y-109820429D01*
X99622384Y-109508892D01*
X99641718Y-109187405D01*
X99597961Y-108868325D01*
X99492795Y-108563912D01*
X99399814Y-108389956D01*
X99135413Y-108294192D01*
X98179605Y-109250000D01*
X97820395Y-109250000D01*
X96864587Y-108294192D01*
X96600186Y-108389956D01*
X96459296Y-108679571D01*
X96377616Y-108991108D01*
X96358282Y-109312595D01*
X94638072Y-109312595D01*
X94638072Y-108250000D01*
X94625812Y-108125518D01*
X94622497Y-108114587D01*
X97044192Y-108114587D01*
X98000000Y-109070395D01*
X98955808Y-108114587D01*
X98860044Y-107850186D01*
X98570429Y-107709296D01*
X98258892Y-107627616D01*
X97937405Y-107608282D01*
X97618325Y-107652039D01*
X97313912Y-107757205D01*
X97139956Y-107850186D01*
X97044192Y-108114587D01*
X94622497Y-108114587D01*
X94589502Y-108005820D01*
X94530537Y-107895506D01*
X94451185Y-107798815D01*
X94354494Y-107719463D01*
X94244180Y-107660498D01*
X94124482Y-107624188D01*
X94000000Y-107611928D01*
X92000000Y-107611928D01*
X91875518Y-107624188D01*
X91755820Y-107660498D01*
X91645506Y-107719463D01*
X91548815Y-107798815D01*
X91469463Y-107895506D01*
X91410498Y-108005820D01*
X91374188Y-108125518D01*
X91361928Y-108250000D01*
X91361928Y-110250000D01*
X91374188Y-110374482D01*
X91410498Y-110494180D01*
X91469463Y-110604494D01*
X91548815Y-110701185D01*
X91645506Y-110780537D01*
X91755820Y-110839502D01*
X91875518Y-110875812D01*
X92000000Y-110888072D01*
X92065001Y-110888072D01*
X92065000Y-112965000D01*
X74645935Y-112965000D01*
X74600000Y-112960476D01*
X74416708Y-112978528D01*
X74240459Y-113031993D01*
X74183880Y-113062235D01*
X74078028Y-113118814D01*
X73935656Y-113235656D01*
X73906370Y-113271341D01*
X66095280Y-121082431D01*
X66089850Y-121079528D01*
X65923254Y-121028992D01*
X65750000Y-121011928D01*
X64250000Y-121011928D01*
X64076746Y-121028992D01*
X63910150Y-121079528D01*
X63756614Y-121161595D01*
X63622038Y-121272038D01*
X63511595Y-121406614D01*
X63429528Y-121560150D01*
X63378992Y-121726746D01*
X63361928Y-121900000D01*
X63361928Y-123100000D01*
X63378992Y-123273254D01*
X63429528Y-123439850D01*
X63511595Y-123593386D01*
X63622038Y-123727962D01*
X63756614Y-123838405D01*
X63858337Y-123892777D01*
X63794866Y-123944866D01*
X63609294Y-124170986D01*
X63471401Y-124428966D01*
X63386487Y-124708889D01*
X63357815Y-125000000D01*
X51627000Y-125000000D01*
X51627000Y-111338967D01*
X60865000Y-111338967D01*
X60865000Y-111661033D01*
X60927832Y-111976912D01*
X61051082Y-112274463D01*
X61230013Y-112542252D01*
X61457748Y-112769987D01*
X61725537Y-112948918D01*
X62023088Y-113072168D01*
X62338967Y-113135000D01*
X62661033Y-113135000D01*
X62976912Y-113072168D01*
X63274463Y-112948918D01*
X63542252Y-112769987D01*
X63769987Y-112542252D01*
X63948918Y-112274463D01*
X64072168Y-111976912D01*
X64135000Y-111661033D01*
X64135000Y-111338967D01*
X64072168Y-111023088D01*
X63948918Y-110725537D01*
X63769987Y-110457748D01*
X63542252Y-110230013D01*
X63274463Y-110051082D01*
X62976912Y-109927832D01*
X62661033Y-109865000D01*
X62338967Y-109865000D01*
X62023088Y-109927832D01*
X61725537Y-110051082D01*
X61457748Y-110230013D01*
X61230013Y-110457748D01*
X61051082Y-110725537D01*
X60927832Y-111023088D01*
X60865000Y-111338967D01*
X51627000Y-111338967D01*
X51627000Y-108135413D01*
X61544192Y-108135413D01*
X61639956Y-108399814D01*
X61929571Y-108540704D01*
X62241108Y-108622384D01*
X62562595Y-108641718D01*
X62881675Y-108597961D01*
X63186088Y-108492795D01*
X63360044Y-108399814D01*
X63455808Y-108135413D01*
X68044192Y-108135413D01*
X68139956Y-108399814D01*
X68429571Y-108540704D01*
X68741108Y-108622384D01*
X69062595Y-108641718D01*
X69381675Y-108597961D01*
X69686088Y-108492795D01*
X69860044Y-108399814D01*
X69955808Y-108135413D01*
X69000000Y-107179605D01*
X68044192Y-108135413D01*
X63455808Y-108135413D01*
X62500000Y-107179605D01*
X61544192Y-108135413D01*
X51627000Y-108135413D01*
X51627000Y-107062595D01*
X60858282Y-107062595D01*
X60902039Y-107381675D01*
X61007205Y-107686088D01*
X61100186Y-107860044D01*
X61364587Y-107955808D01*
X62320395Y-107000000D01*
X62679605Y-107000000D01*
X63635413Y-107955808D01*
X63899814Y-107860044D01*
X64040704Y-107570429D01*
X64122384Y-107258892D01*
X64134189Y-107062595D01*
X67358282Y-107062595D01*
X67402039Y-107381675D01*
X67507205Y-107686088D01*
X67600186Y-107860044D01*
X67864587Y-107955808D01*
X68820395Y-107000000D01*
X69179605Y-107000000D01*
X70135413Y-107955808D01*
X70399814Y-107860044D01*
X70540704Y-107570429D01*
X70622384Y-107258892D01*
X70641718Y-106937405D01*
X70597961Y-106618325D01*
X70492795Y-106313912D01*
X70399814Y-106139956D01*
X70135413Y-106044192D01*
X69179605Y-107000000D01*
X68820395Y-107000000D01*
X67864587Y-106044192D01*
X67600186Y-106139956D01*
X67459296Y-106429571D01*
X67377616Y-106741108D01*
X67358282Y-107062595D01*
X64134189Y-107062595D01*
X64141718Y-106937405D01*
X64097961Y-106618325D01*
X63992795Y-106313912D01*
X63899814Y-106139956D01*
X63635413Y-106044192D01*
X62679605Y-107000000D01*
X62320395Y-107000000D01*
X61364587Y-106044192D01*
X61100186Y-106139956D01*
X60959296Y-106429571D01*
X60877616Y-106741108D01*
X60858282Y-107062595D01*
X51627000Y-107062595D01*
X51627000Y-105864587D01*
X61544192Y-105864587D01*
X62500000Y-106820395D01*
X63455808Y-105864587D01*
X68044192Y-105864587D01*
X69000000Y-106820395D01*
X69955808Y-105864587D01*
X69860044Y-105600186D01*
X69570429Y-105459296D01*
X69258892Y-105377616D01*
X68937405Y-105358282D01*
X68618325Y-105402039D01*
X68313912Y-105507205D01*
X68139956Y-105600186D01*
X68044192Y-105864587D01*
X63455808Y-105864587D01*
X63360044Y-105600186D01*
X63070429Y-105459296D01*
X62758892Y-105377616D01*
X62437405Y-105358282D01*
X62118325Y-105402039D01*
X61813912Y-105507205D01*
X61639956Y-105600186D01*
X61544192Y-105864587D01*
X51627000Y-105864587D01*
X51627000Y-98165234D01*
X51740915Y-98440250D01*
X51958149Y-98765364D01*
X52234636Y-99041851D01*
X52559750Y-99259085D01*
X52920997Y-99408718D01*
X53304495Y-99485000D01*
X53695505Y-99485000D01*
X54079003Y-99408718D01*
X54440250Y-99259085D01*
X54765364Y-99041851D01*
X55041851Y-98765364D01*
X55259085Y-98440250D01*
X55408718Y-98079003D01*
X55485000Y-97695505D01*
X55485000Y-97304495D01*
X55408718Y-96920997D01*
X55259085Y-96559750D01*
X55041851Y-96234636D01*
X54765364Y-95958149D01*
X54440250Y-95740915D01*
X54165234Y-95627000D01*
X57012419Y-95627000D01*
X56942068Y-95796842D01*
M02*
