G04 #@! TF.GenerationSoftware,KiCad,Pcbnew,(5.1.5)-3*
G04 #@! TF.CreationDate,2020-03-31T15:27:32+09:00*
G04 #@! TF.ProjectId,CAL_V_Simulation_circuit,43414c5f-565f-4536-996d-756c6174696f,rev?*
G04 #@! TF.SameCoordinates,Original*
G04 #@! TF.FileFunction,Copper,L2,Bot*
G04 #@! TF.FilePolarity,Positive*
%FSLAX46Y46*%
G04 Gerber Fmt 4.6, Leading zero omitted, Abs format (unit mm)*
G04 Created by KiCad (PCBNEW (5.1.5)-3) date 2020-03-31 15:27:32*
%MOMM*%
%LPD*%
G04 APERTURE LIST*
%ADD10C,2.600000*%
%ADD11C,2.000000*%
%ADD12R,2.000000X2.000000*%
%ADD13C,0.100000*%
%ADD14O,2.000000X1.700000*%
%ADD15R,3.500000X3.500000*%
%ADD16R,1.920000X1.920000*%
%ADD17C,1.920000*%
%ADD18C,1.800000*%
%ADD19R,1.700000X1.700000*%
%ADD20O,1.700000X1.700000*%
%ADD21C,0.600000*%
%ADD22C,0.600000*%
%ADD23C,0.254000*%
G04 APERTURE END LIST*
D10*
X98000000Y-125000000D03*
X93000000Y-125000000D03*
D11*
X83250000Y-109250000D03*
D12*
X78250000Y-109250000D03*
X93000000Y-109250000D03*
D11*
X98000000Y-109250000D03*
G04 #@! TA.AperFunction,ComponentPad*
D13*
G36*
X65774504Y-121651204D02*
G01*
X65798773Y-121654804D01*
X65822571Y-121660765D01*
X65845671Y-121669030D01*
X65867849Y-121679520D01*
X65888893Y-121692133D01*
X65908598Y-121706747D01*
X65926777Y-121723223D01*
X65943253Y-121741402D01*
X65957867Y-121761107D01*
X65970480Y-121782151D01*
X65980970Y-121804329D01*
X65989235Y-121827429D01*
X65995196Y-121851227D01*
X65998796Y-121875496D01*
X66000000Y-121900000D01*
X66000000Y-123100000D01*
X65998796Y-123124504D01*
X65995196Y-123148773D01*
X65989235Y-123172571D01*
X65980970Y-123195671D01*
X65970480Y-123217849D01*
X65957867Y-123238893D01*
X65943253Y-123258598D01*
X65926777Y-123276777D01*
X65908598Y-123293253D01*
X65888893Y-123307867D01*
X65867849Y-123320480D01*
X65845671Y-123330970D01*
X65822571Y-123339235D01*
X65798773Y-123345196D01*
X65774504Y-123348796D01*
X65750000Y-123350000D01*
X64250000Y-123350000D01*
X64225496Y-123348796D01*
X64201227Y-123345196D01*
X64177429Y-123339235D01*
X64154329Y-123330970D01*
X64132151Y-123320480D01*
X64111107Y-123307867D01*
X64091402Y-123293253D01*
X64073223Y-123276777D01*
X64056747Y-123258598D01*
X64042133Y-123238893D01*
X64029520Y-123217849D01*
X64019030Y-123195671D01*
X64010765Y-123172571D01*
X64004804Y-123148773D01*
X64001204Y-123124504D01*
X64000000Y-123100000D01*
X64000000Y-121900000D01*
X64001204Y-121875496D01*
X64004804Y-121851227D01*
X64010765Y-121827429D01*
X64019030Y-121804329D01*
X64029520Y-121782151D01*
X64042133Y-121761107D01*
X64056747Y-121741402D01*
X64073223Y-121723223D01*
X64091402Y-121706747D01*
X64111107Y-121692133D01*
X64132151Y-121679520D01*
X64154329Y-121669030D01*
X64177429Y-121660765D01*
X64201227Y-121654804D01*
X64225496Y-121651204D01*
X64250000Y-121650000D01*
X65750000Y-121650000D01*
X65774504Y-121651204D01*
G37*
G04 #@! TD.AperFunction*
D14*
X65000000Y-125000000D03*
D15*
X95500000Y-135000000D03*
G04 #@! TA.AperFunction,ComponentPad*
D13*
G36*
X96573513Y-139503611D02*
G01*
X96646318Y-139514411D01*
X96717714Y-139532295D01*
X96787013Y-139557090D01*
X96853548Y-139588559D01*
X96916678Y-139626398D01*
X96975795Y-139670242D01*
X97030330Y-139719670D01*
X97079758Y-139774205D01*
X97123602Y-139833322D01*
X97161441Y-139896452D01*
X97192910Y-139962987D01*
X97217705Y-140032286D01*
X97235589Y-140103682D01*
X97246389Y-140176487D01*
X97250000Y-140250000D01*
X97250000Y-141750000D01*
X97246389Y-141823513D01*
X97235589Y-141896318D01*
X97217705Y-141967714D01*
X97192910Y-142037013D01*
X97161441Y-142103548D01*
X97123602Y-142166678D01*
X97079758Y-142225795D01*
X97030330Y-142280330D01*
X96975795Y-142329758D01*
X96916678Y-142373602D01*
X96853548Y-142411441D01*
X96787013Y-142442910D01*
X96717714Y-142467705D01*
X96646318Y-142485589D01*
X96573513Y-142496389D01*
X96500000Y-142500000D01*
X94500000Y-142500000D01*
X94426487Y-142496389D01*
X94353682Y-142485589D01*
X94282286Y-142467705D01*
X94212987Y-142442910D01*
X94146452Y-142411441D01*
X94083322Y-142373602D01*
X94024205Y-142329758D01*
X93969670Y-142280330D01*
X93920242Y-142225795D01*
X93876398Y-142166678D01*
X93838559Y-142103548D01*
X93807090Y-142037013D01*
X93782295Y-141967714D01*
X93764411Y-141896318D01*
X93753611Y-141823513D01*
X93750000Y-141750000D01*
X93750000Y-140250000D01*
X93753611Y-140176487D01*
X93764411Y-140103682D01*
X93782295Y-140032286D01*
X93807090Y-139962987D01*
X93838559Y-139896452D01*
X93876398Y-139833322D01*
X93920242Y-139774205D01*
X93969670Y-139719670D01*
X94024205Y-139670242D01*
X94083322Y-139626398D01*
X94146452Y-139588559D01*
X94212987Y-139557090D01*
X94282286Y-139532295D01*
X94353682Y-139514411D01*
X94426487Y-139503611D01*
X94500000Y-139500000D01*
X96500000Y-139500000D01*
X96573513Y-139503611D01*
G37*
G04 #@! TD.AperFunction*
G04 #@! TA.AperFunction,ComponentPad*
G36*
X101160765Y-136254213D02*
G01*
X101245704Y-136266813D01*
X101328999Y-136287677D01*
X101409848Y-136316605D01*
X101487472Y-136353319D01*
X101561124Y-136397464D01*
X101630094Y-136448616D01*
X101693718Y-136506282D01*
X101751384Y-136569906D01*
X101802536Y-136638876D01*
X101846681Y-136712528D01*
X101883395Y-136790152D01*
X101912323Y-136871001D01*
X101933187Y-136954296D01*
X101945787Y-137039235D01*
X101950000Y-137125000D01*
X101950000Y-138875000D01*
X101945787Y-138960765D01*
X101933187Y-139045704D01*
X101912323Y-139128999D01*
X101883395Y-139209848D01*
X101846681Y-139287472D01*
X101802536Y-139361124D01*
X101751384Y-139430094D01*
X101693718Y-139493718D01*
X101630094Y-139551384D01*
X101561124Y-139602536D01*
X101487472Y-139646681D01*
X101409848Y-139683395D01*
X101328999Y-139712323D01*
X101245704Y-139733187D01*
X101160765Y-139745787D01*
X101075000Y-139750000D01*
X99325000Y-139750000D01*
X99239235Y-139745787D01*
X99154296Y-139733187D01*
X99071001Y-139712323D01*
X98990152Y-139683395D01*
X98912528Y-139646681D01*
X98838876Y-139602536D01*
X98769906Y-139551384D01*
X98706282Y-139493718D01*
X98648616Y-139430094D01*
X98597464Y-139361124D01*
X98553319Y-139287472D01*
X98516605Y-139209848D01*
X98487677Y-139128999D01*
X98466813Y-139045704D01*
X98454213Y-138960765D01*
X98450000Y-138875000D01*
X98450000Y-137125000D01*
X98454213Y-137039235D01*
X98466813Y-136954296D01*
X98487677Y-136871001D01*
X98516605Y-136790152D01*
X98553319Y-136712528D01*
X98597464Y-136638876D01*
X98648616Y-136569906D01*
X98706282Y-136506282D01*
X98769906Y-136448616D01*
X98838876Y-136397464D01*
X98912528Y-136353319D01*
X98990152Y-136316605D01*
X99071001Y-136287677D01*
X99154296Y-136266813D01*
X99239235Y-136254213D01*
X99325000Y-136250000D01*
X101075000Y-136250000D01*
X101160765Y-136254213D01*
G37*
G04 #@! TD.AperFunction*
D10*
X83250000Y-125000000D03*
X78250000Y-125000000D03*
D16*
X78500000Y-135500000D03*
D17*
X80800000Y-135500000D03*
X83100000Y-135500000D03*
D16*
X78500000Y-140000000D03*
D17*
X80800000Y-140000000D03*
X83100000Y-140000000D03*
X75100000Y-135500000D03*
X72800000Y-135500000D03*
D16*
X70500000Y-135500000D03*
D17*
X75100000Y-140000000D03*
X72800000Y-140000000D03*
D16*
X70500000Y-140000000D03*
X62500000Y-135500000D03*
D17*
X64800000Y-135500000D03*
X67100000Y-135500000D03*
X67100000Y-140000000D03*
X64800000Y-140000000D03*
D16*
X62500000Y-140000000D03*
D11*
X62500000Y-111500000D03*
X62500000Y-107000000D03*
X69000000Y-111500000D03*
X69000000Y-107000000D03*
D18*
X70500000Y-145000000D03*
X62500000Y-145000000D03*
X78500000Y-145000000D03*
X86500000Y-145000000D03*
D19*
X58370000Y-98770000D03*
D20*
X58370000Y-96230000D03*
X60910000Y-98770000D03*
X60910000Y-96230000D03*
X63450000Y-98770000D03*
X63450000Y-96230000D03*
X65990000Y-98770000D03*
X65990000Y-96230000D03*
X68530000Y-98770000D03*
X68530000Y-96230000D03*
X71070000Y-98770000D03*
X71070000Y-96230000D03*
X73610000Y-98770000D03*
X73610000Y-96230000D03*
X76150000Y-98770000D03*
X76150000Y-96230000D03*
X78690000Y-98770000D03*
X78690000Y-96230000D03*
X81230000Y-98770000D03*
X81230000Y-96230000D03*
X83770000Y-98770000D03*
X83770000Y-96230000D03*
X86310000Y-98770000D03*
X86310000Y-96230000D03*
X88850000Y-98770000D03*
X88850000Y-96230000D03*
X91390000Y-98770000D03*
X91390000Y-96230000D03*
X93930000Y-98770000D03*
X93930000Y-96230000D03*
X96470000Y-98770000D03*
X96470000Y-96230000D03*
X99010000Y-98770000D03*
X99010000Y-96230000D03*
X101550000Y-98770000D03*
X101550000Y-96230000D03*
X104090000Y-98770000D03*
X104090000Y-96230000D03*
X106630000Y-98770000D03*
X106630000Y-96230000D03*
D21*
X88050000Y-119950000D03*
D22*
X65000000Y-125000000D02*
X78250000Y-125000000D01*
X78250000Y-125000000D02*
X78250000Y-109250000D01*
X80800000Y-127450000D02*
X83250000Y-125000000D01*
X80800000Y-135500000D02*
X80800000Y-127450000D01*
X86500000Y-145000000D02*
X84100000Y-142600000D01*
X84100000Y-142600000D02*
X65700000Y-142600000D01*
X64800000Y-141700000D02*
X64800000Y-140000000D01*
X65700000Y-142600000D02*
X64800000Y-141700000D01*
X86500000Y-145000000D02*
X99750000Y-145000000D01*
X99750000Y-145000000D02*
X104500000Y-140250000D01*
X104500000Y-136500000D02*
X104500000Y-140250000D01*
X93000000Y-125000000D02*
X104500000Y-136500000D01*
X88050000Y-119950000D02*
X88050000Y-107600000D01*
X88050000Y-107600000D02*
X91100000Y-104550000D01*
X93230000Y-104550000D02*
X99010000Y-98770000D01*
X91100000Y-104550000D02*
X93230000Y-104550000D01*
X62500000Y-137060000D02*
X63190000Y-137750000D01*
X62500000Y-135500000D02*
X62500000Y-137060000D01*
X62500000Y-138440000D02*
X62500000Y-140000000D01*
X63190000Y-137750000D02*
X62500000Y-138440000D01*
X72800000Y-136857645D02*
X72800000Y-135500000D01*
X72800000Y-136950000D02*
X72800000Y-136857645D01*
X72000000Y-137750000D02*
X72800000Y-136950000D01*
X63190000Y-137750000D02*
X72000000Y-137750000D01*
X72800000Y-138550000D02*
X72800000Y-140000000D01*
X72000000Y-137750000D02*
X72800000Y-138550000D01*
X62500000Y-111500000D02*
X69000000Y-111500000D01*
D23*
G36*
X56928519Y-95873109D02*
G01*
X57049186Y-96103000D01*
X58243000Y-96103000D01*
X58243000Y-96083000D01*
X58497000Y-96083000D01*
X58497000Y-96103000D01*
X60783000Y-96103000D01*
X60783000Y-96083000D01*
X61037000Y-96083000D01*
X61037000Y-96103000D01*
X61057000Y-96103000D01*
X61057000Y-96357000D01*
X61037000Y-96357000D01*
X61037000Y-96377000D01*
X60783000Y-96377000D01*
X60783000Y-96357000D01*
X58497000Y-96357000D01*
X58497000Y-96377000D01*
X58243000Y-96377000D01*
X58243000Y-96357000D01*
X57049186Y-96357000D01*
X56928519Y-96586891D01*
X57025843Y-96861252D01*
X57174822Y-97111355D01*
X57351626Y-97307502D01*
X57275820Y-97330498D01*
X57165506Y-97389463D01*
X57068815Y-97468815D01*
X56989463Y-97565506D01*
X56930498Y-97675820D01*
X56894188Y-97795518D01*
X56881928Y-97920000D01*
X56881928Y-99620000D01*
X56894188Y-99744482D01*
X56930498Y-99864180D01*
X56989463Y-99974494D01*
X57068815Y-100071185D01*
X57165506Y-100150537D01*
X57275820Y-100209502D01*
X57395518Y-100245812D01*
X57520000Y-100258072D01*
X59220000Y-100258072D01*
X59344482Y-100245812D01*
X59464180Y-100209502D01*
X59574494Y-100150537D01*
X59671185Y-100071185D01*
X59750537Y-99974494D01*
X59809502Y-99864180D01*
X59831513Y-99791620D01*
X59963368Y-99923475D01*
X60206589Y-100085990D01*
X60476842Y-100197932D01*
X60763740Y-100255000D01*
X61056260Y-100255000D01*
X61343158Y-100197932D01*
X61613411Y-100085990D01*
X61856632Y-99923475D01*
X62063475Y-99716632D01*
X62180000Y-99542240D01*
X62296525Y-99716632D01*
X62503368Y-99923475D01*
X62746589Y-100085990D01*
X63016842Y-100197932D01*
X63303740Y-100255000D01*
X63596260Y-100255000D01*
X63883158Y-100197932D01*
X64153411Y-100085990D01*
X64396632Y-99923475D01*
X64603475Y-99716632D01*
X64720000Y-99542240D01*
X64836525Y-99716632D01*
X65043368Y-99923475D01*
X65286589Y-100085990D01*
X65556842Y-100197932D01*
X65843740Y-100255000D01*
X66136260Y-100255000D01*
X66423158Y-100197932D01*
X66693411Y-100085990D01*
X66936632Y-99923475D01*
X67143475Y-99716632D01*
X67260000Y-99542240D01*
X67376525Y-99716632D01*
X67583368Y-99923475D01*
X67826589Y-100085990D01*
X68096842Y-100197932D01*
X68383740Y-100255000D01*
X68676260Y-100255000D01*
X68963158Y-100197932D01*
X69233411Y-100085990D01*
X69476632Y-99923475D01*
X69683475Y-99716632D01*
X69800000Y-99542240D01*
X69916525Y-99716632D01*
X70123368Y-99923475D01*
X70366589Y-100085990D01*
X70636842Y-100197932D01*
X70923740Y-100255000D01*
X71216260Y-100255000D01*
X71503158Y-100197932D01*
X71773411Y-100085990D01*
X72016632Y-99923475D01*
X72223475Y-99716632D01*
X72340000Y-99542240D01*
X72456525Y-99716632D01*
X72663368Y-99923475D01*
X72906589Y-100085990D01*
X73176842Y-100197932D01*
X73463740Y-100255000D01*
X73756260Y-100255000D01*
X74043158Y-100197932D01*
X74313411Y-100085990D01*
X74556632Y-99923475D01*
X74763475Y-99716632D01*
X74880000Y-99542240D01*
X74996525Y-99716632D01*
X75203368Y-99923475D01*
X75446589Y-100085990D01*
X75716842Y-100197932D01*
X76003740Y-100255000D01*
X76296260Y-100255000D01*
X76583158Y-100197932D01*
X76853411Y-100085990D01*
X77096632Y-99923475D01*
X77303475Y-99716632D01*
X77420000Y-99542240D01*
X77536525Y-99716632D01*
X77743368Y-99923475D01*
X77986589Y-100085990D01*
X78256842Y-100197932D01*
X78543740Y-100255000D01*
X78836260Y-100255000D01*
X79123158Y-100197932D01*
X79393411Y-100085990D01*
X79636632Y-99923475D01*
X79843475Y-99716632D01*
X79960000Y-99542240D01*
X80076525Y-99716632D01*
X80283368Y-99923475D01*
X80526589Y-100085990D01*
X80796842Y-100197932D01*
X81083740Y-100255000D01*
X81376260Y-100255000D01*
X81663158Y-100197932D01*
X81933411Y-100085990D01*
X82176632Y-99923475D01*
X82383475Y-99716632D01*
X82500000Y-99542240D01*
X82616525Y-99716632D01*
X82823368Y-99923475D01*
X83066589Y-100085990D01*
X83336842Y-100197932D01*
X83623740Y-100255000D01*
X83916260Y-100255000D01*
X84203158Y-100197932D01*
X84473411Y-100085990D01*
X84716632Y-99923475D01*
X84923475Y-99716632D01*
X85040000Y-99542240D01*
X85156525Y-99716632D01*
X85363368Y-99923475D01*
X85606589Y-100085990D01*
X85876842Y-100197932D01*
X86163740Y-100255000D01*
X86456260Y-100255000D01*
X86743158Y-100197932D01*
X87013411Y-100085990D01*
X87256632Y-99923475D01*
X87463475Y-99716632D01*
X87580000Y-99542240D01*
X87696525Y-99716632D01*
X87903368Y-99923475D01*
X88146589Y-100085990D01*
X88416842Y-100197932D01*
X88703740Y-100255000D01*
X88996260Y-100255000D01*
X89283158Y-100197932D01*
X89553411Y-100085990D01*
X89796632Y-99923475D01*
X90003475Y-99716632D01*
X90120000Y-99542240D01*
X90236525Y-99716632D01*
X90443368Y-99923475D01*
X90686589Y-100085990D01*
X90956842Y-100197932D01*
X91243740Y-100255000D01*
X91536260Y-100255000D01*
X91823158Y-100197932D01*
X92093411Y-100085990D01*
X92336632Y-99923475D01*
X92543475Y-99716632D01*
X92660000Y-99542240D01*
X92776525Y-99716632D01*
X92983368Y-99923475D01*
X93226589Y-100085990D01*
X93496842Y-100197932D01*
X93783740Y-100255000D01*
X94076260Y-100255000D01*
X94363158Y-100197932D01*
X94633411Y-100085990D01*
X94876632Y-99923475D01*
X95083475Y-99716632D01*
X95200000Y-99542240D01*
X95316525Y-99716632D01*
X95523368Y-99923475D01*
X95766589Y-100085990D01*
X96036842Y-100197932D01*
X96222791Y-100234920D01*
X92842711Y-103615000D01*
X91145931Y-103615000D01*
X91099999Y-103610476D01*
X90916707Y-103628529D01*
X90863243Y-103644747D01*
X90740460Y-103681993D01*
X90578028Y-103768814D01*
X90435656Y-103885656D01*
X90406376Y-103921334D01*
X87421336Y-106906375D01*
X87385657Y-106935656D01*
X87268815Y-107078028D01*
X87181994Y-107240460D01*
X87128529Y-107416709D01*
X87110476Y-107600000D01*
X87115001Y-107645942D01*
X87115000Y-119857911D01*
X87115000Y-120042089D01*
X87124005Y-120087360D01*
X87128529Y-120133291D01*
X87141927Y-120177459D01*
X87150932Y-120222729D01*
X87168595Y-120265372D01*
X87181993Y-120309539D01*
X87203750Y-120350243D01*
X87221414Y-120392889D01*
X87247058Y-120431268D01*
X87268814Y-120471971D01*
X87298094Y-120507649D01*
X87323738Y-120546028D01*
X87356376Y-120578666D01*
X87385656Y-120614344D01*
X87421335Y-120643625D01*
X87453972Y-120676262D01*
X87492347Y-120701903D01*
X87528028Y-120731186D01*
X87568736Y-120752945D01*
X87607111Y-120778586D01*
X87649752Y-120796248D01*
X87690460Y-120818007D01*
X87734631Y-120831406D01*
X87777271Y-120849068D01*
X87822538Y-120858072D01*
X87866708Y-120871471D01*
X87912641Y-120875995D01*
X87957911Y-120885000D01*
X88004068Y-120885000D01*
X88050000Y-120889524D01*
X88095932Y-120885000D01*
X88142089Y-120885000D01*
X88187360Y-120875995D01*
X88233291Y-120871471D01*
X88277459Y-120858073D01*
X88322729Y-120849068D01*
X88365372Y-120831405D01*
X88409539Y-120818007D01*
X88450243Y-120796250D01*
X88492889Y-120778586D01*
X88531268Y-120752942D01*
X88571971Y-120731186D01*
X88607649Y-120701906D01*
X88646028Y-120676262D01*
X88678666Y-120643624D01*
X88714344Y-120614344D01*
X88743625Y-120578665D01*
X88776262Y-120546028D01*
X88801903Y-120507653D01*
X88831186Y-120471972D01*
X88852945Y-120431264D01*
X88878586Y-120392889D01*
X88896248Y-120350248D01*
X88918007Y-120309540D01*
X88931406Y-120265369D01*
X88949068Y-120222729D01*
X88958072Y-120177462D01*
X88971471Y-120133292D01*
X88975995Y-120087359D01*
X88985000Y-120042089D01*
X88985000Y-108250000D01*
X91361928Y-108250000D01*
X91361928Y-110250000D01*
X91374188Y-110374482D01*
X91410498Y-110494180D01*
X91469463Y-110604494D01*
X91548815Y-110701185D01*
X91645506Y-110780537D01*
X91755820Y-110839502D01*
X91875518Y-110875812D01*
X92000000Y-110888072D01*
X94000000Y-110888072D01*
X94124482Y-110875812D01*
X94244180Y-110839502D01*
X94354494Y-110780537D01*
X94451185Y-110701185D01*
X94530537Y-110604494D01*
X94589502Y-110494180D01*
X94625812Y-110374482D01*
X94638072Y-110250000D01*
X94638072Y-109088967D01*
X96365000Y-109088967D01*
X96365000Y-109411033D01*
X96427832Y-109726912D01*
X96551082Y-110024463D01*
X96730013Y-110292252D01*
X96957748Y-110519987D01*
X97225537Y-110698918D01*
X97523088Y-110822168D01*
X97838967Y-110885000D01*
X98161033Y-110885000D01*
X98476912Y-110822168D01*
X98774463Y-110698918D01*
X99042252Y-110519987D01*
X99269987Y-110292252D01*
X99448918Y-110024463D01*
X99572168Y-109726912D01*
X99635000Y-109411033D01*
X99635000Y-109088967D01*
X99572168Y-108773088D01*
X99448918Y-108475537D01*
X99269987Y-108207748D01*
X99042252Y-107980013D01*
X98774463Y-107801082D01*
X98476912Y-107677832D01*
X98161033Y-107615000D01*
X97838967Y-107615000D01*
X97523088Y-107677832D01*
X97225537Y-107801082D01*
X96957748Y-107980013D01*
X96730013Y-108207748D01*
X96551082Y-108475537D01*
X96427832Y-108773088D01*
X96365000Y-109088967D01*
X94638072Y-109088967D01*
X94638072Y-108250000D01*
X94625812Y-108125518D01*
X94589502Y-108005820D01*
X94530537Y-107895506D01*
X94451185Y-107798815D01*
X94354494Y-107719463D01*
X94244180Y-107660498D01*
X94124482Y-107624188D01*
X94000000Y-107611928D01*
X92000000Y-107611928D01*
X91875518Y-107624188D01*
X91755820Y-107660498D01*
X91645506Y-107719463D01*
X91548815Y-107798815D01*
X91469463Y-107895506D01*
X91410498Y-108005820D01*
X91374188Y-108125518D01*
X91361928Y-108250000D01*
X88985000Y-108250000D01*
X88985000Y-107987289D01*
X91487290Y-105485000D01*
X93184068Y-105485000D01*
X93230000Y-105489524D01*
X93275932Y-105485000D01*
X93413292Y-105471471D01*
X93589540Y-105418007D01*
X93751972Y-105331186D01*
X93894344Y-105214344D01*
X93923630Y-105178659D01*
X98850019Y-100252271D01*
X98863740Y-100255000D01*
X99156260Y-100255000D01*
X99443158Y-100197932D01*
X99713411Y-100085990D01*
X99956632Y-99923475D01*
X100163475Y-99716632D01*
X100280000Y-99542240D01*
X100396525Y-99716632D01*
X100603368Y-99923475D01*
X100846589Y-100085990D01*
X101116842Y-100197932D01*
X101403740Y-100255000D01*
X101696260Y-100255000D01*
X101983158Y-100197932D01*
X102253411Y-100085990D01*
X102496632Y-99923475D01*
X102703475Y-99716632D01*
X102820000Y-99542240D01*
X102936525Y-99716632D01*
X103143368Y-99923475D01*
X103386589Y-100085990D01*
X103656842Y-100197932D01*
X103943740Y-100255000D01*
X104236260Y-100255000D01*
X104523158Y-100197932D01*
X104793411Y-100085990D01*
X105036632Y-99923475D01*
X105243475Y-99716632D01*
X105360000Y-99542240D01*
X105476525Y-99716632D01*
X105683368Y-99923475D01*
X105926589Y-100085990D01*
X106196842Y-100197932D01*
X106483740Y-100255000D01*
X106776260Y-100255000D01*
X107063158Y-100197932D01*
X107333411Y-100085990D01*
X107576632Y-99923475D01*
X107783475Y-99716632D01*
X107945990Y-99473411D01*
X108057932Y-99203158D01*
X108115000Y-98916260D01*
X108115000Y-98623740D01*
X108057932Y-98336842D01*
X107945990Y-98066589D01*
X107783475Y-97823368D01*
X107576632Y-97616525D01*
X107402240Y-97500000D01*
X107576632Y-97383475D01*
X107783475Y-97176632D01*
X107945990Y-96933411D01*
X108057932Y-96663158D01*
X108115000Y-96376260D01*
X108115000Y-96083740D01*
X108057932Y-95796842D01*
X107987581Y-95627000D01*
X110834766Y-95627000D01*
X110559750Y-95740915D01*
X110234636Y-95958149D01*
X109958149Y-96234636D01*
X109740915Y-96559750D01*
X109591282Y-96920997D01*
X109515000Y-97304495D01*
X109515000Y-97695505D01*
X109591282Y-98079003D01*
X109740915Y-98440250D01*
X109958149Y-98765364D01*
X110234636Y-99041851D01*
X110559750Y-99259085D01*
X110920997Y-99408718D01*
X111304495Y-99485000D01*
X111695505Y-99485000D01*
X112079003Y-99408718D01*
X112440250Y-99259085D01*
X112765364Y-99041851D01*
X113041851Y-98765364D01*
X113259085Y-98440250D01*
X113408718Y-98079003D01*
X113485000Y-97695505D01*
X113485000Y-97304495D01*
X113408718Y-96920997D01*
X113259085Y-96559750D01*
X113041851Y-96234636D01*
X112765364Y-95958149D01*
X112440250Y-95740915D01*
X112165234Y-95627000D01*
X133373000Y-95627000D01*
X133373000Y-148373000D01*
X112165234Y-148373000D01*
X112440250Y-148259085D01*
X112765364Y-148041851D01*
X113041851Y-147765364D01*
X113259085Y-147440250D01*
X113408718Y-147079003D01*
X113485000Y-146695505D01*
X113485000Y-146304495D01*
X113408718Y-145920997D01*
X113259085Y-145559750D01*
X113041851Y-145234636D01*
X112765364Y-144958149D01*
X112440250Y-144740915D01*
X112079003Y-144591282D01*
X111695505Y-144515000D01*
X111304495Y-144515000D01*
X110920997Y-144591282D01*
X110559750Y-144740915D01*
X110234636Y-144958149D01*
X109958149Y-145234636D01*
X109740915Y-145559750D01*
X109591282Y-145920997D01*
X109515000Y-146304495D01*
X109515000Y-146695505D01*
X109591282Y-147079003D01*
X109740915Y-147440250D01*
X109958149Y-147765364D01*
X110234636Y-148041851D01*
X110559750Y-148259085D01*
X110834766Y-148373000D01*
X54165234Y-148373000D01*
X54440250Y-148259085D01*
X54765364Y-148041851D01*
X55041851Y-147765364D01*
X55259085Y-147440250D01*
X55408718Y-147079003D01*
X55485000Y-146695505D01*
X55485000Y-146304495D01*
X55408718Y-145920997D01*
X55259085Y-145559750D01*
X55041851Y-145234636D01*
X54765364Y-144958149D01*
X54601736Y-144848816D01*
X60965000Y-144848816D01*
X60965000Y-145151184D01*
X61023989Y-145447743D01*
X61139701Y-145727095D01*
X61307688Y-145978505D01*
X61521495Y-146192312D01*
X61772905Y-146360299D01*
X62052257Y-146476011D01*
X62348816Y-146535000D01*
X62651184Y-146535000D01*
X62947743Y-146476011D01*
X63227095Y-146360299D01*
X63478505Y-146192312D01*
X63692312Y-145978505D01*
X63860299Y-145727095D01*
X63976011Y-145447743D01*
X64035000Y-145151184D01*
X64035000Y-144848816D01*
X63976011Y-144552257D01*
X63860299Y-144272905D01*
X63692312Y-144021495D01*
X63478505Y-143807688D01*
X63227095Y-143639701D01*
X62947743Y-143523989D01*
X62651184Y-143465000D01*
X62348816Y-143465000D01*
X62052257Y-143523989D01*
X61772905Y-143639701D01*
X61521495Y-143807688D01*
X61307688Y-144021495D01*
X61139701Y-144272905D01*
X61023989Y-144552257D01*
X60965000Y-144848816D01*
X54601736Y-144848816D01*
X54440250Y-144740915D01*
X54079003Y-144591282D01*
X53695505Y-144515000D01*
X53304495Y-144515000D01*
X52920997Y-144591282D01*
X52559750Y-144740915D01*
X52234636Y-144958149D01*
X51958149Y-145234636D01*
X51740915Y-145559750D01*
X51627000Y-145834766D01*
X51627000Y-134540000D01*
X60901928Y-134540000D01*
X60901928Y-136460000D01*
X60914188Y-136584482D01*
X60950498Y-136704180D01*
X61009463Y-136814494D01*
X61088815Y-136911185D01*
X61185506Y-136990537D01*
X61295820Y-137049502D01*
X61415518Y-137085812D01*
X61540000Y-137098072D01*
X61564226Y-137098072D01*
X61578529Y-137243291D01*
X61621516Y-137385000D01*
X61631994Y-137419540D01*
X61718815Y-137581972D01*
X61835657Y-137724344D01*
X61866918Y-137750000D01*
X61835656Y-137775656D01*
X61718814Y-137918029D01*
X61631993Y-138080461D01*
X61598625Y-138190461D01*
X61578529Y-138256709D01*
X61564226Y-138401928D01*
X61540000Y-138401928D01*
X61415518Y-138414188D01*
X61295820Y-138450498D01*
X61185506Y-138509463D01*
X61088815Y-138588815D01*
X61009463Y-138685506D01*
X60950498Y-138795820D01*
X60914188Y-138915518D01*
X60901928Y-139040000D01*
X60901928Y-140960000D01*
X60914188Y-141084482D01*
X60950498Y-141204180D01*
X61009463Y-141314494D01*
X61088815Y-141411185D01*
X61185506Y-141490537D01*
X61295820Y-141549502D01*
X61415518Y-141585812D01*
X61540000Y-141598072D01*
X63460000Y-141598072D01*
X63584482Y-141585812D01*
X63704180Y-141549502D01*
X63814494Y-141490537D01*
X63865000Y-141449088D01*
X63865000Y-141654068D01*
X63860476Y-141700000D01*
X63865000Y-141745931D01*
X63878529Y-141883291D01*
X63931993Y-142059539D01*
X64018814Y-142221971D01*
X64135656Y-142364344D01*
X64171341Y-142393630D01*
X65006374Y-143228664D01*
X65035656Y-143264344D01*
X65178028Y-143381186D01*
X65340460Y-143468007D01*
X65463243Y-143505253D01*
X65516707Y-143521471D01*
X65699999Y-143539524D01*
X65745931Y-143535000D01*
X70025674Y-143535000D01*
X69772905Y-143639701D01*
X69521495Y-143807688D01*
X69307688Y-144021495D01*
X69139701Y-144272905D01*
X69023989Y-144552257D01*
X68965000Y-144848816D01*
X68965000Y-145151184D01*
X69023989Y-145447743D01*
X69139701Y-145727095D01*
X69307688Y-145978505D01*
X69521495Y-146192312D01*
X69772905Y-146360299D01*
X70052257Y-146476011D01*
X70348816Y-146535000D01*
X70651184Y-146535000D01*
X70947743Y-146476011D01*
X71227095Y-146360299D01*
X71478505Y-146192312D01*
X71692312Y-145978505D01*
X71860299Y-145727095D01*
X71976011Y-145447743D01*
X72035000Y-145151184D01*
X72035000Y-144848816D01*
X71976011Y-144552257D01*
X71860299Y-144272905D01*
X71692312Y-144021495D01*
X71478505Y-143807688D01*
X71227095Y-143639701D01*
X70974326Y-143535000D01*
X78025674Y-143535000D01*
X77772905Y-143639701D01*
X77521495Y-143807688D01*
X77307688Y-144021495D01*
X77139701Y-144272905D01*
X77023989Y-144552257D01*
X76965000Y-144848816D01*
X76965000Y-145151184D01*
X77023989Y-145447743D01*
X77139701Y-145727095D01*
X77307688Y-145978505D01*
X77521495Y-146192312D01*
X77772905Y-146360299D01*
X78052257Y-146476011D01*
X78348816Y-146535000D01*
X78651184Y-146535000D01*
X78947743Y-146476011D01*
X79227095Y-146360299D01*
X79478505Y-146192312D01*
X79692312Y-145978505D01*
X79860299Y-145727095D01*
X79976011Y-145447743D01*
X80035000Y-145151184D01*
X80035000Y-144848816D01*
X79976011Y-144552257D01*
X79860299Y-144272905D01*
X79692312Y-144021495D01*
X79478505Y-143807688D01*
X79227095Y-143639701D01*
X78974326Y-143535000D01*
X83712711Y-143535000D01*
X84975208Y-144797497D01*
X84965000Y-144848816D01*
X84965000Y-145151184D01*
X85023989Y-145447743D01*
X85139701Y-145727095D01*
X85307688Y-145978505D01*
X85521495Y-146192312D01*
X85772905Y-146360299D01*
X86052257Y-146476011D01*
X86348816Y-146535000D01*
X86651184Y-146535000D01*
X86947743Y-146476011D01*
X87227095Y-146360299D01*
X87478505Y-146192312D01*
X87692312Y-145978505D01*
X87721381Y-145935000D01*
X99704068Y-145935000D01*
X99750000Y-145939524D01*
X99795932Y-145935000D01*
X99933292Y-145921471D01*
X100109540Y-145868007D01*
X100271972Y-145781186D01*
X100414344Y-145664344D01*
X100443630Y-145628659D01*
X105128664Y-140943625D01*
X105164344Y-140914344D01*
X105281186Y-140771972D01*
X105368007Y-140609540D01*
X105421471Y-140433292D01*
X105435000Y-140295932D01*
X105435000Y-140295926D01*
X105439523Y-140250001D01*
X105435000Y-140204076D01*
X105435000Y-136545932D01*
X105439524Y-136500000D01*
X105421471Y-136316708D01*
X105411665Y-136284382D01*
X105368007Y-136140460D01*
X105281186Y-135978028D01*
X105164344Y-135835656D01*
X105128660Y-135806371D01*
X94864964Y-125542675D01*
X94935000Y-125190581D01*
X94935000Y-124809419D01*
X96065000Y-124809419D01*
X96065000Y-125190581D01*
X96139361Y-125564419D01*
X96285225Y-125916566D01*
X96496987Y-126233491D01*
X96766509Y-126503013D01*
X97083434Y-126714775D01*
X97435581Y-126860639D01*
X97809419Y-126935000D01*
X98190581Y-126935000D01*
X98564419Y-126860639D01*
X98916566Y-126714775D01*
X99233491Y-126503013D01*
X99503013Y-126233491D01*
X99714775Y-125916566D01*
X99860639Y-125564419D01*
X99935000Y-125190581D01*
X99935000Y-124809419D01*
X99860639Y-124435581D01*
X99714775Y-124083434D01*
X99503013Y-123766509D01*
X99233491Y-123496987D01*
X98916566Y-123285225D01*
X98564419Y-123139361D01*
X98190581Y-123065000D01*
X97809419Y-123065000D01*
X97435581Y-123139361D01*
X97083434Y-123285225D01*
X96766509Y-123496987D01*
X96496987Y-123766509D01*
X96285225Y-124083434D01*
X96139361Y-124435581D01*
X96065000Y-124809419D01*
X94935000Y-124809419D01*
X94860639Y-124435581D01*
X94714775Y-124083434D01*
X94503013Y-123766509D01*
X94233491Y-123496987D01*
X93916566Y-123285225D01*
X93564419Y-123139361D01*
X93190581Y-123065000D01*
X92809419Y-123065000D01*
X92435581Y-123139361D01*
X92083434Y-123285225D01*
X91766509Y-123496987D01*
X91496987Y-123766509D01*
X91285225Y-124083434D01*
X91139361Y-124435581D01*
X91065000Y-124809419D01*
X91065000Y-125190581D01*
X91139361Y-125564419D01*
X91285225Y-125916566D01*
X91496987Y-126233491D01*
X91766509Y-126503013D01*
X92083434Y-126714775D01*
X92435581Y-126860639D01*
X92809419Y-126935000D01*
X93190581Y-126935000D01*
X93542675Y-126864964D01*
X103565000Y-136887289D01*
X103565001Y-139862709D01*
X99362711Y-144065000D01*
X87721381Y-144065000D01*
X87692312Y-144021495D01*
X87478505Y-143807688D01*
X87227095Y-143639701D01*
X86947743Y-143523989D01*
X86651184Y-143465000D01*
X86348816Y-143465000D01*
X86297497Y-143475208D01*
X84793630Y-141971341D01*
X84764344Y-141935656D01*
X84621972Y-141818814D01*
X84459540Y-141731993D01*
X84283292Y-141678529D01*
X84145932Y-141665000D01*
X84100000Y-141660476D01*
X84054068Y-141665000D01*
X66087290Y-141665000D01*
X65735000Y-141312711D01*
X65735000Y-141293544D01*
X65816754Y-141238918D01*
X65950000Y-141105672D01*
X66083246Y-141238918D01*
X66344484Y-141413471D01*
X66634756Y-141533706D01*
X66942906Y-141595000D01*
X67257094Y-141595000D01*
X67565244Y-141533706D01*
X67855516Y-141413471D01*
X68116754Y-141238918D01*
X68338918Y-141016754D01*
X68513471Y-140755516D01*
X68633706Y-140465244D01*
X68695000Y-140157094D01*
X68695000Y-139842906D01*
X68633706Y-139534756D01*
X68513471Y-139244484D01*
X68338918Y-138983246D01*
X68116754Y-138761082D01*
X68002889Y-138685000D01*
X69009878Y-138685000D01*
X69009463Y-138685506D01*
X68950498Y-138795820D01*
X68914188Y-138915518D01*
X68901928Y-139040000D01*
X68901928Y-140960000D01*
X68914188Y-141084482D01*
X68950498Y-141204180D01*
X69009463Y-141314494D01*
X69088815Y-141411185D01*
X69185506Y-141490537D01*
X69295820Y-141549502D01*
X69415518Y-141585812D01*
X69540000Y-141598072D01*
X71460000Y-141598072D01*
X71584482Y-141585812D01*
X71704180Y-141549502D01*
X71814494Y-141490537D01*
X71911185Y-141411185D01*
X71957182Y-141355138D01*
X72044484Y-141413471D01*
X72334756Y-141533706D01*
X72642906Y-141595000D01*
X72957094Y-141595000D01*
X73265244Y-141533706D01*
X73555516Y-141413471D01*
X73816754Y-141238918D01*
X73950000Y-141105672D01*
X74083246Y-141238918D01*
X74344484Y-141413471D01*
X74634756Y-141533706D01*
X74942906Y-141595000D01*
X75257094Y-141595000D01*
X75565244Y-141533706D01*
X75855516Y-141413471D01*
X76116754Y-141238918D01*
X76338918Y-141016754D01*
X76513471Y-140755516D01*
X76633706Y-140465244D01*
X76695000Y-140157094D01*
X76695000Y-139842906D01*
X76633706Y-139534756D01*
X76513471Y-139244484D01*
X76376840Y-139040000D01*
X76901928Y-139040000D01*
X76901928Y-140960000D01*
X76914188Y-141084482D01*
X76950498Y-141204180D01*
X77009463Y-141314494D01*
X77088815Y-141411185D01*
X77185506Y-141490537D01*
X77295820Y-141549502D01*
X77415518Y-141585812D01*
X77540000Y-141598072D01*
X79460000Y-141598072D01*
X79584482Y-141585812D01*
X79704180Y-141549502D01*
X79814494Y-141490537D01*
X79911185Y-141411185D01*
X79957182Y-141355138D01*
X80044484Y-141413471D01*
X80334756Y-141533706D01*
X80642906Y-141595000D01*
X80957094Y-141595000D01*
X81265244Y-141533706D01*
X81555516Y-141413471D01*
X81816754Y-141238918D01*
X81950000Y-141105672D01*
X82083246Y-141238918D01*
X82344484Y-141413471D01*
X82634756Y-141533706D01*
X82942906Y-141595000D01*
X83257094Y-141595000D01*
X83565244Y-141533706D01*
X83855516Y-141413471D01*
X84116754Y-141238918D01*
X84338918Y-141016754D01*
X84513471Y-140755516D01*
X84633706Y-140465244D01*
X84676520Y-140250000D01*
X93111928Y-140250000D01*
X93111928Y-141750000D01*
X93138599Y-142020799D01*
X93217589Y-142281192D01*
X93345860Y-142521171D01*
X93518485Y-142731515D01*
X93728829Y-142904140D01*
X93968808Y-143032411D01*
X94229201Y-143111401D01*
X94500000Y-143138072D01*
X96500000Y-143138072D01*
X96770799Y-143111401D01*
X97031192Y-143032411D01*
X97271171Y-142904140D01*
X97481515Y-142731515D01*
X97654140Y-142521171D01*
X97782411Y-142281192D01*
X97861401Y-142020799D01*
X97888072Y-141750000D01*
X97888072Y-140250000D01*
X97861401Y-139979201D01*
X97782411Y-139718808D01*
X97654140Y-139478829D01*
X97481515Y-139268485D01*
X97271171Y-139095860D01*
X97031192Y-138967589D01*
X96770799Y-138888599D01*
X96500000Y-138861928D01*
X94500000Y-138861928D01*
X94229201Y-138888599D01*
X93968808Y-138967589D01*
X93728829Y-139095860D01*
X93518485Y-139268485D01*
X93345860Y-139478829D01*
X93217589Y-139718808D01*
X93138599Y-139979201D01*
X93111928Y-140250000D01*
X84676520Y-140250000D01*
X84695000Y-140157094D01*
X84695000Y-139842906D01*
X84633706Y-139534756D01*
X84513471Y-139244484D01*
X84338918Y-138983246D01*
X84116754Y-138761082D01*
X83855516Y-138586529D01*
X83565244Y-138466294D01*
X83257094Y-138405000D01*
X82942906Y-138405000D01*
X82634756Y-138466294D01*
X82344484Y-138586529D01*
X82083246Y-138761082D01*
X81950000Y-138894328D01*
X81816754Y-138761082D01*
X81555516Y-138586529D01*
X81265244Y-138466294D01*
X80957094Y-138405000D01*
X80642906Y-138405000D01*
X80334756Y-138466294D01*
X80044484Y-138586529D01*
X79957182Y-138644862D01*
X79911185Y-138588815D01*
X79814494Y-138509463D01*
X79704180Y-138450498D01*
X79584482Y-138414188D01*
X79460000Y-138401928D01*
X77540000Y-138401928D01*
X77415518Y-138414188D01*
X77295820Y-138450498D01*
X77185506Y-138509463D01*
X77088815Y-138588815D01*
X77009463Y-138685506D01*
X76950498Y-138795820D01*
X76914188Y-138915518D01*
X76901928Y-139040000D01*
X76376840Y-139040000D01*
X76338918Y-138983246D01*
X76116754Y-138761082D01*
X75855516Y-138586529D01*
X75565244Y-138466294D01*
X75257094Y-138405000D01*
X74942906Y-138405000D01*
X74634756Y-138466294D01*
X74344484Y-138586529D01*
X74083246Y-138761082D01*
X73950000Y-138894328D01*
X73816754Y-138761082D01*
X73735000Y-138706456D01*
X73735000Y-138595932D01*
X73739524Y-138550000D01*
X73721471Y-138366708D01*
X73668007Y-138190461D01*
X73668007Y-138190460D01*
X73581186Y-138028028D01*
X73464344Y-137885656D01*
X73428660Y-137856371D01*
X73322289Y-137750000D01*
X73428660Y-137643629D01*
X73464344Y-137614344D01*
X73581186Y-137471972D01*
X73668007Y-137309540D01*
X73721471Y-137133292D01*
X73732435Y-137021971D01*
X73739524Y-136950000D01*
X73735000Y-136904068D01*
X73735000Y-136793544D01*
X73816754Y-136738918D01*
X73948787Y-136606885D01*
X74172720Y-136606885D01*
X74263653Y-136867197D01*
X74546451Y-137004090D01*
X74850521Y-137083182D01*
X75164178Y-137101432D01*
X75475368Y-137058140D01*
X75772134Y-136954970D01*
X75936347Y-136867197D01*
X76027280Y-136606885D01*
X75100000Y-135679605D01*
X74172720Y-136606885D01*
X73948787Y-136606885D01*
X74038918Y-136516754D01*
X74213471Y-136255516D01*
X74247831Y-136172564D01*
X74920395Y-135500000D01*
X75279605Y-135500000D01*
X76206885Y-136427280D01*
X76467197Y-136336347D01*
X76604090Y-136053549D01*
X76683182Y-135749479D01*
X76701432Y-135435822D01*
X76658140Y-135124632D01*
X76554970Y-134827866D01*
X76467197Y-134663653D01*
X76206885Y-134572720D01*
X75279605Y-135500000D01*
X74920395Y-135500000D01*
X74247831Y-134827436D01*
X74213471Y-134744484D01*
X74038918Y-134483246D01*
X73948787Y-134393115D01*
X74172720Y-134393115D01*
X75100000Y-135320395D01*
X75880395Y-134540000D01*
X76901928Y-134540000D01*
X76901928Y-136460000D01*
X76914188Y-136584482D01*
X76950498Y-136704180D01*
X77009463Y-136814494D01*
X77088815Y-136911185D01*
X77185506Y-136990537D01*
X77295820Y-137049502D01*
X77415518Y-137085812D01*
X77540000Y-137098072D01*
X79460000Y-137098072D01*
X79584482Y-137085812D01*
X79704180Y-137049502D01*
X79814494Y-136990537D01*
X79911185Y-136911185D01*
X79957182Y-136855138D01*
X80044484Y-136913471D01*
X80334756Y-137033706D01*
X80642906Y-137095000D01*
X80957094Y-137095000D01*
X81265244Y-137033706D01*
X81555516Y-136913471D01*
X81816754Y-136738918D01*
X81948787Y-136606885D01*
X82172720Y-136606885D01*
X82263653Y-136867197D01*
X82546451Y-137004090D01*
X82850521Y-137083182D01*
X83164178Y-137101432D01*
X83475368Y-137058140D01*
X83772134Y-136954970D01*
X83936347Y-136867197D01*
X83977286Y-136750000D01*
X93111928Y-136750000D01*
X93124188Y-136874482D01*
X93160498Y-136994180D01*
X93219463Y-137104494D01*
X93298815Y-137201185D01*
X93395506Y-137280537D01*
X93505820Y-137339502D01*
X93625518Y-137375812D01*
X93750000Y-137388072D01*
X95214250Y-137385000D01*
X95373000Y-137226250D01*
X95373000Y-135127000D01*
X95627000Y-135127000D01*
X95627000Y-137226250D01*
X95785750Y-137385000D01*
X97250000Y-137388072D01*
X97374482Y-137375812D01*
X97494180Y-137339502D01*
X97604494Y-137280537D01*
X97701185Y-137201185D01*
X97780537Y-137104494D01*
X97821494Y-137027869D01*
X97811928Y-137125000D01*
X97811928Y-138875000D01*
X97841001Y-139170186D01*
X97927104Y-139454028D01*
X98066927Y-139715618D01*
X98255097Y-139944903D01*
X98484382Y-140133073D01*
X98745972Y-140272896D01*
X99029814Y-140358999D01*
X99325000Y-140388072D01*
X101075000Y-140388072D01*
X101370186Y-140358999D01*
X101654028Y-140272896D01*
X101915618Y-140133073D01*
X102144903Y-139944903D01*
X102333073Y-139715618D01*
X102472896Y-139454028D01*
X102558999Y-139170186D01*
X102588072Y-138875000D01*
X102588072Y-137125000D01*
X102558999Y-136829814D01*
X102472896Y-136545972D01*
X102333073Y-136284382D01*
X102144903Y-136055097D01*
X101915618Y-135866927D01*
X101654028Y-135727104D01*
X101370186Y-135641001D01*
X101075000Y-135611928D01*
X99325000Y-135611928D01*
X99029814Y-135641001D01*
X98745972Y-135727104D01*
X98484382Y-135866927D01*
X98255097Y-136055097D01*
X98066927Y-136284382D01*
X97927104Y-136545972D01*
X97887915Y-136675160D01*
X97885000Y-135285750D01*
X97726250Y-135127000D01*
X95627000Y-135127000D01*
X95373000Y-135127000D01*
X93273750Y-135127000D01*
X93115000Y-135285750D01*
X93111928Y-136750000D01*
X83977286Y-136750000D01*
X84027280Y-136606885D01*
X83100000Y-135679605D01*
X82172720Y-136606885D01*
X81948787Y-136606885D01*
X82038918Y-136516754D01*
X82213471Y-136255516D01*
X82247831Y-136172564D01*
X82920395Y-135500000D01*
X83279605Y-135500000D01*
X84206885Y-136427280D01*
X84467197Y-136336347D01*
X84604090Y-136053549D01*
X84683182Y-135749479D01*
X84701432Y-135435822D01*
X84658140Y-135124632D01*
X84554970Y-134827866D01*
X84467197Y-134663653D01*
X84206885Y-134572720D01*
X83279605Y-135500000D01*
X82920395Y-135500000D01*
X82247831Y-134827436D01*
X82213471Y-134744484D01*
X82038918Y-134483246D01*
X81948787Y-134393115D01*
X82172720Y-134393115D01*
X83100000Y-135320395D01*
X84027280Y-134393115D01*
X83936347Y-134132803D01*
X83653549Y-133995910D01*
X83349479Y-133916818D01*
X83035822Y-133898568D01*
X82724632Y-133941860D01*
X82427866Y-134045030D01*
X82263653Y-134132803D01*
X82172720Y-134393115D01*
X81948787Y-134393115D01*
X81816754Y-134261082D01*
X81735000Y-134206456D01*
X81735000Y-133250000D01*
X93111928Y-133250000D01*
X93115000Y-134714250D01*
X93273750Y-134873000D01*
X95373000Y-134873000D01*
X95373000Y-132773750D01*
X95627000Y-132773750D01*
X95627000Y-134873000D01*
X97726250Y-134873000D01*
X97885000Y-134714250D01*
X97888072Y-133250000D01*
X97875812Y-133125518D01*
X97839502Y-133005820D01*
X97780537Y-132895506D01*
X97701185Y-132798815D01*
X97604494Y-132719463D01*
X97494180Y-132660498D01*
X97374482Y-132624188D01*
X97250000Y-132611928D01*
X95785750Y-132615000D01*
X95627000Y-132773750D01*
X95373000Y-132773750D01*
X95214250Y-132615000D01*
X93750000Y-132611928D01*
X93625518Y-132624188D01*
X93505820Y-132660498D01*
X93395506Y-132719463D01*
X93298815Y-132798815D01*
X93219463Y-132895506D01*
X93160498Y-133005820D01*
X93124188Y-133125518D01*
X93111928Y-133250000D01*
X81735000Y-133250000D01*
X81735000Y-127837289D01*
X82707325Y-126864964D01*
X83059419Y-126935000D01*
X83440581Y-126935000D01*
X83814419Y-126860639D01*
X84166566Y-126714775D01*
X84483491Y-126503013D01*
X84753013Y-126233491D01*
X84964775Y-125916566D01*
X85110639Y-125564419D01*
X85185000Y-125190581D01*
X85185000Y-124809419D01*
X85110639Y-124435581D01*
X84964775Y-124083434D01*
X84753013Y-123766509D01*
X84483491Y-123496987D01*
X84166566Y-123285225D01*
X83814419Y-123139361D01*
X83440581Y-123065000D01*
X83059419Y-123065000D01*
X82685581Y-123139361D01*
X82333434Y-123285225D01*
X82016509Y-123496987D01*
X81746987Y-123766509D01*
X81535225Y-124083434D01*
X81389361Y-124435581D01*
X81315000Y-124809419D01*
X81315000Y-125190581D01*
X81385036Y-125542675D01*
X80171336Y-126756375D01*
X80135657Y-126785656D01*
X80018815Y-126928028D01*
X79931994Y-127090460D01*
X79878529Y-127266709D01*
X79860476Y-127450000D01*
X79865001Y-127495942D01*
X79865000Y-134050912D01*
X79814494Y-134009463D01*
X79704180Y-133950498D01*
X79584482Y-133914188D01*
X79460000Y-133901928D01*
X77540000Y-133901928D01*
X77415518Y-133914188D01*
X77295820Y-133950498D01*
X77185506Y-134009463D01*
X77088815Y-134088815D01*
X77009463Y-134185506D01*
X76950498Y-134295820D01*
X76914188Y-134415518D01*
X76901928Y-134540000D01*
X75880395Y-134540000D01*
X76027280Y-134393115D01*
X75936347Y-134132803D01*
X75653549Y-133995910D01*
X75349479Y-133916818D01*
X75035822Y-133898568D01*
X74724632Y-133941860D01*
X74427866Y-134045030D01*
X74263653Y-134132803D01*
X74172720Y-134393115D01*
X73948787Y-134393115D01*
X73816754Y-134261082D01*
X73555516Y-134086529D01*
X73265244Y-133966294D01*
X72957094Y-133905000D01*
X72642906Y-133905000D01*
X72334756Y-133966294D01*
X72044484Y-134086529D01*
X71957182Y-134144862D01*
X71911185Y-134088815D01*
X71814494Y-134009463D01*
X71704180Y-133950498D01*
X71584482Y-133914188D01*
X71460000Y-133901928D01*
X69540000Y-133901928D01*
X69415518Y-133914188D01*
X69295820Y-133950498D01*
X69185506Y-134009463D01*
X69088815Y-134088815D01*
X69009463Y-134185506D01*
X68950498Y-134295820D01*
X68914188Y-134415518D01*
X68901928Y-134540000D01*
X68901928Y-136460000D01*
X68914188Y-136584482D01*
X68950498Y-136704180D01*
X69009463Y-136814494D01*
X69009878Y-136815000D01*
X67954581Y-136815000D01*
X68027280Y-136606885D01*
X67100000Y-135679605D01*
X66172720Y-136606885D01*
X66245419Y-136815000D01*
X65702889Y-136815000D01*
X65816754Y-136738918D01*
X66038918Y-136516754D01*
X66213471Y-136255516D01*
X66247831Y-136172564D01*
X66920395Y-135500000D01*
X67279605Y-135500000D01*
X68206885Y-136427280D01*
X68467197Y-136336347D01*
X68604090Y-136053549D01*
X68683182Y-135749479D01*
X68701432Y-135435822D01*
X68658140Y-135124632D01*
X68554970Y-134827866D01*
X68467197Y-134663653D01*
X68206885Y-134572720D01*
X67279605Y-135500000D01*
X66920395Y-135500000D01*
X66247831Y-134827436D01*
X66213471Y-134744484D01*
X66038918Y-134483246D01*
X65948787Y-134393115D01*
X66172720Y-134393115D01*
X67100000Y-135320395D01*
X68027280Y-134393115D01*
X67936347Y-134132803D01*
X67653549Y-133995910D01*
X67349479Y-133916818D01*
X67035822Y-133898568D01*
X66724632Y-133941860D01*
X66427866Y-134045030D01*
X66263653Y-134132803D01*
X66172720Y-134393115D01*
X65948787Y-134393115D01*
X65816754Y-134261082D01*
X65555516Y-134086529D01*
X65265244Y-133966294D01*
X64957094Y-133905000D01*
X64642906Y-133905000D01*
X64334756Y-133966294D01*
X64044484Y-134086529D01*
X63957182Y-134144862D01*
X63911185Y-134088815D01*
X63814494Y-134009463D01*
X63704180Y-133950498D01*
X63584482Y-133914188D01*
X63460000Y-133901928D01*
X61540000Y-133901928D01*
X61415518Y-133914188D01*
X61295820Y-133950498D01*
X61185506Y-134009463D01*
X61088815Y-134088815D01*
X61009463Y-134185506D01*
X60950498Y-134295820D01*
X60914188Y-134415518D01*
X60901928Y-134540000D01*
X51627000Y-134540000D01*
X51627000Y-125000000D01*
X63357815Y-125000000D01*
X63386487Y-125291111D01*
X63471401Y-125571034D01*
X63609294Y-125829014D01*
X63794866Y-126055134D01*
X64020986Y-126240706D01*
X64278966Y-126378599D01*
X64558889Y-126463513D01*
X64777050Y-126485000D01*
X65222950Y-126485000D01*
X65441111Y-126463513D01*
X65721034Y-126378599D01*
X65979014Y-126240706D01*
X66205134Y-126055134D01*
X66303725Y-125935000D01*
X76547542Y-125935000D01*
X76746987Y-126233491D01*
X77016509Y-126503013D01*
X77333434Y-126714775D01*
X77685581Y-126860639D01*
X78059419Y-126935000D01*
X78440581Y-126935000D01*
X78814419Y-126860639D01*
X79166566Y-126714775D01*
X79483491Y-126503013D01*
X79753013Y-126233491D01*
X79964775Y-125916566D01*
X80110639Y-125564419D01*
X80185000Y-125190581D01*
X80185000Y-124809419D01*
X80110639Y-124435581D01*
X79964775Y-124083434D01*
X79753013Y-123766509D01*
X79483491Y-123496987D01*
X79185000Y-123297542D01*
X79185000Y-110888072D01*
X79250000Y-110888072D01*
X79374482Y-110875812D01*
X79494180Y-110839502D01*
X79604494Y-110780537D01*
X79701185Y-110701185D01*
X79780537Y-110604494D01*
X79839502Y-110494180D01*
X79875812Y-110374482D01*
X79888072Y-110250000D01*
X79888072Y-109088967D01*
X81615000Y-109088967D01*
X81615000Y-109411033D01*
X81677832Y-109726912D01*
X81801082Y-110024463D01*
X81980013Y-110292252D01*
X82207748Y-110519987D01*
X82475537Y-110698918D01*
X82773088Y-110822168D01*
X83088967Y-110885000D01*
X83411033Y-110885000D01*
X83726912Y-110822168D01*
X84024463Y-110698918D01*
X84292252Y-110519987D01*
X84519987Y-110292252D01*
X84698918Y-110024463D01*
X84822168Y-109726912D01*
X84885000Y-109411033D01*
X84885000Y-109088967D01*
X84822168Y-108773088D01*
X84698918Y-108475537D01*
X84519987Y-108207748D01*
X84292252Y-107980013D01*
X84024463Y-107801082D01*
X83726912Y-107677832D01*
X83411033Y-107615000D01*
X83088967Y-107615000D01*
X82773088Y-107677832D01*
X82475537Y-107801082D01*
X82207748Y-107980013D01*
X81980013Y-108207748D01*
X81801082Y-108475537D01*
X81677832Y-108773088D01*
X81615000Y-109088967D01*
X79888072Y-109088967D01*
X79888072Y-108250000D01*
X79875812Y-108125518D01*
X79839502Y-108005820D01*
X79780537Y-107895506D01*
X79701185Y-107798815D01*
X79604494Y-107719463D01*
X79494180Y-107660498D01*
X79374482Y-107624188D01*
X79250000Y-107611928D01*
X77250000Y-107611928D01*
X77125518Y-107624188D01*
X77005820Y-107660498D01*
X76895506Y-107719463D01*
X76798815Y-107798815D01*
X76719463Y-107895506D01*
X76660498Y-108005820D01*
X76624188Y-108125518D01*
X76611928Y-108250000D01*
X76611928Y-110250000D01*
X76624188Y-110374482D01*
X76660498Y-110494180D01*
X76719463Y-110604494D01*
X76798815Y-110701185D01*
X76895506Y-110780537D01*
X77005820Y-110839502D01*
X77125518Y-110875812D01*
X77250000Y-110888072D01*
X77315001Y-110888072D01*
X77315000Y-123297542D01*
X77016509Y-123496987D01*
X76746987Y-123766509D01*
X76547542Y-124065000D01*
X66303725Y-124065000D01*
X66205134Y-123944866D01*
X66141663Y-123892777D01*
X66243386Y-123838405D01*
X66377962Y-123727962D01*
X66488405Y-123593386D01*
X66570472Y-123439850D01*
X66621008Y-123273254D01*
X66638072Y-123100000D01*
X66638072Y-121900000D01*
X66621008Y-121726746D01*
X66570472Y-121560150D01*
X66488405Y-121406614D01*
X66377962Y-121272038D01*
X66243386Y-121161595D01*
X66089850Y-121079528D01*
X65923254Y-121028992D01*
X65750000Y-121011928D01*
X64250000Y-121011928D01*
X64076746Y-121028992D01*
X63910150Y-121079528D01*
X63756614Y-121161595D01*
X63622038Y-121272038D01*
X63511595Y-121406614D01*
X63429528Y-121560150D01*
X63378992Y-121726746D01*
X63361928Y-121900000D01*
X63361928Y-123100000D01*
X63378992Y-123273254D01*
X63429528Y-123439850D01*
X63511595Y-123593386D01*
X63622038Y-123727962D01*
X63756614Y-123838405D01*
X63858337Y-123892777D01*
X63794866Y-123944866D01*
X63609294Y-124170986D01*
X63471401Y-124428966D01*
X63386487Y-124708889D01*
X63357815Y-125000000D01*
X51627000Y-125000000D01*
X51627000Y-111338967D01*
X60865000Y-111338967D01*
X60865000Y-111661033D01*
X60927832Y-111976912D01*
X61051082Y-112274463D01*
X61230013Y-112542252D01*
X61457748Y-112769987D01*
X61725537Y-112948918D01*
X62023088Y-113072168D01*
X62338967Y-113135000D01*
X62661033Y-113135000D01*
X62976912Y-113072168D01*
X63274463Y-112948918D01*
X63542252Y-112769987D01*
X63769987Y-112542252D01*
X63841651Y-112435000D01*
X67658349Y-112435000D01*
X67730013Y-112542252D01*
X67957748Y-112769987D01*
X68225537Y-112948918D01*
X68523088Y-113072168D01*
X68838967Y-113135000D01*
X69161033Y-113135000D01*
X69476912Y-113072168D01*
X69774463Y-112948918D01*
X70042252Y-112769987D01*
X70269987Y-112542252D01*
X70448918Y-112274463D01*
X70572168Y-111976912D01*
X70635000Y-111661033D01*
X70635000Y-111338967D01*
X70572168Y-111023088D01*
X70448918Y-110725537D01*
X70269987Y-110457748D01*
X70042252Y-110230013D01*
X69774463Y-110051082D01*
X69476912Y-109927832D01*
X69161033Y-109865000D01*
X68838967Y-109865000D01*
X68523088Y-109927832D01*
X68225537Y-110051082D01*
X67957748Y-110230013D01*
X67730013Y-110457748D01*
X67658349Y-110565000D01*
X63841651Y-110565000D01*
X63769987Y-110457748D01*
X63542252Y-110230013D01*
X63274463Y-110051082D01*
X62976912Y-109927832D01*
X62661033Y-109865000D01*
X62338967Y-109865000D01*
X62023088Y-109927832D01*
X61725537Y-110051082D01*
X61457748Y-110230013D01*
X61230013Y-110457748D01*
X61051082Y-110725537D01*
X60927832Y-111023088D01*
X60865000Y-111338967D01*
X51627000Y-111338967D01*
X51627000Y-106838967D01*
X60865000Y-106838967D01*
X60865000Y-107161033D01*
X60927832Y-107476912D01*
X61051082Y-107774463D01*
X61230013Y-108042252D01*
X61457748Y-108269987D01*
X61725537Y-108448918D01*
X62023088Y-108572168D01*
X62338967Y-108635000D01*
X62661033Y-108635000D01*
X62976912Y-108572168D01*
X63274463Y-108448918D01*
X63542252Y-108269987D01*
X63769987Y-108042252D01*
X63948918Y-107774463D01*
X64072168Y-107476912D01*
X64135000Y-107161033D01*
X64135000Y-106838967D01*
X67365000Y-106838967D01*
X67365000Y-107161033D01*
X67427832Y-107476912D01*
X67551082Y-107774463D01*
X67730013Y-108042252D01*
X67957748Y-108269987D01*
X68225537Y-108448918D01*
X68523088Y-108572168D01*
X68838967Y-108635000D01*
X69161033Y-108635000D01*
X69476912Y-108572168D01*
X69774463Y-108448918D01*
X70042252Y-108269987D01*
X70269987Y-108042252D01*
X70448918Y-107774463D01*
X70572168Y-107476912D01*
X70635000Y-107161033D01*
X70635000Y-106838967D01*
X70572168Y-106523088D01*
X70448918Y-106225537D01*
X70269987Y-105957748D01*
X70042252Y-105730013D01*
X69774463Y-105551082D01*
X69476912Y-105427832D01*
X69161033Y-105365000D01*
X68838967Y-105365000D01*
X68523088Y-105427832D01*
X68225537Y-105551082D01*
X67957748Y-105730013D01*
X67730013Y-105957748D01*
X67551082Y-106225537D01*
X67427832Y-106523088D01*
X67365000Y-106838967D01*
X64135000Y-106838967D01*
X64072168Y-106523088D01*
X63948918Y-106225537D01*
X63769987Y-105957748D01*
X63542252Y-105730013D01*
X63274463Y-105551082D01*
X62976912Y-105427832D01*
X62661033Y-105365000D01*
X62338967Y-105365000D01*
X62023088Y-105427832D01*
X61725537Y-105551082D01*
X61457748Y-105730013D01*
X61230013Y-105957748D01*
X61051082Y-106225537D01*
X60927832Y-106523088D01*
X60865000Y-106838967D01*
X51627000Y-106838967D01*
X51627000Y-98165234D01*
X51740915Y-98440250D01*
X51958149Y-98765364D01*
X52234636Y-99041851D01*
X52559750Y-99259085D01*
X52920997Y-99408718D01*
X53304495Y-99485000D01*
X53695505Y-99485000D01*
X54079003Y-99408718D01*
X54440250Y-99259085D01*
X54765364Y-99041851D01*
X55041851Y-98765364D01*
X55259085Y-98440250D01*
X55408718Y-98079003D01*
X55485000Y-97695505D01*
X55485000Y-97304495D01*
X55408718Y-96920997D01*
X55259085Y-96559750D01*
X55041851Y-96234636D01*
X54765364Y-95958149D01*
X54440250Y-95740915D01*
X54165234Y-95627000D01*
X57015821Y-95627000D01*
X56928519Y-95873109D01*
G37*
X56928519Y-95873109D02*
X57049186Y-96103000D01*
X58243000Y-96103000D01*
X58243000Y-96083000D01*
X58497000Y-96083000D01*
X58497000Y-96103000D01*
X60783000Y-96103000D01*
X60783000Y-96083000D01*
X61037000Y-96083000D01*
X61037000Y-96103000D01*
X61057000Y-96103000D01*
X61057000Y-96357000D01*
X61037000Y-96357000D01*
X61037000Y-96377000D01*
X60783000Y-96377000D01*
X60783000Y-96357000D01*
X58497000Y-96357000D01*
X58497000Y-96377000D01*
X58243000Y-96377000D01*
X58243000Y-96357000D01*
X57049186Y-96357000D01*
X56928519Y-96586891D01*
X57025843Y-96861252D01*
X57174822Y-97111355D01*
X57351626Y-97307502D01*
X57275820Y-97330498D01*
X57165506Y-97389463D01*
X57068815Y-97468815D01*
X56989463Y-97565506D01*
X56930498Y-97675820D01*
X56894188Y-97795518D01*
X56881928Y-97920000D01*
X56881928Y-99620000D01*
X56894188Y-99744482D01*
X56930498Y-99864180D01*
X56989463Y-99974494D01*
X57068815Y-100071185D01*
X57165506Y-100150537D01*
X57275820Y-100209502D01*
X57395518Y-100245812D01*
X57520000Y-100258072D01*
X59220000Y-100258072D01*
X59344482Y-100245812D01*
X59464180Y-100209502D01*
X59574494Y-100150537D01*
X59671185Y-100071185D01*
X59750537Y-99974494D01*
X59809502Y-99864180D01*
X59831513Y-99791620D01*
X59963368Y-99923475D01*
X60206589Y-100085990D01*
X60476842Y-100197932D01*
X60763740Y-100255000D01*
X61056260Y-100255000D01*
X61343158Y-100197932D01*
X61613411Y-100085990D01*
X61856632Y-99923475D01*
X62063475Y-99716632D01*
X62180000Y-99542240D01*
X62296525Y-99716632D01*
X62503368Y-99923475D01*
X62746589Y-100085990D01*
X63016842Y-100197932D01*
X63303740Y-100255000D01*
X63596260Y-100255000D01*
X63883158Y-100197932D01*
X64153411Y-100085990D01*
X64396632Y-99923475D01*
X64603475Y-99716632D01*
X64720000Y-99542240D01*
X64836525Y-99716632D01*
X65043368Y-99923475D01*
X65286589Y-100085990D01*
X65556842Y-100197932D01*
X65843740Y-100255000D01*
X66136260Y-100255000D01*
X66423158Y-100197932D01*
X66693411Y-100085990D01*
X66936632Y-99923475D01*
X67143475Y-99716632D01*
X67260000Y-99542240D01*
X67376525Y-99716632D01*
X67583368Y-99923475D01*
X67826589Y-100085990D01*
X68096842Y-100197932D01*
X68383740Y-100255000D01*
X68676260Y-100255000D01*
X68963158Y-100197932D01*
X69233411Y-100085990D01*
X69476632Y-99923475D01*
X69683475Y-99716632D01*
X69800000Y-99542240D01*
X69916525Y-99716632D01*
X70123368Y-99923475D01*
X70366589Y-100085990D01*
X70636842Y-100197932D01*
X70923740Y-100255000D01*
X71216260Y-100255000D01*
X71503158Y-100197932D01*
X71773411Y-100085990D01*
X72016632Y-99923475D01*
X72223475Y-99716632D01*
X72340000Y-99542240D01*
X72456525Y-99716632D01*
X72663368Y-99923475D01*
X72906589Y-100085990D01*
X73176842Y-100197932D01*
X73463740Y-100255000D01*
X73756260Y-100255000D01*
X74043158Y-100197932D01*
X74313411Y-100085990D01*
X74556632Y-99923475D01*
X74763475Y-99716632D01*
X74880000Y-99542240D01*
X74996525Y-99716632D01*
X75203368Y-99923475D01*
X75446589Y-100085990D01*
X75716842Y-100197932D01*
X76003740Y-100255000D01*
X76296260Y-100255000D01*
X76583158Y-100197932D01*
X76853411Y-100085990D01*
X77096632Y-99923475D01*
X77303475Y-99716632D01*
X77420000Y-99542240D01*
X77536525Y-99716632D01*
X77743368Y-99923475D01*
X77986589Y-100085990D01*
X78256842Y-100197932D01*
X78543740Y-100255000D01*
X78836260Y-100255000D01*
X79123158Y-100197932D01*
X79393411Y-100085990D01*
X79636632Y-99923475D01*
X79843475Y-99716632D01*
X79960000Y-99542240D01*
X80076525Y-99716632D01*
X80283368Y-99923475D01*
X80526589Y-100085990D01*
X80796842Y-100197932D01*
X81083740Y-100255000D01*
X81376260Y-100255000D01*
X81663158Y-100197932D01*
X81933411Y-100085990D01*
X82176632Y-99923475D01*
X82383475Y-99716632D01*
X82500000Y-99542240D01*
X82616525Y-99716632D01*
X82823368Y-99923475D01*
X83066589Y-100085990D01*
X83336842Y-100197932D01*
X83623740Y-100255000D01*
X83916260Y-100255000D01*
X84203158Y-100197932D01*
X84473411Y-100085990D01*
X84716632Y-99923475D01*
X84923475Y-99716632D01*
X85040000Y-99542240D01*
X85156525Y-99716632D01*
X85363368Y-99923475D01*
X85606589Y-100085990D01*
X85876842Y-100197932D01*
X86163740Y-100255000D01*
X86456260Y-100255000D01*
X86743158Y-100197932D01*
X87013411Y-100085990D01*
X87256632Y-99923475D01*
X87463475Y-99716632D01*
X87580000Y-99542240D01*
X87696525Y-99716632D01*
X87903368Y-99923475D01*
X88146589Y-100085990D01*
X88416842Y-100197932D01*
X88703740Y-100255000D01*
X88996260Y-100255000D01*
X89283158Y-100197932D01*
X89553411Y-100085990D01*
X89796632Y-99923475D01*
X90003475Y-99716632D01*
X90120000Y-99542240D01*
X90236525Y-99716632D01*
X90443368Y-99923475D01*
X90686589Y-100085990D01*
X90956842Y-100197932D01*
X91243740Y-100255000D01*
X91536260Y-100255000D01*
X91823158Y-100197932D01*
X92093411Y-100085990D01*
X92336632Y-99923475D01*
X92543475Y-99716632D01*
X92660000Y-99542240D01*
X92776525Y-99716632D01*
X92983368Y-99923475D01*
X93226589Y-100085990D01*
X93496842Y-100197932D01*
X93783740Y-100255000D01*
X94076260Y-100255000D01*
X94363158Y-100197932D01*
X94633411Y-100085990D01*
X94876632Y-99923475D01*
X95083475Y-99716632D01*
X95200000Y-99542240D01*
X95316525Y-99716632D01*
X95523368Y-99923475D01*
X95766589Y-100085990D01*
X96036842Y-100197932D01*
X96222791Y-100234920D01*
X92842711Y-103615000D01*
X91145931Y-103615000D01*
X91099999Y-103610476D01*
X90916707Y-103628529D01*
X90863243Y-103644747D01*
X90740460Y-103681993D01*
X90578028Y-103768814D01*
X90435656Y-103885656D01*
X90406376Y-103921334D01*
X87421336Y-106906375D01*
X87385657Y-106935656D01*
X87268815Y-107078028D01*
X87181994Y-107240460D01*
X87128529Y-107416709D01*
X87110476Y-107600000D01*
X87115001Y-107645942D01*
X87115000Y-119857911D01*
X87115000Y-120042089D01*
X87124005Y-120087360D01*
X87128529Y-120133291D01*
X87141927Y-120177459D01*
X87150932Y-120222729D01*
X87168595Y-120265372D01*
X87181993Y-120309539D01*
X87203750Y-120350243D01*
X87221414Y-120392889D01*
X87247058Y-120431268D01*
X87268814Y-120471971D01*
X87298094Y-120507649D01*
X87323738Y-120546028D01*
X87356376Y-120578666D01*
X87385656Y-120614344D01*
X87421335Y-120643625D01*
X87453972Y-120676262D01*
X87492347Y-120701903D01*
X87528028Y-120731186D01*
X87568736Y-120752945D01*
X87607111Y-120778586D01*
X87649752Y-120796248D01*
X87690460Y-120818007D01*
X87734631Y-120831406D01*
X87777271Y-120849068D01*
X87822538Y-120858072D01*
X87866708Y-120871471D01*
X87912641Y-120875995D01*
X87957911Y-120885000D01*
X88004068Y-120885000D01*
X88050000Y-120889524D01*
X88095932Y-120885000D01*
X88142089Y-120885000D01*
X88187360Y-120875995D01*
X88233291Y-120871471D01*
X88277459Y-120858073D01*
X88322729Y-120849068D01*
X88365372Y-120831405D01*
X88409539Y-120818007D01*
X88450243Y-120796250D01*
X88492889Y-120778586D01*
X88531268Y-120752942D01*
X88571971Y-120731186D01*
X88607649Y-120701906D01*
X88646028Y-120676262D01*
X88678666Y-120643624D01*
X88714344Y-120614344D01*
X88743625Y-120578665D01*
X88776262Y-120546028D01*
X88801903Y-120507653D01*
X88831186Y-120471972D01*
X88852945Y-120431264D01*
X88878586Y-120392889D01*
X88896248Y-120350248D01*
X88918007Y-120309540D01*
X88931406Y-120265369D01*
X88949068Y-120222729D01*
X88958072Y-120177462D01*
X88971471Y-120133292D01*
X88975995Y-120087359D01*
X88985000Y-120042089D01*
X88985000Y-108250000D01*
X91361928Y-108250000D01*
X91361928Y-110250000D01*
X91374188Y-110374482D01*
X91410498Y-110494180D01*
X91469463Y-110604494D01*
X91548815Y-110701185D01*
X91645506Y-110780537D01*
X91755820Y-110839502D01*
X91875518Y-110875812D01*
X92000000Y-110888072D01*
X94000000Y-110888072D01*
X94124482Y-110875812D01*
X94244180Y-110839502D01*
X94354494Y-110780537D01*
X94451185Y-110701185D01*
X94530537Y-110604494D01*
X94589502Y-110494180D01*
X94625812Y-110374482D01*
X94638072Y-110250000D01*
X94638072Y-109088967D01*
X96365000Y-109088967D01*
X96365000Y-109411033D01*
X96427832Y-109726912D01*
X96551082Y-110024463D01*
X96730013Y-110292252D01*
X96957748Y-110519987D01*
X97225537Y-110698918D01*
X97523088Y-110822168D01*
X97838967Y-110885000D01*
X98161033Y-110885000D01*
X98476912Y-110822168D01*
X98774463Y-110698918D01*
X99042252Y-110519987D01*
X99269987Y-110292252D01*
X99448918Y-110024463D01*
X99572168Y-109726912D01*
X99635000Y-109411033D01*
X99635000Y-109088967D01*
X99572168Y-108773088D01*
X99448918Y-108475537D01*
X99269987Y-108207748D01*
X99042252Y-107980013D01*
X98774463Y-107801082D01*
X98476912Y-107677832D01*
X98161033Y-107615000D01*
X97838967Y-107615000D01*
X97523088Y-107677832D01*
X97225537Y-107801082D01*
X96957748Y-107980013D01*
X96730013Y-108207748D01*
X96551082Y-108475537D01*
X96427832Y-108773088D01*
X96365000Y-109088967D01*
X94638072Y-109088967D01*
X94638072Y-108250000D01*
X94625812Y-108125518D01*
X94589502Y-108005820D01*
X94530537Y-107895506D01*
X94451185Y-107798815D01*
X94354494Y-107719463D01*
X94244180Y-107660498D01*
X94124482Y-107624188D01*
X94000000Y-107611928D01*
X92000000Y-107611928D01*
X91875518Y-107624188D01*
X91755820Y-107660498D01*
X91645506Y-107719463D01*
X91548815Y-107798815D01*
X91469463Y-107895506D01*
X91410498Y-108005820D01*
X91374188Y-108125518D01*
X91361928Y-108250000D01*
X88985000Y-108250000D01*
X88985000Y-107987289D01*
X91487290Y-105485000D01*
X93184068Y-105485000D01*
X93230000Y-105489524D01*
X93275932Y-105485000D01*
X93413292Y-105471471D01*
X93589540Y-105418007D01*
X93751972Y-105331186D01*
X93894344Y-105214344D01*
X93923630Y-105178659D01*
X98850019Y-100252271D01*
X98863740Y-100255000D01*
X99156260Y-100255000D01*
X99443158Y-100197932D01*
X99713411Y-100085990D01*
X99956632Y-99923475D01*
X100163475Y-99716632D01*
X100280000Y-99542240D01*
X100396525Y-99716632D01*
X100603368Y-99923475D01*
X100846589Y-100085990D01*
X101116842Y-100197932D01*
X101403740Y-100255000D01*
X101696260Y-100255000D01*
X101983158Y-100197932D01*
X102253411Y-100085990D01*
X102496632Y-99923475D01*
X102703475Y-99716632D01*
X102820000Y-99542240D01*
X102936525Y-99716632D01*
X103143368Y-99923475D01*
X103386589Y-100085990D01*
X103656842Y-100197932D01*
X103943740Y-100255000D01*
X104236260Y-100255000D01*
X104523158Y-100197932D01*
X104793411Y-100085990D01*
X105036632Y-99923475D01*
X105243475Y-99716632D01*
X105360000Y-99542240D01*
X105476525Y-99716632D01*
X105683368Y-99923475D01*
X105926589Y-100085990D01*
X106196842Y-100197932D01*
X106483740Y-100255000D01*
X106776260Y-100255000D01*
X107063158Y-100197932D01*
X107333411Y-100085990D01*
X107576632Y-99923475D01*
X107783475Y-99716632D01*
X107945990Y-99473411D01*
X108057932Y-99203158D01*
X108115000Y-98916260D01*
X108115000Y-98623740D01*
X108057932Y-98336842D01*
X107945990Y-98066589D01*
X107783475Y-97823368D01*
X107576632Y-97616525D01*
X107402240Y-97500000D01*
X107576632Y-97383475D01*
X107783475Y-97176632D01*
X107945990Y-96933411D01*
X108057932Y-96663158D01*
X108115000Y-96376260D01*
X108115000Y-96083740D01*
X108057932Y-95796842D01*
X107987581Y-95627000D01*
X110834766Y-95627000D01*
X110559750Y-95740915D01*
X110234636Y-95958149D01*
X109958149Y-96234636D01*
X109740915Y-96559750D01*
X109591282Y-96920997D01*
X109515000Y-97304495D01*
X109515000Y-97695505D01*
X109591282Y-98079003D01*
X109740915Y-98440250D01*
X109958149Y-98765364D01*
X110234636Y-99041851D01*
X110559750Y-99259085D01*
X110920997Y-99408718D01*
X111304495Y-99485000D01*
X111695505Y-99485000D01*
X112079003Y-99408718D01*
X112440250Y-99259085D01*
X112765364Y-99041851D01*
X113041851Y-98765364D01*
X113259085Y-98440250D01*
X113408718Y-98079003D01*
X113485000Y-97695505D01*
X113485000Y-97304495D01*
X113408718Y-96920997D01*
X113259085Y-96559750D01*
X113041851Y-96234636D01*
X112765364Y-95958149D01*
X112440250Y-95740915D01*
X112165234Y-95627000D01*
X133373000Y-95627000D01*
X133373000Y-148373000D01*
X112165234Y-148373000D01*
X112440250Y-148259085D01*
X112765364Y-148041851D01*
X113041851Y-147765364D01*
X113259085Y-147440250D01*
X113408718Y-147079003D01*
X113485000Y-146695505D01*
X113485000Y-146304495D01*
X113408718Y-145920997D01*
X113259085Y-145559750D01*
X113041851Y-145234636D01*
X112765364Y-144958149D01*
X112440250Y-144740915D01*
X112079003Y-144591282D01*
X111695505Y-144515000D01*
X111304495Y-144515000D01*
X110920997Y-144591282D01*
X110559750Y-144740915D01*
X110234636Y-144958149D01*
X109958149Y-145234636D01*
X109740915Y-145559750D01*
X109591282Y-145920997D01*
X109515000Y-146304495D01*
X109515000Y-146695505D01*
X109591282Y-147079003D01*
X109740915Y-147440250D01*
X109958149Y-147765364D01*
X110234636Y-148041851D01*
X110559750Y-148259085D01*
X110834766Y-148373000D01*
X54165234Y-148373000D01*
X54440250Y-148259085D01*
X54765364Y-148041851D01*
X55041851Y-147765364D01*
X55259085Y-147440250D01*
X55408718Y-147079003D01*
X55485000Y-146695505D01*
X55485000Y-146304495D01*
X55408718Y-145920997D01*
X55259085Y-145559750D01*
X55041851Y-145234636D01*
X54765364Y-144958149D01*
X54601736Y-144848816D01*
X60965000Y-144848816D01*
X60965000Y-145151184D01*
X61023989Y-145447743D01*
X61139701Y-145727095D01*
X61307688Y-145978505D01*
X61521495Y-146192312D01*
X61772905Y-146360299D01*
X62052257Y-146476011D01*
X62348816Y-146535000D01*
X62651184Y-146535000D01*
X62947743Y-146476011D01*
X63227095Y-146360299D01*
X63478505Y-146192312D01*
X63692312Y-145978505D01*
X63860299Y-145727095D01*
X63976011Y-145447743D01*
X64035000Y-145151184D01*
X64035000Y-144848816D01*
X63976011Y-144552257D01*
X63860299Y-144272905D01*
X63692312Y-144021495D01*
X63478505Y-143807688D01*
X63227095Y-143639701D01*
X62947743Y-143523989D01*
X62651184Y-143465000D01*
X62348816Y-143465000D01*
X62052257Y-143523989D01*
X61772905Y-143639701D01*
X61521495Y-143807688D01*
X61307688Y-144021495D01*
X61139701Y-144272905D01*
X61023989Y-144552257D01*
X60965000Y-144848816D01*
X54601736Y-144848816D01*
X54440250Y-144740915D01*
X54079003Y-144591282D01*
X53695505Y-144515000D01*
X53304495Y-144515000D01*
X52920997Y-144591282D01*
X52559750Y-144740915D01*
X52234636Y-144958149D01*
X51958149Y-145234636D01*
X51740915Y-145559750D01*
X51627000Y-145834766D01*
X51627000Y-134540000D01*
X60901928Y-134540000D01*
X60901928Y-136460000D01*
X60914188Y-136584482D01*
X60950498Y-136704180D01*
X61009463Y-136814494D01*
X61088815Y-136911185D01*
X61185506Y-136990537D01*
X61295820Y-137049502D01*
X61415518Y-137085812D01*
X61540000Y-137098072D01*
X61564226Y-137098072D01*
X61578529Y-137243291D01*
X61621516Y-137385000D01*
X61631994Y-137419540D01*
X61718815Y-137581972D01*
X61835657Y-137724344D01*
X61866918Y-137750000D01*
X61835656Y-137775656D01*
X61718814Y-137918029D01*
X61631993Y-138080461D01*
X61598625Y-138190461D01*
X61578529Y-138256709D01*
X61564226Y-138401928D01*
X61540000Y-138401928D01*
X61415518Y-138414188D01*
X61295820Y-138450498D01*
X61185506Y-138509463D01*
X61088815Y-138588815D01*
X61009463Y-138685506D01*
X60950498Y-138795820D01*
X60914188Y-138915518D01*
X60901928Y-139040000D01*
X60901928Y-140960000D01*
X60914188Y-141084482D01*
X60950498Y-141204180D01*
X61009463Y-141314494D01*
X61088815Y-141411185D01*
X61185506Y-141490537D01*
X61295820Y-141549502D01*
X61415518Y-141585812D01*
X61540000Y-141598072D01*
X63460000Y-141598072D01*
X63584482Y-141585812D01*
X63704180Y-141549502D01*
X63814494Y-141490537D01*
X63865000Y-141449088D01*
X63865000Y-141654068D01*
X63860476Y-141700000D01*
X63865000Y-141745931D01*
X63878529Y-141883291D01*
X63931993Y-142059539D01*
X64018814Y-142221971D01*
X64135656Y-142364344D01*
X64171341Y-142393630D01*
X65006374Y-143228664D01*
X65035656Y-143264344D01*
X65178028Y-143381186D01*
X65340460Y-143468007D01*
X65463243Y-143505253D01*
X65516707Y-143521471D01*
X65699999Y-143539524D01*
X65745931Y-143535000D01*
X70025674Y-143535000D01*
X69772905Y-143639701D01*
X69521495Y-143807688D01*
X69307688Y-144021495D01*
X69139701Y-144272905D01*
X69023989Y-144552257D01*
X68965000Y-144848816D01*
X68965000Y-145151184D01*
X69023989Y-145447743D01*
X69139701Y-145727095D01*
X69307688Y-145978505D01*
X69521495Y-146192312D01*
X69772905Y-146360299D01*
X70052257Y-146476011D01*
X70348816Y-146535000D01*
X70651184Y-146535000D01*
X70947743Y-146476011D01*
X71227095Y-146360299D01*
X71478505Y-146192312D01*
X71692312Y-145978505D01*
X71860299Y-145727095D01*
X71976011Y-145447743D01*
X72035000Y-145151184D01*
X72035000Y-144848816D01*
X71976011Y-144552257D01*
X71860299Y-144272905D01*
X71692312Y-144021495D01*
X71478505Y-143807688D01*
X71227095Y-143639701D01*
X70974326Y-143535000D01*
X78025674Y-143535000D01*
X77772905Y-143639701D01*
X77521495Y-143807688D01*
X77307688Y-144021495D01*
X77139701Y-144272905D01*
X77023989Y-144552257D01*
X76965000Y-144848816D01*
X76965000Y-145151184D01*
X77023989Y-145447743D01*
X77139701Y-145727095D01*
X77307688Y-145978505D01*
X77521495Y-146192312D01*
X77772905Y-146360299D01*
X78052257Y-146476011D01*
X78348816Y-146535000D01*
X78651184Y-146535000D01*
X78947743Y-146476011D01*
X79227095Y-146360299D01*
X79478505Y-146192312D01*
X79692312Y-145978505D01*
X79860299Y-145727095D01*
X79976011Y-145447743D01*
X80035000Y-145151184D01*
X80035000Y-144848816D01*
X79976011Y-144552257D01*
X79860299Y-144272905D01*
X79692312Y-144021495D01*
X79478505Y-143807688D01*
X79227095Y-143639701D01*
X78974326Y-143535000D01*
X83712711Y-143535000D01*
X84975208Y-144797497D01*
X84965000Y-144848816D01*
X84965000Y-145151184D01*
X85023989Y-145447743D01*
X85139701Y-145727095D01*
X85307688Y-145978505D01*
X85521495Y-146192312D01*
X85772905Y-146360299D01*
X86052257Y-146476011D01*
X86348816Y-146535000D01*
X86651184Y-146535000D01*
X86947743Y-146476011D01*
X87227095Y-146360299D01*
X87478505Y-146192312D01*
X87692312Y-145978505D01*
X87721381Y-145935000D01*
X99704068Y-145935000D01*
X99750000Y-145939524D01*
X99795932Y-145935000D01*
X99933292Y-145921471D01*
X100109540Y-145868007D01*
X100271972Y-145781186D01*
X100414344Y-145664344D01*
X100443630Y-145628659D01*
X105128664Y-140943625D01*
X105164344Y-140914344D01*
X105281186Y-140771972D01*
X105368007Y-140609540D01*
X105421471Y-140433292D01*
X105435000Y-140295932D01*
X105435000Y-140295926D01*
X105439523Y-140250001D01*
X105435000Y-140204076D01*
X105435000Y-136545932D01*
X105439524Y-136500000D01*
X105421471Y-136316708D01*
X105411665Y-136284382D01*
X105368007Y-136140460D01*
X105281186Y-135978028D01*
X105164344Y-135835656D01*
X105128660Y-135806371D01*
X94864964Y-125542675D01*
X94935000Y-125190581D01*
X94935000Y-124809419D01*
X96065000Y-124809419D01*
X96065000Y-125190581D01*
X96139361Y-125564419D01*
X96285225Y-125916566D01*
X96496987Y-126233491D01*
X96766509Y-126503013D01*
X97083434Y-126714775D01*
X97435581Y-126860639D01*
X97809419Y-126935000D01*
X98190581Y-126935000D01*
X98564419Y-126860639D01*
X98916566Y-126714775D01*
X99233491Y-126503013D01*
X99503013Y-126233491D01*
X99714775Y-125916566D01*
X99860639Y-125564419D01*
X99935000Y-125190581D01*
X99935000Y-124809419D01*
X99860639Y-124435581D01*
X99714775Y-124083434D01*
X99503013Y-123766509D01*
X99233491Y-123496987D01*
X98916566Y-123285225D01*
X98564419Y-123139361D01*
X98190581Y-123065000D01*
X97809419Y-123065000D01*
X97435581Y-123139361D01*
X97083434Y-123285225D01*
X96766509Y-123496987D01*
X96496987Y-123766509D01*
X96285225Y-124083434D01*
X96139361Y-124435581D01*
X96065000Y-124809419D01*
X94935000Y-124809419D01*
X94860639Y-124435581D01*
X94714775Y-124083434D01*
X94503013Y-123766509D01*
X94233491Y-123496987D01*
X93916566Y-123285225D01*
X93564419Y-123139361D01*
X93190581Y-123065000D01*
X92809419Y-123065000D01*
X92435581Y-123139361D01*
X92083434Y-123285225D01*
X91766509Y-123496987D01*
X91496987Y-123766509D01*
X91285225Y-124083434D01*
X91139361Y-124435581D01*
X91065000Y-124809419D01*
X91065000Y-125190581D01*
X91139361Y-125564419D01*
X91285225Y-125916566D01*
X91496987Y-126233491D01*
X91766509Y-126503013D01*
X92083434Y-126714775D01*
X92435581Y-126860639D01*
X92809419Y-126935000D01*
X93190581Y-126935000D01*
X93542675Y-126864964D01*
X103565000Y-136887289D01*
X103565001Y-139862709D01*
X99362711Y-144065000D01*
X87721381Y-144065000D01*
X87692312Y-144021495D01*
X87478505Y-143807688D01*
X87227095Y-143639701D01*
X86947743Y-143523989D01*
X86651184Y-143465000D01*
X86348816Y-143465000D01*
X86297497Y-143475208D01*
X84793630Y-141971341D01*
X84764344Y-141935656D01*
X84621972Y-141818814D01*
X84459540Y-141731993D01*
X84283292Y-141678529D01*
X84145932Y-141665000D01*
X84100000Y-141660476D01*
X84054068Y-141665000D01*
X66087290Y-141665000D01*
X65735000Y-141312711D01*
X65735000Y-141293544D01*
X65816754Y-141238918D01*
X65950000Y-141105672D01*
X66083246Y-141238918D01*
X66344484Y-141413471D01*
X66634756Y-141533706D01*
X66942906Y-141595000D01*
X67257094Y-141595000D01*
X67565244Y-141533706D01*
X67855516Y-141413471D01*
X68116754Y-141238918D01*
X68338918Y-141016754D01*
X68513471Y-140755516D01*
X68633706Y-140465244D01*
X68695000Y-140157094D01*
X68695000Y-139842906D01*
X68633706Y-139534756D01*
X68513471Y-139244484D01*
X68338918Y-138983246D01*
X68116754Y-138761082D01*
X68002889Y-138685000D01*
X69009878Y-138685000D01*
X69009463Y-138685506D01*
X68950498Y-138795820D01*
X68914188Y-138915518D01*
X68901928Y-139040000D01*
X68901928Y-140960000D01*
X68914188Y-141084482D01*
X68950498Y-141204180D01*
X69009463Y-141314494D01*
X69088815Y-141411185D01*
X69185506Y-141490537D01*
X69295820Y-141549502D01*
X69415518Y-141585812D01*
X69540000Y-141598072D01*
X71460000Y-141598072D01*
X71584482Y-141585812D01*
X71704180Y-141549502D01*
X71814494Y-141490537D01*
X71911185Y-141411185D01*
X71957182Y-141355138D01*
X72044484Y-141413471D01*
X72334756Y-141533706D01*
X72642906Y-141595000D01*
X72957094Y-141595000D01*
X73265244Y-141533706D01*
X73555516Y-141413471D01*
X73816754Y-141238918D01*
X73950000Y-141105672D01*
X74083246Y-141238918D01*
X74344484Y-141413471D01*
X74634756Y-141533706D01*
X74942906Y-141595000D01*
X75257094Y-141595000D01*
X75565244Y-141533706D01*
X75855516Y-141413471D01*
X76116754Y-141238918D01*
X76338918Y-141016754D01*
X76513471Y-140755516D01*
X76633706Y-140465244D01*
X76695000Y-140157094D01*
X76695000Y-139842906D01*
X76633706Y-139534756D01*
X76513471Y-139244484D01*
X76376840Y-139040000D01*
X76901928Y-139040000D01*
X76901928Y-140960000D01*
X76914188Y-141084482D01*
X76950498Y-141204180D01*
X77009463Y-141314494D01*
X77088815Y-141411185D01*
X77185506Y-141490537D01*
X77295820Y-141549502D01*
X77415518Y-141585812D01*
X77540000Y-141598072D01*
X79460000Y-141598072D01*
X79584482Y-141585812D01*
X79704180Y-141549502D01*
X79814494Y-141490537D01*
X79911185Y-141411185D01*
X79957182Y-141355138D01*
X80044484Y-141413471D01*
X80334756Y-141533706D01*
X80642906Y-141595000D01*
X80957094Y-141595000D01*
X81265244Y-141533706D01*
X81555516Y-141413471D01*
X81816754Y-141238918D01*
X81950000Y-141105672D01*
X82083246Y-141238918D01*
X82344484Y-141413471D01*
X82634756Y-141533706D01*
X82942906Y-141595000D01*
X83257094Y-141595000D01*
X83565244Y-141533706D01*
X83855516Y-141413471D01*
X84116754Y-141238918D01*
X84338918Y-141016754D01*
X84513471Y-140755516D01*
X84633706Y-140465244D01*
X84676520Y-140250000D01*
X93111928Y-140250000D01*
X93111928Y-141750000D01*
X93138599Y-142020799D01*
X93217589Y-142281192D01*
X93345860Y-142521171D01*
X93518485Y-142731515D01*
X93728829Y-142904140D01*
X93968808Y-143032411D01*
X94229201Y-143111401D01*
X94500000Y-143138072D01*
X96500000Y-143138072D01*
X96770799Y-143111401D01*
X97031192Y-143032411D01*
X97271171Y-142904140D01*
X97481515Y-142731515D01*
X97654140Y-142521171D01*
X97782411Y-142281192D01*
X97861401Y-142020799D01*
X97888072Y-141750000D01*
X97888072Y-140250000D01*
X97861401Y-139979201D01*
X97782411Y-139718808D01*
X97654140Y-139478829D01*
X97481515Y-139268485D01*
X97271171Y-139095860D01*
X97031192Y-138967589D01*
X96770799Y-138888599D01*
X96500000Y-138861928D01*
X94500000Y-138861928D01*
X94229201Y-138888599D01*
X93968808Y-138967589D01*
X93728829Y-139095860D01*
X93518485Y-139268485D01*
X93345860Y-139478829D01*
X93217589Y-139718808D01*
X93138599Y-139979201D01*
X93111928Y-140250000D01*
X84676520Y-140250000D01*
X84695000Y-140157094D01*
X84695000Y-139842906D01*
X84633706Y-139534756D01*
X84513471Y-139244484D01*
X84338918Y-138983246D01*
X84116754Y-138761082D01*
X83855516Y-138586529D01*
X83565244Y-138466294D01*
X83257094Y-138405000D01*
X82942906Y-138405000D01*
X82634756Y-138466294D01*
X82344484Y-138586529D01*
X82083246Y-138761082D01*
X81950000Y-138894328D01*
X81816754Y-138761082D01*
X81555516Y-138586529D01*
X81265244Y-138466294D01*
X80957094Y-138405000D01*
X80642906Y-138405000D01*
X80334756Y-138466294D01*
X80044484Y-138586529D01*
X79957182Y-138644862D01*
X79911185Y-138588815D01*
X79814494Y-138509463D01*
X79704180Y-138450498D01*
X79584482Y-138414188D01*
X79460000Y-138401928D01*
X77540000Y-138401928D01*
X77415518Y-138414188D01*
X77295820Y-138450498D01*
X77185506Y-138509463D01*
X77088815Y-138588815D01*
X77009463Y-138685506D01*
X76950498Y-138795820D01*
X76914188Y-138915518D01*
X76901928Y-139040000D01*
X76376840Y-139040000D01*
X76338918Y-138983246D01*
X76116754Y-138761082D01*
X75855516Y-138586529D01*
X75565244Y-138466294D01*
X75257094Y-138405000D01*
X74942906Y-138405000D01*
X74634756Y-138466294D01*
X74344484Y-138586529D01*
X74083246Y-138761082D01*
X73950000Y-138894328D01*
X73816754Y-138761082D01*
X73735000Y-138706456D01*
X73735000Y-138595932D01*
X73739524Y-138550000D01*
X73721471Y-138366708D01*
X73668007Y-138190461D01*
X73668007Y-138190460D01*
X73581186Y-138028028D01*
X73464344Y-137885656D01*
X73428660Y-137856371D01*
X73322289Y-137750000D01*
X73428660Y-137643629D01*
X73464344Y-137614344D01*
X73581186Y-137471972D01*
X73668007Y-137309540D01*
X73721471Y-137133292D01*
X73732435Y-137021971D01*
X73739524Y-136950000D01*
X73735000Y-136904068D01*
X73735000Y-136793544D01*
X73816754Y-136738918D01*
X73948787Y-136606885D01*
X74172720Y-136606885D01*
X74263653Y-136867197D01*
X74546451Y-137004090D01*
X74850521Y-137083182D01*
X75164178Y-137101432D01*
X75475368Y-137058140D01*
X75772134Y-136954970D01*
X75936347Y-136867197D01*
X76027280Y-136606885D01*
X75100000Y-135679605D01*
X74172720Y-136606885D01*
X73948787Y-136606885D01*
X74038918Y-136516754D01*
X74213471Y-136255516D01*
X74247831Y-136172564D01*
X74920395Y-135500000D01*
X75279605Y-135500000D01*
X76206885Y-136427280D01*
X76467197Y-136336347D01*
X76604090Y-136053549D01*
X76683182Y-135749479D01*
X76701432Y-135435822D01*
X76658140Y-135124632D01*
X76554970Y-134827866D01*
X76467197Y-134663653D01*
X76206885Y-134572720D01*
X75279605Y-135500000D01*
X74920395Y-135500000D01*
X74247831Y-134827436D01*
X74213471Y-134744484D01*
X74038918Y-134483246D01*
X73948787Y-134393115D01*
X74172720Y-134393115D01*
X75100000Y-135320395D01*
X75880395Y-134540000D01*
X76901928Y-134540000D01*
X76901928Y-136460000D01*
X76914188Y-136584482D01*
X76950498Y-136704180D01*
X77009463Y-136814494D01*
X77088815Y-136911185D01*
X77185506Y-136990537D01*
X77295820Y-137049502D01*
X77415518Y-137085812D01*
X77540000Y-137098072D01*
X79460000Y-137098072D01*
X79584482Y-137085812D01*
X79704180Y-137049502D01*
X79814494Y-136990537D01*
X79911185Y-136911185D01*
X79957182Y-136855138D01*
X80044484Y-136913471D01*
X80334756Y-137033706D01*
X80642906Y-137095000D01*
X80957094Y-137095000D01*
X81265244Y-137033706D01*
X81555516Y-136913471D01*
X81816754Y-136738918D01*
X81948787Y-136606885D01*
X82172720Y-136606885D01*
X82263653Y-136867197D01*
X82546451Y-137004090D01*
X82850521Y-137083182D01*
X83164178Y-137101432D01*
X83475368Y-137058140D01*
X83772134Y-136954970D01*
X83936347Y-136867197D01*
X83977286Y-136750000D01*
X93111928Y-136750000D01*
X93124188Y-136874482D01*
X93160498Y-136994180D01*
X93219463Y-137104494D01*
X93298815Y-137201185D01*
X93395506Y-137280537D01*
X93505820Y-137339502D01*
X93625518Y-137375812D01*
X93750000Y-137388072D01*
X95214250Y-137385000D01*
X95373000Y-137226250D01*
X95373000Y-135127000D01*
X95627000Y-135127000D01*
X95627000Y-137226250D01*
X95785750Y-137385000D01*
X97250000Y-137388072D01*
X97374482Y-137375812D01*
X97494180Y-137339502D01*
X97604494Y-137280537D01*
X97701185Y-137201185D01*
X97780537Y-137104494D01*
X97821494Y-137027869D01*
X97811928Y-137125000D01*
X97811928Y-138875000D01*
X97841001Y-139170186D01*
X97927104Y-139454028D01*
X98066927Y-139715618D01*
X98255097Y-139944903D01*
X98484382Y-140133073D01*
X98745972Y-140272896D01*
X99029814Y-140358999D01*
X99325000Y-140388072D01*
X101075000Y-140388072D01*
X101370186Y-140358999D01*
X101654028Y-140272896D01*
X101915618Y-140133073D01*
X102144903Y-139944903D01*
X102333073Y-139715618D01*
X102472896Y-139454028D01*
X102558999Y-139170186D01*
X102588072Y-138875000D01*
X102588072Y-137125000D01*
X102558999Y-136829814D01*
X102472896Y-136545972D01*
X102333073Y-136284382D01*
X102144903Y-136055097D01*
X101915618Y-135866927D01*
X101654028Y-135727104D01*
X101370186Y-135641001D01*
X101075000Y-135611928D01*
X99325000Y-135611928D01*
X99029814Y-135641001D01*
X98745972Y-135727104D01*
X98484382Y-135866927D01*
X98255097Y-136055097D01*
X98066927Y-136284382D01*
X97927104Y-136545972D01*
X97887915Y-136675160D01*
X97885000Y-135285750D01*
X97726250Y-135127000D01*
X95627000Y-135127000D01*
X95373000Y-135127000D01*
X93273750Y-135127000D01*
X93115000Y-135285750D01*
X93111928Y-136750000D01*
X83977286Y-136750000D01*
X84027280Y-136606885D01*
X83100000Y-135679605D01*
X82172720Y-136606885D01*
X81948787Y-136606885D01*
X82038918Y-136516754D01*
X82213471Y-136255516D01*
X82247831Y-136172564D01*
X82920395Y-135500000D01*
X83279605Y-135500000D01*
X84206885Y-136427280D01*
X84467197Y-136336347D01*
X84604090Y-136053549D01*
X84683182Y-135749479D01*
X84701432Y-135435822D01*
X84658140Y-135124632D01*
X84554970Y-134827866D01*
X84467197Y-134663653D01*
X84206885Y-134572720D01*
X83279605Y-135500000D01*
X82920395Y-135500000D01*
X82247831Y-134827436D01*
X82213471Y-134744484D01*
X82038918Y-134483246D01*
X81948787Y-134393115D01*
X82172720Y-134393115D01*
X83100000Y-135320395D01*
X84027280Y-134393115D01*
X83936347Y-134132803D01*
X83653549Y-133995910D01*
X83349479Y-133916818D01*
X83035822Y-133898568D01*
X82724632Y-133941860D01*
X82427866Y-134045030D01*
X82263653Y-134132803D01*
X82172720Y-134393115D01*
X81948787Y-134393115D01*
X81816754Y-134261082D01*
X81735000Y-134206456D01*
X81735000Y-133250000D01*
X93111928Y-133250000D01*
X93115000Y-134714250D01*
X93273750Y-134873000D01*
X95373000Y-134873000D01*
X95373000Y-132773750D01*
X95627000Y-132773750D01*
X95627000Y-134873000D01*
X97726250Y-134873000D01*
X97885000Y-134714250D01*
X97888072Y-133250000D01*
X97875812Y-133125518D01*
X97839502Y-133005820D01*
X97780537Y-132895506D01*
X97701185Y-132798815D01*
X97604494Y-132719463D01*
X97494180Y-132660498D01*
X97374482Y-132624188D01*
X97250000Y-132611928D01*
X95785750Y-132615000D01*
X95627000Y-132773750D01*
X95373000Y-132773750D01*
X95214250Y-132615000D01*
X93750000Y-132611928D01*
X93625518Y-132624188D01*
X93505820Y-132660498D01*
X93395506Y-132719463D01*
X93298815Y-132798815D01*
X93219463Y-132895506D01*
X93160498Y-133005820D01*
X93124188Y-133125518D01*
X93111928Y-133250000D01*
X81735000Y-133250000D01*
X81735000Y-127837289D01*
X82707325Y-126864964D01*
X83059419Y-126935000D01*
X83440581Y-126935000D01*
X83814419Y-126860639D01*
X84166566Y-126714775D01*
X84483491Y-126503013D01*
X84753013Y-126233491D01*
X84964775Y-125916566D01*
X85110639Y-125564419D01*
X85185000Y-125190581D01*
X85185000Y-124809419D01*
X85110639Y-124435581D01*
X84964775Y-124083434D01*
X84753013Y-123766509D01*
X84483491Y-123496987D01*
X84166566Y-123285225D01*
X83814419Y-123139361D01*
X83440581Y-123065000D01*
X83059419Y-123065000D01*
X82685581Y-123139361D01*
X82333434Y-123285225D01*
X82016509Y-123496987D01*
X81746987Y-123766509D01*
X81535225Y-124083434D01*
X81389361Y-124435581D01*
X81315000Y-124809419D01*
X81315000Y-125190581D01*
X81385036Y-125542675D01*
X80171336Y-126756375D01*
X80135657Y-126785656D01*
X80018815Y-126928028D01*
X79931994Y-127090460D01*
X79878529Y-127266709D01*
X79860476Y-127450000D01*
X79865001Y-127495942D01*
X79865000Y-134050912D01*
X79814494Y-134009463D01*
X79704180Y-133950498D01*
X79584482Y-133914188D01*
X79460000Y-133901928D01*
X77540000Y-133901928D01*
X77415518Y-133914188D01*
X77295820Y-133950498D01*
X77185506Y-134009463D01*
X77088815Y-134088815D01*
X77009463Y-134185506D01*
X76950498Y-134295820D01*
X76914188Y-134415518D01*
X76901928Y-134540000D01*
X75880395Y-134540000D01*
X76027280Y-134393115D01*
X75936347Y-134132803D01*
X75653549Y-133995910D01*
X75349479Y-133916818D01*
X75035822Y-133898568D01*
X74724632Y-133941860D01*
X74427866Y-134045030D01*
X74263653Y-134132803D01*
X74172720Y-134393115D01*
X73948787Y-134393115D01*
X73816754Y-134261082D01*
X73555516Y-134086529D01*
X73265244Y-133966294D01*
X72957094Y-133905000D01*
X72642906Y-133905000D01*
X72334756Y-133966294D01*
X72044484Y-134086529D01*
X71957182Y-134144862D01*
X71911185Y-134088815D01*
X71814494Y-134009463D01*
X71704180Y-133950498D01*
X71584482Y-133914188D01*
X71460000Y-133901928D01*
X69540000Y-133901928D01*
X69415518Y-133914188D01*
X69295820Y-133950498D01*
X69185506Y-134009463D01*
X69088815Y-134088815D01*
X69009463Y-134185506D01*
X68950498Y-134295820D01*
X68914188Y-134415518D01*
X68901928Y-134540000D01*
X68901928Y-136460000D01*
X68914188Y-136584482D01*
X68950498Y-136704180D01*
X69009463Y-136814494D01*
X69009878Y-136815000D01*
X67954581Y-136815000D01*
X68027280Y-136606885D01*
X67100000Y-135679605D01*
X66172720Y-136606885D01*
X66245419Y-136815000D01*
X65702889Y-136815000D01*
X65816754Y-136738918D01*
X66038918Y-136516754D01*
X66213471Y-136255516D01*
X66247831Y-136172564D01*
X66920395Y-135500000D01*
X67279605Y-135500000D01*
X68206885Y-136427280D01*
X68467197Y-136336347D01*
X68604090Y-136053549D01*
X68683182Y-135749479D01*
X68701432Y-135435822D01*
X68658140Y-135124632D01*
X68554970Y-134827866D01*
X68467197Y-134663653D01*
X68206885Y-134572720D01*
X67279605Y-135500000D01*
X66920395Y-135500000D01*
X66247831Y-134827436D01*
X66213471Y-134744484D01*
X66038918Y-134483246D01*
X65948787Y-134393115D01*
X66172720Y-134393115D01*
X67100000Y-135320395D01*
X68027280Y-134393115D01*
X67936347Y-134132803D01*
X67653549Y-133995910D01*
X67349479Y-133916818D01*
X67035822Y-133898568D01*
X66724632Y-133941860D01*
X66427866Y-134045030D01*
X66263653Y-134132803D01*
X66172720Y-134393115D01*
X65948787Y-134393115D01*
X65816754Y-134261082D01*
X65555516Y-134086529D01*
X65265244Y-133966294D01*
X64957094Y-133905000D01*
X64642906Y-133905000D01*
X64334756Y-133966294D01*
X64044484Y-134086529D01*
X63957182Y-134144862D01*
X63911185Y-134088815D01*
X63814494Y-134009463D01*
X63704180Y-133950498D01*
X63584482Y-133914188D01*
X63460000Y-133901928D01*
X61540000Y-133901928D01*
X61415518Y-133914188D01*
X61295820Y-133950498D01*
X61185506Y-134009463D01*
X61088815Y-134088815D01*
X61009463Y-134185506D01*
X60950498Y-134295820D01*
X60914188Y-134415518D01*
X60901928Y-134540000D01*
X51627000Y-134540000D01*
X51627000Y-125000000D01*
X63357815Y-125000000D01*
X63386487Y-125291111D01*
X63471401Y-125571034D01*
X63609294Y-125829014D01*
X63794866Y-126055134D01*
X64020986Y-126240706D01*
X64278966Y-126378599D01*
X64558889Y-126463513D01*
X64777050Y-126485000D01*
X65222950Y-126485000D01*
X65441111Y-126463513D01*
X65721034Y-126378599D01*
X65979014Y-126240706D01*
X66205134Y-126055134D01*
X66303725Y-125935000D01*
X76547542Y-125935000D01*
X76746987Y-126233491D01*
X77016509Y-126503013D01*
X77333434Y-126714775D01*
X77685581Y-126860639D01*
X78059419Y-126935000D01*
X78440581Y-126935000D01*
X78814419Y-126860639D01*
X79166566Y-126714775D01*
X79483491Y-126503013D01*
X79753013Y-126233491D01*
X79964775Y-125916566D01*
X80110639Y-125564419D01*
X80185000Y-125190581D01*
X80185000Y-124809419D01*
X80110639Y-124435581D01*
X79964775Y-124083434D01*
X79753013Y-123766509D01*
X79483491Y-123496987D01*
X79185000Y-123297542D01*
X79185000Y-110888072D01*
X79250000Y-110888072D01*
X79374482Y-110875812D01*
X79494180Y-110839502D01*
X79604494Y-110780537D01*
X79701185Y-110701185D01*
X79780537Y-110604494D01*
X79839502Y-110494180D01*
X79875812Y-110374482D01*
X79888072Y-110250000D01*
X79888072Y-109088967D01*
X81615000Y-109088967D01*
X81615000Y-109411033D01*
X81677832Y-109726912D01*
X81801082Y-110024463D01*
X81980013Y-110292252D01*
X82207748Y-110519987D01*
X82475537Y-110698918D01*
X82773088Y-110822168D01*
X83088967Y-110885000D01*
X83411033Y-110885000D01*
X83726912Y-110822168D01*
X84024463Y-110698918D01*
X84292252Y-110519987D01*
X84519987Y-110292252D01*
X84698918Y-110024463D01*
X84822168Y-109726912D01*
X84885000Y-109411033D01*
X84885000Y-109088967D01*
X84822168Y-108773088D01*
X84698918Y-108475537D01*
X84519987Y-108207748D01*
X84292252Y-107980013D01*
X84024463Y-107801082D01*
X83726912Y-107677832D01*
X83411033Y-107615000D01*
X83088967Y-107615000D01*
X82773088Y-107677832D01*
X82475537Y-107801082D01*
X82207748Y-107980013D01*
X81980013Y-108207748D01*
X81801082Y-108475537D01*
X81677832Y-108773088D01*
X81615000Y-109088967D01*
X79888072Y-109088967D01*
X79888072Y-108250000D01*
X79875812Y-108125518D01*
X79839502Y-108005820D01*
X79780537Y-107895506D01*
X79701185Y-107798815D01*
X79604494Y-107719463D01*
X79494180Y-107660498D01*
X79374482Y-107624188D01*
X79250000Y-107611928D01*
X77250000Y-107611928D01*
X77125518Y-107624188D01*
X77005820Y-107660498D01*
X76895506Y-107719463D01*
X76798815Y-107798815D01*
X76719463Y-107895506D01*
X76660498Y-108005820D01*
X76624188Y-108125518D01*
X76611928Y-108250000D01*
X76611928Y-110250000D01*
X76624188Y-110374482D01*
X76660498Y-110494180D01*
X76719463Y-110604494D01*
X76798815Y-110701185D01*
X76895506Y-110780537D01*
X77005820Y-110839502D01*
X77125518Y-110875812D01*
X77250000Y-110888072D01*
X77315001Y-110888072D01*
X77315000Y-123297542D01*
X77016509Y-123496987D01*
X76746987Y-123766509D01*
X76547542Y-124065000D01*
X66303725Y-124065000D01*
X66205134Y-123944866D01*
X66141663Y-123892777D01*
X66243386Y-123838405D01*
X66377962Y-123727962D01*
X66488405Y-123593386D01*
X66570472Y-123439850D01*
X66621008Y-123273254D01*
X66638072Y-123100000D01*
X66638072Y-121900000D01*
X66621008Y-121726746D01*
X66570472Y-121560150D01*
X66488405Y-121406614D01*
X66377962Y-121272038D01*
X66243386Y-121161595D01*
X66089850Y-121079528D01*
X65923254Y-121028992D01*
X65750000Y-121011928D01*
X64250000Y-121011928D01*
X64076746Y-121028992D01*
X63910150Y-121079528D01*
X63756614Y-121161595D01*
X63622038Y-121272038D01*
X63511595Y-121406614D01*
X63429528Y-121560150D01*
X63378992Y-121726746D01*
X63361928Y-121900000D01*
X63361928Y-123100000D01*
X63378992Y-123273254D01*
X63429528Y-123439850D01*
X63511595Y-123593386D01*
X63622038Y-123727962D01*
X63756614Y-123838405D01*
X63858337Y-123892777D01*
X63794866Y-123944866D01*
X63609294Y-124170986D01*
X63471401Y-124428966D01*
X63386487Y-124708889D01*
X63357815Y-125000000D01*
X51627000Y-125000000D01*
X51627000Y-111338967D01*
X60865000Y-111338967D01*
X60865000Y-111661033D01*
X60927832Y-111976912D01*
X61051082Y-112274463D01*
X61230013Y-112542252D01*
X61457748Y-112769987D01*
X61725537Y-112948918D01*
X62023088Y-113072168D01*
X62338967Y-113135000D01*
X62661033Y-113135000D01*
X62976912Y-113072168D01*
X63274463Y-112948918D01*
X63542252Y-112769987D01*
X63769987Y-112542252D01*
X63841651Y-112435000D01*
X67658349Y-112435000D01*
X67730013Y-112542252D01*
X67957748Y-112769987D01*
X68225537Y-112948918D01*
X68523088Y-113072168D01*
X68838967Y-113135000D01*
X69161033Y-113135000D01*
X69476912Y-113072168D01*
X69774463Y-112948918D01*
X70042252Y-112769987D01*
X70269987Y-112542252D01*
X70448918Y-112274463D01*
X70572168Y-111976912D01*
X70635000Y-111661033D01*
X70635000Y-111338967D01*
X70572168Y-111023088D01*
X70448918Y-110725537D01*
X70269987Y-110457748D01*
X70042252Y-110230013D01*
X69774463Y-110051082D01*
X69476912Y-109927832D01*
X69161033Y-109865000D01*
X68838967Y-109865000D01*
X68523088Y-109927832D01*
X68225537Y-110051082D01*
X67957748Y-110230013D01*
X67730013Y-110457748D01*
X67658349Y-110565000D01*
X63841651Y-110565000D01*
X63769987Y-110457748D01*
X63542252Y-110230013D01*
X63274463Y-110051082D01*
X62976912Y-109927832D01*
X62661033Y-109865000D01*
X62338967Y-109865000D01*
X62023088Y-109927832D01*
X61725537Y-110051082D01*
X61457748Y-110230013D01*
X61230013Y-110457748D01*
X61051082Y-110725537D01*
X60927832Y-111023088D01*
X60865000Y-111338967D01*
X51627000Y-111338967D01*
X51627000Y-106838967D01*
X60865000Y-106838967D01*
X60865000Y-107161033D01*
X60927832Y-107476912D01*
X61051082Y-107774463D01*
X61230013Y-108042252D01*
X61457748Y-108269987D01*
X61725537Y-108448918D01*
X62023088Y-108572168D01*
X62338967Y-108635000D01*
X62661033Y-108635000D01*
X62976912Y-108572168D01*
X63274463Y-108448918D01*
X63542252Y-108269987D01*
X63769987Y-108042252D01*
X63948918Y-107774463D01*
X64072168Y-107476912D01*
X64135000Y-107161033D01*
X64135000Y-106838967D01*
X67365000Y-106838967D01*
X67365000Y-107161033D01*
X67427832Y-107476912D01*
X67551082Y-107774463D01*
X67730013Y-108042252D01*
X67957748Y-108269987D01*
X68225537Y-108448918D01*
X68523088Y-108572168D01*
X68838967Y-108635000D01*
X69161033Y-108635000D01*
X69476912Y-108572168D01*
X69774463Y-108448918D01*
X70042252Y-108269987D01*
X70269987Y-108042252D01*
X70448918Y-107774463D01*
X70572168Y-107476912D01*
X70635000Y-107161033D01*
X70635000Y-106838967D01*
X70572168Y-106523088D01*
X70448918Y-106225537D01*
X70269987Y-105957748D01*
X70042252Y-105730013D01*
X69774463Y-105551082D01*
X69476912Y-105427832D01*
X69161033Y-105365000D01*
X68838967Y-105365000D01*
X68523088Y-105427832D01*
X68225537Y-105551082D01*
X67957748Y-105730013D01*
X67730013Y-105957748D01*
X67551082Y-106225537D01*
X67427832Y-106523088D01*
X67365000Y-106838967D01*
X64135000Y-106838967D01*
X64072168Y-106523088D01*
X63948918Y-106225537D01*
X63769987Y-105957748D01*
X63542252Y-105730013D01*
X63274463Y-105551082D01*
X62976912Y-105427832D01*
X62661033Y-105365000D01*
X62338967Y-105365000D01*
X62023088Y-105427832D01*
X61725537Y-105551082D01*
X61457748Y-105730013D01*
X61230013Y-105957748D01*
X61051082Y-106225537D01*
X60927832Y-106523088D01*
X60865000Y-106838967D01*
X51627000Y-106838967D01*
X51627000Y-98165234D01*
X51740915Y-98440250D01*
X51958149Y-98765364D01*
X52234636Y-99041851D01*
X52559750Y-99259085D01*
X52920997Y-99408718D01*
X53304495Y-99485000D01*
X53695505Y-99485000D01*
X54079003Y-99408718D01*
X54440250Y-99259085D01*
X54765364Y-99041851D01*
X55041851Y-98765364D01*
X55259085Y-98440250D01*
X55408718Y-98079003D01*
X55485000Y-97695505D01*
X55485000Y-97304495D01*
X55408718Y-96920997D01*
X55259085Y-96559750D01*
X55041851Y-96234636D01*
X54765364Y-95958149D01*
X54440250Y-95740915D01*
X54165234Y-95627000D01*
X57015821Y-95627000D01*
X56928519Y-95873109D01*
M02*
