M48
; DRILL file {KiCad (5.1.5)-3} date 2020/03/31 15:27:48
; FORMAT={-:-/ absolute / inch / decimal}
; #@! TF.CreationDate,2020-03-31T15:27:48+09:00
; #@! TF.GenerationSoftware,Kicad,Pcbnew,(5.1.5)-3
FMAT,2
INCH
T1C0.0118
T2C0.0354
T3C0.0394
T4C0.0433
T5C0.0504
T6C0.0512
T7C0.1063
%
G90
G05
T1
X3.4665Y-4.7224
T2
X3.0906Y-5.7087
X3.4055Y-5.7087
X2.4606Y-5.7087
X2.7756Y-5.7087
T3
X3.6614Y-4.3012
X3.8583Y-4.3012
X2.298Y-3.7886
X2.298Y-3.8886
X2.398Y-3.7886
X2.398Y-3.8886
X2.498Y-3.7886
X2.498Y-3.8886
X2.598Y-3.7886
X2.598Y-3.8886
X2.698Y-3.7886
X2.698Y-3.8886
X2.798Y-3.7886
X2.798Y-3.8886
X2.898Y-3.7886
X2.898Y-3.8886
X2.998Y-3.7886
X2.998Y-3.8886
X3.098Y-3.7886
X3.098Y-3.8886
X3.198Y-3.7886
X3.198Y-3.8886
X3.298Y-3.7886
X3.298Y-3.8886
X3.398Y-3.7886
X3.398Y-3.8886
X3.498Y-3.7886
X3.498Y-3.8886
X3.598Y-3.7886
X3.598Y-3.8886
X3.698Y-3.7886
X3.698Y-3.8886
X3.798Y-3.7886
X3.798Y-3.8886
X3.898Y-3.7886
X3.898Y-3.8886
X3.998Y-3.7886
X3.998Y-3.8886
X4.098Y-3.7886
X4.098Y-3.8886
X4.198Y-3.7886
X4.198Y-3.8886
X2.5591Y-4.8228
X2.5591Y-4.9213
X3.0807Y-4.3012
X3.2776Y-4.3012
T4
X2.4606Y-4.2126
X2.4606Y-4.3898
X2.7165Y-4.2126
X2.7165Y-4.3898
T5
X2.7756Y-5.5118
X2.8661Y-5.5118
X2.9567Y-5.5118
X2.4606Y-5.5118
X2.5512Y-5.5118
X2.6417Y-5.5118
X3.0906Y-5.5118
X3.1811Y-5.5118
X3.2717Y-5.5118
X2.7756Y-5.3346
X2.8661Y-5.3346
X2.9567Y-5.3346
X3.0906Y-5.3346
X3.1811Y-5.3346
X3.2717Y-5.3346
X2.4606Y-5.3346
X2.5512Y-5.3346
X2.6417Y-5.3346
T6
X3.6614Y-4.9213
X3.8583Y-4.9213
X3.0807Y-4.9213
X3.2776Y-4.9213
T7
X2.1063Y-5.7677
X2.1063Y-3.8386
X4.3898Y-3.8386
X4.3898Y-5.7677
T3
G00X3.7205Y-5.315
M15
G01X3.7992Y-5.315
M16
G05
G00X3.7205Y-5.5512
M15
G01X3.7992Y-5.5512
M16
G05
G00X3.9449Y-5.4724
M15
G01X3.9449Y-5.3937
M16
G05
T0
M30
