G04 #@! TF.GenerationSoftware,KiCad,Pcbnew,(5.1.5)-3*
G04 #@! TF.CreationDate,2020-03-31T15:27:33+09:00*
G04 #@! TF.ProjectId,CAL_V_Simulation_circuit,43414c5f-565f-4536-996d-756c6174696f,rev?*
G04 #@! TF.SameCoordinates,Original*
G04 #@! TF.FileFunction,Soldermask,Bot*
G04 #@! TF.FilePolarity,Negative*
%FSLAX46Y46*%
G04 Gerber Fmt 4.6, Leading zero omitted, Abs format (unit mm)*
G04 Created by KiCad (PCBNEW (5.1.5)-3) date 2020-03-31 15:27:33*
%MOMM*%
%LPD*%
G04 APERTURE LIST*
%ADD10C,0.100000*%
G04 APERTURE END LIST*
D10*
G36*
X111818433Y-145134893D02*
G01*
X111908657Y-145152839D01*
X112014267Y-145196585D01*
X112163621Y-145258449D01*
X112191977Y-145277396D01*
X112393086Y-145411772D01*
X112588228Y-145606914D01*
X112676277Y-145738690D01*
X112741551Y-145836379D01*
X112847161Y-146091344D01*
X112901000Y-146362012D01*
X112901000Y-146637988D01*
X112847161Y-146908656D01*
X112741551Y-147163621D01*
X112741550Y-147163622D01*
X112588228Y-147393086D01*
X112393086Y-147588228D01*
X112239763Y-147690675D01*
X112163621Y-147741551D01*
X112014267Y-147803415D01*
X111908657Y-147847161D01*
X111818433Y-147865107D01*
X111637988Y-147901000D01*
X111362012Y-147901000D01*
X111181567Y-147865107D01*
X111091343Y-147847161D01*
X110985733Y-147803415D01*
X110836379Y-147741551D01*
X110760237Y-147690675D01*
X110606914Y-147588228D01*
X110411772Y-147393086D01*
X110258450Y-147163622D01*
X110258449Y-147163621D01*
X110152839Y-146908656D01*
X110099000Y-146637988D01*
X110099000Y-146362012D01*
X110152839Y-146091344D01*
X110258449Y-145836379D01*
X110323723Y-145738690D01*
X110411772Y-145606914D01*
X110606914Y-145411772D01*
X110808023Y-145277396D01*
X110836379Y-145258449D01*
X110985733Y-145196585D01*
X111091343Y-145152839D01*
X111181567Y-145134893D01*
X111362012Y-145099000D01*
X111637988Y-145099000D01*
X111818433Y-145134893D01*
G37*
G36*
X53818433Y-145134893D02*
G01*
X53908657Y-145152839D01*
X54014267Y-145196585D01*
X54163621Y-145258449D01*
X54191977Y-145277396D01*
X54393086Y-145411772D01*
X54588228Y-145606914D01*
X54676277Y-145738690D01*
X54741551Y-145836379D01*
X54847161Y-146091344D01*
X54901000Y-146362012D01*
X54901000Y-146637988D01*
X54847161Y-146908656D01*
X54741551Y-147163621D01*
X54741550Y-147163622D01*
X54588228Y-147393086D01*
X54393086Y-147588228D01*
X54239763Y-147690675D01*
X54163621Y-147741551D01*
X54014267Y-147803415D01*
X53908657Y-147847161D01*
X53818433Y-147865107D01*
X53637988Y-147901000D01*
X53362012Y-147901000D01*
X53181567Y-147865107D01*
X53091343Y-147847161D01*
X52985733Y-147803415D01*
X52836379Y-147741551D01*
X52760237Y-147690675D01*
X52606914Y-147588228D01*
X52411772Y-147393086D01*
X52258450Y-147163622D01*
X52258449Y-147163621D01*
X52152839Y-146908656D01*
X52099000Y-146637988D01*
X52099000Y-146362012D01*
X52152839Y-146091344D01*
X52258449Y-145836379D01*
X52323723Y-145738690D01*
X52411772Y-145606914D01*
X52606914Y-145411772D01*
X52808023Y-145277396D01*
X52836379Y-145258449D01*
X52985733Y-145196585D01*
X53091343Y-145152839D01*
X53181567Y-145134893D01*
X53362012Y-145099000D01*
X53637988Y-145099000D01*
X53818433Y-145134893D01*
G37*
G36*
X62777395Y-144085546D02*
G01*
X62950466Y-144157234D01*
X62950467Y-144157235D01*
X63106227Y-144261310D01*
X63238690Y-144393773D01*
X63238691Y-144393775D01*
X63342766Y-144549534D01*
X63414454Y-144722605D01*
X63451000Y-144906333D01*
X63451000Y-145093667D01*
X63414454Y-145277395D01*
X63342766Y-145450466D01*
X63342765Y-145450467D01*
X63238690Y-145606227D01*
X63106227Y-145738690D01*
X63027818Y-145791081D01*
X62950466Y-145842766D01*
X62777395Y-145914454D01*
X62593667Y-145951000D01*
X62406333Y-145951000D01*
X62222605Y-145914454D01*
X62049534Y-145842766D01*
X61972182Y-145791081D01*
X61893773Y-145738690D01*
X61761310Y-145606227D01*
X61657235Y-145450467D01*
X61657234Y-145450466D01*
X61585546Y-145277395D01*
X61549000Y-145093667D01*
X61549000Y-144906333D01*
X61585546Y-144722605D01*
X61657234Y-144549534D01*
X61761309Y-144393775D01*
X61761310Y-144393773D01*
X61893773Y-144261310D01*
X62049533Y-144157235D01*
X62049534Y-144157234D01*
X62222605Y-144085546D01*
X62406333Y-144049000D01*
X62593667Y-144049000D01*
X62777395Y-144085546D01*
G37*
G36*
X86777395Y-144085546D02*
G01*
X86950466Y-144157234D01*
X86950467Y-144157235D01*
X87106227Y-144261310D01*
X87238690Y-144393773D01*
X87238691Y-144393775D01*
X87342766Y-144549534D01*
X87414454Y-144722605D01*
X87451000Y-144906333D01*
X87451000Y-145093667D01*
X87414454Y-145277395D01*
X87342766Y-145450466D01*
X87342765Y-145450467D01*
X87238690Y-145606227D01*
X87106227Y-145738690D01*
X87027818Y-145791081D01*
X86950466Y-145842766D01*
X86777395Y-145914454D01*
X86593667Y-145951000D01*
X86406333Y-145951000D01*
X86222605Y-145914454D01*
X86049534Y-145842766D01*
X85972182Y-145791081D01*
X85893773Y-145738690D01*
X85761310Y-145606227D01*
X85657235Y-145450467D01*
X85657234Y-145450466D01*
X85585546Y-145277395D01*
X85549000Y-145093667D01*
X85549000Y-144906333D01*
X85585546Y-144722605D01*
X85657234Y-144549534D01*
X85761309Y-144393775D01*
X85761310Y-144393773D01*
X85893773Y-144261310D01*
X86049533Y-144157235D01*
X86049534Y-144157234D01*
X86222605Y-144085546D01*
X86406333Y-144049000D01*
X86593667Y-144049000D01*
X86777395Y-144085546D01*
G37*
G36*
X78777395Y-144085546D02*
G01*
X78950466Y-144157234D01*
X78950467Y-144157235D01*
X79106227Y-144261310D01*
X79238690Y-144393773D01*
X79238691Y-144393775D01*
X79342766Y-144549534D01*
X79414454Y-144722605D01*
X79451000Y-144906333D01*
X79451000Y-145093667D01*
X79414454Y-145277395D01*
X79342766Y-145450466D01*
X79342765Y-145450467D01*
X79238690Y-145606227D01*
X79106227Y-145738690D01*
X79027818Y-145791081D01*
X78950466Y-145842766D01*
X78777395Y-145914454D01*
X78593667Y-145951000D01*
X78406333Y-145951000D01*
X78222605Y-145914454D01*
X78049534Y-145842766D01*
X77972182Y-145791081D01*
X77893773Y-145738690D01*
X77761310Y-145606227D01*
X77657235Y-145450467D01*
X77657234Y-145450466D01*
X77585546Y-145277395D01*
X77549000Y-145093667D01*
X77549000Y-144906333D01*
X77585546Y-144722605D01*
X77657234Y-144549534D01*
X77761309Y-144393775D01*
X77761310Y-144393773D01*
X77893773Y-144261310D01*
X78049533Y-144157235D01*
X78049534Y-144157234D01*
X78222605Y-144085546D01*
X78406333Y-144049000D01*
X78593667Y-144049000D01*
X78777395Y-144085546D01*
G37*
G36*
X70777395Y-144085546D02*
G01*
X70950466Y-144157234D01*
X70950467Y-144157235D01*
X71106227Y-144261310D01*
X71238690Y-144393773D01*
X71238691Y-144393775D01*
X71342766Y-144549534D01*
X71414454Y-144722605D01*
X71451000Y-144906333D01*
X71451000Y-145093667D01*
X71414454Y-145277395D01*
X71342766Y-145450466D01*
X71342765Y-145450467D01*
X71238690Y-145606227D01*
X71106227Y-145738690D01*
X71027818Y-145791081D01*
X70950466Y-145842766D01*
X70777395Y-145914454D01*
X70593667Y-145951000D01*
X70406333Y-145951000D01*
X70222605Y-145914454D01*
X70049534Y-145842766D01*
X69972182Y-145791081D01*
X69893773Y-145738690D01*
X69761310Y-145606227D01*
X69657235Y-145450467D01*
X69657234Y-145450466D01*
X69585546Y-145277395D01*
X69549000Y-145093667D01*
X69549000Y-144906333D01*
X69585546Y-144722605D01*
X69657234Y-144549534D01*
X69761309Y-144393775D01*
X69761310Y-144393773D01*
X69893773Y-144261310D01*
X70049533Y-144157235D01*
X70049534Y-144157234D01*
X70222605Y-144085546D01*
X70406333Y-144049000D01*
X70593667Y-144049000D01*
X70777395Y-144085546D01*
G37*
G36*
X96726979Y-139463293D02*
G01*
X96860625Y-139503834D01*
X96983784Y-139569664D01*
X97091740Y-139658260D01*
X97180336Y-139766216D01*
X97246166Y-139889375D01*
X97286707Y-140023021D01*
X97301000Y-140168140D01*
X97301000Y-141831860D01*
X97286707Y-141976979D01*
X97246166Y-142110625D01*
X97180336Y-142233784D01*
X97091740Y-142341740D01*
X96983784Y-142430336D01*
X96860625Y-142496166D01*
X96726979Y-142536707D01*
X96581860Y-142551000D01*
X94418140Y-142551000D01*
X94273021Y-142536707D01*
X94139375Y-142496166D01*
X94016216Y-142430336D01*
X93908260Y-142341740D01*
X93819664Y-142233784D01*
X93753834Y-142110625D01*
X93713293Y-141976979D01*
X93699000Y-141831860D01*
X93699000Y-140168140D01*
X93713293Y-140023021D01*
X93753834Y-139889375D01*
X93819664Y-139766216D01*
X93908260Y-139658260D01*
X94016216Y-139569664D01*
X94139375Y-139503834D01*
X94273021Y-139463293D01*
X94418140Y-139449000D01*
X96581860Y-139449000D01*
X96726979Y-139463293D01*
G37*
G36*
X73094898Y-139027851D02*
G01*
X73278886Y-139104062D01*
X73278888Y-139104063D01*
X73444475Y-139214705D01*
X73585295Y-139355525D01*
X73695937Y-139521112D01*
X73695938Y-139521114D01*
X73772149Y-139705102D01*
X73811000Y-139900424D01*
X73811000Y-140099576D01*
X73772149Y-140294898D01*
X73695938Y-140478886D01*
X73695937Y-140478888D01*
X73585295Y-140644475D01*
X73444475Y-140785295D01*
X73278888Y-140895937D01*
X73278887Y-140895938D01*
X73278886Y-140895938D01*
X73094898Y-140972149D01*
X72899576Y-141011000D01*
X72700424Y-141011000D01*
X72505102Y-140972149D01*
X72321114Y-140895938D01*
X72321113Y-140895938D01*
X72321112Y-140895937D01*
X72155525Y-140785295D01*
X72014705Y-140644475D01*
X71904063Y-140478888D01*
X71904062Y-140478886D01*
X71827851Y-140294898D01*
X71789000Y-140099576D01*
X71789000Y-139900424D01*
X71827851Y-139705102D01*
X71904062Y-139521114D01*
X71904063Y-139521112D01*
X72014705Y-139355525D01*
X72155525Y-139214705D01*
X72321112Y-139104063D01*
X72321114Y-139104062D01*
X72505102Y-139027851D01*
X72700424Y-138989000D01*
X72899576Y-138989000D01*
X73094898Y-139027851D01*
G37*
G36*
X63511000Y-141011000D02*
G01*
X61489000Y-141011000D01*
X61489000Y-138989000D01*
X63511000Y-138989000D01*
X63511000Y-141011000D01*
G37*
G36*
X65094898Y-139027851D02*
G01*
X65278886Y-139104062D01*
X65278888Y-139104063D01*
X65444475Y-139214705D01*
X65585295Y-139355525D01*
X65695937Y-139521112D01*
X65695938Y-139521114D01*
X65772149Y-139705102D01*
X65811000Y-139900424D01*
X65811000Y-140099576D01*
X65772149Y-140294898D01*
X65695938Y-140478886D01*
X65695937Y-140478888D01*
X65585295Y-140644475D01*
X65444475Y-140785295D01*
X65278888Y-140895937D01*
X65278887Y-140895938D01*
X65278886Y-140895938D01*
X65094898Y-140972149D01*
X64899576Y-141011000D01*
X64700424Y-141011000D01*
X64505102Y-140972149D01*
X64321114Y-140895938D01*
X64321113Y-140895938D01*
X64321112Y-140895937D01*
X64155525Y-140785295D01*
X64014705Y-140644475D01*
X63904063Y-140478888D01*
X63904062Y-140478886D01*
X63827851Y-140294898D01*
X63789000Y-140099576D01*
X63789000Y-139900424D01*
X63827851Y-139705102D01*
X63904062Y-139521114D01*
X63904063Y-139521112D01*
X64014705Y-139355525D01*
X64155525Y-139214705D01*
X64321112Y-139104063D01*
X64321114Y-139104062D01*
X64505102Y-139027851D01*
X64700424Y-138989000D01*
X64899576Y-138989000D01*
X65094898Y-139027851D01*
G37*
G36*
X67394898Y-139027851D02*
G01*
X67578886Y-139104062D01*
X67578888Y-139104063D01*
X67744475Y-139214705D01*
X67885295Y-139355525D01*
X67995937Y-139521112D01*
X67995938Y-139521114D01*
X68072149Y-139705102D01*
X68111000Y-139900424D01*
X68111000Y-140099576D01*
X68072149Y-140294898D01*
X67995938Y-140478886D01*
X67995937Y-140478888D01*
X67885295Y-140644475D01*
X67744475Y-140785295D01*
X67578888Y-140895937D01*
X67578887Y-140895938D01*
X67578886Y-140895938D01*
X67394898Y-140972149D01*
X67199576Y-141011000D01*
X67000424Y-141011000D01*
X66805102Y-140972149D01*
X66621114Y-140895938D01*
X66621113Y-140895938D01*
X66621112Y-140895937D01*
X66455525Y-140785295D01*
X66314705Y-140644475D01*
X66204063Y-140478888D01*
X66204062Y-140478886D01*
X66127851Y-140294898D01*
X66089000Y-140099576D01*
X66089000Y-139900424D01*
X66127851Y-139705102D01*
X66204062Y-139521114D01*
X66204063Y-139521112D01*
X66314705Y-139355525D01*
X66455525Y-139214705D01*
X66621112Y-139104063D01*
X66621114Y-139104062D01*
X66805102Y-139027851D01*
X67000424Y-138989000D01*
X67199576Y-138989000D01*
X67394898Y-139027851D01*
G37*
G36*
X71511000Y-141011000D02*
G01*
X69489000Y-141011000D01*
X69489000Y-138989000D01*
X71511000Y-138989000D01*
X71511000Y-141011000D01*
G37*
G36*
X75394898Y-139027851D02*
G01*
X75578886Y-139104062D01*
X75578888Y-139104063D01*
X75744475Y-139214705D01*
X75885295Y-139355525D01*
X75995937Y-139521112D01*
X75995938Y-139521114D01*
X76072149Y-139705102D01*
X76111000Y-139900424D01*
X76111000Y-140099576D01*
X76072149Y-140294898D01*
X75995938Y-140478886D01*
X75995937Y-140478888D01*
X75885295Y-140644475D01*
X75744475Y-140785295D01*
X75578888Y-140895937D01*
X75578887Y-140895938D01*
X75578886Y-140895938D01*
X75394898Y-140972149D01*
X75199576Y-141011000D01*
X75000424Y-141011000D01*
X74805102Y-140972149D01*
X74621114Y-140895938D01*
X74621113Y-140895938D01*
X74621112Y-140895937D01*
X74455525Y-140785295D01*
X74314705Y-140644475D01*
X74204063Y-140478888D01*
X74204062Y-140478886D01*
X74127851Y-140294898D01*
X74089000Y-140099576D01*
X74089000Y-139900424D01*
X74127851Y-139705102D01*
X74204062Y-139521114D01*
X74204063Y-139521112D01*
X74314705Y-139355525D01*
X74455525Y-139214705D01*
X74621112Y-139104063D01*
X74621114Y-139104062D01*
X74805102Y-139027851D01*
X75000424Y-138989000D01*
X75199576Y-138989000D01*
X75394898Y-139027851D01*
G37*
G36*
X83394898Y-139027851D02*
G01*
X83578886Y-139104062D01*
X83578888Y-139104063D01*
X83744475Y-139214705D01*
X83885295Y-139355525D01*
X83995937Y-139521112D01*
X83995938Y-139521114D01*
X84072149Y-139705102D01*
X84111000Y-139900424D01*
X84111000Y-140099576D01*
X84072149Y-140294898D01*
X83995938Y-140478886D01*
X83995937Y-140478888D01*
X83885295Y-140644475D01*
X83744475Y-140785295D01*
X83578888Y-140895937D01*
X83578887Y-140895938D01*
X83578886Y-140895938D01*
X83394898Y-140972149D01*
X83199576Y-141011000D01*
X83000424Y-141011000D01*
X82805102Y-140972149D01*
X82621114Y-140895938D01*
X82621113Y-140895938D01*
X82621112Y-140895937D01*
X82455525Y-140785295D01*
X82314705Y-140644475D01*
X82204063Y-140478888D01*
X82204062Y-140478886D01*
X82127851Y-140294898D01*
X82089000Y-140099576D01*
X82089000Y-139900424D01*
X82127851Y-139705102D01*
X82204062Y-139521114D01*
X82204063Y-139521112D01*
X82314705Y-139355525D01*
X82455525Y-139214705D01*
X82621112Y-139104063D01*
X82621114Y-139104062D01*
X82805102Y-139027851D01*
X83000424Y-138989000D01*
X83199576Y-138989000D01*
X83394898Y-139027851D01*
G37*
G36*
X81094898Y-139027851D02*
G01*
X81278886Y-139104062D01*
X81278888Y-139104063D01*
X81444475Y-139214705D01*
X81585295Y-139355525D01*
X81695937Y-139521112D01*
X81695938Y-139521114D01*
X81772149Y-139705102D01*
X81811000Y-139900424D01*
X81811000Y-140099576D01*
X81772149Y-140294898D01*
X81695938Y-140478886D01*
X81695937Y-140478888D01*
X81585295Y-140644475D01*
X81444475Y-140785295D01*
X81278888Y-140895937D01*
X81278887Y-140895938D01*
X81278886Y-140895938D01*
X81094898Y-140972149D01*
X80899576Y-141011000D01*
X80700424Y-141011000D01*
X80505102Y-140972149D01*
X80321114Y-140895938D01*
X80321113Y-140895938D01*
X80321112Y-140895937D01*
X80155525Y-140785295D01*
X80014705Y-140644475D01*
X79904063Y-140478888D01*
X79904062Y-140478886D01*
X79827851Y-140294898D01*
X79789000Y-140099576D01*
X79789000Y-139900424D01*
X79827851Y-139705102D01*
X79904062Y-139521114D01*
X79904063Y-139521112D01*
X80014705Y-139355525D01*
X80155525Y-139214705D01*
X80321112Y-139104063D01*
X80321114Y-139104062D01*
X80505102Y-139027851D01*
X80700424Y-138989000D01*
X80899576Y-138989000D01*
X81094898Y-139027851D01*
G37*
G36*
X79511000Y-141011000D02*
G01*
X77489000Y-141011000D01*
X77489000Y-138989000D01*
X79511000Y-138989000D01*
X79511000Y-141011000D01*
G37*
G36*
X101326366Y-136215695D02*
G01*
X101483460Y-136263349D01*
X101628231Y-136340731D01*
X101755128Y-136444872D01*
X101859269Y-136571769D01*
X101936651Y-136716540D01*
X101984305Y-136873634D01*
X102001000Y-137043140D01*
X102001000Y-138956860D01*
X101984305Y-139126366D01*
X101936651Y-139283460D01*
X101859269Y-139428231D01*
X101755128Y-139555128D01*
X101628231Y-139659269D01*
X101483460Y-139736651D01*
X101326366Y-139784305D01*
X101156860Y-139801000D01*
X99243140Y-139801000D01*
X99073634Y-139784305D01*
X98916540Y-139736651D01*
X98771769Y-139659269D01*
X98644872Y-139555128D01*
X98540731Y-139428231D01*
X98463349Y-139283460D01*
X98415695Y-139126366D01*
X98399000Y-138956860D01*
X98399000Y-137043140D01*
X98415695Y-136873634D01*
X98463349Y-136716540D01*
X98540731Y-136571769D01*
X98644872Y-136444872D01*
X98771769Y-136340731D01*
X98916540Y-136263349D01*
X99073634Y-136215695D01*
X99243140Y-136199000D01*
X101156860Y-136199000D01*
X101326366Y-136215695D01*
G37*
G36*
X97301000Y-136801000D02*
G01*
X93699000Y-136801000D01*
X93699000Y-133199000D01*
X97301000Y-133199000D01*
X97301000Y-136801000D01*
G37*
G36*
X65094898Y-134527851D02*
G01*
X65278886Y-134604062D01*
X65278888Y-134604063D01*
X65444475Y-134714705D01*
X65585295Y-134855525D01*
X65585296Y-134855527D01*
X65695938Y-135021114D01*
X65772149Y-135205102D01*
X65811000Y-135400424D01*
X65811000Y-135599576D01*
X65772149Y-135794898D01*
X65695938Y-135978886D01*
X65695937Y-135978888D01*
X65585295Y-136144475D01*
X65444475Y-136285295D01*
X65278888Y-136395937D01*
X65278887Y-136395938D01*
X65278886Y-136395938D01*
X65094898Y-136472149D01*
X64899576Y-136511000D01*
X64700424Y-136511000D01*
X64505102Y-136472149D01*
X64321114Y-136395938D01*
X64321113Y-136395938D01*
X64321112Y-136395937D01*
X64155525Y-136285295D01*
X64014705Y-136144475D01*
X63904063Y-135978888D01*
X63904062Y-135978886D01*
X63827851Y-135794898D01*
X63789000Y-135599576D01*
X63789000Y-135400424D01*
X63827851Y-135205102D01*
X63904062Y-135021114D01*
X64014704Y-134855527D01*
X64014705Y-134855525D01*
X64155525Y-134714705D01*
X64321112Y-134604063D01*
X64321114Y-134604062D01*
X64505102Y-134527851D01*
X64700424Y-134489000D01*
X64899576Y-134489000D01*
X65094898Y-134527851D01*
G37*
G36*
X73094898Y-134527851D02*
G01*
X73278886Y-134604062D01*
X73278888Y-134604063D01*
X73444475Y-134714705D01*
X73585295Y-134855525D01*
X73585296Y-134855527D01*
X73695938Y-135021114D01*
X73772149Y-135205102D01*
X73811000Y-135400424D01*
X73811000Y-135599576D01*
X73772149Y-135794898D01*
X73695938Y-135978886D01*
X73695937Y-135978888D01*
X73585295Y-136144475D01*
X73444475Y-136285295D01*
X73278888Y-136395937D01*
X73278887Y-136395938D01*
X73278886Y-136395938D01*
X73094898Y-136472149D01*
X72899576Y-136511000D01*
X72700424Y-136511000D01*
X72505102Y-136472149D01*
X72321114Y-136395938D01*
X72321113Y-136395938D01*
X72321112Y-136395937D01*
X72155525Y-136285295D01*
X72014705Y-136144475D01*
X71904063Y-135978888D01*
X71904062Y-135978886D01*
X71827851Y-135794898D01*
X71789000Y-135599576D01*
X71789000Y-135400424D01*
X71827851Y-135205102D01*
X71904062Y-135021114D01*
X72014704Y-134855527D01*
X72014705Y-134855525D01*
X72155525Y-134714705D01*
X72321112Y-134604063D01*
X72321114Y-134604062D01*
X72505102Y-134527851D01*
X72700424Y-134489000D01*
X72899576Y-134489000D01*
X73094898Y-134527851D01*
G37*
G36*
X63511000Y-136511000D02*
G01*
X61489000Y-136511000D01*
X61489000Y-134489000D01*
X63511000Y-134489000D01*
X63511000Y-136511000D01*
G37*
G36*
X71511000Y-136511000D02*
G01*
X69489000Y-136511000D01*
X69489000Y-134489000D01*
X71511000Y-134489000D01*
X71511000Y-136511000D01*
G37*
G36*
X79511000Y-136511000D02*
G01*
X77489000Y-136511000D01*
X77489000Y-134489000D01*
X79511000Y-134489000D01*
X79511000Y-136511000D01*
G37*
G36*
X81094898Y-134527851D02*
G01*
X81278886Y-134604062D01*
X81278888Y-134604063D01*
X81444475Y-134714705D01*
X81585295Y-134855525D01*
X81585296Y-134855527D01*
X81695938Y-135021114D01*
X81772149Y-135205102D01*
X81811000Y-135400424D01*
X81811000Y-135599576D01*
X81772149Y-135794898D01*
X81695938Y-135978886D01*
X81695937Y-135978888D01*
X81585295Y-136144475D01*
X81444475Y-136285295D01*
X81278888Y-136395937D01*
X81278887Y-136395938D01*
X81278886Y-136395938D01*
X81094898Y-136472149D01*
X80899576Y-136511000D01*
X80700424Y-136511000D01*
X80505102Y-136472149D01*
X80321114Y-136395938D01*
X80321113Y-136395938D01*
X80321112Y-136395937D01*
X80155525Y-136285295D01*
X80014705Y-136144475D01*
X79904063Y-135978888D01*
X79904062Y-135978886D01*
X79827851Y-135794898D01*
X79789000Y-135599576D01*
X79789000Y-135400424D01*
X79827851Y-135205102D01*
X79904062Y-135021114D01*
X80014704Y-134855527D01*
X80014705Y-134855525D01*
X80155525Y-134714705D01*
X80321112Y-134604063D01*
X80321114Y-134604062D01*
X80505102Y-134527851D01*
X80700424Y-134489000D01*
X80899576Y-134489000D01*
X81094898Y-134527851D01*
G37*
G36*
X67394898Y-134527851D02*
G01*
X67578886Y-134604062D01*
X67578888Y-134604063D01*
X67744475Y-134714705D01*
X67885295Y-134855525D01*
X67885296Y-134855527D01*
X67995938Y-135021114D01*
X68072149Y-135205102D01*
X68111000Y-135400424D01*
X68111000Y-135599576D01*
X68072149Y-135794898D01*
X67995938Y-135978886D01*
X67995937Y-135978888D01*
X67885295Y-136144475D01*
X67744475Y-136285295D01*
X67578888Y-136395937D01*
X67578887Y-136395938D01*
X67578886Y-136395938D01*
X67394898Y-136472149D01*
X67199576Y-136511000D01*
X67000424Y-136511000D01*
X66805102Y-136472149D01*
X66621114Y-136395938D01*
X66621113Y-136395938D01*
X66621112Y-136395937D01*
X66455525Y-136285295D01*
X66314705Y-136144475D01*
X66204063Y-135978888D01*
X66204062Y-135978886D01*
X66127851Y-135794898D01*
X66089000Y-135599576D01*
X66089000Y-135400424D01*
X66127851Y-135205102D01*
X66204062Y-135021114D01*
X66314704Y-134855527D01*
X66314705Y-134855525D01*
X66455525Y-134714705D01*
X66621112Y-134604063D01*
X66621114Y-134604062D01*
X66805102Y-134527851D01*
X67000424Y-134489000D01*
X67199576Y-134489000D01*
X67394898Y-134527851D01*
G37*
G36*
X83394898Y-134527851D02*
G01*
X83578886Y-134604062D01*
X83578888Y-134604063D01*
X83744475Y-134714705D01*
X83885295Y-134855525D01*
X83885296Y-134855527D01*
X83995938Y-135021114D01*
X84072149Y-135205102D01*
X84111000Y-135400424D01*
X84111000Y-135599576D01*
X84072149Y-135794898D01*
X83995938Y-135978886D01*
X83995937Y-135978888D01*
X83885295Y-136144475D01*
X83744475Y-136285295D01*
X83578888Y-136395937D01*
X83578887Y-136395938D01*
X83578886Y-136395938D01*
X83394898Y-136472149D01*
X83199576Y-136511000D01*
X83000424Y-136511000D01*
X82805102Y-136472149D01*
X82621114Y-136395938D01*
X82621113Y-136395938D01*
X82621112Y-136395937D01*
X82455525Y-136285295D01*
X82314705Y-136144475D01*
X82204063Y-135978888D01*
X82204062Y-135978886D01*
X82127851Y-135794898D01*
X82089000Y-135599576D01*
X82089000Y-135400424D01*
X82127851Y-135205102D01*
X82204062Y-135021114D01*
X82314704Y-134855527D01*
X82314705Y-134855525D01*
X82455525Y-134714705D01*
X82621112Y-134604063D01*
X82621114Y-134604062D01*
X82805102Y-134527851D01*
X83000424Y-134489000D01*
X83199576Y-134489000D01*
X83394898Y-134527851D01*
G37*
G36*
X75394898Y-134527851D02*
G01*
X75578886Y-134604062D01*
X75578888Y-134604063D01*
X75744475Y-134714705D01*
X75885295Y-134855525D01*
X75885296Y-134855527D01*
X75995938Y-135021114D01*
X76072149Y-135205102D01*
X76111000Y-135400424D01*
X76111000Y-135599576D01*
X76072149Y-135794898D01*
X75995938Y-135978886D01*
X75995937Y-135978888D01*
X75885295Y-136144475D01*
X75744475Y-136285295D01*
X75578888Y-136395937D01*
X75578887Y-136395938D01*
X75578886Y-136395938D01*
X75394898Y-136472149D01*
X75199576Y-136511000D01*
X75000424Y-136511000D01*
X74805102Y-136472149D01*
X74621114Y-136395938D01*
X74621113Y-136395938D01*
X74621112Y-136395937D01*
X74455525Y-136285295D01*
X74314705Y-136144475D01*
X74204063Y-135978888D01*
X74204062Y-135978886D01*
X74127851Y-135794898D01*
X74089000Y-135599576D01*
X74089000Y-135400424D01*
X74127851Y-135205102D01*
X74204062Y-135021114D01*
X74314704Y-134855527D01*
X74314705Y-134855525D01*
X74455525Y-134714705D01*
X74621112Y-134604063D01*
X74621114Y-134604062D01*
X74805102Y-134527851D01*
X75000424Y-134489000D01*
X75199576Y-134489000D01*
X75394898Y-134527851D01*
G37*
G36*
X98394072Y-123700918D02*
G01*
X98639939Y-123802759D01*
X98861212Y-123950610D01*
X99049390Y-124138788D01*
X99197077Y-124359815D01*
X99197242Y-124360063D01*
X99299082Y-124605928D01*
X99351000Y-124866937D01*
X99351000Y-125133063D01*
X99299082Y-125394072D01*
X99253967Y-125502991D01*
X99197241Y-125639939D01*
X99049390Y-125861212D01*
X98861212Y-126049390D01*
X98639939Y-126197241D01*
X98639938Y-126197242D01*
X98639937Y-126197242D01*
X98394072Y-126299082D01*
X98133063Y-126351000D01*
X97866937Y-126351000D01*
X97605928Y-126299082D01*
X97360063Y-126197242D01*
X97360062Y-126197242D01*
X97360061Y-126197241D01*
X97138788Y-126049390D01*
X96950610Y-125861212D01*
X96802759Y-125639939D01*
X96746034Y-125502991D01*
X96700918Y-125394072D01*
X96649000Y-125133063D01*
X96649000Y-124866937D01*
X96700918Y-124605928D01*
X96802758Y-124360063D01*
X96802924Y-124359815D01*
X96950610Y-124138788D01*
X97138788Y-123950610D01*
X97360061Y-123802759D01*
X97605928Y-123700918D01*
X97866937Y-123649000D01*
X98133063Y-123649000D01*
X98394072Y-123700918D01*
G37*
G36*
X93394072Y-123700918D02*
G01*
X93639939Y-123802759D01*
X93861212Y-123950610D01*
X94049390Y-124138788D01*
X94197077Y-124359815D01*
X94197242Y-124360063D01*
X94299082Y-124605928D01*
X94351000Y-124866937D01*
X94351000Y-125133063D01*
X94299082Y-125394072D01*
X94253967Y-125502991D01*
X94197241Y-125639939D01*
X94049390Y-125861212D01*
X93861212Y-126049390D01*
X93639939Y-126197241D01*
X93639938Y-126197242D01*
X93639937Y-126197242D01*
X93394072Y-126299082D01*
X93133063Y-126351000D01*
X92866937Y-126351000D01*
X92605928Y-126299082D01*
X92360063Y-126197242D01*
X92360062Y-126197242D01*
X92360061Y-126197241D01*
X92138788Y-126049390D01*
X91950610Y-125861212D01*
X91802759Y-125639939D01*
X91746034Y-125502991D01*
X91700918Y-125394072D01*
X91649000Y-125133063D01*
X91649000Y-124866937D01*
X91700918Y-124605928D01*
X91802758Y-124360063D01*
X91802924Y-124359815D01*
X91950610Y-124138788D01*
X92138788Y-123950610D01*
X92360061Y-123802759D01*
X92605928Y-123700918D01*
X92866937Y-123649000D01*
X93133063Y-123649000D01*
X93394072Y-123700918D01*
G37*
G36*
X83644072Y-123700918D02*
G01*
X83889939Y-123802759D01*
X84111212Y-123950610D01*
X84299390Y-124138788D01*
X84447077Y-124359815D01*
X84447242Y-124360063D01*
X84549082Y-124605928D01*
X84601000Y-124866937D01*
X84601000Y-125133063D01*
X84549082Y-125394072D01*
X84503967Y-125502991D01*
X84447241Y-125639939D01*
X84299390Y-125861212D01*
X84111212Y-126049390D01*
X83889939Y-126197241D01*
X83889938Y-126197242D01*
X83889937Y-126197242D01*
X83644072Y-126299082D01*
X83383063Y-126351000D01*
X83116937Y-126351000D01*
X82855928Y-126299082D01*
X82610063Y-126197242D01*
X82610062Y-126197242D01*
X82610061Y-126197241D01*
X82388788Y-126049390D01*
X82200610Y-125861212D01*
X82052759Y-125639939D01*
X81996034Y-125502991D01*
X81950918Y-125394072D01*
X81899000Y-125133063D01*
X81899000Y-124866937D01*
X81950918Y-124605928D01*
X82052758Y-124360063D01*
X82052924Y-124359815D01*
X82200610Y-124138788D01*
X82388788Y-123950610D01*
X82610061Y-123802759D01*
X82855928Y-123700918D01*
X83116937Y-123649000D01*
X83383063Y-123649000D01*
X83644072Y-123700918D01*
G37*
G36*
X78644072Y-123700918D02*
G01*
X78889939Y-123802759D01*
X79111212Y-123950610D01*
X79299390Y-124138788D01*
X79447077Y-124359815D01*
X79447242Y-124360063D01*
X79549082Y-124605928D01*
X79601000Y-124866937D01*
X79601000Y-125133063D01*
X79549082Y-125394072D01*
X79503967Y-125502991D01*
X79447241Y-125639939D01*
X79299390Y-125861212D01*
X79111212Y-126049390D01*
X78889939Y-126197241D01*
X78889938Y-126197242D01*
X78889937Y-126197242D01*
X78644072Y-126299082D01*
X78383063Y-126351000D01*
X78116937Y-126351000D01*
X77855928Y-126299082D01*
X77610063Y-126197242D01*
X77610062Y-126197242D01*
X77610061Y-126197241D01*
X77388788Y-126049390D01*
X77200610Y-125861212D01*
X77052759Y-125639939D01*
X76996034Y-125502991D01*
X76950918Y-125394072D01*
X76899000Y-125133063D01*
X76899000Y-124866937D01*
X76950918Y-124605928D01*
X77052758Y-124360063D01*
X77052924Y-124359815D01*
X77200610Y-124138788D01*
X77388788Y-123950610D01*
X77610061Y-123802759D01*
X77855928Y-123700918D01*
X78116937Y-123649000D01*
X78383063Y-123649000D01*
X78644072Y-123700918D01*
G37*
G36*
X65260443Y-124105519D02*
G01*
X65326627Y-124112037D01*
X65496466Y-124163557D01*
X65652991Y-124247222D01*
X65688729Y-124276552D01*
X65790186Y-124359814D01*
X65873448Y-124461271D01*
X65902778Y-124497009D01*
X65986443Y-124653534D01*
X66037963Y-124823373D01*
X66055359Y-125000000D01*
X66037963Y-125176627D01*
X65986443Y-125346466D01*
X65902778Y-125502991D01*
X65873448Y-125538729D01*
X65790186Y-125640186D01*
X65688729Y-125723448D01*
X65652991Y-125752778D01*
X65496466Y-125836443D01*
X65326627Y-125887963D01*
X65260443Y-125894481D01*
X65194260Y-125901000D01*
X64805740Y-125901000D01*
X64739557Y-125894481D01*
X64673373Y-125887963D01*
X64503534Y-125836443D01*
X64347009Y-125752778D01*
X64311271Y-125723448D01*
X64209814Y-125640186D01*
X64126552Y-125538729D01*
X64097222Y-125502991D01*
X64013557Y-125346466D01*
X63962037Y-125176627D01*
X63944641Y-125000000D01*
X63962037Y-124823373D01*
X64013557Y-124653534D01*
X64097222Y-124497009D01*
X64126552Y-124461271D01*
X64209814Y-124359814D01*
X64311271Y-124276552D01*
X64347009Y-124247222D01*
X64503534Y-124163557D01*
X64673373Y-124112037D01*
X64739557Y-124105519D01*
X64805740Y-124099000D01*
X65194260Y-124099000D01*
X65260443Y-124105519D01*
G37*
G36*
X65908600Y-121602989D02*
G01*
X65941652Y-121613015D01*
X65972103Y-121629292D01*
X65998799Y-121651201D01*
X66020708Y-121677897D01*
X66036985Y-121708348D01*
X66047011Y-121741400D01*
X66051000Y-121781903D01*
X66051000Y-123218097D01*
X66047011Y-123258600D01*
X66036985Y-123291652D01*
X66020708Y-123322103D01*
X65998799Y-123348799D01*
X65972103Y-123370708D01*
X65941652Y-123386985D01*
X65908600Y-123397011D01*
X65868097Y-123401000D01*
X64131903Y-123401000D01*
X64091400Y-123397011D01*
X64058348Y-123386985D01*
X64027897Y-123370708D01*
X64001201Y-123348799D01*
X63979292Y-123322103D01*
X63963015Y-123291652D01*
X63952989Y-123258600D01*
X63949000Y-123218097D01*
X63949000Y-121781903D01*
X63952989Y-121741400D01*
X63963015Y-121708348D01*
X63979292Y-121677897D01*
X64001201Y-121651201D01*
X64027897Y-121629292D01*
X64058348Y-121613015D01*
X64091400Y-121602989D01*
X64131903Y-121599000D01*
X65868097Y-121599000D01*
X65908600Y-121602989D01*
G37*
G36*
X69306564Y-110489389D02*
G01*
X69497833Y-110568615D01*
X69497835Y-110568616D01*
X69669973Y-110683635D01*
X69816365Y-110830027D01*
X69931385Y-111002167D01*
X70010611Y-111193436D01*
X70051000Y-111396484D01*
X70051000Y-111603516D01*
X70010611Y-111806564D01*
X69931385Y-111997833D01*
X69931384Y-111997835D01*
X69816365Y-112169973D01*
X69669973Y-112316365D01*
X69497835Y-112431384D01*
X69497834Y-112431385D01*
X69497833Y-112431385D01*
X69306564Y-112510611D01*
X69103516Y-112551000D01*
X68896484Y-112551000D01*
X68693436Y-112510611D01*
X68502167Y-112431385D01*
X68502166Y-112431385D01*
X68502165Y-112431384D01*
X68330027Y-112316365D01*
X68183635Y-112169973D01*
X68068616Y-111997835D01*
X68068615Y-111997833D01*
X67989389Y-111806564D01*
X67949000Y-111603516D01*
X67949000Y-111396484D01*
X67989389Y-111193436D01*
X68068615Y-111002167D01*
X68183635Y-110830027D01*
X68330027Y-110683635D01*
X68502165Y-110568616D01*
X68502167Y-110568615D01*
X68693436Y-110489389D01*
X68896484Y-110449000D01*
X69103516Y-110449000D01*
X69306564Y-110489389D01*
G37*
G36*
X62806564Y-110489389D02*
G01*
X62997833Y-110568615D01*
X62997835Y-110568616D01*
X63169973Y-110683635D01*
X63316365Y-110830027D01*
X63431385Y-111002167D01*
X63510611Y-111193436D01*
X63551000Y-111396484D01*
X63551000Y-111603516D01*
X63510611Y-111806564D01*
X63431385Y-111997833D01*
X63431384Y-111997835D01*
X63316365Y-112169973D01*
X63169973Y-112316365D01*
X62997835Y-112431384D01*
X62997834Y-112431385D01*
X62997833Y-112431385D01*
X62806564Y-112510611D01*
X62603516Y-112551000D01*
X62396484Y-112551000D01*
X62193436Y-112510611D01*
X62002167Y-112431385D01*
X62002166Y-112431385D01*
X62002165Y-112431384D01*
X61830027Y-112316365D01*
X61683635Y-112169973D01*
X61568616Y-111997835D01*
X61568615Y-111997833D01*
X61489389Y-111806564D01*
X61449000Y-111603516D01*
X61449000Y-111396484D01*
X61489389Y-111193436D01*
X61568615Y-111002167D01*
X61683635Y-110830027D01*
X61830027Y-110683635D01*
X62002165Y-110568616D01*
X62002167Y-110568615D01*
X62193436Y-110489389D01*
X62396484Y-110449000D01*
X62603516Y-110449000D01*
X62806564Y-110489389D01*
G37*
G36*
X83556564Y-108239389D02*
G01*
X83747833Y-108318615D01*
X83747835Y-108318616D01*
X83919973Y-108433635D01*
X84066365Y-108580027D01*
X84181385Y-108752167D01*
X84260611Y-108943436D01*
X84301000Y-109146484D01*
X84301000Y-109353516D01*
X84260611Y-109556564D01*
X84181385Y-109747833D01*
X84181384Y-109747835D01*
X84066365Y-109919973D01*
X83919973Y-110066365D01*
X83747835Y-110181384D01*
X83747834Y-110181385D01*
X83747833Y-110181385D01*
X83556564Y-110260611D01*
X83353516Y-110301000D01*
X83146484Y-110301000D01*
X82943436Y-110260611D01*
X82752167Y-110181385D01*
X82752166Y-110181385D01*
X82752165Y-110181384D01*
X82580027Y-110066365D01*
X82433635Y-109919973D01*
X82318616Y-109747835D01*
X82318615Y-109747833D01*
X82239389Y-109556564D01*
X82199000Y-109353516D01*
X82199000Y-109146484D01*
X82239389Y-108943436D01*
X82318615Y-108752167D01*
X82433635Y-108580027D01*
X82580027Y-108433635D01*
X82752165Y-108318616D01*
X82752167Y-108318615D01*
X82943436Y-108239389D01*
X83146484Y-108199000D01*
X83353516Y-108199000D01*
X83556564Y-108239389D01*
G37*
G36*
X94051000Y-110301000D02*
G01*
X91949000Y-110301000D01*
X91949000Y-108199000D01*
X94051000Y-108199000D01*
X94051000Y-110301000D01*
G37*
G36*
X79301000Y-110301000D02*
G01*
X77199000Y-110301000D01*
X77199000Y-108199000D01*
X79301000Y-108199000D01*
X79301000Y-110301000D01*
G37*
G36*
X98306564Y-108239389D02*
G01*
X98497833Y-108318615D01*
X98497835Y-108318616D01*
X98669973Y-108433635D01*
X98816365Y-108580027D01*
X98931385Y-108752167D01*
X99010611Y-108943436D01*
X99051000Y-109146484D01*
X99051000Y-109353516D01*
X99010611Y-109556564D01*
X98931385Y-109747833D01*
X98931384Y-109747835D01*
X98816365Y-109919973D01*
X98669973Y-110066365D01*
X98497835Y-110181384D01*
X98497834Y-110181385D01*
X98497833Y-110181385D01*
X98306564Y-110260611D01*
X98103516Y-110301000D01*
X97896484Y-110301000D01*
X97693436Y-110260611D01*
X97502167Y-110181385D01*
X97502166Y-110181385D01*
X97502165Y-110181384D01*
X97330027Y-110066365D01*
X97183635Y-109919973D01*
X97068616Y-109747835D01*
X97068615Y-109747833D01*
X96989389Y-109556564D01*
X96949000Y-109353516D01*
X96949000Y-109146484D01*
X96989389Y-108943436D01*
X97068615Y-108752167D01*
X97183635Y-108580027D01*
X97330027Y-108433635D01*
X97502165Y-108318616D01*
X97502167Y-108318615D01*
X97693436Y-108239389D01*
X97896484Y-108199000D01*
X98103516Y-108199000D01*
X98306564Y-108239389D01*
G37*
G36*
X62806564Y-105989389D02*
G01*
X62997833Y-106068615D01*
X62997835Y-106068616D01*
X63169973Y-106183635D01*
X63316365Y-106330027D01*
X63431385Y-106502167D01*
X63510611Y-106693436D01*
X63551000Y-106896484D01*
X63551000Y-107103516D01*
X63510611Y-107306564D01*
X63431385Y-107497833D01*
X63431384Y-107497835D01*
X63316365Y-107669973D01*
X63169973Y-107816365D01*
X62997835Y-107931384D01*
X62997834Y-107931385D01*
X62997833Y-107931385D01*
X62806564Y-108010611D01*
X62603516Y-108051000D01*
X62396484Y-108051000D01*
X62193436Y-108010611D01*
X62002167Y-107931385D01*
X62002166Y-107931385D01*
X62002165Y-107931384D01*
X61830027Y-107816365D01*
X61683635Y-107669973D01*
X61568616Y-107497835D01*
X61568615Y-107497833D01*
X61489389Y-107306564D01*
X61449000Y-107103516D01*
X61449000Y-106896484D01*
X61489389Y-106693436D01*
X61568615Y-106502167D01*
X61683635Y-106330027D01*
X61830027Y-106183635D01*
X62002165Y-106068616D01*
X62002167Y-106068615D01*
X62193436Y-105989389D01*
X62396484Y-105949000D01*
X62603516Y-105949000D01*
X62806564Y-105989389D01*
G37*
G36*
X69306564Y-105989389D02*
G01*
X69497833Y-106068615D01*
X69497835Y-106068616D01*
X69669973Y-106183635D01*
X69816365Y-106330027D01*
X69931385Y-106502167D01*
X70010611Y-106693436D01*
X70051000Y-106896484D01*
X70051000Y-107103516D01*
X70010611Y-107306564D01*
X69931385Y-107497833D01*
X69931384Y-107497835D01*
X69816365Y-107669973D01*
X69669973Y-107816365D01*
X69497835Y-107931384D01*
X69497834Y-107931385D01*
X69497833Y-107931385D01*
X69306564Y-108010611D01*
X69103516Y-108051000D01*
X68896484Y-108051000D01*
X68693436Y-108010611D01*
X68502167Y-107931385D01*
X68502166Y-107931385D01*
X68502165Y-107931384D01*
X68330027Y-107816365D01*
X68183635Y-107669973D01*
X68068616Y-107497835D01*
X68068615Y-107497833D01*
X67989389Y-107306564D01*
X67949000Y-107103516D01*
X67949000Y-106896484D01*
X67989389Y-106693436D01*
X68068615Y-106502167D01*
X68183635Y-106330027D01*
X68330027Y-106183635D01*
X68502165Y-106068616D01*
X68502167Y-106068615D01*
X68693436Y-105989389D01*
X68896484Y-105949000D01*
X69103516Y-105949000D01*
X69306564Y-105989389D01*
G37*
G36*
X104203512Y-97873927D02*
G01*
X104352812Y-97903624D01*
X104516784Y-97971544D01*
X104664354Y-98070147D01*
X104789853Y-98195646D01*
X104888456Y-98343216D01*
X104956376Y-98507188D01*
X104991000Y-98681259D01*
X104991000Y-98858741D01*
X104956376Y-99032812D01*
X104888456Y-99196784D01*
X104789853Y-99344354D01*
X104664354Y-99469853D01*
X104516784Y-99568456D01*
X104352812Y-99636376D01*
X104203512Y-99666073D01*
X104178742Y-99671000D01*
X104001258Y-99671000D01*
X103976488Y-99666073D01*
X103827188Y-99636376D01*
X103663216Y-99568456D01*
X103515646Y-99469853D01*
X103390147Y-99344354D01*
X103291544Y-99196784D01*
X103223624Y-99032812D01*
X103189000Y-98858741D01*
X103189000Y-98681259D01*
X103223624Y-98507188D01*
X103291544Y-98343216D01*
X103390147Y-98195646D01*
X103515646Y-98070147D01*
X103663216Y-97971544D01*
X103827188Y-97903624D01*
X103976488Y-97873927D01*
X104001258Y-97869000D01*
X104178742Y-97869000D01*
X104203512Y-97873927D01*
G37*
G36*
X63563512Y-97873927D02*
G01*
X63712812Y-97903624D01*
X63876784Y-97971544D01*
X64024354Y-98070147D01*
X64149853Y-98195646D01*
X64248456Y-98343216D01*
X64316376Y-98507188D01*
X64351000Y-98681259D01*
X64351000Y-98858741D01*
X64316376Y-99032812D01*
X64248456Y-99196784D01*
X64149853Y-99344354D01*
X64024354Y-99469853D01*
X63876784Y-99568456D01*
X63712812Y-99636376D01*
X63563512Y-99666073D01*
X63538742Y-99671000D01*
X63361258Y-99671000D01*
X63336488Y-99666073D01*
X63187188Y-99636376D01*
X63023216Y-99568456D01*
X62875646Y-99469853D01*
X62750147Y-99344354D01*
X62651544Y-99196784D01*
X62583624Y-99032812D01*
X62549000Y-98858741D01*
X62549000Y-98681259D01*
X62583624Y-98507188D01*
X62651544Y-98343216D01*
X62750147Y-98195646D01*
X62875646Y-98070147D01*
X63023216Y-97971544D01*
X63187188Y-97903624D01*
X63336488Y-97873927D01*
X63361258Y-97869000D01*
X63538742Y-97869000D01*
X63563512Y-97873927D01*
G37*
G36*
X66103512Y-97873927D02*
G01*
X66252812Y-97903624D01*
X66416784Y-97971544D01*
X66564354Y-98070147D01*
X66689853Y-98195646D01*
X66788456Y-98343216D01*
X66856376Y-98507188D01*
X66891000Y-98681259D01*
X66891000Y-98858741D01*
X66856376Y-99032812D01*
X66788456Y-99196784D01*
X66689853Y-99344354D01*
X66564354Y-99469853D01*
X66416784Y-99568456D01*
X66252812Y-99636376D01*
X66103512Y-99666073D01*
X66078742Y-99671000D01*
X65901258Y-99671000D01*
X65876488Y-99666073D01*
X65727188Y-99636376D01*
X65563216Y-99568456D01*
X65415646Y-99469853D01*
X65290147Y-99344354D01*
X65191544Y-99196784D01*
X65123624Y-99032812D01*
X65089000Y-98858741D01*
X65089000Y-98681259D01*
X65123624Y-98507188D01*
X65191544Y-98343216D01*
X65290147Y-98195646D01*
X65415646Y-98070147D01*
X65563216Y-97971544D01*
X65727188Y-97903624D01*
X65876488Y-97873927D01*
X65901258Y-97869000D01*
X66078742Y-97869000D01*
X66103512Y-97873927D01*
G37*
G36*
X68643512Y-97873927D02*
G01*
X68792812Y-97903624D01*
X68956784Y-97971544D01*
X69104354Y-98070147D01*
X69229853Y-98195646D01*
X69328456Y-98343216D01*
X69396376Y-98507188D01*
X69431000Y-98681259D01*
X69431000Y-98858741D01*
X69396376Y-99032812D01*
X69328456Y-99196784D01*
X69229853Y-99344354D01*
X69104354Y-99469853D01*
X68956784Y-99568456D01*
X68792812Y-99636376D01*
X68643512Y-99666073D01*
X68618742Y-99671000D01*
X68441258Y-99671000D01*
X68416488Y-99666073D01*
X68267188Y-99636376D01*
X68103216Y-99568456D01*
X67955646Y-99469853D01*
X67830147Y-99344354D01*
X67731544Y-99196784D01*
X67663624Y-99032812D01*
X67629000Y-98858741D01*
X67629000Y-98681259D01*
X67663624Y-98507188D01*
X67731544Y-98343216D01*
X67830147Y-98195646D01*
X67955646Y-98070147D01*
X68103216Y-97971544D01*
X68267188Y-97903624D01*
X68416488Y-97873927D01*
X68441258Y-97869000D01*
X68618742Y-97869000D01*
X68643512Y-97873927D01*
G37*
G36*
X71183512Y-97873927D02*
G01*
X71332812Y-97903624D01*
X71496784Y-97971544D01*
X71644354Y-98070147D01*
X71769853Y-98195646D01*
X71868456Y-98343216D01*
X71936376Y-98507188D01*
X71971000Y-98681259D01*
X71971000Y-98858741D01*
X71936376Y-99032812D01*
X71868456Y-99196784D01*
X71769853Y-99344354D01*
X71644354Y-99469853D01*
X71496784Y-99568456D01*
X71332812Y-99636376D01*
X71183512Y-99666073D01*
X71158742Y-99671000D01*
X70981258Y-99671000D01*
X70956488Y-99666073D01*
X70807188Y-99636376D01*
X70643216Y-99568456D01*
X70495646Y-99469853D01*
X70370147Y-99344354D01*
X70271544Y-99196784D01*
X70203624Y-99032812D01*
X70169000Y-98858741D01*
X70169000Y-98681259D01*
X70203624Y-98507188D01*
X70271544Y-98343216D01*
X70370147Y-98195646D01*
X70495646Y-98070147D01*
X70643216Y-97971544D01*
X70807188Y-97903624D01*
X70956488Y-97873927D01*
X70981258Y-97869000D01*
X71158742Y-97869000D01*
X71183512Y-97873927D01*
G37*
G36*
X73723512Y-97873927D02*
G01*
X73872812Y-97903624D01*
X74036784Y-97971544D01*
X74184354Y-98070147D01*
X74309853Y-98195646D01*
X74408456Y-98343216D01*
X74476376Y-98507188D01*
X74511000Y-98681259D01*
X74511000Y-98858741D01*
X74476376Y-99032812D01*
X74408456Y-99196784D01*
X74309853Y-99344354D01*
X74184354Y-99469853D01*
X74036784Y-99568456D01*
X73872812Y-99636376D01*
X73723512Y-99666073D01*
X73698742Y-99671000D01*
X73521258Y-99671000D01*
X73496488Y-99666073D01*
X73347188Y-99636376D01*
X73183216Y-99568456D01*
X73035646Y-99469853D01*
X72910147Y-99344354D01*
X72811544Y-99196784D01*
X72743624Y-99032812D01*
X72709000Y-98858741D01*
X72709000Y-98681259D01*
X72743624Y-98507188D01*
X72811544Y-98343216D01*
X72910147Y-98195646D01*
X73035646Y-98070147D01*
X73183216Y-97971544D01*
X73347188Y-97903624D01*
X73496488Y-97873927D01*
X73521258Y-97869000D01*
X73698742Y-97869000D01*
X73723512Y-97873927D01*
G37*
G36*
X76263512Y-97873927D02*
G01*
X76412812Y-97903624D01*
X76576784Y-97971544D01*
X76724354Y-98070147D01*
X76849853Y-98195646D01*
X76948456Y-98343216D01*
X77016376Y-98507188D01*
X77051000Y-98681259D01*
X77051000Y-98858741D01*
X77016376Y-99032812D01*
X76948456Y-99196784D01*
X76849853Y-99344354D01*
X76724354Y-99469853D01*
X76576784Y-99568456D01*
X76412812Y-99636376D01*
X76263512Y-99666073D01*
X76238742Y-99671000D01*
X76061258Y-99671000D01*
X76036488Y-99666073D01*
X75887188Y-99636376D01*
X75723216Y-99568456D01*
X75575646Y-99469853D01*
X75450147Y-99344354D01*
X75351544Y-99196784D01*
X75283624Y-99032812D01*
X75249000Y-98858741D01*
X75249000Y-98681259D01*
X75283624Y-98507188D01*
X75351544Y-98343216D01*
X75450147Y-98195646D01*
X75575646Y-98070147D01*
X75723216Y-97971544D01*
X75887188Y-97903624D01*
X76036488Y-97873927D01*
X76061258Y-97869000D01*
X76238742Y-97869000D01*
X76263512Y-97873927D01*
G37*
G36*
X78803512Y-97873927D02*
G01*
X78952812Y-97903624D01*
X79116784Y-97971544D01*
X79264354Y-98070147D01*
X79389853Y-98195646D01*
X79488456Y-98343216D01*
X79556376Y-98507188D01*
X79591000Y-98681259D01*
X79591000Y-98858741D01*
X79556376Y-99032812D01*
X79488456Y-99196784D01*
X79389853Y-99344354D01*
X79264354Y-99469853D01*
X79116784Y-99568456D01*
X78952812Y-99636376D01*
X78803512Y-99666073D01*
X78778742Y-99671000D01*
X78601258Y-99671000D01*
X78576488Y-99666073D01*
X78427188Y-99636376D01*
X78263216Y-99568456D01*
X78115646Y-99469853D01*
X77990147Y-99344354D01*
X77891544Y-99196784D01*
X77823624Y-99032812D01*
X77789000Y-98858741D01*
X77789000Y-98681259D01*
X77823624Y-98507188D01*
X77891544Y-98343216D01*
X77990147Y-98195646D01*
X78115646Y-98070147D01*
X78263216Y-97971544D01*
X78427188Y-97903624D01*
X78576488Y-97873927D01*
X78601258Y-97869000D01*
X78778742Y-97869000D01*
X78803512Y-97873927D01*
G37*
G36*
X81343512Y-97873927D02*
G01*
X81492812Y-97903624D01*
X81656784Y-97971544D01*
X81804354Y-98070147D01*
X81929853Y-98195646D01*
X82028456Y-98343216D01*
X82096376Y-98507188D01*
X82131000Y-98681259D01*
X82131000Y-98858741D01*
X82096376Y-99032812D01*
X82028456Y-99196784D01*
X81929853Y-99344354D01*
X81804354Y-99469853D01*
X81656784Y-99568456D01*
X81492812Y-99636376D01*
X81343512Y-99666073D01*
X81318742Y-99671000D01*
X81141258Y-99671000D01*
X81116488Y-99666073D01*
X80967188Y-99636376D01*
X80803216Y-99568456D01*
X80655646Y-99469853D01*
X80530147Y-99344354D01*
X80431544Y-99196784D01*
X80363624Y-99032812D01*
X80329000Y-98858741D01*
X80329000Y-98681259D01*
X80363624Y-98507188D01*
X80431544Y-98343216D01*
X80530147Y-98195646D01*
X80655646Y-98070147D01*
X80803216Y-97971544D01*
X80967188Y-97903624D01*
X81116488Y-97873927D01*
X81141258Y-97869000D01*
X81318742Y-97869000D01*
X81343512Y-97873927D01*
G37*
G36*
X59271000Y-99671000D02*
G01*
X57469000Y-99671000D01*
X57469000Y-97869000D01*
X59271000Y-97869000D01*
X59271000Y-99671000D01*
G37*
G36*
X88963512Y-97873927D02*
G01*
X89112812Y-97903624D01*
X89276784Y-97971544D01*
X89424354Y-98070147D01*
X89549853Y-98195646D01*
X89648456Y-98343216D01*
X89716376Y-98507188D01*
X89751000Y-98681259D01*
X89751000Y-98858741D01*
X89716376Y-99032812D01*
X89648456Y-99196784D01*
X89549853Y-99344354D01*
X89424354Y-99469853D01*
X89276784Y-99568456D01*
X89112812Y-99636376D01*
X88963512Y-99666073D01*
X88938742Y-99671000D01*
X88761258Y-99671000D01*
X88736488Y-99666073D01*
X88587188Y-99636376D01*
X88423216Y-99568456D01*
X88275646Y-99469853D01*
X88150147Y-99344354D01*
X88051544Y-99196784D01*
X87983624Y-99032812D01*
X87949000Y-98858741D01*
X87949000Y-98681259D01*
X87983624Y-98507188D01*
X88051544Y-98343216D01*
X88150147Y-98195646D01*
X88275646Y-98070147D01*
X88423216Y-97971544D01*
X88587188Y-97903624D01*
X88736488Y-97873927D01*
X88761258Y-97869000D01*
X88938742Y-97869000D01*
X88963512Y-97873927D01*
G37*
G36*
X91503512Y-97873927D02*
G01*
X91652812Y-97903624D01*
X91816784Y-97971544D01*
X91964354Y-98070147D01*
X92089853Y-98195646D01*
X92188456Y-98343216D01*
X92256376Y-98507188D01*
X92291000Y-98681259D01*
X92291000Y-98858741D01*
X92256376Y-99032812D01*
X92188456Y-99196784D01*
X92089853Y-99344354D01*
X91964354Y-99469853D01*
X91816784Y-99568456D01*
X91652812Y-99636376D01*
X91503512Y-99666073D01*
X91478742Y-99671000D01*
X91301258Y-99671000D01*
X91276488Y-99666073D01*
X91127188Y-99636376D01*
X90963216Y-99568456D01*
X90815646Y-99469853D01*
X90690147Y-99344354D01*
X90591544Y-99196784D01*
X90523624Y-99032812D01*
X90489000Y-98858741D01*
X90489000Y-98681259D01*
X90523624Y-98507188D01*
X90591544Y-98343216D01*
X90690147Y-98195646D01*
X90815646Y-98070147D01*
X90963216Y-97971544D01*
X91127188Y-97903624D01*
X91276488Y-97873927D01*
X91301258Y-97869000D01*
X91478742Y-97869000D01*
X91503512Y-97873927D01*
G37*
G36*
X94043512Y-97873927D02*
G01*
X94192812Y-97903624D01*
X94356784Y-97971544D01*
X94504354Y-98070147D01*
X94629853Y-98195646D01*
X94728456Y-98343216D01*
X94796376Y-98507188D01*
X94831000Y-98681259D01*
X94831000Y-98858741D01*
X94796376Y-99032812D01*
X94728456Y-99196784D01*
X94629853Y-99344354D01*
X94504354Y-99469853D01*
X94356784Y-99568456D01*
X94192812Y-99636376D01*
X94043512Y-99666073D01*
X94018742Y-99671000D01*
X93841258Y-99671000D01*
X93816488Y-99666073D01*
X93667188Y-99636376D01*
X93503216Y-99568456D01*
X93355646Y-99469853D01*
X93230147Y-99344354D01*
X93131544Y-99196784D01*
X93063624Y-99032812D01*
X93029000Y-98858741D01*
X93029000Y-98681259D01*
X93063624Y-98507188D01*
X93131544Y-98343216D01*
X93230147Y-98195646D01*
X93355646Y-98070147D01*
X93503216Y-97971544D01*
X93667188Y-97903624D01*
X93816488Y-97873927D01*
X93841258Y-97869000D01*
X94018742Y-97869000D01*
X94043512Y-97873927D01*
G37*
G36*
X96583512Y-97873927D02*
G01*
X96732812Y-97903624D01*
X96896784Y-97971544D01*
X97044354Y-98070147D01*
X97169853Y-98195646D01*
X97268456Y-98343216D01*
X97336376Y-98507188D01*
X97371000Y-98681259D01*
X97371000Y-98858741D01*
X97336376Y-99032812D01*
X97268456Y-99196784D01*
X97169853Y-99344354D01*
X97044354Y-99469853D01*
X96896784Y-99568456D01*
X96732812Y-99636376D01*
X96583512Y-99666073D01*
X96558742Y-99671000D01*
X96381258Y-99671000D01*
X96356488Y-99666073D01*
X96207188Y-99636376D01*
X96043216Y-99568456D01*
X95895646Y-99469853D01*
X95770147Y-99344354D01*
X95671544Y-99196784D01*
X95603624Y-99032812D01*
X95569000Y-98858741D01*
X95569000Y-98681259D01*
X95603624Y-98507188D01*
X95671544Y-98343216D01*
X95770147Y-98195646D01*
X95895646Y-98070147D01*
X96043216Y-97971544D01*
X96207188Y-97903624D01*
X96356488Y-97873927D01*
X96381258Y-97869000D01*
X96558742Y-97869000D01*
X96583512Y-97873927D01*
G37*
G36*
X99123512Y-97873927D02*
G01*
X99272812Y-97903624D01*
X99436784Y-97971544D01*
X99584354Y-98070147D01*
X99709853Y-98195646D01*
X99808456Y-98343216D01*
X99876376Y-98507188D01*
X99911000Y-98681259D01*
X99911000Y-98858741D01*
X99876376Y-99032812D01*
X99808456Y-99196784D01*
X99709853Y-99344354D01*
X99584354Y-99469853D01*
X99436784Y-99568456D01*
X99272812Y-99636376D01*
X99123512Y-99666073D01*
X99098742Y-99671000D01*
X98921258Y-99671000D01*
X98896488Y-99666073D01*
X98747188Y-99636376D01*
X98583216Y-99568456D01*
X98435646Y-99469853D01*
X98310147Y-99344354D01*
X98211544Y-99196784D01*
X98143624Y-99032812D01*
X98109000Y-98858741D01*
X98109000Y-98681259D01*
X98143624Y-98507188D01*
X98211544Y-98343216D01*
X98310147Y-98195646D01*
X98435646Y-98070147D01*
X98583216Y-97971544D01*
X98747188Y-97903624D01*
X98896488Y-97873927D01*
X98921258Y-97869000D01*
X99098742Y-97869000D01*
X99123512Y-97873927D01*
G37*
G36*
X101663512Y-97873927D02*
G01*
X101812812Y-97903624D01*
X101976784Y-97971544D01*
X102124354Y-98070147D01*
X102249853Y-98195646D01*
X102348456Y-98343216D01*
X102416376Y-98507188D01*
X102451000Y-98681259D01*
X102451000Y-98858741D01*
X102416376Y-99032812D01*
X102348456Y-99196784D01*
X102249853Y-99344354D01*
X102124354Y-99469853D01*
X101976784Y-99568456D01*
X101812812Y-99636376D01*
X101663512Y-99666073D01*
X101638742Y-99671000D01*
X101461258Y-99671000D01*
X101436488Y-99666073D01*
X101287188Y-99636376D01*
X101123216Y-99568456D01*
X100975646Y-99469853D01*
X100850147Y-99344354D01*
X100751544Y-99196784D01*
X100683624Y-99032812D01*
X100649000Y-98858741D01*
X100649000Y-98681259D01*
X100683624Y-98507188D01*
X100751544Y-98343216D01*
X100850147Y-98195646D01*
X100975646Y-98070147D01*
X101123216Y-97971544D01*
X101287188Y-97903624D01*
X101436488Y-97873927D01*
X101461258Y-97869000D01*
X101638742Y-97869000D01*
X101663512Y-97873927D01*
G37*
G36*
X83883512Y-97873927D02*
G01*
X84032812Y-97903624D01*
X84196784Y-97971544D01*
X84344354Y-98070147D01*
X84469853Y-98195646D01*
X84568456Y-98343216D01*
X84636376Y-98507188D01*
X84671000Y-98681259D01*
X84671000Y-98858741D01*
X84636376Y-99032812D01*
X84568456Y-99196784D01*
X84469853Y-99344354D01*
X84344354Y-99469853D01*
X84196784Y-99568456D01*
X84032812Y-99636376D01*
X83883512Y-99666073D01*
X83858742Y-99671000D01*
X83681258Y-99671000D01*
X83656488Y-99666073D01*
X83507188Y-99636376D01*
X83343216Y-99568456D01*
X83195646Y-99469853D01*
X83070147Y-99344354D01*
X82971544Y-99196784D01*
X82903624Y-99032812D01*
X82869000Y-98858741D01*
X82869000Y-98681259D01*
X82903624Y-98507188D01*
X82971544Y-98343216D01*
X83070147Y-98195646D01*
X83195646Y-98070147D01*
X83343216Y-97971544D01*
X83507188Y-97903624D01*
X83656488Y-97873927D01*
X83681258Y-97869000D01*
X83858742Y-97869000D01*
X83883512Y-97873927D01*
G37*
G36*
X61023512Y-97873927D02*
G01*
X61172812Y-97903624D01*
X61336784Y-97971544D01*
X61484354Y-98070147D01*
X61609853Y-98195646D01*
X61708456Y-98343216D01*
X61776376Y-98507188D01*
X61811000Y-98681259D01*
X61811000Y-98858741D01*
X61776376Y-99032812D01*
X61708456Y-99196784D01*
X61609853Y-99344354D01*
X61484354Y-99469853D01*
X61336784Y-99568456D01*
X61172812Y-99636376D01*
X61023512Y-99666073D01*
X60998742Y-99671000D01*
X60821258Y-99671000D01*
X60796488Y-99666073D01*
X60647188Y-99636376D01*
X60483216Y-99568456D01*
X60335646Y-99469853D01*
X60210147Y-99344354D01*
X60111544Y-99196784D01*
X60043624Y-99032812D01*
X60009000Y-98858741D01*
X60009000Y-98681259D01*
X60043624Y-98507188D01*
X60111544Y-98343216D01*
X60210147Y-98195646D01*
X60335646Y-98070147D01*
X60483216Y-97971544D01*
X60647188Y-97903624D01*
X60796488Y-97873927D01*
X60821258Y-97869000D01*
X60998742Y-97869000D01*
X61023512Y-97873927D01*
G37*
G36*
X106743512Y-97873927D02*
G01*
X106892812Y-97903624D01*
X107056784Y-97971544D01*
X107204354Y-98070147D01*
X107329853Y-98195646D01*
X107428456Y-98343216D01*
X107496376Y-98507188D01*
X107531000Y-98681259D01*
X107531000Y-98858741D01*
X107496376Y-99032812D01*
X107428456Y-99196784D01*
X107329853Y-99344354D01*
X107204354Y-99469853D01*
X107056784Y-99568456D01*
X106892812Y-99636376D01*
X106743512Y-99666073D01*
X106718742Y-99671000D01*
X106541258Y-99671000D01*
X106516488Y-99666073D01*
X106367188Y-99636376D01*
X106203216Y-99568456D01*
X106055646Y-99469853D01*
X105930147Y-99344354D01*
X105831544Y-99196784D01*
X105763624Y-99032812D01*
X105729000Y-98858741D01*
X105729000Y-98681259D01*
X105763624Y-98507188D01*
X105831544Y-98343216D01*
X105930147Y-98195646D01*
X106055646Y-98070147D01*
X106203216Y-97971544D01*
X106367188Y-97903624D01*
X106516488Y-97873927D01*
X106541258Y-97869000D01*
X106718742Y-97869000D01*
X106743512Y-97873927D01*
G37*
G36*
X86423512Y-97873927D02*
G01*
X86572812Y-97903624D01*
X86736784Y-97971544D01*
X86884354Y-98070147D01*
X87009853Y-98195646D01*
X87108456Y-98343216D01*
X87176376Y-98507188D01*
X87211000Y-98681259D01*
X87211000Y-98858741D01*
X87176376Y-99032812D01*
X87108456Y-99196784D01*
X87009853Y-99344354D01*
X86884354Y-99469853D01*
X86736784Y-99568456D01*
X86572812Y-99636376D01*
X86423512Y-99666073D01*
X86398742Y-99671000D01*
X86221258Y-99671000D01*
X86196488Y-99666073D01*
X86047188Y-99636376D01*
X85883216Y-99568456D01*
X85735646Y-99469853D01*
X85610147Y-99344354D01*
X85511544Y-99196784D01*
X85443624Y-99032812D01*
X85409000Y-98858741D01*
X85409000Y-98681259D01*
X85443624Y-98507188D01*
X85511544Y-98343216D01*
X85610147Y-98195646D01*
X85735646Y-98070147D01*
X85883216Y-97971544D01*
X86047188Y-97903624D01*
X86196488Y-97873927D01*
X86221258Y-97869000D01*
X86398742Y-97869000D01*
X86423512Y-97873927D01*
G37*
G36*
X111818433Y-96134893D02*
G01*
X111908657Y-96152839D01*
X112014267Y-96196585D01*
X112163621Y-96258449D01*
X112163622Y-96258450D01*
X112393086Y-96411772D01*
X112588228Y-96606914D01*
X112690675Y-96760237D01*
X112741551Y-96836379D01*
X112847161Y-97091344D01*
X112901000Y-97362012D01*
X112901000Y-97637988D01*
X112847161Y-97908656D01*
X112741551Y-98163621D01*
X112720152Y-98195647D01*
X112588228Y-98393086D01*
X112393086Y-98588228D01*
X112253856Y-98681258D01*
X112163621Y-98741551D01*
X112014267Y-98803415D01*
X111908657Y-98847161D01*
X111818433Y-98865107D01*
X111637988Y-98901000D01*
X111362012Y-98901000D01*
X111181567Y-98865107D01*
X111091343Y-98847161D01*
X110985733Y-98803415D01*
X110836379Y-98741551D01*
X110746144Y-98681258D01*
X110606914Y-98588228D01*
X110411772Y-98393086D01*
X110279848Y-98195647D01*
X110258449Y-98163621D01*
X110152839Y-97908656D01*
X110099000Y-97637988D01*
X110099000Y-97362012D01*
X110152839Y-97091344D01*
X110258449Y-96836379D01*
X110309325Y-96760237D01*
X110411772Y-96606914D01*
X110606914Y-96411772D01*
X110836378Y-96258450D01*
X110836379Y-96258449D01*
X110985733Y-96196585D01*
X111091343Y-96152839D01*
X111181567Y-96134893D01*
X111362012Y-96099000D01*
X111637988Y-96099000D01*
X111818433Y-96134893D01*
G37*
G36*
X53818433Y-96134893D02*
G01*
X53908657Y-96152839D01*
X54014267Y-96196585D01*
X54163621Y-96258449D01*
X54163622Y-96258450D01*
X54393086Y-96411772D01*
X54588228Y-96606914D01*
X54690675Y-96760237D01*
X54741551Y-96836379D01*
X54847161Y-97091344D01*
X54901000Y-97362012D01*
X54901000Y-97637988D01*
X54847161Y-97908656D01*
X54741551Y-98163621D01*
X54720152Y-98195647D01*
X54588228Y-98393086D01*
X54393086Y-98588228D01*
X54253856Y-98681258D01*
X54163621Y-98741551D01*
X54014267Y-98803415D01*
X53908657Y-98847161D01*
X53818433Y-98865107D01*
X53637988Y-98901000D01*
X53362012Y-98901000D01*
X53181567Y-98865107D01*
X53091343Y-98847161D01*
X52985733Y-98803415D01*
X52836379Y-98741551D01*
X52746144Y-98681258D01*
X52606914Y-98588228D01*
X52411772Y-98393086D01*
X52279848Y-98195647D01*
X52258449Y-98163621D01*
X52152839Y-97908656D01*
X52099000Y-97637988D01*
X52099000Y-97362012D01*
X52152839Y-97091344D01*
X52258449Y-96836379D01*
X52309325Y-96760237D01*
X52411772Y-96606914D01*
X52606914Y-96411772D01*
X52836378Y-96258450D01*
X52836379Y-96258449D01*
X52985733Y-96196585D01*
X53091343Y-96152839D01*
X53181567Y-96134893D01*
X53362012Y-96099000D01*
X53637988Y-96099000D01*
X53818433Y-96134893D01*
G37*
G36*
X78803512Y-95333927D02*
G01*
X78952812Y-95363624D01*
X79116784Y-95431544D01*
X79264354Y-95530147D01*
X79389853Y-95655646D01*
X79488456Y-95803216D01*
X79556376Y-95967188D01*
X79591000Y-96141259D01*
X79591000Y-96318741D01*
X79556376Y-96492812D01*
X79488456Y-96656784D01*
X79389853Y-96804354D01*
X79264354Y-96929853D01*
X79116784Y-97028456D01*
X78952812Y-97096376D01*
X78803512Y-97126073D01*
X78778742Y-97131000D01*
X78601258Y-97131000D01*
X78576488Y-97126073D01*
X78427188Y-97096376D01*
X78263216Y-97028456D01*
X78115646Y-96929853D01*
X77990147Y-96804354D01*
X77891544Y-96656784D01*
X77823624Y-96492812D01*
X77789000Y-96318741D01*
X77789000Y-96141259D01*
X77823624Y-95967188D01*
X77891544Y-95803216D01*
X77990147Y-95655646D01*
X78115646Y-95530147D01*
X78263216Y-95431544D01*
X78427188Y-95363624D01*
X78576488Y-95333927D01*
X78601258Y-95329000D01*
X78778742Y-95329000D01*
X78803512Y-95333927D01*
G37*
G36*
X73723512Y-95333927D02*
G01*
X73872812Y-95363624D01*
X74036784Y-95431544D01*
X74184354Y-95530147D01*
X74309853Y-95655646D01*
X74408456Y-95803216D01*
X74476376Y-95967188D01*
X74511000Y-96141259D01*
X74511000Y-96318741D01*
X74476376Y-96492812D01*
X74408456Y-96656784D01*
X74309853Y-96804354D01*
X74184354Y-96929853D01*
X74036784Y-97028456D01*
X73872812Y-97096376D01*
X73723512Y-97126073D01*
X73698742Y-97131000D01*
X73521258Y-97131000D01*
X73496488Y-97126073D01*
X73347188Y-97096376D01*
X73183216Y-97028456D01*
X73035646Y-96929853D01*
X72910147Y-96804354D01*
X72811544Y-96656784D01*
X72743624Y-96492812D01*
X72709000Y-96318741D01*
X72709000Y-96141259D01*
X72743624Y-95967188D01*
X72811544Y-95803216D01*
X72910147Y-95655646D01*
X73035646Y-95530147D01*
X73183216Y-95431544D01*
X73347188Y-95363624D01*
X73496488Y-95333927D01*
X73521258Y-95329000D01*
X73698742Y-95329000D01*
X73723512Y-95333927D01*
G37*
G36*
X71183512Y-95333927D02*
G01*
X71332812Y-95363624D01*
X71496784Y-95431544D01*
X71644354Y-95530147D01*
X71769853Y-95655646D01*
X71868456Y-95803216D01*
X71936376Y-95967188D01*
X71971000Y-96141259D01*
X71971000Y-96318741D01*
X71936376Y-96492812D01*
X71868456Y-96656784D01*
X71769853Y-96804354D01*
X71644354Y-96929853D01*
X71496784Y-97028456D01*
X71332812Y-97096376D01*
X71183512Y-97126073D01*
X71158742Y-97131000D01*
X70981258Y-97131000D01*
X70956488Y-97126073D01*
X70807188Y-97096376D01*
X70643216Y-97028456D01*
X70495646Y-96929853D01*
X70370147Y-96804354D01*
X70271544Y-96656784D01*
X70203624Y-96492812D01*
X70169000Y-96318741D01*
X70169000Y-96141259D01*
X70203624Y-95967188D01*
X70271544Y-95803216D01*
X70370147Y-95655646D01*
X70495646Y-95530147D01*
X70643216Y-95431544D01*
X70807188Y-95363624D01*
X70956488Y-95333927D01*
X70981258Y-95329000D01*
X71158742Y-95329000D01*
X71183512Y-95333927D01*
G37*
G36*
X68643512Y-95333927D02*
G01*
X68792812Y-95363624D01*
X68956784Y-95431544D01*
X69104354Y-95530147D01*
X69229853Y-95655646D01*
X69328456Y-95803216D01*
X69396376Y-95967188D01*
X69431000Y-96141259D01*
X69431000Y-96318741D01*
X69396376Y-96492812D01*
X69328456Y-96656784D01*
X69229853Y-96804354D01*
X69104354Y-96929853D01*
X68956784Y-97028456D01*
X68792812Y-97096376D01*
X68643512Y-97126073D01*
X68618742Y-97131000D01*
X68441258Y-97131000D01*
X68416488Y-97126073D01*
X68267188Y-97096376D01*
X68103216Y-97028456D01*
X67955646Y-96929853D01*
X67830147Y-96804354D01*
X67731544Y-96656784D01*
X67663624Y-96492812D01*
X67629000Y-96318741D01*
X67629000Y-96141259D01*
X67663624Y-95967188D01*
X67731544Y-95803216D01*
X67830147Y-95655646D01*
X67955646Y-95530147D01*
X68103216Y-95431544D01*
X68267188Y-95363624D01*
X68416488Y-95333927D01*
X68441258Y-95329000D01*
X68618742Y-95329000D01*
X68643512Y-95333927D01*
G37*
G36*
X66103512Y-95333927D02*
G01*
X66252812Y-95363624D01*
X66416784Y-95431544D01*
X66564354Y-95530147D01*
X66689853Y-95655646D01*
X66788456Y-95803216D01*
X66856376Y-95967188D01*
X66891000Y-96141259D01*
X66891000Y-96318741D01*
X66856376Y-96492812D01*
X66788456Y-96656784D01*
X66689853Y-96804354D01*
X66564354Y-96929853D01*
X66416784Y-97028456D01*
X66252812Y-97096376D01*
X66103512Y-97126073D01*
X66078742Y-97131000D01*
X65901258Y-97131000D01*
X65876488Y-97126073D01*
X65727188Y-97096376D01*
X65563216Y-97028456D01*
X65415646Y-96929853D01*
X65290147Y-96804354D01*
X65191544Y-96656784D01*
X65123624Y-96492812D01*
X65089000Y-96318741D01*
X65089000Y-96141259D01*
X65123624Y-95967188D01*
X65191544Y-95803216D01*
X65290147Y-95655646D01*
X65415646Y-95530147D01*
X65563216Y-95431544D01*
X65727188Y-95363624D01*
X65876488Y-95333927D01*
X65901258Y-95329000D01*
X66078742Y-95329000D01*
X66103512Y-95333927D01*
G37*
G36*
X63563512Y-95333927D02*
G01*
X63712812Y-95363624D01*
X63876784Y-95431544D01*
X64024354Y-95530147D01*
X64149853Y-95655646D01*
X64248456Y-95803216D01*
X64316376Y-95967188D01*
X64351000Y-96141259D01*
X64351000Y-96318741D01*
X64316376Y-96492812D01*
X64248456Y-96656784D01*
X64149853Y-96804354D01*
X64024354Y-96929853D01*
X63876784Y-97028456D01*
X63712812Y-97096376D01*
X63563512Y-97126073D01*
X63538742Y-97131000D01*
X63361258Y-97131000D01*
X63336488Y-97126073D01*
X63187188Y-97096376D01*
X63023216Y-97028456D01*
X62875646Y-96929853D01*
X62750147Y-96804354D01*
X62651544Y-96656784D01*
X62583624Y-96492812D01*
X62549000Y-96318741D01*
X62549000Y-96141259D01*
X62583624Y-95967188D01*
X62651544Y-95803216D01*
X62750147Y-95655646D01*
X62875646Y-95530147D01*
X63023216Y-95431544D01*
X63187188Y-95363624D01*
X63336488Y-95333927D01*
X63361258Y-95329000D01*
X63538742Y-95329000D01*
X63563512Y-95333927D01*
G37*
G36*
X61023512Y-95333927D02*
G01*
X61172812Y-95363624D01*
X61336784Y-95431544D01*
X61484354Y-95530147D01*
X61609853Y-95655646D01*
X61708456Y-95803216D01*
X61776376Y-95967188D01*
X61811000Y-96141259D01*
X61811000Y-96318741D01*
X61776376Y-96492812D01*
X61708456Y-96656784D01*
X61609853Y-96804354D01*
X61484354Y-96929853D01*
X61336784Y-97028456D01*
X61172812Y-97096376D01*
X61023512Y-97126073D01*
X60998742Y-97131000D01*
X60821258Y-97131000D01*
X60796488Y-97126073D01*
X60647188Y-97096376D01*
X60483216Y-97028456D01*
X60335646Y-96929853D01*
X60210147Y-96804354D01*
X60111544Y-96656784D01*
X60043624Y-96492812D01*
X60009000Y-96318741D01*
X60009000Y-96141259D01*
X60043624Y-95967188D01*
X60111544Y-95803216D01*
X60210147Y-95655646D01*
X60335646Y-95530147D01*
X60483216Y-95431544D01*
X60647188Y-95363624D01*
X60796488Y-95333927D01*
X60821258Y-95329000D01*
X60998742Y-95329000D01*
X61023512Y-95333927D01*
G37*
G36*
X58483512Y-95333927D02*
G01*
X58632812Y-95363624D01*
X58796784Y-95431544D01*
X58944354Y-95530147D01*
X59069853Y-95655646D01*
X59168456Y-95803216D01*
X59236376Y-95967188D01*
X59271000Y-96141259D01*
X59271000Y-96318741D01*
X59236376Y-96492812D01*
X59168456Y-96656784D01*
X59069853Y-96804354D01*
X58944354Y-96929853D01*
X58796784Y-97028456D01*
X58632812Y-97096376D01*
X58483512Y-97126073D01*
X58458742Y-97131000D01*
X58281258Y-97131000D01*
X58256488Y-97126073D01*
X58107188Y-97096376D01*
X57943216Y-97028456D01*
X57795646Y-96929853D01*
X57670147Y-96804354D01*
X57571544Y-96656784D01*
X57503624Y-96492812D01*
X57469000Y-96318741D01*
X57469000Y-96141259D01*
X57503624Y-95967188D01*
X57571544Y-95803216D01*
X57670147Y-95655646D01*
X57795646Y-95530147D01*
X57943216Y-95431544D01*
X58107188Y-95363624D01*
X58256488Y-95333927D01*
X58281258Y-95329000D01*
X58458742Y-95329000D01*
X58483512Y-95333927D01*
G37*
G36*
X76263512Y-95333927D02*
G01*
X76412812Y-95363624D01*
X76576784Y-95431544D01*
X76724354Y-95530147D01*
X76849853Y-95655646D01*
X76948456Y-95803216D01*
X77016376Y-95967188D01*
X77051000Y-96141259D01*
X77051000Y-96318741D01*
X77016376Y-96492812D01*
X76948456Y-96656784D01*
X76849853Y-96804354D01*
X76724354Y-96929853D01*
X76576784Y-97028456D01*
X76412812Y-97096376D01*
X76263512Y-97126073D01*
X76238742Y-97131000D01*
X76061258Y-97131000D01*
X76036488Y-97126073D01*
X75887188Y-97096376D01*
X75723216Y-97028456D01*
X75575646Y-96929853D01*
X75450147Y-96804354D01*
X75351544Y-96656784D01*
X75283624Y-96492812D01*
X75249000Y-96318741D01*
X75249000Y-96141259D01*
X75283624Y-95967188D01*
X75351544Y-95803216D01*
X75450147Y-95655646D01*
X75575646Y-95530147D01*
X75723216Y-95431544D01*
X75887188Y-95363624D01*
X76036488Y-95333927D01*
X76061258Y-95329000D01*
X76238742Y-95329000D01*
X76263512Y-95333927D01*
G37*
G36*
X104203512Y-95333927D02*
G01*
X104352812Y-95363624D01*
X104516784Y-95431544D01*
X104664354Y-95530147D01*
X104789853Y-95655646D01*
X104888456Y-95803216D01*
X104956376Y-95967188D01*
X104991000Y-96141259D01*
X104991000Y-96318741D01*
X104956376Y-96492812D01*
X104888456Y-96656784D01*
X104789853Y-96804354D01*
X104664354Y-96929853D01*
X104516784Y-97028456D01*
X104352812Y-97096376D01*
X104203512Y-97126073D01*
X104178742Y-97131000D01*
X104001258Y-97131000D01*
X103976488Y-97126073D01*
X103827188Y-97096376D01*
X103663216Y-97028456D01*
X103515646Y-96929853D01*
X103390147Y-96804354D01*
X103291544Y-96656784D01*
X103223624Y-96492812D01*
X103189000Y-96318741D01*
X103189000Y-96141259D01*
X103223624Y-95967188D01*
X103291544Y-95803216D01*
X103390147Y-95655646D01*
X103515646Y-95530147D01*
X103663216Y-95431544D01*
X103827188Y-95363624D01*
X103976488Y-95333927D01*
X104001258Y-95329000D01*
X104178742Y-95329000D01*
X104203512Y-95333927D01*
G37*
G36*
X101663512Y-95333927D02*
G01*
X101812812Y-95363624D01*
X101976784Y-95431544D01*
X102124354Y-95530147D01*
X102249853Y-95655646D01*
X102348456Y-95803216D01*
X102416376Y-95967188D01*
X102451000Y-96141259D01*
X102451000Y-96318741D01*
X102416376Y-96492812D01*
X102348456Y-96656784D01*
X102249853Y-96804354D01*
X102124354Y-96929853D01*
X101976784Y-97028456D01*
X101812812Y-97096376D01*
X101663512Y-97126073D01*
X101638742Y-97131000D01*
X101461258Y-97131000D01*
X101436488Y-97126073D01*
X101287188Y-97096376D01*
X101123216Y-97028456D01*
X100975646Y-96929853D01*
X100850147Y-96804354D01*
X100751544Y-96656784D01*
X100683624Y-96492812D01*
X100649000Y-96318741D01*
X100649000Y-96141259D01*
X100683624Y-95967188D01*
X100751544Y-95803216D01*
X100850147Y-95655646D01*
X100975646Y-95530147D01*
X101123216Y-95431544D01*
X101287188Y-95363624D01*
X101436488Y-95333927D01*
X101461258Y-95329000D01*
X101638742Y-95329000D01*
X101663512Y-95333927D01*
G37*
G36*
X106743512Y-95333927D02*
G01*
X106892812Y-95363624D01*
X107056784Y-95431544D01*
X107204354Y-95530147D01*
X107329853Y-95655646D01*
X107428456Y-95803216D01*
X107496376Y-95967188D01*
X107531000Y-96141259D01*
X107531000Y-96318741D01*
X107496376Y-96492812D01*
X107428456Y-96656784D01*
X107329853Y-96804354D01*
X107204354Y-96929853D01*
X107056784Y-97028456D01*
X106892812Y-97096376D01*
X106743512Y-97126073D01*
X106718742Y-97131000D01*
X106541258Y-97131000D01*
X106516488Y-97126073D01*
X106367188Y-97096376D01*
X106203216Y-97028456D01*
X106055646Y-96929853D01*
X105930147Y-96804354D01*
X105831544Y-96656784D01*
X105763624Y-96492812D01*
X105729000Y-96318741D01*
X105729000Y-96141259D01*
X105763624Y-95967188D01*
X105831544Y-95803216D01*
X105930147Y-95655646D01*
X106055646Y-95530147D01*
X106203216Y-95431544D01*
X106367188Y-95363624D01*
X106516488Y-95333927D01*
X106541258Y-95329000D01*
X106718742Y-95329000D01*
X106743512Y-95333927D01*
G37*
G36*
X91503512Y-95333927D02*
G01*
X91652812Y-95363624D01*
X91816784Y-95431544D01*
X91964354Y-95530147D01*
X92089853Y-95655646D01*
X92188456Y-95803216D01*
X92256376Y-95967188D01*
X92291000Y-96141259D01*
X92291000Y-96318741D01*
X92256376Y-96492812D01*
X92188456Y-96656784D01*
X92089853Y-96804354D01*
X91964354Y-96929853D01*
X91816784Y-97028456D01*
X91652812Y-97096376D01*
X91503512Y-97126073D01*
X91478742Y-97131000D01*
X91301258Y-97131000D01*
X91276488Y-97126073D01*
X91127188Y-97096376D01*
X90963216Y-97028456D01*
X90815646Y-96929853D01*
X90690147Y-96804354D01*
X90591544Y-96656784D01*
X90523624Y-96492812D01*
X90489000Y-96318741D01*
X90489000Y-96141259D01*
X90523624Y-95967188D01*
X90591544Y-95803216D01*
X90690147Y-95655646D01*
X90815646Y-95530147D01*
X90963216Y-95431544D01*
X91127188Y-95363624D01*
X91276488Y-95333927D01*
X91301258Y-95329000D01*
X91478742Y-95329000D01*
X91503512Y-95333927D01*
G37*
G36*
X81343512Y-95333927D02*
G01*
X81492812Y-95363624D01*
X81656784Y-95431544D01*
X81804354Y-95530147D01*
X81929853Y-95655646D01*
X82028456Y-95803216D01*
X82096376Y-95967188D01*
X82131000Y-96141259D01*
X82131000Y-96318741D01*
X82096376Y-96492812D01*
X82028456Y-96656784D01*
X81929853Y-96804354D01*
X81804354Y-96929853D01*
X81656784Y-97028456D01*
X81492812Y-97096376D01*
X81343512Y-97126073D01*
X81318742Y-97131000D01*
X81141258Y-97131000D01*
X81116488Y-97126073D01*
X80967188Y-97096376D01*
X80803216Y-97028456D01*
X80655646Y-96929853D01*
X80530147Y-96804354D01*
X80431544Y-96656784D01*
X80363624Y-96492812D01*
X80329000Y-96318741D01*
X80329000Y-96141259D01*
X80363624Y-95967188D01*
X80431544Y-95803216D01*
X80530147Y-95655646D01*
X80655646Y-95530147D01*
X80803216Y-95431544D01*
X80967188Y-95363624D01*
X81116488Y-95333927D01*
X81141258Y-95329000D01*
X81318742Y-95329000D01*
X81343512Y-95333927D01*
G37*
G36*
X94043512Y-95333927D02*
G01*
X94192812Y-95363624D01*
X94356784Y-95431544D01*
X94504354Y-95530147D01*
X94629853Y-95655646D01*
X94728456Y-95803216D01*
X94796376Y-95967188D01*
X94831000Y-96141259D01*
X94831000Y-96318741D01*
X94796376Y-96492812D01*
X94728456Y-96656784D01*
X94629853Y-96804354D01*
X94504354Y-96929853D01*
X94356784Y-97028456D01*
X94192812Y-97096376D01*
X94043512Y-97126073D01*
X94018742Y-97131000D01*
X93841258Y-97131000D01*
X93816488Y-97126073D01*
X93667188Y-97096376D01*
X93503216Y-97028456D01*
X93355646Y-96929853D01*
X93230147Y-96804354D01*
X93131544Y-96656784D01*
X93063624Y-96492812D01*
X93029000Y-96318741D01*
X93029000Y-96141259D01*
X93063624Y-95967188D01*
X93131544Y-95803216D01*
X93230147Y-95655646D01*
X93355646Y-95530147D01*
X93503216Y-95431544D01*
X93667188Y-95363624D01*
X93816488Y-95333927D01*
X93841258Y-95329000D01*
X94018742Y-95329000D01*
X94043512Y-95333927D01*
G37*
G36*
X83883512Y-95333927D02*
G01*
X84032812Y-95363624D01*
X84196784Y-95431544D01*
X84344354Y-95530147D01*
X84469853Y-95655646D01*
X84568456Y-95803216D01*
X84636376Y-95967188D01*
X84671000Y-96141259D01*
X84671000Y-96318741D01*
X84636376Y-96492812D01*
X84568456Y-96656784D01*
X84469853Y-96804354D01*
X84344354Y-96929853D01*
X84196784Y-97028456D01*
X84032812Y-97096376D01*
X83883512Y-97126073D01*
X83858742Y-97131000D01*
X83681258Y-97131000D01*
X83656488Y-97126073D01*
X83507188Y-97096376D01*
X83343216Y-97028456D01*
X83195646Y-96929853D01*
X83070147Y-96804354D01*
X82971544Y-96656784D01*
X82903624Y-96492812D01*
X82869000Y-96318741D01*
X82869000Y-96141259D01*
X82903624Y-95967188D01*
X82971544Y-95803216D01*
X83070147Y-95655646D01*
X83195646Y-95530147D01*
X83343216Y-95431544D01*
X83507188Y-95363624D01*
X83656488Y-95333927D01*
X83681258Y-95329000D01*
X83858742Y-95329000D01*
X83883512Y-95333927D01*
G37*
G36*
X96583512Y-95333927D02*
G01*
X96732812Y-95363624D01*
X96896784Y-95431544D01*
X97044354Y-95530147D01*
X97169853Y-95655646D01*
X97268456Y-95803216D01*
X97336376Y-95967188D01*
X97371000Y-96141259D01*
X97371000Y-96318741D01*
X97336376Y-96492812D01*
X97268456Y-96656784D01*
X97169853Y-96804354D01*
X97044354Y-96929853D01*
X96896784Y-97028456D01*
X96732812Y-97096376D01*
X96583512Y-97126073D01*
X96558742Y-97131000D01*
X96381258Y-97131000D01*
X96356488Y-97126073D01*
X96207188Y-97096376D01*
X96043216Y-97028456D01*
X95895646Y-96929853D01*
X95770147Y-96804354D01*
X95671544Y-96656784D01*
X95603624Y-96492812D01*
X95569000Y-96318741D01*
X95569000Y-96141259D01*
X95603624Y-95967188D01*
X95671544Y-95803216D01*
X95770147Y-95655646D01*
X95895646Y-95530147D01*
X96043216Y-95431544D01*
X96207188Y-95363624D01*
X96356488Y-95333927D01*
X96381258Y-95329000D01*
X96558742Y-95329000D01*
X96583512Y-95333927D01*
G37*
G36*
X86423512Y-95333927D02*
G01*
X86572812Y-95363624D01*
X86736784Y-95431544D01*
X86884354Y-95530147D01*
X87009853Y-95655646D01*
X87108456Y-95803216D01*
X87176376Y-95967188D01*
X87211000Y-96141259D01*
X87211000Y-96318741D01*
X87176376Y-96492812D01*
X87108456Y-96656784D01*
X87009853Y-96804354D01*
X86884354Y-96929853D01*
X86736784Y-97028456D01*
X86572812Y-97096376D01*
X86423512Y-97126073D01*
X86398742Y-97131000D01*
X86221258Y-97131000D01*
X86196488Y-97126073D01*
X86047188Y-97096376D01*
X85883216Y-97028456D01*
X85735646Y-96929853D01*
X85610147Y-96804354D01*
X85511544Y-96656784D01*
X85443624Y-96492812D01*
X85409000Y-96318741D01*
X85409000Y-96141259D01*
X85443624Y-95967188D01*
X85511544Y-95803216D01*
X85610147Y-95655646D01*
X85735646Y-95530147D01*
X85883216Y-95431544D01*
X86047188Y-95363624D01*
X86196488Y-95333927D01*
X86221258Y-95329000D01*
X86398742Y-95329000D01*
X86423512Y-95333927D01*
G37*
G36*
X99123512Y-95333927D02*
G01*
X99272812Y-95363624D01*
X99436784Y-95431544D01*
X99584354Y-95530147D01*
X99709853Y-95655646D01*
X99808456Y-95803216D01*
X99876376Y-95967188D01*
X99911000Y-96141259D01*
X99911000Y-96318741D01*
X99876376Y-96492812D01*
X99808456Y-96656784D01*
X99709853Y-96804354D01*
X99584354Y-96929853D01*
X99436784Y-97028456D01*
X99272812Y-97096376D01*
X99123512Y-97126073D01*
X99098742Y-97131000D01*
X98921258Y-97131000D01*
X98896488Y-97126073D01*
X98747188Y-97096376D01*
X98583216Y-97028456D01*
X98435646Y-96929853D01*
X98310147Y-96804354D01*
X98211544Y-96656784D01*
X98143624Y-96492812D01*
X98109000Y-96318741D01*
X98109000Y-96141259D01*
X98143624Y-95967188D01*
X98211544Y-95803216D01*
X98310147Y-95655646D01*
X98435646Y-95530147D01*
X98583216Y-95431544D01*
X98747188Y-95363624D01*
X98896488Y-95333927D01*
X98921258Y-95329000D01*
X99098742Y-95329000D01*
X99123512Y-95333927D01*
G37*
G36*
X88963512Y-95333927D02*
G01*
X89112812Y-95363624D01*
X89276784Y-95431544D01*
X89424354Y-95530147D01*
X89549853Y-95655646D01*
X89648456Y-95803216D01*
X89716376Y-95967188D01*
X89751000Y-96141259D01*
X89751000Y-96318741D01*
X89716376Y-96492812D01*
X89648456Y-96656784D01*
X89549853Y-96804354D01*
X89424354Y-96929853D01*
X89276784Y-97028456D01*
X89112812Y-97096376D01*
X88963512Y-97126073D01*
X88938742Y-97131000D01*
X88761258Y-97131000D01*
X88736488Y-97126073D01*
X88587188Y-97096376D01*
X88423216Y-97028456D01*
X88275646Y-96929853D01*
X88150147Y-96804354D01*
X88051544Y-96656784D01*
X87983624Y-96492812D01*
X87949000Y-96318741D01*
X87949000Y-96141259D01*
X87983624Y-95967188D01*
X88051544Y-95803216D01*
X88150147Y-95655646D01*
X88275646Y-95530147D01*
X88423216Y-95431544D01*
X88587188Y-95363624D01*
X88736488Y-95333927D01*
X88761258Y-95329000D01*
X88938742Y-95329000D01*
X88963512Y-95333927D01*
G37*
M02*
